<?xml version="1.0" encoding="utf-8"?>
<!-- Generator: Adobe Illustrator 22.0.0, SVG Export Plug-In . SVG Version: 6.00 Build 0)  -->
<svg version="1.1" id="图层_1" xmlns="http://www.w3.org/2000/svg" xmlns:xlink="http://www.w3.org/1999/xlink" x="0px" y="0px"
	 width="170px" height="180px" viewBox="0 0 170 180" style="enable-background:new 0 0 170 180;" xml:space="preserve">
<style type="text/css">
	.st0{clip-path:url(#SVGID_2_);}
	.st1{fill:#FACBCB;}
</style>
<g>
	<defs>
		<rect id="SVGID_1_" width="170" height="180"/>
	</defs>
	<clipPath id="SVGID_2_">
		<use xlink:href="#SVGID_1_"  style="overflow:visible;"/>
	</clipPath>
	<g class="st0">
		<g>
			<g>
				<circle class="st1" cx="136" cy="78.3" r="9.1"/>
			</g>
		</g>
		<g>
			<g>
				<path class="st1" d="M100.8,86.6c-0.5-0.1-1-0.2-1.5-0.3c-0.2-0.1-0.4-0.1-0.6-0.2c-3.9-1.1-8-0.7-11.6,0.9
					c-6.4,2-11.9,7.4-13.4,14c-1.9,7.9,1.5,15.5,7.5,19.9c-3.4,2.1-6.3,5.2-7.9,8.9c-3,0.2-6-0.1-9.1-0.8
					c-16.9-4.1-27.3-21.1-23.2-38s21.1-27.3,38-23.2C89.2,70.2,97.1,77.4,100.8,86.6z"/>
			</g>
		</g>
		<g>
			<g>
				<path class="st1" d="M164.4,81.3l-3.6,2.5c-1.4,1-3.4-0.1-3.4-1.8l0.1-5.1c0-1.8,2.1-2.7,3.4-1.6l3.4,2.6
					C165.6,78.7,165.6,80.5,164.4,81.3z"/>
			</g>
		</g>
		<g>
			<g>
				<path class="st1" d="M84.5,101.7l1-0.9c1.3-1.2,3.4-0.5,3.6,1.3l0.2,1.6c0.2,1.7-1.6,3-3.2,2.2l-1.2-0.7
					C83.7,104.5,83.5,102.7,84.5,101.7z"/>
			</g>
		</g>
		<g>
			<g>
				<path class="st1" d="M82.7,132.6l1-0.9c1.3-1.2,3.4-0.5,3.6,1.3l0.2,1.6c0.2,1.7-1.6,3-3.2,2.2l-1.2-0.7
					C81.8,135.4,81.6,133.6,82.7,132.6z"/>
			</g>
		</g>
		<g>
			<g>
				<circle class="st1" cx="72" cy="37.1" r="9.1"/>
			</g>
		</g>
		<g>
			<g>
				<path class="st1" d="M70.4,6.3l2.2,2.3c1.2,1.3,0.5,3.4-1.3,3.6l-3.7,0.5c-1.7,0.2-3-1.6-2.2-3.2L67,6.7
					C67.7,5.5,69.4,5.2,70.4,6.3z"/>
			</g>
		</g>
		<g>
			<path d="M154.3,63C141,49.4,110.1,49.1,99,49.4c0.1-7.8-0.8-25-10.2-34.1c-4.8-4.7-11-6.6-18.4-5.8c-7.4,0.8-13.1,4-16.9,9.4
				c-6.7,9.5-5.5,23.2-4.6,29c-4.4,1.7-17.6,5.2-49,2.3v7.1c42.5,3.8,53.8-3.7,55.1-4.7c1.1-0.8,1.6-2.2,1.3-3.6
				c0-0.2-3.7-16.7,3-26.1c2.6-3.7,6.5-5.8,11.9-6.4c5.3-0.6,9.4,0.7,12.7,3.8c9.7,9.4,7.9,32.2,7.9,32.4c-0.1,1,0.3,2.1,1,2.8
				c0.7,0.7,1.7,1.1,2.8,1c0.4,0,39.9-2.7,53.6,11.2c3.3,3.4,4.7,7.4,4.3,12.3c-0.4,4.2-2,7.4-4.9,9.8c-5.9,4.9-15.6,5.2-19.2,5.1
				c-0.5-0.8-1-1.5-1.6-2.2c-4.6-5.5-12.4-8.5-23.2-9c-28-1.3-34.6,9.1-35.1,18c-0.4,6,0.9,10.6,4,14.1c0.9,1,1.9,1.8,3,2.6
				c-0.9,0.5-1.8,1.1-2.6,1.8c-3.6,3-5.5,7.3-5.6,12.7c-0.1,5.9,1.8,10.7,5.6,14.1c5.3,4.8,13.1,5.6,17.5,5.6c2,0,3.3-0.2,3.5-0.2
				c1.9-0.2,3.3-2,3.1-3.9s-2-3.3-3.9-3.1c-0.1,0-10.2,1.1-15.5-3.6c-2.2-2-3.3-4.9-3.2-8.7c0.1-3.3,1.1-5.7,3.1-7.4
				c3-2.5,8-3,11.6-3c1.2,0.1,2.4,0.2,3.7,0.3c0.1,0,0.1,0,0.2,0c0.1,0,0.3,0,0.4,0c0.1,0,0.2,0,0.3,0c0.1,0,0.2-0.1,0.3-0.1
				c0.1,0,0.2-0.1,0.3-0.1c0.1,0,0.2-0.1,0.3-0.1c0.1-0.1,0.2-0.1,0.3-0.2c0.1-0.1,0.2-0.1,0.3-0.2c0.1-0.1,0.2-0.1,0.2-0.2
				c0.1-0.1,0.2-0.2,0.2-0.3c0.1-0.1,0.1-0.2,0.2-0.3c0.1-0.1,0.1-0.2,0.2-0.3c0.1-0.1,0.1-0.2,0.2-0.3c0-0.1,0.1-0.2,0.1-0.3
				c0-0.1,0.1-0.2,0.1-0.3c0-0.1,0-0.1,0-0.2c0-0.1,0-0.1,0-0.2c0-0.1,0-0.1,0-0.2c0-0.1,0-0.1,0-0.2c0-0.1,0-0.3,0-0.4
				c0-0.1,0-0.2,0-0.3c0-0.1-0.1-0.2-0.1-0.3c0-0.1-0.1-0.2-0.1-0.3c0-0.1-0.1-0.2-0.1-0.3c-0.1-0.1-0.1-0.2-0.2-0.3
				c-0.1-0.1-0.1-0.2-0.2-0.3s-0.1-0.2-0.2-0.3c-0.1-0.1-0.2-0.2-0.3-0.2c-0.1-0.1-0.2-0.1-0.3-0.2c-0.1-0.1-0.2-0.1-0.3-0.2
				c-0.1-0.1-0.2-0.1-0.3-0.2c-0.1,0-0.2-0.1-0.3-0.1c-0.1,0-0.2-0.1-0.4-0.1c-0.1,0-0.1,0-0.2,0c-0.2,0-1.7-0.3-3.9-0.3
				c-5.8-0.7-9.6-2.2-11.7-4.5c-1.8-2-2.5-4.9-2.3-9c0.5-8.4,9.8-12.2,27.7-11.4c8.6,0.4,14.9,2.6,18.1,6.5
				c2.3,2.8,3.2,6.6,2.6,11.3c-0.8,5.7-8.4,9.5-11.3,10.5c-1.2,0.4-2.1,1.4-2.3,2.6c-0.3,1.2,0.1,2.5,1,3.3c0,0,3.9,4.1,3,14.9
				c-0.4,5.1-3.4,10.3-8.2,14.2c-5.6,4.5-12.8,6.5-19.8,5.6c-13.6-1.8-18.2-6.9-22.3-11.4c-2.4-2.6-4.6-5.1-8.2-6.4
				c-11.8-4.4-37.2,3.6-56.9,11.2v7.7c20-7.9,44.8-15.8,54.5-12.2c1.9,0.7,3.5,2.4,5.4,4.5c4.4,4.8,10.4,11.5,26.6,13.6
				c8.9,1.2,18.1-1.4,25.2-7.1c6.3-5.1,10.2-12,10.8-19.1c0.6-7.9-0.8-13.2-2.4-16.5c4.4-2.3,11-7,12-14.5c0.4-2.7,0.3-5.2,0-7.5
				c5.5-0.2,14.6-1.3,21.2-6.7c4.4-3.6,6.9-8.6,7.4-14.6C161.2,73.9,159.1,67.8,154.3,63z"/>
		</g>
	</g>
</g>
</svg>
