<?xml version="1.0" encoding="utf-8"?>
<!-- Generator: Adobe Illustrator 22.0.0, SVG Export Plug-In . SVG Version: 6.00 Build 0)  -->
<svg version="1.1" id="图层_1" xmlns="http://www.w3.org/2000/svg" xmlns:xlink="http://www.w3.org/1999/xlink" x="0px" y="0px"
	 width="80px" height="80px" viewBox="0 0 80 80" style="enable-background:new 0 0 80 80;" xml:space="preserve">
<style type="text/css">
	.st0{clip-path:url(#SVGID_2_);}
	.st1{fill:#FA9898;}
</style>
<g>
	<defs>
		<rect id="SVGID_1_" width="80" height="80"/>
	</defs>
	<clipPath id="SVGID_2_">
		<use xlink:href="#SVGID_1_"  style="overflow:visible;"/>
	</clipPath>
	<g class="st0">
		<g>
			<g>
				<circle cx="42.5" cy="46.7" r="12.6"/>
			</g>
		</g>
		<g>
			<g>
				<path d="M42.5,74.5c-15.3,0-27.8-12.5-27.8-27.8s12.5-27.8,27.8-27.8s27.8,12.5,27.8,27.8S57.9,74.5,42.5,74.5z M42.5,24.5
					c-12.2,0-22.2,9.9-22.2,22.2s9.9,22.2,22.2,22.2s22.2-9.9,22.2-22.2S54.7,24.5,42.5,24.5z"/>
			</g>
		</g>
		<g>
			<g>
				<circle cx="13.9" cy="71.5" r="3"/>
			</g>
		</g>
		<g>
			<g>
				<circle cx="42.8" cy="46.7" r="6"/>
			</g>
		</g>
		<g>
			<g>
				<circle cx="45.8" cy="13.7" r="2"/>
			</g>
		</g>
		<g>
			<g>
				<circle cx="7.9" cy="63.2" r="2"/>
			</g>
		</g>
		<g>
			<g>
				<circle class="st1" cx="31.8" cy="44.7" r="7"/>
			</g>
		</g>
		<g>
			<g>
				<path class="st1" d="M56.8,39.6l-2.1-5.2c-0.2-0.6-0.8-1-1.4-1.2L47.9,32c-1.6-0.3-2.1-2.4-0.8-3.4l4.3-3.6
					c0.5-0.4,0.8-1.1,0.7-1.7l-0.5-5.5c-0.2-1.6,1.6-2.7,3-1.9l4.7,2.9c0.6,0.3,1.2,0.4,1.8,0.1l5.1-2.2c1.5-0.6,3.1,0.7,2.7,2.3
					l-1.3,5.4c-0.2,0.6,0,1.3,0.4,1.8l3.7,4.2c1.1,1.2,0.3,3.2-1.3,3.3l-5.6,0.4c-0.6,0-1.2,0.4-1.6,1l-2.8,4.8
					C59.5,41.3,57.5,41.1,56.8,39.6L56.8,39.6z M56.8,39.6"/>
			</g>
		</g>
	</g>
</g>
</svg>
