<?xml version="1.0" encoding="utf-8"?>
<!-- Generator: Adobe Illustrator 22.0.0, SVG Export Plug-In . SVG Version: 6.00 Build 0)  -->
<svg version="1.1" id="图层_1" xmlns="http://www.w3.org/2000/svg" xmlns:xlink="http://www.w3.org/1999/xlink" x="0px" y="0px"
	 width="280px" height="280px" viewBox="0 0 280 280" style="enable-background:new 0 0 280 280;" xml:space="preserve">
<style type="text/css">
	.st0{clip-path:url(#SVGID_2_);}
	.st1{fill:#FFFFFF;}
	.st2{fill:#FACBCB;}
	.st3{fill:#FA9898;}
	.st4{fill:#39B34A;}
	.st5{fill:#FAD558;}
</style>
<g>
	<g>
		<defs>
			<rect id="SVGID_1_" width="280" height="280"/>
		</defs>
		<clipPath id="SVGID_2_">
			<use xlink:href="#SVGID_1_"  style="overflow:visible;"/>
		</clipPath>
		<g class="st0">
			<g>
				<g>
					<g>
						<g>
							<g>
								<path class="st1" d="M82.7,64.3c5.2,0,10,3.3,11.8,8.2l32.8,87c2.5,6.5-0.8,13.8-7.4,16.3L28,210.4
									c-1.4,0.5-2.9,0.8-4.5,0.8c-5.9,0-11.1-4.1-12.3-9.8C-9.8,104.2,57.4,72.5,78.5,65C79.9,64.6,81.3,64.3,82.7,64.3L82.7,64.3
									z"/>
							</g>
						</g>
						<g>
							<g>
								<path d="M23.6,207.5c-4.1,0-7.8-2.8-8.7-7c-20.2-93,41.7-123.9,64.9-132.1c1-0.3,2-0.5,3-0.5c3.6,0,7,2.2,8.4,5.8l32.8,87
									c1.8,4.6-0.6,9.8-5.2,11.6l-92,34.7C25.7,207.4,24.6,207.5,23.6,207.5 M23.6,214.8c2,0,3.9-0.4,5.8-1.1l91.9-34.6
									c4.1-1.5,7.3-4.6,9.1-8.5c1.8-4,1.9-8.4,0.4-12.4L98,71.2c-2.4-6.3-8.5-10.5-15.2-10.5c-1.8,0-3.6,0.3-5.4,0.9
									C55.5,69.3-14,102.1,7.7,202.1C9.3,209.5,16,214.8,23.6,214.8L23.6,214.8z"/>
							</g>
						</g>
					</g>
				</g>
				<g>
					<g>
						<g>
							<path class="st2" d="M39.1,184.1l66.6-25.1c5-1.9,7.5-7.5,5.6-12.4L92.1,95.4c-1.9-5-7.5-7.5-12.6-5.6
								c-19.3,7.5-61.4,30.5-53.4,86.5C27,182.5,33.3,186.3,39.1,184.1z"/>
						</g>
					</g>
				</g>
			</g>
			<g>
				<g>
					<g>
						<g>
							<g>
								<path class="st1" d="M197.3,64.3c1.4,0,2.8,0.2,4.2,0.7c21.1,7.4,88.4,39.2,67.3,136.3c-1.2,5.7-6.4,9.8-12.3,9.8
									c-1.5,0-3-0.3-4.5-0.8l-91.9-34.6c-6.5-2.5-9.8-9.8-7.4-16.3l32.8-87C187.3,67.6,192.1,64.3,197.3,64.3z"/>
							</g>
						</g>
						<g>
							<g>
								<path d="M256.4,207.5c-1.1,0-2.1-0.2-3.2-0.6l-91.9-34.6c-4.6-1.8-7-6.9-5.2-11.6l32.8-87c1.4-3.6,4.8-5.8,8.4-5.8
									c1,0,2,0.2,3,0.5c23.2,8.2,85.1,39.1,64.9,132.1C264.3,204.8,260.5,207.5,256.4,207.5 M256.4,214.8L256.4,214.8
									c7.6,0,14.3-5.3,15.9-12.7c21.7-100-47.8-132.8-69.6-140.5c-1.7-0.6-3.6-0.9-5.4-0.9c-6.7,0-12.8,4.2-15.2,10.5l-32.8,87
									c-1.5,4.1-1.4,8.5,0.4,12.4c1.8,4,5,7,9.1,8.5l91.9,34.6C252.5,214.5,254.5,214.8,256.4,214.8L256.4,214.8z"/>
							</g>
						</g>
					</g>
				</g>
				<g>
					<g>
						<g>
							<path class="st2" d="M240.9,184.1L174.3,159c-5-1.9-7.5-7.5-5.6-12.4L188,95.5c1.9-5,7.5-7.5,12.6-5.6
								c19.3,7.5,61.4,30.5,53.4,86.5C253,182.5,246.7,186.3,240.9,184.1z"/>
						</g>
					</g>
				</g>
			</g>
			<g>
				<path class="st1" d="M222.3,0H57.7C35,7.4,15.4,20,11.7,41.6c-11.8,68.3,27.1,118.2,54.4,133.7c29.9,16.9,66,17.8,72.9,17.8h2.1
					c6.9,0,43-0.9,72.9-17.8c27.3-15.5,66.2-65.4,54.4-133.7C264.6,20,245,7.4,222.3,0z"/>
			</g>
			<g>
				<path d="M233.1,0H209c26.6,6.3,51.7,18.6,55.7,42.2c11.6,67-27.2,115.5-52.6,129.9c-29.2,16.5-64.7,17.3-71.1,17.3
					c-0.7,0-1,0-1,0s-0.4,0-1,0c-6.4,0-41.9-0.8-71.1-17.3C42.5,157.7,3.7,109.3,15.3,42.2C19.4,18.6,44.4,6.3,71,0H46.9
					C24.3,9.3,11.2,23.1,8.1,41c-12.1,70.1,28,121.5,56.2,137.5c30.7,17.4,67.6,18.3,74.7,18.3c0.5,0,0.8,0,1,0s0.5,0,1,0
					c7.1,0,44-0.9,74.7-18.3c28.2-15.9,68.3-67.4,56.2-137.5C268.8,23.1,255.7,9.3,233.1,0z"/>
			</g>
			<g>
				<path class="st2" d="M203,67.9c0-5.6,10.3-10.1,23-10.1s23,4.5,23,10.1S238.7,78,226,78C213.3,77.9,203,73.4,203,67.9z"/>
			</g>
			<g>
				<g>
					<path d="M190.5,128.8c0.5,0,1.1,0.2,1.5,0.6l0,0c0.3,0.3,8.1,7.4,19.2,0.7c1-0.6,2.3-0.3,2.9,0.7c0.6,1,0.3,2.3-0.7,2.9
						c-14,8.5-24.3-1.1-24.4-1.2c-0.8-0.8-0.9-2.2,0-3C189.4,129,190,128.8,190.5,128.8z"/>
				</g>
			</g>
			<g>
				<g>
					<path class="st2" d="M77,67.9c0-5.6-10.3-10.1-23-10.1s-23,4.5-23,10.1S41.3,78,54,78C66.7,77.9,77,73.4,77,67.9z"/>
				</g>
			</g>
			<g>
				<g>
					<path d="M89.5,128.8c0.6,0,1.1,0.2,1.5,0.7c0.8,0.8,0.8,2.2-0.1,3c-0.1,0.1-10.3,9.7-24.4,1.2c-1-0.6-1.3-1.9-0.7-2.9
						c0.6-1,1.9-1.3,2.9-0.7c11.2,6.8,18.9-0.3,19.2-0.7C88.4,129,89,128.8,89.5,128.8z"/>
				</g>
			</g>
			<g>
				<g>
					<g>
						<path class="st2" d="M128.6,39.1c4.5,0.7,7.5,3.6,8.9,7.1c1.3-0.4,2.7-0.8,4.3-0.8c0.3,0,0.6,0.1,0.9,0.1
							c1.7-3.9,5.3-6.9,10.8-7c-2.9-7.9-7.9-13-13.6-13c-5.7,0-10.7,5.3-13.6,13.2C127.2,38.8,127.9,38.9,128.6,39.1z"/>
					</g>
				</g>
				<g>
					<g>
						<g>
							<path d="M119.5,33.9c0.9,0,1.8,0,2.7,0.1c12.5,1,20.6,8.2,20.6,18.5v8.1c0,1.6-1.3,2.8-2.8,2.8c-1.6,0-2.8-1.3-2.8-2.8v-8.1
								c0-8.6-8-12.3-15.4-12.8c-11-0.9-23.3,4.3-24.9,14.5c-0.2,1.5-1.7,2.6-3.2,2.4c-1.5-0.2-2.6-1.7-2.4-3.2
								C93.2,40.8,106.7,33.9,119.5,33.9z"/>
						</g>
					</g>
					<g>
						<g>
							<path d="M160.5,33.9c12.8,0,26.2,6.9,28.2,19.4c0.2,1.5-0.8,3-2.4,3.2c-1.5,0.2-3-0.8-3.2-2.4c-1.6-10.2-13.9-15.4-24.9-14.5
								c-7.4,0.6-15.4,4.3-15.4,12.8v8.1c0,1.6-1.3,2.8-2.8,2.8c-1.6,0-2.8-1.3-2.8-2.8v-8.1c0-10.3,8.1-17.5,20.6-18.5
								C158.7,34,159.6,33.9,160.5,33.9z"/>
						</g>
					</g>
				</g>
				<g>
					<g>
						<path class="st3" d="M124.2,71.5c0-7,7.1-12.6,15.8-12.6s15.8,5.7,15.8,12.6c0,7-7.1,7.6-15.8,7.6S124.2,78.5,124.2,71.5z"/>
					</g>
				</g>
			</g>
			<g>
				<g>
					<path d="M96.5,214.3c-0.7,0-1.5-0.1-2.3-0.2c-8.6-1.2-14.7-9.2-13.4-17.9c1.1-7.9,7.9-13.6,15.6-13.6c0.7,0,1.5,0.1,2.3,0.2
						c8.6,1.2,14.7,9.2,13.4,17.9C111,208.6,104.2,214.3,96.5,214.3 M96.5,221.4L96.5,221.4c11.3,0,21.1-8.5,22.7-19.7
						c1.8-12.5-6.9-24.1-19.4-25.9c-1.1-0.2-2.2-0.2-3.3-0.2c-11.3,0-21.1,8.5-22.7,19.7c-1.8,12.5,6.9,24.1,19.4,25.9
						C94.3,221.3,95.4,221.4,96.5,221.4L96.5,221.4z"/>
				</g>
			</g>
			<g>
				<g>
					<path class="st4" d="M148.2,178.6c9,0,16.6,4.4,16.9,4.6c0.8,0.5,1.4,1.3,1.6,2.2c0.2,0.9,0.1,1.9-0.4,2.7
						c-0.3,0.5-7.1,11.2-18.5,14c-1.9,0.5-3.9,0.7-5.9,0.7c-9,0-16.6-4.4-16.9-4.6c-0.8-0.5-1.4-1.3-1.6-2.2s-0.1-1.9,0.4-2.7
						c0.3-0.5,7.1-11.2,18.5-14C144.1,178.9,146.1,178.6,148.2,178.6L148.2,178.6z"/>
				</g>
			</g>
			<g>
				<g>
					<path d="M141.9,199.4c-8.2,0-15.1-4.1-15.1-4.1s6.2-10,16.4-12.4c1.7-0.4,3.4-0.6,5.1-0.6c8.2,0,15.1,4.1,15.1,4.1
						s-6.2,10-16.4,12.4C145.3,199.2,143.6,199.4,141.9,199.4 M141.9,206.5c2.3,0,4.6-0.3,6.8-0.8c12.5-3,19.9-14.3,20.7-15.6
						c1-1.6,1.3-3.6,0.9-5.4c-0.5-1.9-1.6-3.5-3.3-4.4c-0.9-0.5-8.9-5.1-18.8-5.1c-2.3,0-4.6,0.3-6.8,0.8
						c-12.5,3-19.9,14.3-20.7,15.6c-1,1.6-1.3,3.6-0.9,5.4c0.5,1.9,1.6,3.5,3.3,4.4C124,201.8,132.1,206.5,141.9,206.5L141.9,206.5z
						"/>
				</g>
			</g>
			<g>
				<g>
					<path class="st4" d="M128.2,190c5,0,12.3,0.9,18.7,4.9c11.2,7.2,14.6,21.4,14.8,22c0.2,0.9,0,1.9-0.5,2.7s-1.3,1.4-2.3,1.6
						c-0.1,0-3.2,0.6-7.5,0.6c-5,0-12.3-0.9-18.7-4.9c-11.2-7.2-14.6-21.4-14.8-22c-0.2-0.9,0-1.9,0.5-2.7s1.3-1.4,2.3-1.6
						C120.8,190.6,123.9,190,128.2,190L128.2,190z"/>
				</g>
			</g>
			<g>
				<g>
					<path d="M151.4,218.3c-4.8,0-11.2-0.8-16.7-4.4c-10.2-6.5-13.2-19.9-13.2-19.9s2.8-0.6,6.8-0.6c4.8,0,11.2,0.8,16.7,4.4
						c10.2,6.5,13.2,19.9,13.2,19.9S155.4,218.3,151.4,218.3 M151.4,225.4c4.6,0,7.9-0.6,8.2-0.7c1.9-0.4,3.5-1.5,4.5-3.1
						s1.4-3.6,0.9-5.4c-0.2-0.7-3.9-16.2-16.3-24.2c-7-4.5-15.1-5.5-20.6-5.5c-4.6,0-7.9,0.6-8.2,0.7c-1.9,0.4-3.5,1.5-4.5,3.1
						s-1.4,3.6-0.9,5.4c0.2,0.7,3.9,16.2,16.3,24.2C137.8,224.5,145.9,225.4,151.4,225.4L151.4,225.4z"/>
				</g>
			</g>
			<g>
				<g>
					<path class="st2" d="M81.4,158c6.9,0,13.8,4.5,17.8,11.5c0.2-0.2,0.4-0.4,0.6-0.7c4.5-4.7,10.5-7.4,16.3-7.4
						c4.2,0,8.1,1.5,10.9,4.2c6.7,6.5,5.9,18.4-1.8,26.7c0,0,0.1,0,0.1,0.1c10.5,5.1,15.6,16.3,11.4,24.9c-2.7,5.5-8.6,8.8-15.8,8.8
						c-3.6,0-7.3-0.9-10.7-2.5c0,0.1,0,0.3,0,0.4c-1.5,10.6-9.3,18.7-18.1,18.7c-0.7,0-1.4,0-2-0.1c-9.2-1.3-15.4-11.2-14.3-22.4
						c-0.3,0.1-0.6,0.1-0.9,0.2c-1.5,0.3-3,0.4-4.5,0.4c-9.8,0-18-5.8-19.4-13.8c-0.8-4.7,0.7-9.4,4.2-13.4
						c3.4-3.8,8.2-6.4,13.7-7.3l0,0c-5.3-10.3-2.9-22.2,5.5-26.6C76.6,158.5,78.9,158,81.4,158z M100.4,197.1
						c-1-0.2-1.5-0.3-1.6-0.4c-0.9-0.2-1.7-1-2-1.9c0,0-0.1-0.3-0.2-0.9c-0.7,1.3-1.2,2-1.2,2.1c-0.5,0.8-1.4,1.3-2.3,1.3H93
						c-0.1,0-0.7,0-1.7-0.1c0.6,0.6,0.9,1.1,1,1.1c0.6,0.8,0.8,1.8,0.5,2.7c0,0-0.1,0.3-0.3,0.7c1.3-0.6,2.2-1,2.3-1
						c0.3-0.1,0.7-0.2,1-0.2c0.6,0,1.2,0.2,1.7,0.6c0.1,0,0.5,0.4,1.2,1c-0.2-1.2-0.2-2-0.2-2.1c-0.1-1,0.4-1.9,1.2-2.5
						C99.6,197.6,99.9,197.4,100.4,197.1z"/>
				</g>
			</g>
			<g>
				<g>
					<g>
						<g>
							<g>
								<path d="M204.5,82.4c0.5,0,1,0,1.4,0.1c8.6,0.6,15.2,6.6,17.1,15.6c0.4,1.7-0.7,3.4-2.4,3.8s-3.4-0.7-3.8-2.4
									c-1.3-6.2-5.6-10.2-11.4-10.6c-5.8-0.4-13.1,2.9-16.3,11.4c-0.6,1.6-2.5,2.5-4.1,1.8c-1.6-0.6-2.5-2.4-1.8-4.1
									C187.3,87.1,196.6,82.4,204.5,82.4z"/>
							</g>
							<g>
								<path d="M186.2,102.9c-0.5,0-0.9-0.1-1.4-0.3c-2-0.8-3-3-2.3-5c4.5-11.8,14.6-16,21.9-16c0.5,0,1,0,1.5,0.1
									c8.9,0.7,15.7,6.9,17.8,16.2c0.5,2.1-0.9,4.2-3,4.6c-1,0.2-2,0-2.9-0.5c-0.9-0.6-1.5-1.4-1.7-2.4
									c-1.3-5.9-5.3-9.7-10.8-10.1s-12.5,2.8-15.6,10.9C189.2,102,187.7,102.9,186.2,102.9z M204.5,83.1
									c-6.9,0-16.4,3.9-20.6,15.1c-0.5,1.3,0.2,2.7,1.4,3.2c1.3,0.5,2.7-0.2,3.2-1.4c3.3-8.8,11-12.3,17-11.9
									c6.1,0.5,10.6,4.6,12,11.2c0.1,0.6,0.5,1.2,1.1,1.5c0.6,0.4,1.2,0.5,1.8,0.3c1.3-0.3,2.2-1.6,1.9-2.9
									c-1.9-8.7-8.2-14.4-16.5-15.1C205.4,83.1,205,83.1,204.5,83.1z"/>
							</g>
						</g>
					</g>
					<g>
						<g>
							<g>
								<path d="M75.5,82.4c7.9,0,17.2,4.7,21.3,15.5c0.6,1.6-0.2,3.5-1.8,4.1c-1.6,0.6-3.5-0.2-4.1-1.8
									c-3.2-8.5-10.5-11.8-16.3-11.4c-5.8,0.4-10,4.4-11.4,10.6c-0.4,1.7-2.1,2.8-3.8,2.4S56.6,99.7,57,98c1.9-9,8.5-15,17.1-15.6
									C74.5,82.4,75,82.4,75.5,82.4z"/>
							</g>
							<g>
								<path d="M93.8,102.9c-1.6,0-3-1-3.6-2.5c-3.1-8.1-10-11.3-15.6-10.9c-5.5,0.4-9.5,4.2-10.7,10.1c-0.5,2.1-2.5,3.4-4.6,3
									c-2.1-0.5-3.4-2.5-3-4.6c2-9.3,8.8-15.5,17.8-16.2c0.5,0,1-0.1,1.5-0.1c7.3,0,17.5,4.2,21.9,16c0.8,2-0.3,4.2-2.3,5
									C94.7,102.9,94.3,102.9,93.8,102.9z M75.5,88.1c5.9,0,12.9,3.6,16,11.9c0.5,1.3,1.9,1.9,3.2,1.4c1.3-0.5,1.9-1.9,1.4-3.2
									c-4.2-11.1-13.7-15.1-20.6-15.1c-0.5,0-0.9,0-1.4,0.1c-8.3,0.6-14.6,6.4-16.5,15.1c-0.3,1.3,0.6,2.6,1.9,2.9
									c1.3,0.3,2.6-0.6,2.9-1.9c1.4-6.6,5.9-10.7,12-11.2C74.8,88.1,75.2,88.1,75.5,88.1z"/>
							</g>
						</g>
					</g>
				</g>
			</g>
			<g>
				<path class="st5" d="M96.4,179.1c0.9,0,1.8,0.1,2.8,0.2c5.1,0.7,9.6,3.4,12.8,7.5c3.1,4.1,4.4,9.2,3.7,14.4
					c-1.4,9.5-9.6,16.6-19.2,16.6c-0.9,0-1.8-0.1-2.7-0.2c-10.6-1.5-17.9-11.3-16.4-21.9C78.6,186.2,86.8,179.1,96.4,179.1z"/>
			</g>
			<g>
				<g>
					<g>
						<path d="M92.1,239.9c-0.5,0-1.1,0-1.6-0.1c-7.9-1.1-13.2-10.2-11.8-20.3c0.3-1.8,1-3.5,2-5c-1.8,1.5-3.9,2.7-6.3,3.1
							c-1.3,0.2-2.7,0.3-4,0.3c-8.4,0-15.4-4.7-16.6-11.5c-1.4-7.9,5.6-15.7,15.6-17.5c0.6-0.1,1.3-0.2,1.9-0.2
							c1.4,0,2.9,0.3,4.2,0.7c-1.7-1.2-3.1-2.6-4-4.4c-4.8-9-2.9-19.3,4.2-23.1c1.8-0.9,3.7-1.4,5.6-1.4c5.9,0,12.3,4.1,15.8,10.8
							c0.9,1.7,1.3,3.5,1.4,5.4c0.6-2.3,1.6-4.5,3.2-6.2c4.1-4.3,9.4-6.5,14.3-6.5c3.4,0,6.6,1.1,9,3.4c5.8,5.6,4.7,16-2.4,23.3
							c-1.2,1.2-2.7,2.1-4.2,2.8c2,0,3.9,0.3,5.6,1.2c9.1,4.5,13.7,13.9,10.1,21.1c-2.3,4.7-7.4,7.3-13.3,7.3
							c-3.1,0-6.5-0.7-9.7-2.3c-2-1-3.6-2.5-4.9-4.3c0.9,2.2,1.4,4.6,1,6.9C106.1,233,99.5,239.9,92.1,239.9 M110.6,195.3
							c-0.4,0-0.7,0-1.1,0c-5.4,0-10-1.2-10-1.2S98,188.9,98,183c-1.5,6.2-4.9,11.7-4.9,11.7s-5.8-0.2-11.6-2.2
							c5,3.3,8.6,7.7,8.6,7.7s-1.8,5-5.1,9.7c4.9-4.1,10.8-6.5,10.8-6.5s4.9,3.8,8.4,9c-2.5-6-2.9-12.4-2.9-12.4
							S105.3,197.1,110.6,195.3 M92.1,245.5L92.1,245.5c9.3,0,17.6-7.5,20.2-18c2.8,0.9,5.7,1.4,8.6,1.4c8.1,0,15.1-4,18.3-10.4
							c2.4-5,2.3-11-0.3-16.5c-2-4.2-5.3-7.8-9.5-10.5c6.6-9.2,6.6-21.1-0.5-27.9c-3.3-3.2-7.9-5-12.8-5c-5.8,0-11.6,2.3-16.4,6.5
							c-4.6-6.1-11.5-9.9-18.3-9.9c-2.9,0-5.7,0.7-8.2,2c-4.9,2.6-8.3,7.5-9.4,13.5c-0.8,4.4-0.3,9.2,1.3,13.7
							c-4.7,1.4-8.8,4-11.9,7.4c-4.1,4.5-5.8,10.3-4.9,15.7C50,217,59,223.6,70.4,223.6c0.8,0,1.7,0,2.5-0.1
							c0.3,11.1,7.2,20.5,16.8,21.9C90.5,245.4,91.3,245.5,92.1,245.5L92.1,245.5z"/>
					</g>
				</g>
			</g>
		</g>
	</g>
</g>
</svg>
