<?xml version="1.0" encoding="utf-8"?>
<!-- Generator: Adobe Illustrator 22.0.0, SVG Export Plug-In . SVG Version: 6.00 Build 0)  -->
<svg version="1.1" id="图层_1" xmlns="http://www.w3.org/2000/svg" xmlns:xlink="http://www.w3.org/1999/xlink" x="0px" y="0px"
	 width="57px" height="57px" viewBox="0 0 57 57" style="enable-background:new 0 0 57 57;" xml:space="preserve">
<style type="text/css">
	.st0{clip-path:url(#SVGID_2_);}
	.st1{fill:#FA9898;}
</style>
<g>
	<defs>
		<rect id="SVGID_1_" width="57" height="57"/>
	</defs>
	<clipPath id="SVGID_2_">
		<use xlink:href="#SVGID_1_"  style="overflow:visible;"/>
	</clipPath>
	<g class="st0">
		<g>
			<path class="st1" d="M28.5,44.3c-2,0-4-0.4-5.9-1.1c-8.1-3.3-12-12.5-8.8-20.6c2.4-6,8.2-9.9,14.7-9.9c2,0,4,0.4,5.9,1.1
				c8.1,3.3,12,12.5,8.8,20.6C40.8,40.4,35,44.3,28.5,44.3C28.5,44.3,28.5,44.3,28.5,44.3z"/>
		</g>
		<g>
			<g>
				<path d="M28.5,15.5c1.6,0,3.3,0.3,4.9,0.9c6.7,2.7,9.9,10.3,7.2,16.9c-2,5.1-6.9,8.1-12.1,8.1c-1.6,0-3.3-0.3-4.9-0.9
					c-6.7-2.7-9.9-10.3-7.2-16.9C18.5,18.6,23.4,15.5,28.5,15.5 M28.5,9.8c-7.7,0-14.5,4.6-17.3,11.7C7.3,31.1,12,42,21.5,45.8
					c2.2,0.9,4.6,1.4,7,1.4c7.7,0,14.5-4.6,17.3-11.7C49.7,25.9,45,15,35.5,11.2C33.2,10.3,30.9,9.8,28.5,9.8L28.5,9.8z"/>
			</g>
		</g>
	</g>
</g>
</svg>
