<?xml version="1.0" encoding="utf-8"?>
<!-- Generator: Adobe Illustrator 22.0.0, SVG Export Plug-In . SVG Version: 6.00 Build 0)  -->
<svg version="1.1" id="图层_1" xmlns="http://www.w3.org/2000/svg" xmlns:xlink="http://www.w3.org/1999/xlink" x="0px" y="0px"
	 width="160px" height="290px" viewBox="0 0 160 290" style="enable-background:new 0 0 160 290;" xml:space="preserve">
<style type="text/css">
	.st0{clip-path:url(#SVGID_2_);}
	.st1{fill:#FACBCB;}
	.st2{fill:#FA9898;}
</style>
<g>
	<defs>
		<rect id="SVGID_1_" width="160" height="290"/>
	</defs>
	<clipPath id="SVGID_2_">
		<use xlink:href="#SVGID_1_"  style="overflow:visible;"/>
	</clipPath>
	<g class="st0">
		<g>
			<path class="st1" d="M55.6,191.3c0.6,0.1,1.2,0.1,1.8,0.1c3.6,0,6.9-0.9,9.8-2.4c3.5,3.4,8.1,5.8,12.9,6.3c0.2,0,0.5,0.1,0.7,0.1
				c-6.4,3.7-10.6,10.8-11,18.6c-0.3,5.8,2.3,11.2,6.4,15.1c-2.9,1.4-6.1,2.2-9.6,2.2c-11.9,0-21.6-9.7-21.6-21.6
				C45.1,202,49.3,195.1,55.6,191.3z"/>
		</g>
		<g>
			<path class="st1" d="M104.7,145.1l5.4,4.8c1.3,1.2,0.7,3.3-1,3.7l-8.3,1.8c-1.7,0.4-3.1-1.4-2.4-3l2.9-6.6
				C101.9,144.5,103.6,144.1,104.7,145.1z"/>
		</g>
		<g>
			<path class="st2" d="M59.6,215.7l5.3-4.9c1.3-1.2,3.4-0.4,3.6,1.4l0.9,8.5c0.2,1.7-1.7,3-3.2,2.1l-6.2-3.6
				C58.8,218.4,58.6,216.6,59.6,215.7z"/>
		</g>
		<g>
			<path d="M79.1,199.9c-0.6,0-1.2-0.1-1.7-0.5c-14.8-8.4-18.8-17.5-19.5-23.6c-0.8-7,2.1-13.9,8.1-19.4c12.2-11.2,29.3,1.8,30,2.4
				c1.5,1.2,1.8,3.4,0.6,5c-1.2,1.5-3.4,1.8-5,0.6c-0.2-0.2-13.1-9.9-20.9-2.7c-4.3,4-6.4,8.7-5.9,13.4c0.7,6.4,6.2,12.8,15.9,18.2
				c1.7,1,2.3,3.1,1.3,4.8C81.5,199.2,80.3,199.9,79.1,199.9z"/>
		</g>
		<g>
			<path d="M57.4,194.7c-7.4,0-16-5.9-17.9-22.6c-1.1-9,1.8-14.4,4.5-17.3c3.5-3.9,8.7-6.1,14.3-6.1c9.6,0,13.9,7.4,14.1,7.7
				c1,1.7,0.4,3.9-1.3,4.8c-1.7,1-3.8,0.4-4.8-1.3c-0.1-0.2-2.6-4.2-8-4.2c-1.7,0-6,0.4-9,3.7c-2.4,2.7-3.3,6.7-2.7,11.8
				c1.4,12.1,6.6,16.4,10.9,16.4c5,0,6.4-2.2,6.5-2.3c0,0.1-0.1,0.1-0.1,0.1l6.4,3C69.9,189.1,67,194.7,57.4,194.7z"/>
		</g>
		<g>
			<ellipse class="st1" cx="104" cy="175.7" rx="7.2" ry="9.1"/>
		</g>
		<g>
			<g>
				<path class="st2" d="M99.9,131.6c-0.6,0-1.2-0.2-1.7-0.6c-2.3-1.8-4.8-1.8-7.9-1.9c-2.7-0.1-5.8-0.2-9.2-1.5
					c-2-0.8-4.3-1.9-5.7-4c-2.4-3.6-2.3-7.7,0.5-11.6c1.5-2.1,5.3-4.4,8.9-4.4c0.4,0,0.8,0,1.1,0.1c0.9,0.1,1.8,0.4,2.6,0.6
					c0.2-0.8,0.4-1.7,0.8-2.5c1.5-3.4,5.9-6.1,8.9-6.3c0.4,0,0.7,0,1,0c4.3,0,7.5,1.9,9.1,5.6c1,2.3,0.8,4.8,0.4,6.9
					c-0.6,3.6-2.2,6.3-3.6,8.6c-1.6,2.7-2.8,4.8-2.5,7.7c0.1,1.1-0.5,2.2-1.4,2.8C100.8,131.5,100.4,131.6,99.9,131.6z"/>
			</g>
			<g>
				<path d="M99.3,102.4c4.4,0,5.9,2.5,6.5,4c0.7,1.6,0.5,3.5,0.2,5.3c-1.3,7-6.8,10.4-6.1,17.1c-5.4-4.1-11-1.2-17.7-3.8
					c-1.7-0.7-3.4-1.5-4.4-2.9c-0.9-1.4-2.4-4.3,0.5-8.3c1-1.4,4-3.2,6.6-3.2c0.2,0,0.5,0,0.7,0c2,0.3,3.8,1.1,5.4,2.2
					c0-1.9,0.2-3.9,1-5.7c1.1-2.5,4.6-4.4,6.5-4.6C98.7,102.4,99,102.4,99.3,102.4 M99.3,96.8c-0.4,0-0.8,0-1.2,0
					c-3.9,0.3-9.3,3.4-11.3,8c0,0.1-0.1,0.2-0.1,0.3c-0.1,0-0.2,0-0.3,0c-0.5-0.1-1-0.1-1.5-0.1c-4.7,0-9.3,2.9-11.2,5.6
					c-3.5,4.9-3.7,10.3-0.6,14.8c1.9,2.8,4.7,4.1,7,5c3.8,1.5,7.3,1.6,10.1,1.7c3.1,0.1,4.7,0.2,6.2,1.4c1,0.8,2.2,1.2,3.4,1.2
					c0.9,0,1.9-0.2,2.8-0.7c2-1.1,3.1-3.3,2.9-5.5c-0.2-1.9,0.6-3.3,2.1-6c1.4-2.4,3.2-5.5,3.9-9.5c0.4-2.4,0.8-5.5-0.6-8.6
					C108.9,99.4,104.7,96.8,99.3,96.8L99.3,96.8z"/>
			</g>
		</g>
		<g>
			<g>
				<path class="st2" d="M90.1,34.2c-0.6,0-1.2-0.2-1.7-0.6c-0.9-0.7-1.9-0.8-3.7-0.8c-1.5,0-3.5-0.1-5.5-0.9
					c-1.2-0.5-2.8-1.2-3.8-2.7c-1.7-2.4-1.5-5.3,0.3-7.9c1-1.4,3.5-3,6-3c0.3,0,0.5,0,0.8,0.1c0.1,0,0.3,0,0.4,0.1
					c0-0.1,0.1-0.3,0.2-0.4c1.1-2.4,4-4.1,6-4.3c0.2,0,0.4,0,0.7,0c2.9,0,5.1,1.4,6.2,3.9c0.7,1.6,0.5,3.3,0.3,4.6
					c-0.4,2.2-1.4,3.9-2.2,5.2c-0.9,1.5-1.4,2.4-1.2,3.6c0.1,1.1-0.5,2.2-1.4,2.8C91,34.1,90.5,34.2,90.1,34.2z"/>
			</g>
			<g>
				<path d="M89.7,16.6c2.4,0,3.3,1.4,3.6,2.2c0.4,0.9,0.3,1.9,0.1,2.9c-0.7,3.9-3.8,5.8-3.4,9.6c-3-2.3-6.2-0.7-9.9-2.1
					c-1-0.4-1.9-0.8-2.5-1.6c-0.5-0.8-1.3-2.4,0.3-4.7c0.6-0.8,2.2-1.8,3.7-1.8c0.1,0,0.3,0,0.4,0c1.1,0.2,2.1,0.6,3,1.2
					c0-1.1,0.1-2.2,0.6-3.2c0.6-1.4,2.5-2.5,3.6-2.6C89.4,16.7,89.6,16.6,89.7,16.6 M89.7,11c-0.3,0-0.6,0-0.8,0
					c-2.5,0.2-5.8,1.8-7.7,4.5c-3,0.2-6.2,1.9-7.9,4.2c-2.5,3.6-2.7,7.7-0.3,11.1c1.5,2.1,3.6,3.1,5.1,3.7c2.5,1,4.8,1.1,6.5,1.1
					c1.3,0,1.8,0.1,2,0.2c1,0.8,2.2,1.2,3.4,1.2c0.9,0,1.9-0.2,2.8-0.7c2-1.1,3.1-3.3,2.9-5.5c0-0.3,0.3-0.9,0.9-1.9
					c0.8-1.5,2-3.4,2.5-6.1c0.3-1.6,0.5-3.9-0.5-6.3C97,13,93.8,11,89.7,11L89.7,11z"/>
			</g>
		</g>
		<g>
			<g>
				<path class="st2" d="M125.5,90.6c-1.1,0-2.1-0.7-2.6-1.7c-1.8-4.3-5-6.3-9-8.8c-3.3-2-7-4.3-10.1-8.3c-1.8-2.3-3.8-5.1-4-8.5
					c-0.4-5.8,2.5-10.3,8.4-12.9c1.4-0.6,3.3-1,5.4-1c3.6,0,6.8,1,9,2.7c1.4,1.1,2.6,2.4,3.6,3.7c1-1.3,2.2-2.5,3.7-3.6
					c2.9-2.1,6.6-2.4,8.5-2.4c2.3,0,4.4,0.4,5.9,1.2c5.8,2.9,8.6,7.4,8,13.2c-0.4,3.3-2.4,6.1-4.3,8.3c-3.3,3.9-7.1,6-10.5,8
					c-4,2.3-7.5,4.3-9.4,8.5C127.6,90,126.6,90.6,125.5,90.6C125.5,90.6,125.5,90.6,125.5,90.6z"/>
			</g>
			<g>
				<path d="M113.5,52.2c2.5,0,5.4,0.6,7.3,2.1c2.3,1.8,3.9,4.2,5.3,6.7c1.4-2.4,3.1-4.8,5.5-6.5c1.8-1.3,4.4-1.9,6.8-1.9
					c1.9,0,3.6,0.3,4.7,0.9c6.5,3.2,6.7,7.9,6.4,10.3c-0.3,2.5-1.9,4.8-3.6,6.8c-6.8,7.9-16.2,8.1-20.3,17.2
					c-3.8-9.2-13.1-9.6-19.6-17.8c-1.7-2.1-3.2-4.4-3.4-6.9c-0.2-2.4,0.1-7.1,6.7-10.2C110.3,52.5,111.8,52.2,113.5,52.2
					 M113.5,46.6L113.5,46.6c-1.8,0-4.3,0.2-6.6,1.2c-7,3.2-10.5,8.8-10,15.7c0.3,4.1,2.5,7.4,4.6,10c3.5,4.3,7.4,6.8,10.9,8.9
					c4.1,2.6,6.5,4.2,7.9,7.5c0.9,2.1,2.9,3.5,5.1,3.5c0,0,0.1,0,0.1,0c2.2,0,4.2-1.3,5.2-3.3c1.5-3.2,3.9-4.8,8.2-7.2
					c3.6-2.1,7.7-4.4,11.3-8.6c2.2-2.6,4.5-5.8,4.9-9.9c0.7-7-2.7-12.6-9.5-16c-1.9-0.9-4.5-1.4-7.2-1.4c-2.3,0-6.7,0.4-10.2,3
					c-0.7,0.5-1.3,1.1-1.9,1.6c-0.6-0.6-1.2-1.1-1.9-1.7C120.6,47,115.9,46.6,113.5,46.6L113.5,46.6z"/>
			</g>
		</g>
		<path d="M50.6,186.1c-1.4-1.4-3.6-1.4-5,0c-8.9,8.9-13.6,25.3-16.6,36.1c-0.9,3.2-1.9,6.7-2.3,7.5C24.8,232.1,19.6,239,0,240v7.1
			c20.7-1,28.3-7.9,32.3-13.2c1.1-1.5,1.9-4.1,3.5-9.8c2.7-9.5,7.2-25.4,14.8-33C52,189.8,52,187.5,50.6,186.1z"/>
		<path d="M132.4,163.4c-6.1-7.5-14.2-12-21.3-11.7c-8.1,0.3-18.5,3.6-23.2,12c-3.8,6.8-3.3,15.4,1.5,25.6
			c-8.6,1.2-19.6,5.8-21.5,17.9c-1.7,10.9,0.5,20,6.2,25.6c5.6,5.4,13.9,7.2,24.7,5.2c1.9-0.4,3.2-2.2,2.8-4.1
			c-0.4-1.9-2.2-3.2-4.1-2.8c-8.4,1.6-14.6,0.4-18.4-3.3c-4-3.9-5.5-10.8-4.1-19.4c2-12.8,19.4-12.3,20.1-12.3
			c1.3,0,2.5-0.6,3.2-1.7s0.7-2.5,0-3.6c-5.7-9.9-7.1-18.1-4.1-23.6c3.3-5.9,11.3-8.2,17.2-8.4c3.6-0.1,9.9,2.2,15.6,9.1
			c6.3,7.8,15.6,26.3,6.7,63.2c-6.5,27-18.7,46.8-36.2,59h11.5c15-13.2,25.6-32.4,31.6-57.3C150.1,192.8,139.5,172.1,132.4,163.4z"
			/>
	</g>
</g>
</svg>
