<?xml version="1.0" encoding="utf-8"?>
<!-- Generator: Adobe Illustrator 22.0.0, SVG Export Plug-In . SVG Version: 6.00 Build 0)  -->
<svg version="1.1" id="图层_1" xmlns="http://www.w3.org/2000/svg" xmlns:xlink="http://www.w3.org/1999/xlink" x="0px" y="0px"
	 width="210px" height="210px" viewBox="0 0 210 210" style="enable-background:new 0 0 210 210;" xml:space="preserve">
<style type="text/css">
	.st0{clip-path:url(#SVGID_2_);}
	.st1{fill:#FFF4EC;}
	.st2{fill:#FAD558;}
	.st3{fill:#FA9898;}
	.st4{fill:#FFFFFF;}
</style>
<g>
	<defs>
		<rect id="SVGID_1_" width="210" height="210"/>
	</defs>
	<clipPath id="SVGID_2_">
		<use xlink:href="#SVGID_1_"  style="overflow:visible;"/>
	</clipPath>
	<g class="st0">
		<g>
			<g>
				<g>
					<g>
						<path class="st1" d="M84.3,95.3c0.5,0.5,0.7,1.1,0.7,1.8c0,0.7-0.3,1.3-0.8,1.8l-59.8,58.7c-0.5,0.5-1.3,0.8-2,0.7
							c-0.6-0.1-1.1-0.3-1.6-0.7c-0.1-0.1-0.2-0.2-0.3-0.3c-32.2-46,26.8-95.1,27.4-95.6c1-0.8,2.5-0.8,3.4,0.2
							C51.5,61.8,84.3,95.3,84.3,95.3z"/>
					</g>
				</g>
				<g>
					<g>
						<path d="M22.7,155.8c-31.2-44.6,27-92.2,27-92.2l32.9,33.5L22.7,155.8 M19.1,159.4c0.8,0.8,1.9,1.4,3.1,1.5
							c1.5,0.1,2.9-0.4,4-1.4l59.8-58.7c1-0.9,1.5-2.2,1.5-3.6c0-1.3-0.5-2.6-1.4-3.6L53.3,60c0,0,0,0,0,0c-1.8-1.8-4.8-2-6.8-0.3
							c-0.6,0.5-15.4,12.7-26.3,30.7C5.1,115,4.5,138.7,18.5,158.7C18.7,158.9,18.9,159.1,19.1,159.4L19.1,159.4z"/>
					</g>
				</g>
			</g>
			<g>
				<g>
					<g>
						<path class="st2" d="M84,95.7c0.4,0.4,0.6,0.9,0.6,1.4c0,0.5-0.2,1.1-0.6,1.4L24,157.3c-0.4,0.4-1,0.6-1.7,0.6
							c-0.5-0.1-0.9-0.3-1.2-0.6c-0.1-0.1-0.2-0.2-0.3-0.4C3.5,129.2,58.4,77,60.7,74.8c0.8-0.8,2-0.7,2.8,0
							C63.6,74.9,84,95.7,84,95.7z"/>
					</g>
				</g>
				<g>
					<g>
						<path d="M22.6,155.9C5.9,129.2,62.1,76.3,62.1,76.3l20.4,20.8L22.6,155.9 M19.7,158.7c0.6,0.6,1.5,1.1,2.4,1.2
							c1.2,0.1,2.4-0.3,3.3-1.1L85.4,100c0.8-0.8,1.2-1.8,1.2-2.9c0-1.1-0.4-2.1-1.2-2.9L65,73.5c0,0,0,0,0,0
							c-1.5-1.5-4-1.6-5.6-0.1c-0.6,0.6-14.5,13.7-26.6,30.4c-17,23.5-21.6,41.7-13.6,54.3C19.3,158.3,19.5,158.5,19.7,158.7
							L19.7,158.7z"/>
					</g>
				</g>
			</g>
		</g>
		<g>
			<g>
				<g>
					<g>
						<path class="st1" d="M146.6,157c0.9,0.9,1,2.4,0.2,3.4c-0.5,0.6-49.6,59.7-95.6,27.4c-0.1-0.1-0.2-0.2-0.3-0.3
							c-0.4-0.4-0.7-1-0.7-1.6c-0.1-0.7,0.2-1.5,0.7-2l58.7-59.8c0.5-0.5,1.1-0.8,1.8-0.8c0.7,0,1.3,0.3,1.8,0.7
							C113.1,124.1,146.6,157,146.6,157z"/>
					</g>
				</g>
				<g>
					<g>
						<path d="M52.6,185.7l58.7-59.8l33.5,32.9C144.8,158.8,97.2,217,52.6,185.7 M49.1,189.3c0.2,0.2,0.4,0.4,0.7,0.6
							c20,14,43.6,13.5,68.4-1.6c18-11,30.2-25.7,30.7-26.3c1.6-2,1.5-5-0.3-6.8c0,0,0,0,0,0l-33.5-32.9c-1-0.9-2.3-1.5-3.6-1.4
							c-1.3,0-2.6,0.6-3.6,1.5L49,182.2c-1,1.1-1.6,2.5-1.4,4C47.7,187.4,48.2,188.5,49.1,189.3L49.1,189.3z"/>
					</g>
				</g>
			</g>
			<g>
				<g>
					<g>
						<path class="st2" d="M133.6,144.8c0.8,0.8,0.8,2,0,2.8c-2.2,2.3-54.4,57.3-82.1,39.9c-0.1-0.1-0.2-0.2-0.4-0.3
							c-0.3-0.3-0.5-0.7-0.6-1.2c-0.1-0.6,0.1-1.2,0.6-1.7l58.8-59.9c0.4-0.4,0.9-0.6,1.4-0.6c0.5,0,1.1,0.2,1.4,0.6
							C112.8,124.4,133.6,144.8,133.6,144.8z"/>
					</g>
				</g>
				<g>
					<g>
						<g>
							<path d="M52.6,185.8l58.8-59.9l20.8,20.4C132.1,146.3,79.2,202.6,52.6,185.8 M49.7,188.7c0.2,0.2,0.4,0.4,0.7,0.6
								c12.6,7.9,30.8,3.3,54.3-13.6c16.7-12.1,29.8-26,30.4-26.6c1.5-1.6,1.5-4.1-0.1-5.6c0,0,0,0,0,0L114.2,123
								c-0.8-0.8-1.8-1.2-2.9-1.2c-1.1,0-2.1,0.4-2.9,1.2L49.7,183c-0.9,0.9-1.3,2.1-1.1,3.3C48.6,187.2,49,188.1,49.7,188.7
								L49.7,188.7z"/>
						</g>
					</g>
				</g>
			</g>
		</g>
		<path class="st1" d="M210,41.8c-5.2-8.6-11.6-16.7-19.1-24.3c-6.8-6.8-14.1-12.6-21.7-17.5H70.9c-1.6,1.3-3.1,2.8-4.6,4.3
			C31.9,38.7,33.9,101,70.6,137.8c36.7,36.7,99.1,38.8,133.5,4.4c2.1-2.1,4-4.3,5.8-6.6V41.8z"/>
		<path class="st2" d="M74.9,0c-2.4,1.8-4.7,3.9-6.9,6.1c-28.6,28.6-32.2,79.5-6.8,116.5l0,0c10.1-4.3,19.6-10.5,27.9-18.8
			c0.8-0.8,1.7-1.7,2.4-2.6c-6-6.1-6-15.9,0.1-22c4.4-4.4,10.9-5.6,16.4-3.6c10.1-24.3,8.8-52.2-4-75.6H74.9z"/>
		<path class="st2" d="M210,105.2c-33.4-19.2-76.8-14.5-105.4,14c-8.3,8.3-14.5,17.8-18.8,27.9c37,25.4,87.9,21.8,116.5-6.7
			c2.9-2.9,5.4-5.9,7.6-9V105.2z"/>
		<polygon class="st1" points="210,0 140.2,0 210,67.3 		"/>
		<g>
			<g>
				<path class="st3" d="M182.8,91c5-5,13-5,17.9,0c5,5,5,13,0,17.9c-5,5-13,5-17.9,0C177.8,104,177.8,96,182.8,91z"/>
			</g>
		</g>
		<g>
			<g>
				<path class="st3" d="M99.4,7.7c5-5,13-5,17.9,0c5,5,5,13,0,17.9c-5,5-13,5-17.9,0C94.5,20.7,94.5,12.7,99.4,7.7z"/>
			</g>
		</g>
		<g>
			<g>
				<line class="st4" x1="141" y1="146.4" x2="137.6" y2="114.3"/>
			</g>
			<g>
				<path d="M140.5,111.4c0.6,0.6,1.1,1.5,1.2,2.4l3.4,32.1c0.2,2.2-1.4,4.2-3.6,4.5c-2.2,0.2-4.2-1.4-4.5-3.6l-3.4-32.1
					c-0.2-2.2,1.4-4.2,3.6-4.5C138.5,110.1,139.7,110.6,140.5,111.4z"/>
			</g>
		</g>
		<g>
			<g>
				<line class="st4" x1="62.1" y1="67.4" x2="94.1" y2="70.8"/>
			</g>
			<g>
				<path d="M97,67.9c0.8,0.8,1.3,2,1.2,3.3c-0.2,2.2-2.2,3.8-4.5,3.6l-32.1-3.4c-2.2-0.2-3.8-2.2-3.6-4.5c0.2-2.2,2.2-3.8,4.5-3.6
					l32.1,3.4C95.5,66.9,96.4,67.3,97,67.9z"/>
			</g>
		</g>
		<g>
			<g>
				<g>
					<path d="M128.3,57.4c4.8-4.8,13.8-3.7,20.1,2.6c6.3,6.3,7.4,15.3,2.6,20.1c-4.8,4.8-13.8,3.7-20.1-2.6
						C124.7,71.2,123.5,62.2,128.3,57.4z"/>
				</g>
			</g>
			<g>
				<g>
					<path d="M184.1,47.2c2.8,2.8,4.7,6.6,5.3,10.8c1.1,7.7-2.5,15-9.8,20c-0.9,0.6-2.2,0.4-2.8-0.5c-0.6-0.9-0.4-2.2,0.5-2.8
						c6-4.1,8.9-10,8.1-16.1c-0.8-5.4-4.4-10-9.2-11.6c-5.7-1.9-12.2,0.4-18.3,6.4l-8.1,8.1c-0.8,0.8-2.1,0.8-2.9,0
						c-0.8-0.8-0.8-2.1,0-2.9l8.1-8.1c9.7-9.7,18.2-8.8,22.4-7.4C180,43.9,182.3,45.4,184.1,47.2z"/>
				</g>
			</g>
			<g>
				<g>
					<path d="M161.2,24.3c1.9,1.9,3.3,4.1,4.2,6.6c1.4,4.2,2.3,12.7-7.4,22.4l-8.1,8.1c-0.8,0.8-2.1,0.8-2.9,0
						c-0.8-0.8-0.8-2.1,0-2.9l8.1-8.1c6.1-6.1,8.3-12.5,6.4-18.3c-1.6-4.9-6.2-8.5-11.6-9.2c-6.1-0.9-12,2.1-16.1,8.1
						c-0.6,0.9-1.9,1.2-2.8,0.5c-0.9-0.6-1.2-1.9-0.5-2.8c5-7.3,12.3-10.9,20-9.8C154.6,19.5,158.4,21.5,161.2,24.3z"/>
				</g>
			</g>
		</g>
		<g>
			<g>
				<path d="M162.8,111.6l17.6,17.6c0.8,0.8,0.8,2.1,0,2.9c-0.8,0.8-2.1,0.8-2.9,0l-12.4-12.4l3.8,15.3c0.3,1.1-0.4,2.2-1.5,2.5
					c-1.1,0.3-2.2-0.4-2.5-1.5l-5.5-22.3c-0.2-0.9,0.2-1.8,1-2.3C161.2,110.8,162.2,110.9,162.8,111.6z"/>
			</g>
		</g>
		<g>
			<g>
				<path d="M79.3,28.1L79.3,28.1l17.6,17.6c0.6,0.6,0.8,1.6,0.3,2.4c-0.4,0.8-1.4,1.2-2.3,1l-22.3-5.5c-1.1-0.3-1.7-1.4-1.5-2.5
					c0.3-1.1,1.4-1.7,2.5-1.5l15.3,3.8L76.4,30.9c-0.8-0.8-0.8-2.1,0-2.9C77.2,27.3,78.5,27.3,79.3,28.1z"/>
			</g>
		</g>
		<g>
			<path d="M210,131.3c-2.2,3.2-4.8,6.2-7.6,9c-32.2,32.2-92.8,32.7-129.9-4.4C35.3,98.9,35.8,38.3,68,6.1c2.2-2.2,4.5-4.2,6.9-6.1
				h-7.9c-0.9,0.8-1.8,1.6-2.6,2.5c-16.6,16.6-25.8,41-25.3,66.8C39.7,96,50.3,121,68.9,139.6c18.6,18.6,43.5,29.1,70.3,29.7
				c25.9,0.5,50.2-8.7,66.8-25.3c1.4-1.4,2.8-2.9,4.1-4.4V131.3z"/>
		</g>
	</g>
</g>
</svg>
