<?xml version="1.0" encoding="utf-8"?>
<!-- Generator: Adobe Illustrator 22.0.0, SVG Export Plug-In . SVG Version: 6.00 Build 0)  -->
<svg version="1.1" id="图层_1" xmlns="http://www.w3.org/2000/svg" xmlns:xlink="http://www.w3.org/1999/xlink" x="0px" y="0px"
	 width="170px" height="180px" viewBox="0 0 170 180" style="enable-background:new 0 0 170 180;" xml:space="preserve">
<style type="text/css">
	.st0{clip-path:url(#SVGID_2_);}
	.st1{fill:#FACBCB;}
	.st2{fill:#FAD558;}
</style>
<g>
	<defs>
		<rect id="SVGID_1_" width="170" height="180"/>
	</defs>
	<clipPath id="SVGID_2_">
		<use xlink:href="#SVGID_1_"  style="overflow:visible;"/>
	</clipPath>
	<g class="st0">
		<g>
			<g>
				<circle class="st1" cx="34" cy="78.1" r="9.1"/>
			</g>
		</g>
		<g>
			<g>
				<circle class="st1" cx="98" cy="37.1" r="9.1"/>
			</g>
		</g>
		<g>
			<g>
				<path class="st1" d="M69.1,86.5c0.5-0.1,1-0.2,1.5-0.3c0.2-0.1,0.4-0.1,0.6-0.2c3.9-1.1,8-0.7,11.6,0.9c6.4,2,11.8,7.5,13.4,14
					c1.9,7.9-1.5,15.4-7.6,19.9c3.4,2.1,6.3,5.3,7.9,8.9c3,0.2,6-0.1,9.1-0.8c16.9-4,27.4-21,23.4-37.9s-21-27.4-37.9-23.4
					C80.7,70.1,72.8,77.4,69.1,86.5z"/>
			</g>
		</g>
		<g>
			<g>
				<path class="st1" d="M5.6,81l3.5,2.5c1.4,1,3.4-0.1,3.4-1.8l-0.1-5.1c0-1.8-2.1-2.7-3.4-1.7l-3.4,2.6C4.3,78.4,4.4,80.2,5.6,81z
					"/>
			</g>
		</g>
		<g>
			<g>
				<path class="st1" d="M99.8,6.3l-2.2,2.3c-1.2,1.3-0.5,3.4,1.3,3.6l3.7,0.5c1.7,0.2,3-1.6,2.2-3.1l-1.5-2.8
					C102.5,5.5,100.8,5.3,99.8,6.3z"/>
			</g>
		</g>
		<g>
			<g>
				<path class="st1" d="M85.3,101.7l-1-0.9c-1.3-1.2-3.4-0.5-3.6,1.3l-0.2,1.6c-0.2,1.7,1.6,3,3.1,2.2l1.2-0.7
					C86.2,104.5,86.4,102.7,85.3,101.7z"/>
			</g>
		</g>
		<g>
			<g>
				<path class="st1" d="M87.1,132.6l-1-0.9c-1.3-1.2-3.4-0.5-3.6,1.3l-0.2,1.6c-0.2,1.7,1.6,3,3.1,2.2l1.2-0.7
					C87.9,135.4,88.2,133.6,87.1,132.6z"/>
			</g>
		</g>
		<path class="st2" d="M170,54.2c-1.9,0.2-3.4,0.3-4.5,0.3c-19.9,1.2-34.9-0.5-34.9-0.5s-6.6,25,25.7,43.8c4.5,2.6,9.1,4.7,13.7,6.5
			V54.2z"/>
		<path d="M170,153.6c-19.8-7.8-45.3-15.9-57.2-11.5c-3.5,1.3-5.8,3.8-8.2,6.4c-4.1,4.5-8.7,9.5-22.3,11.3c-7,0.9-14.2-1.1-19.8-5.6
			c-4.8-3.9-7.7-9-8.1-14.2c-0.8-10.8,3-14.8,3-14.8c0.9-0.8,1.3-2.1,1.1-3.3c-0.3-1.2-1.1-2.2-2.3-2.6c-0.1,0-10.4-3.8-11.3-10.6
			c-0.6-4.7,0.3-8.5,2.6-11.3c3.2-3.8,9.5-6.1,18.1-6.4c17.9-0.8,27.2,3.1,27.7,11.5c0.2,4-0.5,7-2.3,9c-2.1,2.4-6,3.8-11.7,4.5
			c-2.2,0.1-3.7,0.3-3.9,0.3c-0.1,0-0.1,0-0.2,0c-0.1,0-0.2,0.1-0.4,0.1c-0.1,0-0.2,0.1-0.3,0.1c-0.1,0-0.2,0.1-0.3,0.2
			c-0.1,0.1-0.2,0.1-0.3,0.2c-0.1,0.1-0.2,0.1-0.3,0.2c-0.1,0.1-0.2,0.1-0.3,0.2c-0.1,0.1-0.2,0.2-0.2,0.3c-0.1,0.1-0.1,0.2-0.2,0.3
			c-0.1,0.1-0.1,0.2-0.2,0.3c-0.1,0.1-0.1,0.2-0.1,0.3c0,0.1-0.1,0.2-0.1,0.3c0,0.1-0.1,0.2-0.1,0.3c0,0.1,0,0.2,0,0.3
			c0,0.1,0,0.2,0,0.4c0,0.1,0,0.1,0,0.2c0,0.1,0,0.1,0,0.2c0,0.1,0,0.1,0,0.2s0,0.1,0,0.2c0,0.1,0.1,0.2,0.1,0.3s0.1,0.2,0.1,0.3
			c0,0.1,0.1,0.2,0.1,0.3c0.1,0.1,0.1,0.2,0.2,0.3c0.1,0.1,0.1,0.1,0.2,0.2c0.1,0.1,0.2,0.2,0.3,0.3c0.1,0.1,0.1,0.1,0.2,0.2
			c0.1,0.1,0.2,0.2,0.3,0.2c0.1,0,0.2,0.1,0.2,0.1c0.1,0.1,0.2,0.1,0.4,0.2c0.1,0,0.2,0.1,0.3,0.1c0.1,0,0.2,0.1,0.4,0.1
			c0.1,0,0.2,0,0.3,0c0.1,0,0.3,0,0.4,0c0.1,0,0.1,0,0.2,0c1.3-0.1,2.5-0.2,3.6-0.3c3.3-0.1,8.4,0.3,11.6,3c2,1.7,3,4.1,3,7.4
			c0.1,3.8-1,6.7-3.3,8.7c-5.3,4.7-15.3,3.6-15.5,3.6c-1.9-0.2-3.7,1.1-4,3.1c-0.2,1.9,1.1,3.7,3.1,4c0.2,0,1.5,0.2,3.5,0.2
			c4.5,0,12.2-0.7,17.5-5.5c3.8-3.4,5.7-8.2,5.6-14.1c-0.1-5.4-2-9.7-5.6-12.7c-0.8-0.7-1.7-1.3-2.6-1.8c1.1-0.8,2.1-1.6,3-2.6
			c3.1-3.5,4.4-8.1,4.1-14.1c-0.5-9-7-19.4-35.1-18.2c-10.8,0.5-18.6,3.5-23.2,8.9c-0.6,0.7-1.1,1.4-1.6,2.2
			c-4.5,0.1-13.7-0.6-19.2-5.1c-2.9-2.4-4.5-5.6-4.8-9.8c-0.4-4.9,1-8.9,4.3-12.3c13.7-13.9,53.3-11.1,53.7-11.1c1,0.1,2-0.3,2.8-1
			c0.7-0.7,1.1-1.8,1-2.8c0-0.2-1.7-23,8-32.4c3.2-3.1,7.4-4.4,12.7-3.8c5.3,0.6,9.2,2.7,11.8,6.4c6.7,9.5,2.9,25.9,2.9,26.1
			c-0.3,1.3,0.2,2.8,1.3,3.6c1.3,1,12.6,8.6,55.3,4.9v-7.1c-31.3,2.7-44.7-0.7-49.1-2.5c0.9-5.8,2.1-19.5-4.5-29
			c-3.8-5.4-9.5-8.6-16.8-9.4c-7.3-0.9-13.5,1-18.3,5.6c-9.4,9.1-10.4,26.2-10.3,34C60,49,29.1,49.2,15.7,62.7
			c-4.8,4.9-6.9,10.9-6.3,17.9c0.5,6.1,3,11,7.4,14.6c6.5,5.4,15.6,6.6,21.1,6.8c-0.4,2.3-0.4,4.8-0.1,7.5c1,7.5,7.5,12.2,11.9,14.5
			c-1.6,3.2-3.1,8.5-2.5,16.5c0.5,7.1,4.5,14.1,10.7,19.1c7.1,5.7,16.2,8.3,25.2,7.1c16.1-2.1,22.2-8.7,26.6-13.6
			c1.9-2.1,3.5-3.8,5.4-4.5c9.7-3.6,34.8,4.6,54.9,12.6V153.6z"/>
	</g>
</g>
</svg>
