<?xml version="1.0" encoding="utf-8"?>
<!-- Generator: Adobe Illustrator 22.0.0, SVG Export Plug-In . SVG Version: 6.00 Build 0)  -->
<svg version="1.1" id="图层_1" xmlns="http://www.w3.org/2000/svg" xmlns:xlink="http://www.w3.org/1999/xlink" x="0px" y="0px"
	 width="200px" height="320px" viewBox="0 0 200 320" style="enable-background:new 0 0 200 320;" xml:space="preserve">
<style type="text/css">
	.st0{clip-path:url(#SVGID_2_);}
	.st1{fill:#FACBCB;}
	.st2{fill:#FA9898;}
</style>
<g>
	<defs>
		<rect id="SVGID_1_" width="200" height="320"/>
	</defs>
	<clipPath id="SVGID_2_">
		<use xlink:href="#SVGID_1_"  style="overflow:visible;"/>
	</clipPath>
	<g class="st0">
		<g>
			<circle class="st1" cx="98" cy="169" r="10.4"/>
		</g>
		<g>
			<circle class="st1" cx="154.9" cy="234.4" r="10.4"/>
		</g>
		<g>
			<path class="st1" d="M94.3,210c0.2,0.6,0.4,1.1,0.6,1.7c0.1,0.2,0.2,0.4,0.3,0.6c1.9,4.2,2.1,8.9,0.9,13.2
				c-1.2,7.6-6.4,14.6-13.6,17.4c-8.6,3.4-17.7,0.9-23.7-5.3c-1.8,4.2-4.9,7.9-8.7,10.4c0.3,3.4,1.1,6.8,2.4,10.1
				c7.4,18.4,28.2,27.4,46.7,20s27.4-28.2,20-46.7C114.8,220.4,105.2,212.7,94.3,210z"/>
		</g>
		<g>
			<path d="M42.8,254.1c-4.7,0-8.8-1.4-12.2-4.2c-8.9-7.4-9.3-21.9-9.3-22.5c0-2,1.5-3.6,3.5-3.6c0,0,0.1,0,0.1,0
				c1.9,0,3.5,1.5,3.5,3.5c0,0.2,0.4,11.9,6.8,17.2c2.8,2.3,6.3,3,10.7,2.3c3.9-0.6,6.5-2.2,8.2-4.9c4.1-6.6,0.7-17.5,0.7-17.6
				c-0.6-1.9,0.4-3.9,2.3-4.4c1.9-0.6,3.9,0.4,4.4,2.3c0.2,0.6,4.4,14.1-1.4,23.5c-2.7,4.5-7.1,7.2-13.1,8.2
				C45.6,254,44.2,254.1,42.8,254.1z"/>
		</g>
		<g>
			<path class="st1" d="M90.1,137.1l-2.6,5.3c-0.8,1.6,0.5,3.4,2.3,3.1l6.9-1.2c1.7-0.3,2.4-2.4,1.1-3.6l-4.3-4.1
				C92.5,135.5,90.8,135.8,90.1,137.1z"/>
		</g>
		<g>
			<path class="st1" d="M190.2,231.4l-3.8-2.7c-1.4-1-3.4,0-3.4,1.8l0.1,5.4c0,1.8,2,2.7,3.4,1.7l3.7-2.8
				C191.4,234,191.4,232.3,190.2,231.4z"/>
		</g>
		<g>
			<path class="st1" d="M79.7,231.1l1.5-2.1c1-1.4,0-3.4-1.8-3.4l-3,0c-1.8,0-2.7,2-1.7,3.4l1.5,2C77.1,232.4,78.8,232.3,79.7,231.1
				z"/>
		</g>
		<g>
			<path class="st1" d="M45.1,238.3l1.5-2.1c1-1.4,0-3.4-1.8-3.4l-3,0c-1.8,0-2.7,2-1.7,3.4l1.5,2C42.5,239.5,44.3,239.5,45.1,238.3
				z"/>
		</g>
		<g>
			<g>
				<path class="st2" d="M94.6,120.8c-1,0-2-0.5-2.5-1.4c-1.4-2.5-3.7-3.6-6.5-4.9c-2.5-1.1-5.3-2.4-7.8-5c-1.5-1.5-3.2-3.4-3.7-5.9
					c-0.8-4.2,1-7.9,5-10.4c1.4-0.8,3.5-1.3,5.6-1.3c1.4,0,3.5,0.2,5.3,1.3c0.8,0.5,1.5,1,2.1,1.6c0.5-0.7,1.1-1.4,1.8-2
					c2.1-2,5.3-2.7,7.7-2.7c1.1,0,2.1,0.1,3,0.4c4.5,1.6,7,4.8,7.1,9.1c0,2.5-1.2,4.7-2.4,6.5c-2,3-4.5,4.9-6.7,6.5
					c-2.5,1.9-4.5,3.3-5.4,6.1c-0.3,1.1-1.3,1.9-2.4,2C94.8,120.8,94.7,120.8,94.6,120.8z"/>
			</g>
			<g>
				<path d="M101.7,92.9c0.8,0,1.5,0.1,2,0.3c4.7,1.7,5.2,4.9,5.2,6.5c0,1.7-0.9,3.4-1.9,4.9c-3.9,6-10.4,6.9-12.4,13.3
					c-3.3-5.9-9.7-5.5-14.8-10.5c-1.3-1.3-2.5-2.7-2.9-4.4c-0.3-1.6-0.5-4.9,3.7-7.5c0.9-0.5,2.5-0.9,4.1-0.9c1.4,0,2.8,0.3,3.8,0.9
					c1.7,1.1,3,2.5,4.1,4.1c0.8-1.8,1.7-3.5,3.2-4.9C97.3,93.5,99.8,92.9,101.7,92.9 M101.7,87.3c-1.4,0-6.2,0.2-9.6,3.5
					c-0.1,0.1-0.1,0.1-0.2,0.2c-0.1-0.1-0.2-0.1-0.3-0.2c-2.3-1.4-5-1.7-6.8-1.7c-2.7,0-5.2,0.6-7.1,1.8c-5.1,3.1-7.4,8-6.4,13.4
					c0.6,3.3,2.7,5.7,4.5,7.4c2.9,2.9,6.1,4.3,8.6,5.5c2.8,1.3,4.2,2,5.2,3.7c1,1.8,2.9,2.9,4.9,2.9c0.2,0,0.4,0,0.6,0
					c2.2-0.2,4.1-1.8,4.8-3.9c0.6-1.8,1.8-2.8,4.3-4.7c2.3-1.7,5.1-3.8,7.4-7.2c1.3-2,2.9-4.8,2.8-8.1c-0.1-5.5-3.4-9.8-9-11.8
					C104.4,87.5,103.1,87.3,101.7,87.3L101.7,87.3z"/>
			</g>
		</g>
		<g>
			<g>
				<path class="st2" d="M124,27.4c-1,0-2-0.5-2.5-1.4c-0.6-1-1.4-1.5-3.1-2.2c-1.4-0.6-3.1-1.5-4.7-3c-0.9-0.9-2.1-2.2-2.4-3.9
					c-0.6-2.9,0.7-5.5,3.4-7.1c1-0.6,2.3-0.9,3.8-0.9c1,0,2.4,0.2,3.6,0.9c0.1,0.1,0.2,0.2,0.4,0.2c0.1-0.1,0.2-0.2,0.3-0.3
					c1.8-1.7,4.4-1.8,5.2-1.8c0.8,0,1.5,0.1,2.1,0.3c3,1.1,4.8,3.3,4.8,6.3c0,1.8-0.8,3.3-1.5,4.4c-1.2,1.9-2.8,3-4,4
					c-1.4,1.1-2.2,1.7-2.5,2.8c-0.3,1.1-1.3,1.9-2.4,2C124.2,27.4,124.1,27.4,124,27.4z"/>
			</g>
			<g>
				<path d="M128,10.6c0.4,0,0.8,0.1,1.1,0.2c2.6,0.9,2.9,2.7,2.9,3.6c0,1-0.5,1.9-1.1,2.7c-2.2,3.3-5.8,3.8-6.9,7.5
					c-1.9-3.3-5.4-3.1-8.3-5.9c-0.7-0.7-1.4-1.5-1.6-2.5c-0.2-0.9-0.3-2.7,2.1-4.2c0.5-0.3,1.4-0.5,2.3-0.5c0.8,0,1.5,0.1,2.1,0.5
					c1,0.6,1.7,1.4,2.3,2.3c0.4-1,1-2,1.8-2.7C125.5,10.9,126.9,10.6,128,10.6 M128,4.9c-1.1,0-3.6,0.2-5.8,1.6
					c-1.1-0.4-2.3-0.6-3.6-0.6c-1.1,0-3.3,0.2-5.2,1.3c-3.7,2.3-5.5,6.1-4.7,10.1c0.5,2.5,2.1,4.3,3.2,5.4c1.9,1.9,4,2.9,5.5,3.6
					c1.2,0.6,1.6,0.8,1.8,1c1,1.8,2.9,2.9,4.9,2.9c0.2,0,0.4,0,0.6,0c2.2-0.2,4.1-1.8,4.8-3.9c0.1-0.3,0.6-0.7,1.5-1.4
					c1.4-1,3.2-2.4,4.7-4.7c0.9-1.3,2-3.4,2-6c-0.1-4.1-2.6-7.5-6.7-8.9C130.1,5.1,129,4.9,128,4.9L128,4.9z"/>
			</g>
		</g>
		<g>
			<g>
				<path class="st2" d="M134.3,93.2c-0.4,0-0.8-0.1-1.2-0.2c-1-0.5-1.7-1.5-1.7-2.6c0.1-4.7-2.1-7.8-4.8-11.6
					c-2.2-3.2-4.7-6.7-6.1-11.6c-0.8-2.8-1.4-6.2-0.4-9.4c1.9-5.5,6.3-8.5,12.8-8.6l0.2,0c4,0,10.1,3,12.4,7.3
					c0.9,1.6,1.4,3.3,1.8,4.8c1.4-0.8,3-1.4,4.8-1.9c0.8-0.2,1.6-0.3,2.5-0.3c4.5,0,9.3,2.4,11.3,4.8c4.2,4.9,5,10.2,2.1,15.3
					c-1.6,2.9-4.6,4.7-7.2,6c-4.5,2.2-8.9,2.8-12.8,3.2c-4.6,0.5-8.5,1-12,4.1C135.7,93,135,93.2,134.3,93.2z"/>
			</g>
			<g>
				<path d="M133.2,52c2.9,0,8.1,2.3,9.9,5.8c1.4,2.6,1.9,5.4,2.2,8.2c2.3-1.7,4.7-3.2,7.6-3.8c0.6-0.1,1.2-0.2,1.8-0.2
					c3.6,0,7.6,2,9.2,3.8c4.7,5.5,3,9.9,1.8,12c-1.2,2.2-3.6,3.6-6,4.8c-9.3,4.6-18.1,1.1-25.4,7.8c0.1-9.9-8.2-14-11-24
					c-0.7-2.6-1.2-5.3-0.4-7.7c0.8-2.3,2.9-6.5,10.2-6.7C133.2,52,133.2,52,133.2,52 M133.2,46.3C133.2,46.3,133.2,46.3,133.2,46.3
					l-0.2,0c-7.7,0.2-13.1,3.9-15.4,10.5c-1.3,3.9-0.6,7.8,0.3,11c1.5,5.3,4.1,9.1,6.5,12.5c2.8,4,4.4,6.4,4.3,10
					c0,2.3,1.3,4.3,3.4,5.2c0.7,0.3,1.5,0.5,2.3,0.5c1.4,0,2.8-0.5,3.8-1.5c2.6-2.4,5.5-2.8,10.4-3.4c4.1-0.5,8.8-1,13.7-3.5
					c3-1.5,6.4-3.5,8.4-7.1c3.4-6.1,2.5-12.7-2.5-18.5c-2.8-3.3-8.6-5.8-13.5-5.8c-1.1,0-2.1,0.1-3.1,0.4c-0.8,0.2-1.7,0.4-2.4,0.7
					c-0.3-0.8-0.7-1.5-1.1-2.3C145.2,49.7,138.1,46.3,133.2,46.3L133.2,46.3z"/>
			</g>
		</g>
		<path d="M77.3,185.2c1.9-0.5,3.1-2.4,2.6-4.3c0-0.1-3.5-14.9,2.3-24.5c2.3-3.8,5.8-6.2,10.6-7.3c5.6-1.3,10.5-0.4,15,2.9
			c18.1,13.3,21.6,58.6,21.6,59c0.1,1,0.6,2,1.4,2.6c0.8,0.6,1.9,0.8,2.9,0.6c0.3-0.1,25.9-5.8,38.3,3.7c4.2,3.2,6.3,7.8,6.5,14
			c0.2,6.3-1.6,11.1-5.4,14.8c-9.7,9.3-29.1,7.8-29.3,7.8c-1.4-0.1-2.7,0.6-3.4,1.8c-0.9,1.6-7.6,15.7,4,63.7h7.3
			c-9.1-37.1-7-53.3-5.8-58.3c6.4,0.1,22.3-0.6,32-9.8c5.3-5.1,7.9-11.9,7.6-20.2c-0.3-8.4-3.4-14.9-9.3-19.4
			c-11.9-9.1-31.8-7.1-40.2-5.7c-1.3-12-6.6-47.4-24.1-60.3c-6.2-4.5-13.2-5.9-20.8-4.1c-6.6,1.6-11.6,5.1-15,10.5
			c-7.4,12.1-3.3,29.2-3.2,29.9C73.5,184.5,75.4,185.6,77.3,185.2z"/>
		<path d="M26.2,266.6c2.8,1.9,5,3.4,6.1,5.5c6.9,12.7,0.5,35.4-3.9,47.9h7.5c4.7-13.9,10.4-36.9,2.6-51.3c-2-3.7-5.1-5.8-8.4-8
			c-5.8-3.9-12.3-8.4-16.7-23.5c-2.3-7.9-1.1-16.5,3.1-23.6c3.6-6.1,9.1-10.4,14.9-11.8c12.3-2.8,17.6,1,17.6,1c1,0.8,2.3,1,3.4,0.6
			c1.2-0.4,2-1.4,2.3-2.7c0.7-3.5,3.9-13,10.4-14.9c5.4-1.5,9.9-1.1,13.6,1.1c5,3.1,8.6,9.9,10.5,19.7c3.9,20.3,1,31.7-8.7,33.7
			c-4.7,1-8.2,0.6-10.9-1.2c-3.7-2.4-6.4-7.9-8.1-16.7c-0.4-1.9-2.3-3.2-4.2-2.8c-1.9,0.4-3.2,2.3-2.8,4.2
			c2.2,10.9,5.8,17.7,11.2,21.2c4.3,2.8,9.6,3.6,16.2,2.2c9.8-2,20.2-11,14.2-42c-2.3-12-6.9-20.1-13.7-24.3
			c-5.4-3.3-11.9-4-19.2-1.9c-8.3,2.3-12.4,10.7-14.2,16c-3.8-1.3-10-2.2-19.2-0.2c-7.8,1.8-14.9,7.3-19.5,15.1
			c-5.2,8.8-6.6,19.4-3.8,29.2C11.7,256.8,20.1,262.5,26.2,266.6z"/>
	</g>
</g>
</svg>
