<?xml version="1.0" encoding="utf-8"?>
<!-- Generator: Adobe Illustrator 22.0.0, SVG Export Plug-In . SVG Version: 6.00 Build 0)  -->
<svg version="1.1" id="图层_1" xmlns="http://www.w3.org/2000/svg" xmlns:xlink="http://www.w3.org/1999/xlink" x="0px" y="0px"
	 width="420px" height="270px" viewBox="0 0 420 270" style="enable-background:new 0 0 420 270;" xml:space="preserve">
<style type="text/css">
	.st0{clip-path:url(#SVGID_2_);}
	.st1{fill:#FFFFFF;}
	.st2{fill:#BF272D;}
	.st3{fill:#FA9898;}
	.st4{fill:#FFF4EC;}
	.st5{fill:#FFDADA;}
	.st6{fill:#FAD558;}
	.st7{fill:#FA7777;}
	.st8{fill:#FACBCB;}
	.st9{fill:#39B34A;}
	.st10{fill:none;}
	.st11{fill:#FF7676;}
</style>
<g>
	<g>
		<defs>
			<rect id="SVGID_1_" width="420" height="270"/>
		</defs>
		<clipPath id="SVGID_2_">
			<use xlink:href="#SVGID_1_"  style="overflow:visible;"/>
		</clipPath>
		<g class="st0">
			<path class="st1" d="M411.3,270c-4.6-9.1-14.5-10.5-17.6-10.7l-50.5-41.6c-0.5-0.4-1.2-0.6-1.8-0.6h-0.1c-0.7,0.1-1.3,0.5-1.8,1
				l-0.8,1.2c-7.2-8-15.9-12-24.9-11.4s-17.1,5.9-23.1,14.8l-1-1c-0.5-0.5-1.2-0.8-1.9-0.8h-0.1c-0.7,0-1.3,0.3-1.7,0.8L241.8,270
				H411.3z"/>
			<path class="st1" d="M275,270h85.9l-0.6-17.3c-0.2-5.5-2.5-10.5-6.5-14.1s-9.4-5.5-14.8-5.1c-2.2,0.2-4.4,0.7-6.5,1.6l-11.4,4.9
				c-1.6,0.7-3.4,1.1-5.2,1.3c-1.8,0.1-3.6,0-5.3-0.5l-11.9-3.2c-2.2-0.6-4.4-0.8-6.7-0.7c-5.4,0.4-10.4,3-13.9,7.2
				s-5.1,9.5-4.5,14.9L275,270z"/>
			<path d="M272.9,270h4.1l-1.3-11.4c-1.2-10.5,6.8-19.1,16.5-19.8c1.9-0.1,4,0,6,0.6l11.9,3.2c2,0.5,4,0.7,6,0.6s4-0.6,5.8-1.4
				l11.3-4.9c1.9-0.8,3.9-1.3,5.8-1.4c9.7-0.7,18.8,6.8,19.1,17.3l0.6,17.2h4.1l-0.6-17.4c-0.2-6-2.8-11.6-7.2-15.6
				c-4.4-4-10.4-6.1-16.3-5.6l0,0c-2.5,0.2-4.9,0.8-7.2,1.8l-11.3,4.9c-1.4,0.6-2.9,1-4.5,1.1s-3.1,0-4.6-0.4l-11.9-3.2
				c-2.4-0.7-4.9-0.9-7.3-0.7c-5.9,0.4-11.5,3.3-15.3,7.9c-3.8,4.6-5.6,10.4-4.9,16.4L272.9,270z"/>
			<path class="st2" d="M311.4,270l-0.3-4.3c-0.2-2.6-0.9-6.3-1.4-8.8h0.1l2.5,6l3.3,7.2h4.8l2.3-7.9l1.7-6.3h0.1
				c-0.1,2.5-0.3,6.4-0.2,9l0.4,5.3h5.7l-1.6-22.5L322,248l-3.1,11.4c-0.4,1.5-0.7,3.2-1.1,4.8h-0.2c-0.6-1.6-1.1-3.1-1.7-4.6
				l-4.9-10.8l-6.7,0.5l1.5,20.8L311.4,270L311.4,270z"/>
			<g>
				<path class="st3" d="M304.1,15.6c-0.2-1.3-0.6-2.6-1.4-3.8c-1-1.6-3.6-2.4-5-2.3c-3.4,0.4-4.2,2.5-4.5,3.6
					c-0.3,1.2,0.1,2.4,0.5,3.6c1.8,4.6,5.9,6.2,6.3,10.8c3.1-3.5,7.3-2.2,11.5-4.8c1.1-0.7,2.1-1.4,2.6-2.5c0.5-1,1.1-3.2-1.4-5.6
					c-1-0.9-3.6-1.8-5.3-1.2C306.2,13.9,305.1,14.7,304.1,15.6z"/>
			</g>
			<g>
				<path d="M349.7,270h5.9l-5.5-3.3C350,267.8,349.9,268.9,349.7,270z"/>
				<path d="M245.3,270l42.4-46.4l3.3,3.4c5.4-9.5,13.4-15.7,22.8-16.4s18.2,4.4,24.9,13l2.8-3.8l51.2,42.2c0,0,10.6,0,15.7,8.1h5.8
					c-0.2-0.4-0.3-0.7-0.5-1.1c-4.8-9.5-14.7-11.6-19-12.1l-49.9-41.1c-1-0.8-2.3-1.3-3.7-1.2c-0.1,0-0.2,0-0.3,0
					c-0.9,0.1-1.7,0.4-2.4,0.9c-7.3-7.1-16.1-10.7-25-10.1c-8.9,0.6-17.1,5.5-23.3,13.6c-0.8-0.4-1.6-0.6-2.5-0.6
					c-0.1,0-0.2,0-0.3,0c-1.3,0.1-2.6,0.7-3.5,1.7l-43.6,47.8c-1.4,0.4-3.5,1-5.8,2.1L245.3,270L245.3,270z"/>
			</g>
			<path class="st4" d="M199.2,270c-9.9-23.2-22.3-41.9-23.2-43.3c-0.5-0.7-1.2-1.1-2-1.2L52.4,214c-0.8-0.1-1.6,0.2-2.2,0.8
				c-1.4,1.5-25.9,26.5-41.3,55.2H199.2z"/>
			<path class="st5" d="M140.2,270c-4.3-9.4-13.3-16.3-24.2-17.4l-11.7-1.1C91,250.2,78.8,258.1,74,270H140.2z"/>
			<path class="st6" d="M34.7,270c3.7-6.6,6.3-14.6,7.1-23.2c0.6-6.2,0.2-12.1-0.9-17.6C32.4,239.1,20.8,254,12,270H34.7z"/>
			<path class="st2" d="M157.3,270c-2.9-14-2.7-31.1-2-40.2c0.1-0.6-0.2-1.3-0.7-1.7c-0.3-0.3-0.8-0.5-1.2-0.5c-0.2,0-0.4,0-0.6,0
				l-8.9,1.6c-0.9,0.2-1.6,0.9-1.7,1.9c-1.4,15.2-6.7,25.6-15.6,31c-6.9,4.2-14.1,4-16.8,3.8c-0.5-0.1-0.8-0.1-0.9-0.1s-0.3,0-0.3,0
				s-0.3,0-0.9-0.1c-6.8-0.6-28.6-5.4-25.3-40.2c0.1-0.9-0.5-1.8-1.3-2.1l-8.5-3.2c-0.2-0.1-0.4-0.1-0.5-0.1c-0.4,0-0.9,0.1-1.3,0.3
				c-0.5,0.3-0.9,0.9-1,1.6c-1.3,11.4-5.7,35-14.2,48.3h101.7V270z"/>
			<path d="M58.2,270C68.6,252.6,72,221.9,72,221.9l8.5,3.2c-3.6,37.5,21.7,42,27.2,42.5c0.7,0.1,1,0.1,1,0.1s0.4,0.1,1,0.1
				c5.5,0.5,31.1,0.9,34.7-36.6l8.9-1.6c0,0-1.8,22.1,1.9,40.4h4.3c-2.9-13.9-2.7-31.5-2-40.1c0.1-1.3-0.4-2.5-1.3-3.4
				c-0.7-0.6-1.5-1-2.4-1.1c-0.4,0-0.7,0-1.1,0l-8.9,1.6c-1.9,0.3-3.3,1.8-3.4,3.7c-3.1,32.8-23.9,33.4-30.1,32.9
				c-0.4,0-0.7-0.1-0.7-0.1c-0.1,0-0.2,0-0.3,0c-0.1,0-0.2,0-0.3,0c-0.1,0-0.3,0-0.7-0.1c-6.3-0.6-26.5-5.1-23.4-37.9
				c0.2-1.9-0.9-3.6-2.7-4.3l-8.5-3.2c-0.4-0.1-0.7-0.2-1.1-0.3c-0.9-0.1-1.8,0.1-2.6,0.6c-1.1,0.7-1.8,1.8-2,3.1
				c-1.2,10.8-5.9,35.9-14.5,48.5h4.7V270z"/>
			<path d="M47.4,270c1.7-6.3,3.2-11.2,3.2-11.4c0.3-1.1-0.3-2.3-1.4-2.6c-1.1-0.3-2.3,0.3-2.6,1.4c-0.1,0.4-1.8,5.8-3.5,12.6H47.4z
				"/>
			<path d="M12,270c15.6-28.4,40.1-53.3,40.1-53.3l60.8,5.8l60.8,5.8c0,0,12.4,18.6,22.5,41.8h6c-10.1-24-23-43.4-23.9-44.8
				c-0.9-1.4-2.4-2.2-4-2.4l-60.8-5.8l-60.8-5.8c-1.6-0.2-3.2,0.4-4.4,1.6c-1.5,1.5-26.9,27.5-42.4,57.1H12z"/>
			<g>
				<g>
					<path class="st7" d="M340,230.7c7.8-1.3,15.2-3,21.9-4.9l-10.6-8c-2.1,0.5-4.2,0.9-6.3,1.3C343.1,222.8,341.5,226.7,340,230.7z
						"/>
				</g>
			</g>
			<g>
				<g>
					<path class="st7" d="M268.3,232.4c6.9,1,14.4,1.6,22.4,1.8c-2-3.7-4.2-7.3-6.6-10.8c-2.1-0.1-4.2-0.2-6.4-0.4L268.3,232.4z"/>
				</g>
			</g>
			<g>
				<g>
					<g>
						<g>
							<g>
								<g>
									<g>
										<path class="st1" d="M352.6,168.1c-3.8,0.3-7.4-1.9-9-5.3l-28.3-61.5c-2.1-4.6-0.1-10.1,4.5-12.2l65-30
											c1-0.5,2.1-0.7,3.2-0.8c4.3-0.3,8.3,2.4,9.5,6.5c20.4,69.5-26.9,96.1-41.8,102.6C354.7,167.8,353.7,168.1,352.6,168.1
											L352.6,168.1z"/>
									</g>
								</g>
								<g>
									<g>
										<path d="M388.2,60.9c3-0.2,5.8,1.6,6.7,4.6c19.5,66.6-23.9,92.3-40.3,99.4c-0.7,0.3-1.4,0.5-2.1,0.5
											c-2.6,0.2-5.2-1.3-6.4-3.8l-28.3-61.5c-1.5-3.3-0.1-7.2,3.2-8.7l65-30C386.6,61.2,387.4,61,388.2,60.9 M387.8,55.6
											c-1.4,0.1-2.8,0.5-4.1,1.1l-65,30c-2.9,1.3-5.1,3.7-6.2,6.7s-1,6.2,0.4,9.1l28.3,61.5c2.1,4.5,6.7,7.2,11.6,6.9
											c1.3-0.1,2.6-0.4,3.9-1c15.5-6.7,64.3-34.2,43.3-105.8C398.4,58.8,393.3,55.3,387.8,55.6L387.8,55.6z"/>
									</g>
								</g>
							</g>
						</g>
						<g>
							<g>
								<g>
									<path class="st8" d="M378.1,78.8L331,100.5c-3.5,1.6-5.1,5.8-3.4,9.3l16.7,36.2c1.6,3.6,5.9,5.1,9.4,3.4
										c13.7-6.5,43.1-25.4,34.3-65.7C387,79.3,382.2,76.9,378.1,78.8z"/>
								</g>
							</g>
						</g>
					</g>
					<g>
						<g>
							<g>
								<g>
									<g>
										<path class="st1" d="M269.3,174.1c-1,0.1-2.1,0-3.1-0.3c-15.7-4.3-66.3-23.9-56-95.6c0.6-4.2,4.2-7.5,8.4-7.8
											c1.1-0.1,2.2,0,3.3,0.4l68.6,20.4c4.9,1.4,7.6,6.6,6.2,11.4l-19.3,64.9C276.4,171.2,273.1,173.8,269.3,174.1z"/>
									</g>
								</g>
								<g>
									<g>
										<path d="M218.9,73c0.8-0.1,1.6,0,2.3,0.3l68.6,20.4c3.5,1,5.4,4.7,4.4,8.2l-19.3,64.9c-0.8,2.7-3.2,4.5-5.8,4.7
											c-0.7,0.1-1.5,0-2.2-0.2c-17.3-4.7-63.9-24-54.1-92.7C213.3,75.4,215.9,73.2,218.9,73 M218.5,67.7L218.5,67.7
											c-5.5,0.4-10.1,4.6-10.9,10.1c-10.6,73.8,41.6,94.1,57.9,98.5c1.3,0.4,2.6,0.5,4,0.4c4.9-0.3,9.1-3.7,10.5-8.5l19.3-64.9
											c0.9-3,0.6-6.2-0.9-9s-4-4.8-7-5.7l-68.6-20.4C221.4,67.8,219.9,67.6,218.5,67.7L218.5,67.7z"/>
									</g>
								</g>
							</g>
						</g>
						<g>
							<g>
								<g>
									<path class="st8" d="M231.4,89.3l49.7,14.8c3.7,1.1,5.8,5,4.7,8.8L274.5,151c-1.1,3.8-5.1,5.9-8.8,4.7
										c-14.4-4.5-46.2-19-43.3-60.1C222.7,91.1,227.1,88,231.4,89.3z"/>
								</g>
							</g>
						</g>
					</g>
				</g>
				<g>
					<g>
						<g>
							<path class="st1" d="M319.6,225c-2.9,0.2-4.7,0.3-4.9,0.3c0,0-1.8,0.2-4.7,0.4c-19.2,1.4-82.6,3.2-91.2-31.4
								c-12.1-49,13.6-87.4,32.6-100c20.8-13.9,47-16.4,52.1-16.7l1.5-0.1c5-0.4,31.3-1.6,53.9,9.1c20.6,9.8,51.5,44.1,46.5,94.4
								C401.9,216.4,338.9,223.6,319.6,225L319.6,225z"/>
						</g>
					</g>
					<g>
						<g>
							<g>
								<path d="M305.2,80.1c4.7-0.3,30.5-1.6,52.6,8.9c19.2,9.1,49.9,42.4,45,91.7c-3.4,33.5-65.5,40.4-83.4,41.7
									c-3,0.2-4.8,0.3-4.8,0.3s-1.7,0.2-4.8,0.4c-17.9,1.3-80.3,3.3-88.4-29.4c-11.9-48.1,13.8-85.4,31.5-97.2
									C273.3,83,299,80.6,303.7,80.2c0.5,0,0.7,0,0.7,0S304.7,80.1,305.2,80.1 M304.8,74.8c-0.4,0-0.6,0-0.7,0.1
									c-0.1,0-0.4,0-0.7,0c-5.2,0.4-32,2.9-53.4,17.2c-19.6,13.1-46.1,52.5-33.7,102.8c4,16.2,19.1,26.7,44.8,31.4
									c19.1,3.5,39,2.7,49.2,2c2.5-0.2,4.2-0.3,4.8-0.4c0.6,0,2.2-0.1,4.8-0.3c10.2-0.7,30-2.9,48.4-9
									c24.8-8.3,38.2-20.9,39.8-37.4c5.2-51.6-26.7-86.9-48-97C336.9,73.2,310,74.4,304.8,74.8L304.8,74.8z"/>
							</g>
						</g>
					</g>
				</g>
				<g>
					<g>
						<g>
							<g>
								<g>
									<path class="st8" d="M265,171.8c0.3,4-6.9,7.9-16.2,8.5c-9.2,0.7-16.9-2.1-17.2-6.1s6.9-7.9,16.2-8.5
										C257,165,264.7,167.8,265,171.8z"/>
								</g>
							</g>
							<g>
								<g>
									<path d="M271.8,139.2c-0.4,0-0.8-0.1-1.1-0.4l0,0c-0.3-0.2-6.2-5-14,0.5c-0.7,0.5-1.7,0.3-2.2-0.4s-0.3-1.7,0.4-2.2
										c9.8-6.9,17.7-0.4,17.8-0.4c0.7,0.5,0.7,1.5,0.2,2.2C272.6,139,272.2,139.2,271.8,139.2z"/>
								</g>
							</g>
						</g>
						<g>
							<g>
								<g>
									<path class="st8" d="M356.6,165.3c0.3,4,8,6.8,17.2,6.1s16.5-4.5,16.2-8.5s-8-6.8-17.2-6.1
										C363.5,157.4,356.3,161.2,356.6,165.3z"/>
								</g>
							</g>
							<g>
								<g>
									<path d="M345.2,134c-0.4,0-0.8-0.1-1.2-0.4c-0.6-0.6-0.7-1.5-0.1-2.2c0.1-0.1,7-7.6,17.7-2.2c0.8,0.4,1.1,1.3,0.7,2.1
										s-1.3,1.1-2.1,0.7c-8.5-4.4-13.7,1.2-13.9,1.5C346,133.8,345.6,133.9,345.2,134z"/>
								</g>
							</g>
						</g>
					</g>
					<g>
						<g>
							<g>
								<path class="st8" d="M320.6,188.9c-3.3-0.3-5.6-2.2-6.9-4.7c-0.9,0.4-1.9,0.7-3.1,0.8c-0.2,0-0.4,0-0.6,0
									c-1.1,2.9-3.5,5.3-7.5,5.7c2.5,5.6,6.4,9.1,10.5,8.8s7.5-4.4,9.2-10.3C321.6,189,321.1,188.9,320.6,188.9z"/>
							</g>
						</g>
						<g>
							<g>
								<g>
									<path d="M327.5,192.1c-0.7,0-1.3,0.1-2,0.1c-9.2-0.1-15.4-4.9-16-12.4l-0.4-5.9c-0.1-1.1,0.8-2.1,1.9-2.2
										c1.1-0.1,2.1,0.8,2.2,1.9l0.4,5.9c0.4,6.2,6.4,8.5,11.9,8.5c8,0.1,16.7-4.4,17.4-11.8c0.1-1.1,1.1-2,2.2-1.9s2,1.1,1.9,2.2
										C346.2,185.8,336.8,191.5,327.5,192.1z"/>
								</g>
							</g>
							<g>
								<g>
									<path d="M297.6,194.3c-9.3,0.7-19.4-3.6-21.5-12.6c-0.3-1.1,0.4-2.2,1.5-2.5s2.2,0.4,2.5,1.5c1.7,7.3,10.9,10.4,18.9,9.2
										c5.4-0.8,11-3.9,10.5-10.1l-0.4-5.9c-0.1-1.1,0.8-2.1,1.9-2.2c1.1-0.1,2.1,0.8,2.2,1.9l0.4,5.9c0.5,7.5-5,13.2-14,14.5
										C299,194.1,298.3,194.2,297.6,194.3z"/>
								</g>
							</g>
						</g>
						<g>
							<g>
								<path class="st3" d="M322.1,165.1c0.4,5.1-4.5,9.5-10.8,10s-11.8-3.3-12.1-8.4c-0.4-5.1,4.7-5.9,11.1-6.3
									C316.5,159.9,321.7,160,322.1,165.1z"/>
							</g>
						</g>
					</g>
				</g>
			</g>
			<g>
				<g>
					<g>
						<path d="M334.7,59.8c0.5,0,1.1,0,1.6,0c6.4,0.4,11.1,6,10.7,12.3c-0.4,5.8-5,10.3-10.7,10.7c-0.5,0-1.1,0-1.6,0
							c-6.4-0.4-11.1-6-10.7-12.3C324.5,64.7,329.1,60.2,334.7,59.8 M334.4,54.7L334.4,54.7c-8.2,0.6-14.9,7.2-15.5,15.5
							c-0.6,9.2,6.3,17.2,15.5,17.8c0.8,0.1,1.6,0.1,2.4,0c8.2-0.6,14.9-7.2,15.5-15.5c0.6-9.2-6.3-17.2-15.5-17.8
							C335.9,54.6,335.1,54.6,334.4,54.7L334.4,54.7z"/>
					</g>
				</g>
			</g>
			<g>
				<g>
					<g>
						<path class="st9" d="M299,88.4c-6.6,0.5-12.3-2.4-12.6-2.5c-0.6-0.3-1.1-0.9-1.3-1.5c-0.2-0.7-0.1-1.4,0.2-2
							c0.2-0.3,4.6-8.5,12.7-11.1c1.3-0.4,2.8-0.7,4.3-0.8c6.6-0.5,12.3,2.4,12.6,2.5c0.6,0.3,1.1,0.9,1.3,1.5
							c0.2,0.7,0.1,1.4-0.2,2c-0.2,0.3-4.6,8.5-12.7,11.1C301.9,88.1,300.5,88.3,299,88.4L299,88.4z"/>
					</g>
				</g>
				<g>
					<g>
						<path d="M302.5,73c5.9-0.4,11.2,2.2,11.2,2.2s-4,7.6-11.2,9.9c-1.2,0.4-2.5,0.6-3.7,0.7c-5.9,0.4-11.2-2.2-11.2-2.2
							s4-7.6,11.2-9.9C300,73.3,301.3,73.1,302.5,73 M302.1,67.9c-1.7,0.1-3.3,0.4-4.9,0.9c-9,2.9-13.7,11.4-14.2,12.4
							c-0.7,1.2-0.8,2.7-0.4,4s1.4,2.4,2.6,3c0.7,0.3,6.8,3.3,13.9,2.8c1.7-0.1,3.3-0.4,4.9-0.9c9-2.9,13.7-11.4,14.2-12.4
							c0.7-1.2,0.8-2.7,0.4-4s-1.4-2.4-2.6-3C315.3,70.3,309.2,67.4,302.1,67.9L302.1,67.9z"/>
					</g>
				</g>
			</g>
			<g>
				<g>
					<g>
						<path class="st9" d="M312.9,79.1c-3.7,0.3-9,0-13.8-2.6c-8.5-4.7-11.7-14.8-11.9-15.3c-0.2-0.7-0.1-1.4,0.2-2
							c0.3-0.6,0.9-1.1,1.6-1.3c0.1,0,2.3-0.6,5.4-0.9c3.7-0.3,9,0,13.8,2.6c8.5,4.7,11.7,14.8,11.9,15.3c0.2,0.7,0.1,1.4-0.2,2
							c-0.3,0.6-0.9,1.1-1.6,1.3C318.2,78.3,316,78.9,312.9,79.1L312.9,79.1z"/>
					</g>
				</g>
				<g>
					<g>
						<path d="M294.6,59.7c3.5-0.2,8.2,0,12.4,2.3c7.7,4.2,10.6,13.7,10.6,13.7s-2,0.6-4.9,0.8c-3.5,0.2-8.2,0-12.4-2.3
							c-7.7-4.2-10.6-13.7-10.6-13.7S291.7,59.9,294.6,59.7 M294.2,54.6c-3.3,0.2-5.7,0.9-6,1c-1.3,0.4-2.5,1.3-3.1,2.5
							c-0.7,1.2-0.8,2.7-0.4,4c0.1,0.5,3.6,11.6,13.1,16.8c5.4,2.9,11.2,3.2,15.2,2.9c3.3-0.2,5.7-0.9,6-1c1.3-0.4,2.5-1.3,3.1-2.5
							c0.7-1.2,0.8-2.7,0.4-4c-0.1-0.5-3.6-11.6-13.1-16.8C304.1,54.6,298.2,54.3,294.2,54.6L294.2,54.6z"/>
					</g>
				</g>
			</g>
			<g>
				<g>
					<g>
						<path class="st8" d="M348.6,100c-5,0.4-10.3-2.5-13.6-7.4c-0.1,0.2-0.3,0.3-0.4,0.5c-3.1,3.6-7.2,5.9-11.4,6.2
							c-3.1,0.2-6-0.7-8.1-2.5c-5.2-4.4-5.2-13.1-0.1-19.5h-0.1c-7.9-3.2-12.2-11-9.6-17.5c1.7-4.2,5.8-6.9,11-7.2
							c2.6-0.2,5.3,0.2,7.9,1.3c0-0.1,0-0.2,0-0.3c0.6-7.8,5.8-14.1,12.2-14.5c0.5,0,1,0,1.5,0c6.7,0.5,11.8,7.4,11.5,15.5
							c0.2-0.1,0.4-0.1,0.7-0.2c1.1-0.3,2.1-0.4,3.2-0.5c7.1-0.5,13.4,3.3,14.8,9c0.8,3.4,0,6.9-2.4,9.9c-2.3,2.9-5.6,5.1-9.6,6l0,0
							c4.4,7.2,3.2,16-2.6,19.6C352.1,99.3,350.4,99.9,348.6,100z M332.8,72.5c0.7,0.1,1.1,0.2,1.2,0.2c0.7,0.1,1.3,0.6,1.5,1.3
							c0,0,0.1,0.2,0.2,0.6c0.4-1,0.7-1.5,0.8-1.6c0.3-0.6,1-1,1.6-1.1c0,0,0,0,0.1,0s0.5,0,1.2,0c-0.5-0.4-0.7-0.7-0.8-0.8
							c-0.5-0.5-0.7-1.3-0.5-1.9c0,0,0.1-0.2,0.2-0.5c-0.9,0.5-1.5,0.8-1.6,0.9c-0.2,0.1-0.5,0.2-0.7,0.2c-0.4,0-0.9-0.1-1.3-0.3
							c0,0-0.4-0.3-0.9-0.7c0.2,0.9,0.3,1.5,0.3,1.5c0.1,0.7-0.2,1.4-0.8,1.9C333.3,72.1,333.1,72.3,332.8,72.5z"/>
					</g>
				</g>
			</g>
			<g>
				<g>
					<g>
						<g>
							<g>
								<path class="st4" d="M103.1,100.2c0.7,0.1,1.4-0.2,1.9-0.6c0.5-0.5,0.9-1.1,0.9-1.8l7.4-87.5c0.1-0.8-0.2-1.5-0.8-2.1
									c-0.4-0.4-1-0.7-1.6-0.8c-0.2,0-0.3,0-0.5,0c-58.6,4.7-58.9,85.2-58.9,86c0,1.4,1,2.5,2.4,2.6
									C54,96.1,103.1,100.2,103.1,100.2z"/>
							</g>
						</g>
						<g>
							<g>
								<path d="M110.7,10.1l-7.4,87.5l-49-4.2C54.3,93.4,53.8,14.6,110.7,10.1 M111.2,4.8c-0.3,0-0.6,0-0.9,0
									c-25.5,2-44.2,18.3-54.1,46.9C48.9,72.6,49,92.6,49,93.5c0,2.7,2.1,5,4.8,5.3c0,0,0,0,0.1,0l49,4.2c1.4,0.1,2.8-0.3,3.9-1.2
									c1.1-0.9,1.7-2.2,1.9-3.6l7.4-87.5c0.1-1.6-0.4-3.1-1.5-4.2C113.6,5.4,112.4,4.9,111.2,4.8L111.2,4.8z"/>
							</g>
						</g>
					</g>
					<g>
						<g>
							<g>
								<path class="st6" d="M103.1,99.7c0.6,0,1.1-0.1,1.5-0.5s0.7-0.9,0.7-1.4l7.5-87.7c0.1-0.6-0.2-1.3-0.6-1.7
									c-0.3-0.3-0.8-0.5-1.3-0.6c-0.2,0-0.3,0-0.5,0c-34,4.4-39.5,83.7-39.7,87.1c-0.1,1.1,0.8,2.1,1.9,2.3
									C72.7,97.1,103.1,99.7,103.1,99.7z"/>
							</g>
						</g>
						<g>
							<g>
								<path d="M110.7,9.9l-7.5,87.7L72.9,95C72.9,95,78.1,14.2,110.7,9.9 M111.1,5.7c-0.3,0-0.6,0-1,0c-15.4,2-27,17.9-34.7,47.3
									c-5.4,20.9-6.7,40.9-6.8,41.7c-0.1,2.3,1.6,4.3,3.8,4.5l0,0l30.4,2.6c1.1,0.1,2.2-0.3,3.1-1s1.4-1.8,1.5-2.9l7.5-87.7
									c0.1-1.3-0.4-2.5-1.3-3.4C113,6.2,112.1,5.8,111.1,5.7L111.1,5.7z"/>
							</g>
						</g>
					</g>
				</g>
				<g>
					<g>
						<g>
							<g>
								<path class="st4" d="M194.5,109.4c1.4,0.1,2.6-0.8,2.9-2.1c0.2-0.8,15-79.9-41.7-95.5c-0.2,0-0.3-0.1-0.5-0.1
									c-0.6-0.1-1.2,0.1-1.7,0.5c-0.6,0.4-1.1,1.1-1.1,1.9l-9.1,87.4c-0.1,0.7,0.1,1.4,0.6,1.9c0.4,0.5,1.1,0.9,1.8,1
									C145.5,104.3,194.4,109.4,194.5,109.4z"/>
							</g>
						</g>
						<g>
							<g>
								<path d="M154.9,14.3c55,15.1,39.8,92.5,39.8,92.5l-48.9-5.1L154.9,14.3 M155.4,9c-1.2-0.1-2.5,0.2-3.5,0.9
									c-1.3,0.9-2.1,2.3-2.3,3.8l-9.1,87.4c-0.1,1.4,0.3,2.8,1.2,3.9s2.2,1.8,3.6,1.9l48.9,5.1c0,0,0,0,0.1,0
									c2.7,0.3,5.2-1.6,5.7-4.3c0.2-0.8,3.9-20.5,0.8-42.3c-4.3-30-19.7-49.5-44.4-56.3C156,9.1,155.7,9,155.4,9L155.4,9z"/>
							</g>
						</g>
					</g>
					<g>
						<g>
							<g>
								<path class="st6" d="M175.9,106.9c1.1,0.1,2.2-0.7,2.3-1.8c0.4-3.4,9.9-82.2-22.7-93c-0.2,0-0.3-0.1-0.5-0.1
									c-0.5,0-0.9,0.1-1.4,0.3c-0.5,0.3-0.9,0.9-1,1.6l-9.1,87.5c-0.1,0.6,0.1,1.1,0.5,1.6s0.9,0.7,1.4,0.8
									C145.6,103.7,175.9,106.9,175.9,106.9z"/>
							</g>
						</g>
						<g>
							<g>
								<g>
									<path d="M154.9,14.1c31.3,10.3,21.2,90.7,21.2,90.7l-30.3-3.2L154.9,14.1 M155.3,9.9c-0.9-0.1-1.9,0.1-2.7,0.7
										c-1.1,0.7-1.8,1.8-1.9,3.1l-9.1,87.5c-0.1,1.1,0.2,2.2,0.9,3.1s1.7,1.4,2.9,1.5l30.3,3.2l0,0c2.3,0.2,4.3-1.4,4.6-3.7
										c0.1-0.8,2.6-20.7,1.2-42.3c-2-30.3-10.5-48.1-25.2-53C156,10,155.6,9.9,155.3,9.9L155.3,9.9z"/>
								</g>
							</g>
						</g>
					</g>
				</g>
			</g>
			<g>
				<g>
					<g>
						<path class="st4" d="M111.4,238.3c27.6,2.6,53.8-3,73.8-15.7c20.8-13.2,33.5-33.4,35.7-56.8c4.8-50.7-38.5-99.8-92.7-104.9
							s-106,34.9-110.8,85.6c-2.2,23.4,6.4,45.6,24.4,62.5C59.1,225.2,83.8,235.6,111.4,238.3z"/>
					</g>
				</g>
				<g>
					<g>
						<path d="M128,63.5c54.7,5.2,94.8,54.5,90.3,102s-51.9,75.3-106.6,70.2c-54.7-5.2-96.1-41.4-91.6-88.9
							C24.6,99.1,73.2,58.3,128,63.5 M128.5,58.2c-27.4-2.6-54.6,5.6-76.6,23c-21.2,16.8-34.8,40.6-37.1,65
							c-2.3,24.3,6.7,47.2,25.2,64.7c17.7,16.7,43,27.3,71.1,30c28.2,2.7,55-3.1,75.5-16.1c21.5-13.7,34.6-34.6,36.9-58.8
							c2.3-24.5-6.5-50.3-24.2-70.8C181.1,73.9,155.9,60.8,128.5,58.2L128.5,58.2z"/>
					</g>
				</g>
			</g>
			<g>
				<g>
					<path class="st6" d="M136,100.6c-4.4,46.3,26.4,87.8,70.5,97.9c6.5-9.5,10.6-20.6,11.8-33.1c4-42.2-27.1-85.7-72.4-98.6
						C140.6,77.1,137.1,88.5,136,100.6z"/>
				</g>
			</g>
			<g>
				<g>
					<path class="st6" d="M20.1,146.7c-1.2,12.5,0.8,24.2,5.3,34.7C58.7,180.2,88,161,103,132.6c-5.3-3.1-8.6-9.1-8-15.7
						c0.8-9,8.8-15.6,17.7-14.7c0.2-1.2,0.3-2.4,0.4-3.7c1.2-12.2-0.1-24-3.4-35.1l0,0C62.8,67.6,24.1,104.5,20.1,146.7z"/>
				</g>
			</g>
			<g>
				<g>
					<g>
						<path class="st3" d="M165.3,182.6c-0.7,7.3,4.7,13.8,12,14.5s13.8-4.7,14.5-12s-4.7-13.8-12-14.5
							C172.5,169.9,166,175.3,165.3,182.6z"/>
					</g>
				</g>
				<g>
					<g>
						<path class="st3" d="M42.4,170.9c-0.7,7.3,4.7,13.8,12,14.5s13.8-4.7,14.5-12s-4.7-13.8-12-14.5S43.1,163.6,42.4,170.9z"/>
					</g>
				</g>
			</g>
			<g>
				<g>
					<g>
						<line class="st10" x1="182.2" y1="111.9" x2="154" y2="130.6"/>
					</g>
					<g>
						<path d="M153.6,134.8c0.9,0.1,1.9-0.1,2.7-0.7l28.2-18.7c2-1.3,2.5-3.9,1.2-5.9s-3.9-2.5-5.9-1.2L151.6,127
							c-2,1.3-2.5,3.9-1.2,5.9C151.2,134.1,152.3,134.7,153.6,134.8z"/>
					</g>
				</g>
				<g>
					<g>
						<line class="st10" x1="65.6" y1="100.9" x2="89.8" y2="124.5"/>
					</g>
					<g>
						<path d="M89.4,128.8c1.2,0.1,2.5-0.3,3.4-1.3c1.6-1.7,1.6-4.4-0.1-6L68.6,97.9c-1.7-1.6-4.4-1.6-6,0.1s-1.6,4.4,0.1,6
							l24.2,23.6C87.6,128.3,88.5,128.7,89.4,128.8z"/>
					</g>
				</g>
			</g>
			<g>
				<g>
					<g>
						<g>
							<path d="M101.8,161.1c-0.7,7.1,6.3,13.6,15.5,14.5s17.3-4.2,18-11.3s-6.3-13.6-15.5-14.5C110.5,148.9,102.5,154,101.8,161.1z
								"/>
						</g>
					</g>
					<g>
						<g>
							<path d="M130.9,212.9c4.1,0.4,8.5-0.6,12.2-2.9c7-4.3,10.5-12.1,9.6-21.3c-0.1-1.2-1.1-2-2.3-1.9s-2,1.1-1.9,2.3
								c0.7,7.6-2.1,13.9-7.6,17.3c-4.9,3-11,3.1-15.6,0.3c-5.4-3.3-7.9-10.1-7-19l1.1-12c0.1-1.2-0.7-2.2-1.9-2.3
								c-1.2-0.1-2.2,0.7-2.3,1.9l-1.1,12c-1.4,14.3,5.1,20.6,9,23C125.5,211.8,128.1,212.7,130.9,212.9z"/>
						</g>
					</g>
					<g>
						<g>
							<path d="M97,209.7c2.8,0.3,5.5-0.1,8.1-1.1c4.3-1.7,11.8-6.6,13.2-20.9l1.1-12c0.1-1.2-0.7-2.2-1.9-2.3
								c-1.2-0.1-2.2,0.7-2.3,1.9l-1.1,12c-0.8,8.9-4.6,15.1-10.5,17.4c-5,1.9-11,0.7-15.2-3.2c-4.8-4.4-6.3-11.1-4.2-18.4
								c0.3-1.1-0.3-2.3-1.5-2.6c-1.1-0.3-2.3,0.3-2.6,1.5c-2.6,8.9-0.6,17.2,5.4,22.7C88.8,207.6,92.9,209.3,97,209.7z"/>
						</g>
					</g>
				</g>
			</g>
			<g>
				<g>
					<g>
						<path d="M205.8,230.7c0.2-0.7,0.5-1.4,0.9-2.1c4-8,13.8-11.2,21.7-7.2c7.3,3.7,10.6,12.1,8.1,19.6c-0.2,0.7-0.5,1.4-0.9,2.1
							c-4,8-13.8,11.2-21.7,7.2C206.6,246.6,203.3,238.2,205.8,230.7 M198.9,228.4L198.9,228.4c-3.7,11,1.3,23.2,11.7,28.4
							c11.6,5.8,25.7,1.1,31.5-10.4c0.5-1,0.9-2,1.3-3.1c3.7-11-1.3-23.2-11.7-28.4c-11.6-5.8-25.7-1.1-31.5,10.4
							C199.7,226.3,199.3,227.3,198.9,228.4L198.9,228.4z"/>
					</g>
				</g>
			</g>
			<path class="st3" d="M273.9,270H305c-3.1-18.6-10.5-36.2-21.9-51.4l-0.2-0.3c-0.4-0.5-0.9-0.8-1.5-0.8c-0.1,0-0.2,0-0.3,0
				c-0.5,0-0.9,0.2-1.3,0.6l-29,29c-0.4,0.4-0.6,0.9-0.6,1.5s0.3,1.1,0.7,1.5L273.9,270z"/>
			<path d="M270.8,270h6.2l-24.8-21.5l29-29l0.2,0.3c11.1,14.8,18.4,32.1,21.5,50.2h4.1c-3.1-19.1-10.7-37.1-22.4-52.7l-0.2-0.3
				c-0.7-0.9-1.8-1.5-3-1.6c-0.2,0-0.4,0-0.6,0c-1,0.1-1.9,0.5-2.6,1.2l-29,29c-0.8,0.8-1.2,1.9-1.2,3s0.5,2.2,1.4,2.9L270.8,270z"
				/>
			<path d="M148.7,270h11.6c-0.7-0.4-1.4-0.9-2-1.4c-1.4-1.1-2.5-2.3-3.5-3.7c-4.7-6.5-5-14.7-5-14.7s12.6-1.6,20.7,4.8
				c1.4,1.1,2.5,2.3,3.5,3.7c2.8,3.8,4.1,8.3,4.6,11.3h7.8c-0.4-3.5-1.8-10.2-6-16c-1.4-1.9-2.9-3.5-4.6-4.9c-10-8-24.4-6.4-26-6.2
				c-2,0.3-4,1.3-5.4,2.9c-1.4,1.6-2.2,3.6-2.1,5.5c0,1,0.6,10.5,6.2,18.3C148.4,269.7,148.6,269.9,148.7,270z"/>
			<path d="M236.7,270c0.5-0.6,1.1-1.3,1.7-2.1c3.2-3.6,8.2-8.1,14.7-9.9c11.9-3.4,24.2,3.3,24.2,3.3s-1.5,2.5-4.2,5.6
				c-0.9,1-1.8,2-2.9,3h9.9c2.2-2.7,3.4-4.7,3.5-5c1-1.7,1.2-3.7,0.7-5.6s-1.8-3.5-3.5-4.4c-0.6-0.3-15.1-8.1-29.6-4
				c-8.3,2.3-14.4,7.8-18.2,12c-3.1,3.5-4.9,6.5-5,6.8c0,0,0,0.1-0.1,0.1h8.8V270z"/>
			<path class="st9" d="M275.3,270c0.2-0.2,0.4-0.4,0.5-0.6c2.9-3.3,4.5-6.1,4.6-6.2c0.5-0.8,0.6-1.9,0.3-2.8
				c-0.3-0.9-0.9-1.7-1.8-2.2c-0.6-0.3-13.7-7.4-26.9-3.7c-7.4,2.1-13,7.1-16.4,11c-1.6,1.8-2.7,3.4-3.5,4.5H275.3z"/>
			<path class="st9" d="M153.9,270h28.5c-0.5-3.3-1.8-8.9-5.3-13.6c-1.2-1.6-2.6-3.1-4.1-4.3c-9.1-7.2-22.7-5.6-23.3-5.5
				c-1,0.1-2,0.6-2.7,1.4c-0.7,0.8-1.1,1.8-1,2.8c0,0.4,0.4,9.3,5.6,16.5C152.3,268.3,153.1,269.2,153.9,270z"/>
			<path class="st11" d="M187.8,239.9c0.1,0.1,0.2,0.1,0.4,0.2c-2.7,2.8-4.7,6.1-5.9,9.5c-2.3,6.9-1.1,13.7,3.4,18.2
				c0.9,0.9,1.9,1.6,3,2.3h17.5c2.6-1.2,5.2-3,7.4-5.2l0.1-0.1c1.1,2,2.4,3.8,3.9,5.3h27.2c0.8-1.2,1.5-2.6,2-4
				c1.9-5.6,1.2-12.3-1.8-18.2c-0.1-0.3-0.3-0.5-0.4-0.8c8.1-1.6,14.7-6.9,17-13.6c0.8-2.4,1-4.8,0.6-7.3c-1.6-9.6-12.3-15.8-24-14
				l0,0c0.9-5.6-0.1-11.2-2.6-15.7c-2.7-4.7-6.8-7.7-11.6-8.4c-8.2-1.3-16.5,4.8-19.7,14.3c-0.5,1.4-0.8,2.9-1.1,4.5
				c0,0.3-0.1,0.6-0.1,1c-10.4-4.7-22.1-1.9-26.4,6.6c-0.3,0.6-0.6,1.3-0.8,1.9C172.7,224.7,178,234.9,187.8,239.9z M214.2,234.8
				c0.5-0.4,0.9-0.9,1.1-1.5c0.1-0.3,0.2-0.7,0.1-1.1c0-0.1-0.1-1.1-0.2-2.5c0.3,0.3,0.5,0.4,0.6,0.5c0.8,0.6,1.8,0.8,2.8,0.4
				c0.1,0,0.6-0.2,1.4-0.6c-0.4,0.9-0.6,1.5-0.7,1.6v0.1c-0.3,0.9-0.1,1.9,0.5,2.7c0.1,0.1,0.7,0.8,1.7,1.9c-0.5,0-0.8-0.1-0.9-0.1
				c-1,0-2,0.5-2.5,1.3c0,0.1-0.4,0.6-0.9,1.4c-0.1-0.5-0.2-0.9-0.2-0.9c-0.3-1-1-1.7-2-2c-0.1,0-0.9-0.2-2.1-0.5
				C213.6,235.2,214.1,234.9,214.2,234.8z"/>
			<g>
				<path d="M214.2,238.9c0,0,1.4,5,1.5,10.7c0.1-0.4,0.2-0.7,0.3-1.1c1.8-5.2,4.4-9.3,4.4-9.3s5.6,0.2,11.3,2.1
					c-5.6-3.5-9.7-8.6-9.7-8.6s2.1-5.6,5.9-10.6c-4.9,3.8-10.3,5.9-10.3,5.9s-4.3-3.4-7.7-8.1c2.4,6.1,2.8,12.6,2.8,12.6
					s-5.2,3.5-11.4,5.2C207.8,237.2,214.2,238.9,214.2,238.9z"/>
				<path d="M183.8,240.8c-1.8,2.4-3.2,5.1-4.2,7.8c-2.7,7.9-1.1,16,4.1,21.1c0.1,0.1,0.2,0.2,0.3,0.2h27.9c0.4-0.3,0.8-0.6,1.2-0.9
					c0.2,0.3,0.5,0.6,0.7,0.9h7.9c-2.3-1.9-4.3-4.3-5.9-7.3c-0.8-1.6-1.2-3.3-1.3-5c-0.6,1.9-1.6,3.7-3,5.1
					c-7.3,7.4-18,8.7-23.8,2.9c-3.8-3.8-4.6-9.6-2.7-15.2c1-3,2.8-6,5.4-8.6c1.6-1.6,3.6-2.6,5.8-3.3c-2.5,0.1-4.9-0.2-7-1.3
					c-8.6-4.3-13.2-13.1-10.8-20.2c0.2-0.5,0.4-1,0.6-1.6c3.7-7.3,14.2-9.5,23.5-4.8c1.7,0.8,3.1,2.1,4.2,3.5
					c-0.9-2.3-1.3-4.7-1-7.1c0.2-1.4,0.5-2.7,1-4c2.7-8.1,9.6-13.5,16.6-12.4c8.1,1.2,13.4,10.6,11.9,20.9c-0.1,0.7-0.3,1.3-0.5,1.9
					c-0.5,1.4-1.2,2.7-2.1,3.9c1.7-1.2,3.5-2.1,5.6-2.5c10.3-1.7,19.7,3.5,21,11.6c0.3,2,0.1,4-0.5,5.9c-1.9,5.8-7.9,10.6-15.7,11.8
					c-1.9,0.3-3.8,0.1-5.7-0.4c2.1,1.3,3.9,3,5,5.2c2.8,5.4,3.2,11.3,1.7,16c-0.6,1.9-1.6,3.5-2.9,4.9h6.9c0.5-1,1-2,1.4-3.1
					c1.9-5.6,1.5-12-0.9-18c7.5-2.5,13.4-7.9,15.6-14.5c1-2.8,1.2-5.7,0.7-8.6c-0.9-5.6-4.6-10.5-10-13.6c-4-2.2-8.8-3.3-13.7-3.2
					c0.2-5-1-9.9-3.3-14c-3.1-5.4-8.1-9-13.7-9.9c-9.7-1.5-19.1,5.2-22.9,16.2c-0.3,0.8-0.5,1.6-0.7,2.4
					c-10.9-3.4-22.2,0.3-26.7,9.2c-0.4,0.7-0.7,1.5-1,2.3l0,0C169.9,224.3,174.5,234.8,183.8,240.8z"/>
			</g>
			<g>
				<g>
					<g>
						<g>
							<path d="M254.1,156.4c0.5,0,0.9-0.3,1.2-0.7c0.5-0.7,0.2-1.7-0.5-2.1l-11.2-7.2c-0.7-0.5-1.7-0.2-2.1,0.5
								c-0.5,0.7-0.2,1.7,0.5,2.1l11.2,7.2C253.4,156.3,253.8,156.4,254.1,156.4z"/>
						</g>
					</g>
				</g>
				<g>
					<g>
						<path d="M273.9,163.8c-0.1,0-0.1,0-0.2,0c-1.6-0.1-2.8-1.4-2.7-3c0.1-1.4-0.6-2.8-1.8-4c-1.4-1.3-3.4-2.1-5.6-2.2
							c-4.2-0.3-7.9,2.2-8.1,5.3c-0.1,1.6-1.4,2.7-3,2.7c-1.6-0.1-2.8-1.4-2.7-3c0.3-6.3,6.7-11,14.1-10.6c3.5,0.2,6.7,1.5,9.1,3.6
							c2.6,2.3,3.9,5.3,3.7,8.5C276.6,162.7,275.4,163.8,273.9,163.8z"/>
					</g>
				</g>
			</g>
			<g>
				<g>
					<g>
						<g>
							<path d="M364.2,146.9c-0.3,0.2-0.6,0.4-0.9,0.4c-0.5,0.1-0.9-0.1-1.3-0.5c-0.6-0.6-0.6-1.6,0-2.2l9.6-9.2
								c0.6-0.6,1.6-0.6,2.2,0s0.6,1.6,0,2.2"/>
						</g>
					</g>
				</g>
				<g>
					<g>
						<path d="M344.8,158.5c-1.3,0-2.4-0.9-2.7-2.1c-0.8-3.1-0.1-6.3,2-9c1.9-2.6,4.8-4.5,8.2-5.3c3.4-0.9,6.8-0.6,9.8,0.7
							c3.1,1.4,5.3,3.9,6.1,7c0.4,1.5-0.5,3.1-2,3.4c-1.5,0.4-3.1-0.5-3.4-2c-0.3-1.4-1.4-2.5-2.9-3.2c-1.8-0.8-3.9-0.9-6-0.4
							s-3.9,1.7-5.1,3.2c-1,1.4-1.4,2.9-1,4.2c0.4,1.5-0.5,3.1-2,3.4C345.2,158.4,345,158.5,344.8,158.5z"/>
					</g>
				</g>
			</g>
			<g>
				<g>
					<g>
						<g>
							<path d="M70.1,142.3l-25.9-2.4c-1.2-0.1-2-1.1-1.9-2.3s1.1-2,2.3-1.9l18.3,1.7l-13.2-9.8c-0.9-0.7-1.1-2-0.4-3
								c0.7-0.9,2-1.1,3-0.4l19.4,14.3c0.8,0.6,1.1,1.6,0.7,2.5C71.9,141.8,71,142.4,70.1,142.3z"/>
						</g>
					</g>
				</g>
				<g>
					<g>
						<g>
							<path d="M193.1,153.6L193.1,153.6l-25.9-2.4c-0.9-0.1-1.7-0.8-1.9-1.7s0.3-1.9,1.2-2.3l21.7-10.5c1.1-0.5,2.3-0.1,2.8,1
								s0.1,2.3-1,2.8l-14.8,7.2l18.3,1.7c1.2,0.1,2,1.1,1.9,2.3C195.3,152.9,194.3,153.7,193.1,153.6z"/>
						</g>
					</g>
				</g>
			</g>
			<g>
				<g>
					<path class="st6" d="M336.9,85.6c-0.7,0-1.3,0-2,0c-3.8-0.3-7.2-2-9.7-4.8s-3.7-6.5-3.4-10.2c0.5-7,6.1-12.6,13.1-13.1
						c0.7,0,1.3,0,2,0c7.8,0.5,13.6,7.3,13.1,15.1C349.5,79.5,343.9,85.1,336.9,85.6z"/>
				</g>
			</g>
			<path class="st3" d="M361.9,270l-2.3-3.9l22-25.4c0.4-0.4,0.5-1,0.5-1.5c-0.1-0.6-0.4-1.1-0.8-1.4l-32.9-24.6
				c-0.4-0.3-0.9-0.4-1.4-0.4c-0.1,0-0.2,0-0.3,0c-0.6,0.1-1.1,0.5-1.4,1l-0.2,0.3c-9.4,17.2-14.3,36.4-14.4,55.9L361.9,270
				L361.9,270z"/>
			<path d="M332.9,270c0.1-19.2,5-38,14.2-54.9l0.2-0.3l32.9,24.6l-23,26.5l2.4,4.1h4.7l-2.2-3.7l21.1-24.3c0.7-0.9,1.1-2,1-3.1
				s-0.7-2.1-1.6-2.8l-32.9-24.6c-0.8-0.6-1.8-0.9-2.7-0.8c-0.2,0-0.4,0-0.6,0.1c-1.2,0.3-2.1,1-2.7,2l-0.2,0.3
				c-9.6,17.5-14.6,37-14.7,56.9H332.9z"/>
			<g>
				<g>
					<g>
						<path d="M336.5,41c0.4,0,0.8,0,1.2,0c5.8,0.4,10.1,6.7,9.6,14.1c-0.1,1.3-0.5,2.6-1.2,3.7c1.3-1.2,2.7-2.2,4.4-2.6
							c1-0.2,1.9-0.4,2.9-0.5c6.1-0.4,11.5,2.6,12.7,7.5c1.4,5.7-3.3,11.7-10.5,13.5c-0.5,0.1-0.9,0.2-1.4,0.2c-1,0.1-2.1,0-3.1-0.3
							c1.3,0.8,2.4,1.7,3.2,3c3.9,6.3,3.1,13.9-1.9,17c-1.2,0.8-2.6,1.2-4,1.3c-4.3,0.3-9.1-2.3-12.1-7c-0.7-1.2-1.1-2.5-1.3-3.9
							c-0.3,1.7-0.9,3.4-2,4.7c-2.8,3.3-6.5,5.2-10,5.5c-2.5,0.2-4.8-0.5-6.7-2c-4.5-3.8-4.2-11.4,0.5-17.1c0.8-1,1.8-1.7,2.9-2.2
							c-1.4,0.1-2.8,0-4.2-0.6c-6.9-2.8-10.6-9.4-8.5-14.8c1.4-3.5,5-5.7,9.3-6c2.3-0.2,4.7,0.2,7.1,1.2c1.5,0.6,2.7,1.6,3.8,2.9
							c-0.8-1.6-1.2-3.3-1.1-5C326.7,46.7,331.2,41.3,336.5,41 M325.4,74.4c0.3,0,0.5-0.1,0.8-0.1c3.9-0.3,7.3,0.4,7.3,0.4
							s1.4,3.7,1.7,8c0.8-4.6,3-8.7,3-8.7s4.3-0.2,8.5,1c-3.8-2.1-6.7-5.2-6.7-5.2s1-3.7,3.2-7.3c-3.3,3.3-7.5,5.3-7.5,5.3
							s-3.7-2.5-6.6-6.1c2.1,4.2,2.7,8.9,2.7,8.9S329.2,72.8,325.4,74.4 M336.2,36.9L336.2,36.9c-6.8,0.5-12.4,6.4-13.8,14.1
							c-2.1-0.5-4.2-0.7-6.3-0.6c-5.9,0.4-10.8,3.7-12.7,8.5c-1.5,3.7-1.1,8.1,1.1,11.9c1.7,2.9,4.3,5.4,7.4,7.2
							c-4.3,7-3.7,15.7,1.8,20.3c2.6,2.2,6,3.2,9.6,3c4.2-0.3,8.3-2.3,11.6-5.5c3.7,4.2,8.8,6.6,13.8,6.3c2.1-0.2,4.1-0.8,5.9-1.9
							c3.4-2.1,5.7-5.9,6.2-10.3c0.4-3.3-0.2-6.7-1.7-9.9c3.3-1.3,6.2-3.3,8.3-6c2.7-3.5,3.7-7.8,2.7-11.7
							c-1.7-6.8-8.7-11.2-16.9-10.6c-0.6,0-1.2,0.1-1.8,0.2c-0.8-8.1-6.3-14.5-13.3-15C337.4,36.9,336.8,36.9,336.2,36.9L336.2,36.9
							z"/>
					</g>
				</g>
			</g>
		</g>
	</g>
</g>
</svg>
