<?xml version="1.0" encoding="utf-8"?>
<!-- Generator: Adobe Illustrator 22.0.0, SVG Export Plug-In . SVG Version: 6.00 Build 0)  -->
<svg version="1.1" id="图层_1" xmlns="http://www.w3.org/2000/svg" xmlns:xlink="http://www.w3.org/1999/xlink" x="0px" y="0px"
	 width="70px" height="50px" viewBox="0 0 70 50" style="enable-background:new 0 0 70 50;" xml:space="preserve">
<style type="text/css">
	.st0{clip-path:url(#SVGID_2_);}
	.st1{fill:#FA9898;}
</style>
<g>
	<defs>
		<rect id="SVGID_1_" width="70" height="50"/>
	</defs>
	<clipPath id="SVGID_2_">
		<use xlink:href="#SVGID_1_"  style="overflow:visible;"/>
	</clipPath>
	<g class="st0">
		<g>
			<path class="st1" d="M34.5,45.6c-1.1,0-2.1-0.7-2.6-1.7c-1.8-4.3-5-6.3-9-8.8c-3.3-2-7-4.3-10.1-8.3c-1.8-2.3-3.8-5.1-4-8.5
				c-0.4-5.8,2.5-10.3,8.4-12.9c1.4-0.6,3.3-1,5.4-1c3.6,0,6.8,1,9,2.7c1.4,1.1,2.6,2.4,3.6,3.7c1-1.3,2.2-2.5,3.7-3.6
				c2.9-2.1,6.6-2.4,8.5-2.4c2.3,0,4.4,0.4,5.9,1.2c5.8,2.9,8.6,7.4,8,13.2c-0.4,3.3-2.4,6.1-4.3,8.3c-3.3,3.9-7.1,6-10.5,8
				c-4,2.3-7.4,4.3-9.4,8.5C36.6,45,35.6,45.6,34.5,45.6C34.5,45.6,34.5,45.6,34.5,45.6z"/>
		</g>
		<g>
			<path d="M22.5,7.2c2.5,0,5.4,0.6,7.3,2.1c2.3,1.8,3.9,4.2,5.3,6.7c1.4-2.4,3.1-4.8,5.5-6.5c1.8-1.3,4.4-1.9,6.8-1.9
				c1.9,0,3.6,0.3,4.7,0.9c6.5,3.2,6.7,7.9,6.4,10.3c-0.3,2.5-1.9,4.8-3.6,6.8c-6.8,7.9-16.2,8.1-20.3,17.2
				c-3.8-9.2-13.1-9.6-19.6-17.8c-1.7-2.1-3.2-4.4-3.4-6.9C11.4,15.7,11.6,11,18.3,8C19.3,7.5,20.8,7.2,22.5,7.2 M22.5,1.6
				C22.5,1.6,22.5,1.6,22.5,1.6c-1.8,0-4.3,0.2-6.6,1.2c-7,3.2-10.5,8.8-10,15.7c0.3,4.1,2.5,7.4,4.6,10c3.5,4.3,7.4,6.8,10.9,8.9
				c4.1,2.6,6.5,4.2,7.9,7.5c0.9,2.1,2.9,3.5,5.1,3.5c0,0,0.1,0,0.1,0c2.2,0,4.2-1.3,5.2-3.3c1.5-3.2,3.9-4.8,8.2-7.2
				c3.6-2.1,7.7-4.4,11.3-8.6c2.2-2.6,4.5-5.8,4.9-9.9c0.7-7-2.7-12.6-9.5-16c-1.9-0.9-4.5-1.4-7.2-1.4c-2.3,0-6.7,0.4-10.2,3
				c-0.7,0.5-1.3,1.1-1.9,1.6C34.6,6,34,5.4,33.3,4.9C29.6,2,25,1.6,22.5,1.6L22.5,1.6z"/>
		</g>
	</g>
</g>
</svg>
