<?xml version="1.0" encoding="utf-8"?>
<!-- Generator: Adobe Illustrator 22.0.0, SVG Export Plug-In . SVG Version: 6.00 Build 0)  -->
<svg version="1.1" id="图层_1" xmlns="http://www.w3.org/2000/svg" xmlns:xlink="http://www.w3.org/1999/xlink" x="0px" y="0px"
	 width="140px" height="180px" viewBox="0 0 140 180" style="enable-background:new 0 0 140 180;" xml:space="preserve">
<style type="text/css">
	.st0{clip-path:url(#SVGID_2_);}
	.st1{fill:#FACBCB;}
	.st2{fill:#FA9898;}
	.st3{fill:#FAD558;}
</style>
<g>
	<g>
		<defs>
			<rect id="SVGID_1_" width="140" height="180"/>
		</defs>
		<clipPath id="SVGID_2_">
			<use xlink:href="#SVGID_1_"  style="overflow:visible;"/>
		</clipPath>
		<g class="st0">
			<g>
				<circle class="st1" cx="32.7" cy="83.4" r="9.1"/>
			</g>
			<g>
				<circle class="st1" cx="96.7" cy="42.2" r="9.1"/>
			</g>
			<g>
				<path class="st1" d="M67.9,91.7c0.5-0.1,1-0.2,1.5-0.3c0.2-0.1,0.4-0.1,0.6-0.2c3.9-1.1,8-0.7,11.6,0.9c6.4,2,11.9,7.4,13.4,14
					c1.9,7.9-1.5,15.5-7.5,19.9c3.4,2.1,6.3,5.2,7.9,8.9c3,0.2,6-0.1,9.1-0.8c16.9-4.1,27.3-21.1,23.2-38
					c-4.1-16.9-21.1-27.3-38-23.2C79.5,75.3,71.6,82.5,67.9,91.7z"/>
			</g>
			<g>
				<path d="M77.3,157.9c-2,0-3.3-0.2-3.5-0.2c-1.9-0.2-3.3-2-3.1-3.9c0.2-1.9,2-3.3,3.9-3.1c0.2,0,10.2,1.1,15.5-3.6
					c2.2-2,3.3-4.9,3.2-8.7c-0.1-3.3-1.1-5.7-3.1-7.4c-4.2-3.5-12.2-3.1-14.9-2.7c-1.9,0.3-3.8-1-4.1-2.9c-0.3-1.9,1-3.8,2.9-4.1
					c0.5-0.1,13-2.1,20.6,4.2c3.6,3,5.5,7.3,5.6,12.7c0.1,5.9-1.8,10.7-5.6,14.1C89.5,157.1,81.7,157.9,77.3,157.9z"/>
			</g>
			<g>
				<path class="st1" d="M4.3,86.4l3.6,2.5c1.4,1,3.4-0.1,3.4-1.8L11.2,82c0-1.8-2.1-2.7-3.4-1.6l-3.6,2.5
					C3.1,83.8,3.1,85.6,4.3,86.4z"/>
			</g>
			<g>
				<path class="st1" d="M98.3,11.4l-2.2,2.3c-1.2,1.3-0.5,3.4,1.3,3.6l3.7,0.5c1.7,0.2,3-1.6,2.2-3.2l-1.5-2.8
					C101,10.6,99.3,10.3,98.3,11.4z"/>
			</g>
			<g>
				<path class="st1" d="M84.2,106.8l-1-0.9c-1.3-1.2-3.4-0.5-3.6,1.3l-0.2,1.6c-0.2,1.7,1.6,3,3.2,2.2l1.2-0.7
					C85,109.6,85.2,107.8,84.2,106.8z"/>
			</g>
			<g>
				<path class="st1" d="M86,137.7l-1-0.9c-1.3-1.2-3.4-0.5-3.6,1.3l-0.2,1.6c-0.2,1.7,1.6,3,3.2,2.2l1.2-0.7
					C86.9,140.5,87.1,138.7,86,137.7z"/>
			</g>
			<g>
				<path class="st2" d="M40.9,23c-0.6-2.3-1-4.7-0.6-7.2c0.5-3.3,4-6.7,6.3-7.5c5.9-2,8.7,0.8,10,2.4c1.3,1.7,1.7,4,1.9,6.2
					c0.7,8.8-4.8,14.6-1.9,22.4c-7.8-3.2-13.6,2.1-22.4,1.1c-2.2-0.2-4.5-0.7-6.2-2.1c-1.6-1.3-4.2-4.3-2.1-10.1
					c0.8-2.2,4.4-5.7,7.7-6.1C36.2,21.9,38.6,22.4,40.9,23z"/>
			</g>
			<path class="st3" d="M140,59.7c-6.6-0.3-10.5-0.7-10.5-0.7s-4.2,15.9,10.5,31.8V59.7z"/>
			<path d="M139.9,56.3c-11.4-0.5-17.4-2.2-20.1-3.3c0.9-5.8,2.1-19.5-4.6-29c-3.8-5.4-9.5-8.5-16.9-9.4c-7.4-0.8-13.6,1.1-18.4,5.8
				c-9.3,9.1-10.3,26.3-10.2,34.1c-11-0.3-41.9,0-55.2,13.5c-4.8,4.9-6.9,10.9-6.3,17.9c0.5,6.1,3,11,7.4,14.6
				c7.1,5.9,17.3,6.7,22.5,6.7c1.9,0,3.2-0.1,3.3-0.1c1.9-0.2,3.4-1.9,3.2-3.9c-0.2-1.9-1.9-3.4-3.9-3.2c-3.7,0.4-14.5,0.1-20.7-5
				c-2.9-2.4-4.5-5.6-4.9-9.8c-0.4-4.9,1-8.9,4.3-12.3c13.8-13.8,53.3-11.1,53.7-11.1c1,0.1,2-0.3,2.8-1c0.7-0.7,1.1-1.8,1-2.8
				c0-0.2-1.8-23,7.9-32.4c3.2-3.1,7.4-4.4,12.7-3.8c5.3,0.6,9.2,2.7,11.9,6.4c6.7,9.4,3,25.9,3,26.1c-0.3,1.3,0.2,2.8,1.3,3.6
				c0.9,0.7,7.1,4.8,26.3,5.6v-7.2H139.9z"/>
			<path d="M111.8,147.2c-3.5,1.3-5.8,3.8-8.2,6.4c-4.1,4.5-8.7,9.5-22.3,11.4c-7,0.9-14.3-1.1-19.8-5.6c-4.8-3.9-7.8-9-8.2-14.2
				c-0.9-10.8,3-14.8,3-14.8l0,0c0.9-0.8,1.3-2.1,1.1-3.3s-1.1-2.2-2.3-2.6c-2.9-1-10.6-4.9-11.3-10.5c-0.6-4.7,0.2-8.5,2.6-11.3
				c3.2-3.8,9.5-6.1,18.1-6.5c17.9-0.8,27.2,3,27.7,11.4c0.3,4-0.5,7-2.3,9c-2.5,2.8-7.5,4.4-15.3,4.8c-2,0.1-3.4,1.8-3.3,3.7
				c0.1,2,1.8,3.4,3.7,3.3c9.9-0.6,16.3-2.8,20.1-7.2c3.1-3.5,4.4-8.1,4-14.1c-0.6-9-7.1-19.4-35.1-18c-10.8,0.5-18.6,3.5-23.2,9
				c-3.7,4.4-5.1,10-4.2,16.8c1,7.5,7.5,12.1,12,14.5c-1.6,3.2-3,8.5-2.4,16.5c0.6,7.1,4.5,14,10.8,19.1c7.1,5.7,16.3,8.3,25.2,7.1
				c16.1-2.2,22.2-8.8,26.6-13.6c1.9-2.1,3.5-3.8,5.4-4.5c5.2-1.9,15-0.4,25.8,2.5v-7.5C140,148.9,118.2,144.8,111.8,147.2z"/>
		</g>
	</g>
</g>
</svg>
