<?xml version="1.0" encoding="utf-8"?>
<!-- Generator: Adobe Illustrator 22.0.0, SVG Export Plug-In . SVG Version: 6.00 Build 0)  -->
<svg version="1.1" id="图层_1" xmlns="http://www.w3.org/2000/svg" xmlns:xlink="http://www.w3.org/1999/xlink" x="0px" y="0px"
	 width="110px" height="190px" viewBox="0 0 110 190" style="enable-background:new 0 0 110 190;" xml:space="preserve">
<style type="text/css">
	.st0{clip-path:url(#SVGID_2_);}
	.st1{fill:#FFF4EC;}
	.st2{fill:#FAD558;}
	.st3{fill:#FFDADA;}
	.st4{fill:#333333;}
	.st5{fill:#FFFFFF;}
	.st6{fill:#F7E2D0;}
	.st7{fill:#BF272D;}
	.st8{fill:#FA9898;}
</style>
<g>
	<defs>
		<rect id="SVGID_1_" width="110" height="190"/>
	</defs>
	<clipPath id="SVGID_2_">
		<use xlink:href="#SVGID_1_"  style="overflow:visible;"/>
	</clipPath>
	<g class="st0">
		<g>
			<g>
				<g>
					<g>
						<g>
							<path class="st1" d="M62.8,186.5c-0.7,0-1.3-0.6-1.3-1.3v-11.1c0-0.3,0.1-0.6,0.3-0.8c-2,0.3-4.1,0.5-5.7,0.5
								c-0.4,0-0.8,0-1.1,0c-0.3,0-0.7,0-1.1,0c-1.6,0-3.7-0.2-5.7-0.5c0.2,0.2,0.3,0.5,0.3,0.8v11.1c0,0.7-0.6,1.3-1.3,1.3H26
								c-0.6,0-1.1-0.4-1.2-1c-2.4-9.8-1-23.9,0.6-35.8c-0.2,1-0.3,1.5-0.3,1.5c-1.6,6.1-5,8.1-7.6,8.8c-0.8,0.2-1.6,0.3-2.4,0.3
								c-3.6,0-7-2.1-8.9-5.4c-1.2-2-1.8-4.4-1.8-6.9c0-18.8,20.1-43.6,20.9-44.7c0.2-0.3,0.6-0.5,1-0.5h57.5c0.4,0,0.8,0.2,1,0.5
								c0.9,1,20.9,25.9,20.9,44.7c0,2.5-0.6,4.9-1.8,6.9c-1.9,3.3-5.3,5.4-8.9,5.4l0,0c-0.8,0-1.6-0.1-2.4-0.3
								c-2.6-0.7-6-2.7-7.6-8.7c0,0-0.1-0.6-0.3-1.6c1.6,11.9,3,26,0.6,35.8c-0.1,0.6-0.7,1-1.2,1H62.8z"/>
						</g>
					</g>
					<g>
						<g>
							<g>
								<path d="M83.7,104.2c0,0,20.7,25.4,20.7,43.9c0,2.6-0.7,4.7-1.6,6.3c-1.7,2.9-4.6,4.8-7.8,4.8c-0.7,0-1.4-0.1-2.1-0.3
									c-2.6-0.7-5.3-2.7-6.7-7.8c0,0-2.8-14-3.6-17.9c-0.1-0.4-0.4-0.6-0.7-0.6c-0.4,0-0.8,0.3-0.8,0.9c1.3,12.5,6.4,37,2.8,51.8
									H62.8v-11.1l3.6-1.7c0.6-0.3,0.4-1.1-0.2-1.1c0,0-0.1,0-0.1,0c-3.1,0.5-7.2,1.1-9.9,1.1c-0.4,0-0.8,0-1.1,0
									c-0.3,0-0.7,0-1.1,0c-2.7,0-6.8-0.6-9.9-1.1c0,0-0.1,0-0.1,0c-0.6,0-0.8,0.8-0.2,1.1l3.6,1.7v11.1H26
									c-3.6-14.8,1.5-39.3,2.8-51.8c0.1-0.6-0.3-0.9-0.8-0.9c-0.3,0-0.6,0.2-0.7,0.6c-0.8,3.8-3.6,17.9-3.6,17.9
									c-1.4,5.2-4.1,7.2-6.7,7.8c-0.7,0.2-1.4,0.3-2.1,0.3c-3.2,0-6.2-1.9-7.8-4.8c-0.9-1.6-1.6-3.6-1.6-6.3
									c0-18.5,20.7-43.9,20.7-43.9H55H83.7 M83.7,101.6H55H26.3c-0.8,0-1.5,0.3-2,0.9C23.4,103.6,3,128.9,3,148.1
									c0,2.8,0.6,5.3,1.9,7.5c2.1,3.7,6,6,10.1,6c0.9,0,1.8-0.1,2.7-0.3c1.7-0.4,3.6-1.4,5.3-3.3c-1,9.8-1.4,20.1,0.5,27.8
									c0.3,1.1,1.3,2,2.5,2h21.2c1.4,0,2.6-1.1,2.6-2.6v-10.5c1.6,0.2,3,0.3,4.1,0.3c0.4,0,0.8,0,1.1,0c0.3,0,0.7,0,1.1,0
									c1.1,0,2.5-0.1,4.1-0.3v10.5c0,1.4,1.1,2.6,2.6,2.6H84c1.2,0,2.2-0.8,2.5-2c1.9-7.8,1.5-18,0.5-27.8
									c1.7,1.9,3.7,2.9,5.3,3.3c0.9,0.2,1.8,0.3,2.7,0.3c4.1,0,7.9-2.3,10.1-6c1.3-2.2,1.9-4.8,1.9-7.5
									c0-19.2-20.4-44.4-21.2-45.5C85.2,102,84.5,101.6,83.7,101.6L83.7,101.6z"/>
							</g>
						</g>
					</g>
				</g>
				<g>
					<g>
						<path class="st2" d="M22.7,118.8c0,12.1-7.2,21.8-16.2,21.8c2.6-11.1,10-23,15-30.1C22.3,113.1,22.7,115.8,22.7,118.8z"/>
					</g>
				</g>
				<g>
					<g>
						<path class="st2" d="M103.5,140.6L103.5,140.6c-8.9,0-16.2-9.8-16.2-21.8c0-2.9,0.4-5.7,1.2-8.2
							C93.4,117.6,100.8,129.5,103.5,140.6z"/>
					</g>
				</g>
				<g>
					<g>
						<path class="st3" d="M57.8,159.6h-5.6c-7.7,0-14-6.3-14-14v-13.4c0-7.7,6.3-14,14-14h5.6c7.7,0,14,6.3,14,14v13.4
							C71.8,153.3,65.5,159.6,57.8,159.6z"/>
					</g>
				</g>
				<g>
					<g>
						<g>
							<path class="st2" d="M47.2,185.2v-6H25c0.2,2.1,0.5,4.1,1,6H47.2z"/>
						</g>
					</g>
					<g>
						<g>
							<path class="st2" d="M62.8,179.2v6H84c0.5-1.9,0.8-3.9,1-6H62.8z"/>
						</g>
					</g>
				</g>
			</g>
			<g>
				<g>
					<g>
						<path class="st4" d="M58.9,180.5c-0.7,0-1.3-0.6-1.3-1.3v-3.4c0-0.6,0.3-1.1,0.7-1.5c-0.7,0-1.4,0-2,0c-0.5,0-1,0-1.4,0
							c-0.4,0-0.9,0-1.4,0c-0.6,0-1.3,0-2,0c0.4,0.3,0.7,0.9,0.7,1.5v3.4c0,0.7-0.6,1.3-1.3,1.3H22.4c-0.5,0-1-0.4-1.2-0.9
							c-2.7-8.8,1.1-30.2,1.3-31.1c0.1-0.6,0.6-1,1.2-1h62.5c0.6,0,1.1,0.4,1.2,1c0.2,0.9,4,22.3,1.3,31.1c-0.2,0.5-0.6,0.9-1.2,0.9
							H58.9z"/>
					</g>
				</g>
				<g>
					<g>
						<path d="M86.2,148.7c0,0,4,21.9,1.3,30.5H58.9v-3.4c0-0.3,0.2-0.5,0.4-0.6c0.7-0.2,5.4-1.3,6.8-1.7c0.6-0.2,0.5-1.2-0.1-1.2
							c0,0-0.1,0-0.1,0c-2.3,0.5-6.8,0.8-9.5,0.8c-0.5,0-1,0-1.4,0c0,0,0,0,0,0c0,0,0,0,0,0c-0.4,0-0.9,0-1.4,0
							c-2.7,0-7.2-0.3-9.5-0.8c0,0-0.1,0-0.1,0c-0.6,0-0.7,1-0.1,1.2c1.4,0.5,6.1,1.6,6.8,1.7c0.3,0.1,0.4,0.3,0.4,0.6v3.4H22.4
							c-2.7-8.6,1.3-30.5,1.3-30.5H55H86.2 M86.2,146.2H55H23.8c-1.2,0-2.2,0.9-2.5,2.1c-0.2,0.9-4.1,22.6-1.2,31.7
							c0.3,1,1.3,1.8,2.4,1.8h28.7c1.4,0,2.5-1.1,2.5-2.5v-3.4c0-0.1,0-0.1,0-0.2c0.5,0,1,0,1.4,0c0.4,0,0.9,0,1.4,0
							c0,0.1,0,0.1,0,0.2v3.4c0,1.4,1.1,2.5,2.5,2.5h28.7c1.1,0,2.1-0.7,2.4-1.8c2.8-9.1-1.1-30.8-1.2-31.7
							C88.5,147.1,87.5,146.2,86.2,146.2L86.2,146.2z"/>
					</g>
				</g>
			</g>
			<g>
				<g>
					<g>
						<path class="st5" d="M31.4,148.7c-3,19.2-1.8,28.4-1.5,30.5H26c-0.5-3.4-1.2-12.7,1.5-30.5H31.4z"/>
					</g>
				</g>
				<g>
					<g>
						<path class="st5" d="M82.5,148.7c2.7,17.8,2,27.1,1.5,30.5h-3.9c0.4-2.1,1.5-11.3-1.5-30.5L82.5,148.7z"/>
					</g>
				</g>
			</g>
			<g>
				<g>
					<g>
						<path d="M21.8,162.9c-0.5,0-1-0.4-1-0.9c0-0.6,0.4-1,0.9-1.1c10.8-0.8,12.1-13,12.1-13.5c0.1-0.5,0.5-1,1.1-0.9
							c0.5,0.1,1,0.5,0.9,1.1C35.9,147.7,34.3,161.9,21.8,162.9C21.9,162.9,21.8,162.9,21.8,162.9z"/>
					</g>
				</g>
				<g>
					<g>
						<path d="M88.2,162.9C88.2,162.9,88.1,162.9,88.2,162.9c-12.5-0.9-14-15.1-14.1-15.3c-0.1-0.5,0.3-1,0.9-1.1
							c0.6-0.1,1,0.3,1.1,0.9c0.1,0.5,1.4,12.7,12.1,13.5c0.6,0,1,0.5,0.9,1.1C89.1,162.5,88.7,162.9,88.2,162.9z"/>
					</g>
				</g>
			</g>
			<g>
				<g>
					<g>
						<path class="st6" d="M32.2,122.7c0,0-3.8,5-6.1,5.3l-1.1,6.2l4.4-3.1l2.4-6.2L32.2,122.7z"/>
					</g>
				</g>
				<g>
					<g>
						<path class="st6" d="M77.8,122.7c0,0,3.8,5,6.1,5.3l1.1,6.2l-4.4-3.1l-2.4-6.2L77.8,122.7z"/>
					</g>
				</g>
			</g>
			<g>
				<g>
					<g>
						<g>
							<path d="M85.9,140.6c-0.5,0-1-0.4-1-1c-0.2-5.4-2.2-15.7-2.3-15.8c-0.1-0.5,0.2-1.1,0.8-1.2c0.5-0.1,1.1,0.2,1.2,0.8
								c0.1,0.4,2.1,10.5,2.3,16.1C86.9,140.2,86.5,140.6,85.9,140.6C85.9,140.6,85.9,140.6,85.9,140.6z"/>
						</g>
					</g>
				</g>
				<g>
					<g>
						<g>
							<path d="M24.1,140.6C24.1,140.6,24.1,140.6,24.1,140.6c-0.6,0-1-0.5-1-1c0.2-5.6,2.2-15.7,2.3-16.1c0.1-0.5,0.6-0.9,1.2-0.8
								c0.5,0.1,0.9,0.6,0.8,1.2c0,0.1-2.1,10.3-2.3,15.8C25.1,140.2,24.7,140.6,24.1,140.6z"/>
						</g>
					</g>
				</g>
			</g>
			<g>
				<g>
					<g>
						<path class="st7" d="M21.5,149.7c-0.3,0-0.6-0.1-0.8-0.4s-0.3-0.5-0.2-0.8l2.4-13.6c0.1-0.5,0.5-0.8,1-0.8
							c8.6,0,10.8-20.5,10.9-28.4c0-0.3,0.1-0.6,0.4-0.8c0.2-0.1,0.4-0.2,0.6-0.2c0.1,0,0.2,0,0.3,0l4.1,1.1
							c0.4,0.1,0.7,0.5,0.7,0.9c0,7.2,2,12.3,5.9,15.2c3.1,2.3,6.4,2.5,7.7,2.5c0.3,0,0.4,0,0.4,0c0,0,0.1,0,0.2,0c0,0,0.2,0,0.4,0
							c3.2,0,13.7-1.3,13.7-17.7c0-0.4,0.3-0.8,0.7-0.9l4.1-1.1c0.1,0,0.2,0,0.3,0c0.2,0,0.4,0.1,0.6,0.2c0.2,0.2,0.4,0.5,0.4,0.8
							c0.1,7.9,2.3,28.4,10.9,28.4c0.5,0,0.9,0.3,1,0.8l2.4,13.6c0.1,0.3,0,0.6-0.2,0.8s-0.5,0.4-0.8,0.4H21.5z"/>
					</g>
				</g>
				<g>
					<g>
						<path d="M74.2,105.7c0,0,0.4,29.4,11.9,29.4l2.4,13.6H55H21.5l2.4-13.6c11.4,0,11.9-29.4,11.9-29.4l4.1,1.1
							c0,17.7,12,18.7,14.6,18.7c0.3,0,0.5,0,0.5,0s0.2,0,0.5,0c2.6,0,14.6-1,14.6-18.7L74.2,105.7 M74.2,103.8
							c-0.2,0-0.3,0-0.5,0.1l-4.1,1.1c-0.9,0.2-1.4,1-1.4,1.9c0,15.5-9.7,16.7-12.7,16.7c-0.2,0-0.3,0-0.3,0c0,0-0.1,0-0.1,0
							c-0.1,0-0.1,0-0.2,0c0,0-0.1,0-0.3,0c-3,0-12.7-1.2-12.7-16.7c0-0.9-0.6-1.7-1.4-1.9l-4.1-1.1c-0.2,0-0.3-0.1-0.5-0.1
							c-0.4,0-0.8,0.1-1.2,0.4c-0.5,0.4-0.8,0.9-0.8,1.5c-0.1,7.1-2.2,27.4-9.9,27.4c-1,0-1.8,0.7-1.9,1.6l-2.4,13.6
							c-0.1,0.6,0.1,1.2,0.4,1.6c0.4,0.4,0.9,0.7,1.5,0.7H55h33.5c0.6,0,1.1-0.3,1.5-0.7c0.4-0.4,0.5-1,0.4-1.6L88,134.8
							c-0.2-0.9-1-1.6-1.9-1.6c-7.8,0-9.8-20.3-9.9-27.4c0-0.6-0.3-1.2-0.8-1.5C75.1,103.9,74.7,103.8,74.2,103.8L74.2,103.8z"/>
					</g>
				</g>
			</g>
			<g>
				<g>
					<g>
						<g>
							<g>
								<path class="st1" d="M65,47.3c-0.3,0-0.6-0.1-0.9-0.4c-0.2-0.2-0.4-0.6-0.4-0.9l0.4-41.4c0-0.4,0.2-0.7,0.5-0.9
									c0.2-0.2,0.5-0.3,0.8-0.3c0.1,0,0.1,0,0.2,0C93,8.3,89.5,46,89.5,46.4c-0.1,0.6-0.6,1.1-1.2,1.1C88.2,47.5,65,47.3,65,47.3z
									"/>
							</g>
						</g>
						<g>
							<g>
								<path d="M65.5,4.7c26.5,4.7,22.8,41.6,22.8,41.6l-23.2-0.2L65.5,4.7 M65.5,2.2c-0.6,0-1.1,0.2-1.6,0.6C63.3,3.3,63,4,63,4.7
									l-0.4,41.4c0,0.7,0.3,1.3,0.7,1.8c0.5,0.5,1.1,0.7,1.8,0.7l23.2,0.2c0,0,0,0,0,0c1.3,0,2.4-1,2.5-2.3
									c0-0.4,0.9-9.8-1.5-19.9C85.8,12.8,77.8,4.3,65.9,2.3C65.7,2.2,65.6,2.2,65.5,2.2L65.5,2.2z"/>
							</g>
						</g>
					</g>
					<g>
						<g>
							<g>
								<path class="st2" d="M65,47.1c-0.3,0-0.5-0.1-0.7-0.3s-0.3-0.4-0.3-0.7l0.4-41.4c0-0.3,0.1-0.6,0.4-0.8
									c0.2-0.1,0.4-0.2,0.6-0.2c0.1,0,0.1,0,0.2,0c15.7,3.6,14.8,41,14.7,42.6c0,0.5-0.5,1-1,1C79.4,47.2,65,47.1,65,47.1z"/>
							</g>
						</g>
						<g>
							<g>
								<path d="M65.5,4.6c15.1,3.5,14,41.6,14,41.6l-14.4-0.1L65.5,4.6 M65.5,2.6c-0.4,0-0.9,0.1-1.2,0.4c-0.5,0.4-0.8,0.9-0.8,1.6
									l-0.4,41.4c0,0.5,0.2,1,0.6,1.4c0.4,0.4,0.9,0.6,1.4,0.6l14.4,0.1c0,0,0,0,0,0c1.1,0,2-0.9,2-1.9c0-0.4,0.3-9.8-1.3-19.9
									C77.8,12.3,73,4.3,65.9,2.7C65.8,2.7,65.6,2.6,65.5,2.6L65.5,2.6z"/>
							</g>
						</g>
					</g>
				</g>
				<g>
					<g>
						<g>
							<g>
								<path class="st1" d="M21.8,47.5c-0.6,0-1.2-0.5-1.2-1.1C20.5,46,17,8.3,44.3,3.5c0.1,0,0.1,0,0.2,0c0.3,0,0.6,0.1,0.8,0.3
									c0.3,0.2,0.4,0.6,0.5,0.9l0.4,41.4c0,0.3-0.1,0.7-0.4,0.9c-0.2,0.2-0.5,0.4-0.9,0.4C45,47.3,21.8,47.5,21.8,47.5z"/>
							</g>
						</g>
						<g>
							<g>
								<path d="M44.5,4.7l0.4,41.4l-23.2,0.2C21.8,46.3,18.1,9.4,44.5,4.7 M44.5,2.2c-0.1,0-0.3,0-0.4,0
									C32.2,4.3,24.2,12.8,20.8,26.7c-2.5,10.1-1.6,19.5-1.5,19.9c0.1,1.3,1.2,2.3,2.5,2.3c0,0,0,0,0,0L45,48.6
									c0.7,0,1.3-0.3,1.8-0.7c0.5-0.5,0.7-1.1,0.7-1.8L47,4.7c0-0.7-0.3-1.4-0.9-1.9C45.7,2.4,45.1,2.2,44.5,2.2L44.5,2.2z"/>
							</g>
						</g>
					</g>
					<g>
						<g>
							<g>
								<path class="st2" d="M30.6,47.2c-0.5,0-1-0.4-1-1c0-1.6-1-39,14.7-42.6c0.1,0,0.1,0,0.2,0c0.2,0,0.4,0.1,0.6,0.2
									c0.2,0.2,0.4,0.5,0.4,0.8l0.4,41.4c0,0.3-0.1,0.5-0.3,0.7s-0.4,0.3-0.7,0.3C45,47.1,30.6,47.2,30.6,47.2z"/>
							</g>
						</g>
						<g>
							<g>
								<g>
									<path d="M44.5,4.6l0.4,41.4l-14.4,0.1C30.6,46.2,29.4,8.1,44.5,4.6 M44.5,2.6c-0.1,0-0.3,0-0.4,0.1
										C37,4.3,32.2,12.3,29.9,26.4c-1.6,10-1.3,19.5-1.3,19.9c0,1.1,0.9,1.9,2,1.9c0,0,0,0,0,0L45,48.1c0.5,0,1-0.2,1.4-0.6
										c0.4-0.4,0.6-0.9,0.6-1.4L46.5,4.6c0-0.6-0.3-1.2-0.8-1.6C45.4,2.8,45,2.6,44.5,2.6L44.5,2.6z"/>
								</g>
							</g>
						</g>
					</g>
				</g>
			</g>
			<g>
				<g>
					<g>
						<path class="st1" d="M55,111.7c-13,0-25.1-3.8-33.9-10.6C11.9,93.9,6.9,83.9,6.9,72.8c0-24,22.5-45.1,48.1-45.1
							s48.1,21.1,48.1,45.1c0,11.1-5,21.1-14.2,28.2C80.1,107.9,68,111.7,55,111.7z"/>
					</g>
				</g>
				<g>
					<g>
						<path d="M55,29c25.9,0,46.9,21.3,46.9,43.8c0,22.5-21,37.6-46.9,37.6S8.1,95.3,8.1,72.8C8.1,50.3,29.1,29,55,29 M55,26.5
							c-13,0-25.4,5-34.9,14.2C10.9,49.5,5.6,61.2,5.6,72.8c0,11.5,5.2,21.9,14.7,29.2c9,7,21.4,10.9,34.7,10.9S80.6,109,89.7,102
							c9.5-7.4,14.7-17.7,14.7-29.2c0-11.6-5.3-23.3-14.5-32.1C80.4,31.5,68,26.5,55,26.5L55,26.5z"/>
					</g>
				</g>
			</g>
			<g>
				<g>
					<path class="st2" d="M49.6,46.1c0,21.9-16.3,40-37.4,42.8c-2.6-4.8-4.1-10.2-4.1-16c0-20,16.5-39,38.3-43
						C48.5,34.8,49.6,40.3,49.6,46.1z"/>
				</g>
			</g>
			<g>
				<g>
					<path class="st2" d="M101.9,72.8c0,5.9-1.4,11.3-4.1,16c-15.5-2.1-28.4-12.4-34.2-26.4c2.6-1.2,4.5-3.9,4.5-7
						c0-4.2-3.4-7.7-7.7-7.7c0-0.6,0-1.2,0-1.7c0-5.8,1.1-11.3,3.2-16.3h0C85.4,33.8,101.9,52.8,101.9,72.8z"/>
				</g>
			</g>
			<g>
				<g>
					<g>
						<path class="st8" d="M32.2,83.2c0,3.5-2.8,6.3-6.3,6.3c-3.5,0-6.3-2.8-6.3-6.3c0-3.5,2.8-6.3,6.3-6.3
							C29.4,76.9,32.2,79.7,32.2,83.2z"/>
					</g>
				</g>
				<g>
					<g>
						<path class="st8" d="M90.3,83.2c0,3.5-2.8,6.3-6.3,6.3c-3.5,0-6.3-2.8-6.3-6.3c0-3.5,2.8-6.3,6.3-6.3
							C87.5,76.9,90.3,79.7,90.3,83.2z"/>
					</g>
				</g>
			</g>
			<g>
				<g>
					<g>
						<line class="st5" x1="27.4" y1="49.3" x2="39.8" y2="59.3"/>
					</g>
					<g>
						<path d="M39.8,61.3c-0.4,0-0.9-0.1-1.3-0.4l-12.4-10c-0.9-0.7-1-2-0.3-2.8c0.7-0.9,2-1,2.8-0.3l12.4,10c0.9,0.7,1,2,0.3,2.8
							C41,61,40.4,61.3,39.8,61.3z"/>
					</g>
				</g>
				<g>
					<g>
						<line class="st5" x1="82.6" y1="49.3" x2="70.2" y2="59.3"/>
					</g>
					<g>
						<path d="M70.2,61.3c-0.6,0-1.2-0.3-1.6-0.7c-0.7-0.9-0.6-2.1,0.3-2.8l12.4-10c0.9-0.7,2.1-0.6,2.8,0.3
							c0.7,0.9,0.6,2.1-0.3,2.8l-12.4,10C71.1,61.2,70.6,61.3,70.2,61.3z"/>
					</g>
				</g>
			</g>
			<g>
				<g>
					<g>
						<g>
							<path d="M36,68c0,4.4-1.8,8-4.1,8c-2.3,0-4.1-3.6-4.1-8c0-4.4,1.8-8,4.1-8C34.2,60,36,63.6,36,68z"/>
						</g>
					</g>
					<g>
						<g>
							<path d="M82.2,68c0,4.4-1.8,8-4.1,8c-2.3,0-4.1-3.6-4.1-8c0-4.4,1.8-8,4.1-8C80.4,60,82.2,63.6,82.2,68z"/>
						</g>
					</g>
				</g>
				<g>
					<g>
						<g>
							<path d="M62.9,75.9c0,3.4-3.5,6.1-7.9,6.1c-4.4,0-7.9-2.7-7.9-6.1c0-3.4,3.5-6.1,7.9-6.1C59.4,69.8,62.9,72.5,62.9,75.9z"/>
						</g>
					</g>
					<g>
						<g>
							<path d="M47,98.9c-2,0-4-0.6-5.6-1.9c-3.1-2.3-4.4-6.1-3.6-10.4c0.1-0.5,0.6-0.9,1.2-0.8c0.5,0.1,0.9,0.6,0.8,1.2
								c-0.7,3.5,0.4,6.6,2.8,8.4c2.2,1.6,5,2,7.3,0.8c2.7-1.3,4.1-4.4,4.1-8.6V82c0-0.6,0.4-1,1-1s1,0.4,1,1v5.7
								c0,6.8-3.3,9.4-5.2,10.4C49.6,98.6,48.3,98.9,47,98.9z"/>
						</g>
					</g>
					<g>
						<g>
							<path d="M63,98.9c-1.3,0-2.6-0.3-3.8-0.9c-2-1-5.2-3.6-5.2-10.4V82c0-0.6,0.4-1,1-1s1,0.4,1,1v5.7c0,4.2,1.5,7.3,4.1,8.6
								c2.3,1.1,5.1,0.8,7.3-0.8c2.4-1.8,3.5-4.9,2.8-8.4c-0.1-0.5,0.3-1.1,0.8-1.2c0.5-0.1,1.1,0.3,1.2,0.8
								c0.8,4.3-0.5,8.1-3.6,10.4C67,98.3,65,98.9,63,98.9z"/>
						</g>
					</g>
				</g>
			</g>
		</g>
		<g>
			<g>
				<g>
					<g>
						<path class="st5" d="M47.5,137.3c0-6.1,4.1-9.5,9-9.5c2.7,0,4.6,1.1,5.8,2.4l-2.3,2.8c-0.9-0.8-1.8-1.4-3.4-1.4
							c-2.7,0-4.6,2.1-4.6,5.6c0,3.6,1.6,5.7,5,5.7c0.7,0,1.3-0.2,1.7-0.5v-2.9h-2.9v-3.6h6.8v8.5c-1.3,1.2-3.5,2.2-6.1,2.2
							C51.4,146.6,47.5,143.5,47.5,137.3z"/>
					</g>
				</g>
			</g>
		</g>
	</g>
</g>
</svg>
