<?xml version="1.0" encoding="utf-8"?>
<!-- Generator: Adobe Illustrator 22.0.0, SVG Export Plug-In . SVG Version: 6.00 Build 0)  -->
<svg version="1.1" id="图层_1" xmlns="http://www.w3.org/2000/svg" xmlns:xlink="http://www.w3.org/1999/xlink" x="0px" y="0px"
	 width="40px" height="40px" viewBox="0 0 40 40" style="enable-background:new 0 0 40 40;" xml:space="preserve">
<style type="text/css">
	.st0{clip-path:url(#SVGID_2_);}
	.st1{fill:#FA9898;}
</style>
<g>
	<defs>
		<rect id="SVGID_1_" width="40" height="40"/>
	</defs>
	<clipPath id="SVGID_2_">
		<use xlink:href="#SVGID_1_"  style="overflow:visible;"/>
	</clipPath>
	<g class="st0">
		<path class="st1" d="M20.3,15.7c-0.4-1.9-0.9-3.8-2-5.5C16.8,8,13,6.7,11.1,6.9c-5,0.6-6.1,3.6-6.5,5.2c-0.4,1.7,0.1,3.5,0.8,5.2
			c2.5,6.7,8.6,9,9.2,15.7c4.6-5,10.6-3.2,16.7-7c1.6-1,3.1-2.1,3.8-3.7c0.7-1.5,1.6-4.6-2-8.1c-1.4-1.3-5.2-2.6-7.7-1.8
			C23.3,13.2,21.7,14.4,20.3,15.7z"/>
	</g>
</g>
</svg>
