<?xml version="1.0" encoding="utf-8"?>
<!-- Generator: Adobe Illustrator 22.0.0, SVG Export Plug-In . SVG Version: 6.00 Build 0)  -->
<svg version="1.1" id="图层_1" xmlns="http://www.w3.org/2000/svg" xmlns:xlink="http://www.w3.org/1999/xlink" x="0px" y="0px"
	 width="110px" height="190px" viewBox="0 0 110 190" style="enable-background:new 0 0 110 190;" xml:space="preserve">
<style type="text/css">
	.st0{clip-path:url(#SVGID_2_);}
	.st1{clip-path:url(#SVGID_4_);}
	.st2{clip-path:url(#SVGID_6_);}
	.st3{fill:#FFFFFF;}
	.st4{fill:#BF272D;}
	.st5{fill:#FA7777;}
	.st6{fill:#FA9898;}
	.st7{fill:#FACBCB;}
	.st8{clip-path:url(#SVGID_8_);}
	.st9{clip-path:url(#SVGID_10_);}
	.st10{fill:#39B34A;}
	.st11{clip-path:url(#SVGID_12_);}
	.st12{clip-path:url(#SVGID_14_);}
	.st13{clip-path:url(#SVGID_16_);}
	.st14{fill:#FAD558;}
	.st15{clip-path:url(#SVGID_18_);}
</style>
<g>
	<g>
		<defs>
			<rect id="SVGID_1_" width="110" height="190"/>
		</defs>
		<clipPath id="SVGID_2_">
			<use xlink:href="#SVGID_1_"  style="overflow:visible;"/>
		</clipPath>
		<g class="st0">
			<path d="M101.5,90.9c1.7-9.9,0.5-18.8-2.3-26.2c3.6-7.4,5.3-17.3,2.4-30.6c-0.6-2.6-2.9-4.5-5.6-4.5c-0.7,0-1.4,0.1-2,0.4
				l-6.7,2.5c0-0.1,0-0.2,0-0.3c-0.6-3.3-3.8-5.7-7.8-5.7c-0.3,0-0.6,0-0.9,0c-0.1-3.9-2.5-7.2-5.9-7.7c-0.3,0-0.6-0.1-0.9-0.1
				c-3.3,0-6.2,2.7-7.1,6.3c-1-0.3-2-0.5-3-0.5c-2.2,0-4.1,0.8-5.4,2.2c-1.9-0.8-3.9-0.9-5.3-0.9c-1.6,0-2.8,0.2-2.9,0.3
				c-0.7,0.1-1.2,0.5-1.6,1.1c-0.4,0.6-0.5,1.3-0.3,1.9c0,0.2,0.7,2.7,2.4,5.2c-1.1,0.8-2,1.6-2.7,2.4c-2.3,0.4-4.9,0.9-7.6,1.6
				L16,30c-0.7-0.2-1.3-0.4-2-0.4l0,0c-2.7,0-5,1.9-5.6,4.5c-2.9,13.3-1.2,23.2,2.4,30.6C8,72.1,6.8,81,8.5,90.9
				c1.4,7.9,8.3,13.5,20.5,16.7c1,0.3,2.1,0.5,3.2,0.7l-9.5,8.2c-0.4,0.4-0.7,0.9-0.7,1.4s0.2,1.1,0.6,1.5l1.4,1.4l-6.4,6.1
				c-2,0.4-6.7,1.7-8.7,6.5c-1.1,2.7-0.7,5.7,1,8.3s4.4,4.3,7,4.4c0.8,0.5,2.1,1.4,3.9,1.4c1.5,0,2.9-0.6,4.1-1.7
				c1.3-1.2,2-2.4,2.7-3.5c0.3-0.5,0.6-1,1-1.5c-0.3,1.1-0.2,2.2,0.4,3.2c0.7,1.2,2,2,3.4,2.1l1.6,0.1l1.1,28.9c0,1.1,0.9,1.9,2,1.9
				h1.5v1.8c-1.1,0.1-2.1,0.2-2.9,0.5c-3.5,1.1-3.8,3.5-3.8,4.5c0,3.3,3.2,4.8,6.3,4.8h11.1l0,0c0.3,0,1.2,0,2.2-0.5
				c1.8-0.7,2.8-2.3,2.8-4.2v-7h1.6v7c0,3,2.6,4.6,5.1,4.6h11.1c3,0,6.3-1.5,6.3-4.8c0-1.4-0.7-4.6-6.8-5V177h1.5
				c1.1,0,1.9-0.8,2-1.9l1.1-28.9l1.6-0.1c1.4-0.1,2.7-0.9,3.4-2.1c0.6-1,0.7-2.2,0.4-3.2c0.4,0.5,0.7,1,1,1.5
				c0.6,1.1,1.3,2.3,2.7,3.5c1.3,1.1,2.6,1.7,4.1,1.7c1.8,0,3.1-0.8,3.9-1.4c2.6-0.2,5.3-1.9,7-4.4c1.7-2.6,2.1-5.6,1-8.3
				c-2-4.8-6.7-6.1-8.7-6.5l-6.4-6.1l1.4-1.4c0.4-0.4,0.6-0.9,0.6-1.5c0-0.5-0.3-1.1-0.7-1.4l-9.5-8.2c1.1-0.2,2.1-0.5,3.1-0.7
				C93.2,104.5,100.1,98.9,101.5,90.9z"/>
		</g>
	</g>
	<g>
		<defs>
			<rect id="SVGID_3_" width="110" height="190"/>
		</defs>
		<clipPath id="SVGID_4_">
			<use xlink:href="#SVGID_3_"  style="overflow:visible;"/>
		</clipPath>
		<g class="st1">
			<path d="M72,189.1H60.8c-2.7,0-5.6-1.8-5.6-5.1v-6.5h-0.5v6.5c0,2.1-1.2,3.8-3.1,4.6c-1.1,0.5-2.1,0.5-2.4,0.5H38
				c-3.3,0-6.8-1.6-6.8-5.3c0-1.1,0.4-3.8,4.2-5c0.8-0.2,1.6-0.4,2.6-0.5v-0.9h-1c-1.3,0-2.4-1-2.5-2.4l-1.1-28.4l-1.1-0.1
				c-1.6-0.1-3-1-3.8-2.3c-0.3-0.5-0.5-1-0.6-1.6c-0.6,1.1-1.4,2.3-2.7,3.5c-1.4,1.2-2.8,1.8-4.4,1.8c-1.8,0-3.2-0.8-4.1-1.4
				c-2.7-0.2-5.5-2-7.2-4.6c-1.8-2.7-2.2-5.9-1-8.8c2-4.9,6.8-6.3,9-6.7l6-5.7l-1-1c-0.5-0.5-0.7-1.1-0.7-1.8c0-0.7,0.3-1.3,0.8-1.8
				l8.7-7.5c-0.8-0.2-1.5-0.3-2.2-0.5C16.5,104.9,9.4,99.1,8,91c-1.6-9.1-0.8-17.9,2.3-26.3c-4.2-8.5-5-18.9-2.4-30.7
				c0.6-2.8,3.2-4.9,6.1-4.9c0.8,0,1.5,0.1,2.2,0.4l22.1,8.3c2.3-0.7,4.8-1.2,7.3-1.6c0.7-0.8,1.4-1.4,2.2-2c-1.6-2.5-2.2-4.9-2.2-5
				c-0.2-0.8,0-1.6,0.4-2.3c0.4-0.7,1.1-1.2,1.9-1.3c0.1,0,1.3-0.3,3-0.3c1.3,0,3.2,0.2,5.2,0.9c2-1.9,5.2-2.6,8.2-1.7
				c1.1-3.7,4.2-6.2,7.5-6.2c0.3,0,0.6,0,0.9,0.1c3.4,0.5,6,3.7,6.3,7.7c4.3-0.1,7.9,2.3,8.6,5.8l6.1-2.3c0.7-0.3,1.5-0.4,2.2-0.4
				c2.9,0,5.5,2,6.1,4.9c2.6,11.9,1.8,22.2-2.4,30.7c3.1,8.3,3.8,17.2,2.3,26.3l0,0c-1.4,8.2-8.4,13.9-20.9,17.1
				c-0.7,0.2-1.4,0.4-2.2,0.5l8.7,7.5c0.5,0.4,0.8,1.1,0.8,1.8c0,0.7-0.2,1.3-0.7,1.8l-1,1l6,5.7c2.1,0.4,6.9,1.8,9,6.7
				c1.2,2.8,0.8,6-1,8.8c-1.8,2.7-4.5,4.4-7.2,4.6c-0.6,0.4-2.1,1.4-4.1,1.4c-1.6,0-3.1-0.6-4.4-1.8s-2.1-2.4-2.7-3.5
				c-0.1,0.6-0.3,1.1-0.6,1.6c-0.8,1.4-2.2,2.3-3.8,2.3l-1.1,0.1l-1.1,28.4c-0.1,1.3-1.1,2.4-2.5,2.4h-1v0.9c6.1,0.6,6.8,4,6.8,5.5
				C78.7,187.4,75.2,189.1,72,189.1z M53.7,176.5h2.6v7.5c0,2.7,2.4,4.1,4.6,4.1H72c2.8,0,5.8-1.3,5.8-4.3c0-1.5-0.8-4.2-6.3-4.5H71
				v-2.8h2c0.8,0,1.4-0.6,1.5-1.4l1.1-29.3l2-0.1c1.3-0.1,2.4-0.8,3-1.8c0.5-0.9,0.6-1.9,0.4-2.9l-0.7-2.6l1.6,2.2
				c0.4,0.5,0.7,1.1,1,1.6c0.6,1.1,1.3,2.2,2.6,3.4c1.2,1,2.4,1.5,3.8,1.5c1.6,0,2.8-0.7,3.6-1.3l0.1-0.1h0.1c2.4-0.2,5-1.8,6.6-4.2
				c1.6-2.5,2-5.3,1-7.8c-1.9-4.6-6.5-5.8-8.4-6.2h-0.1l-6.9-6.6l1.8-1.8c0.3-0.3,0.4-0.7,0.4-1.1s-0.2-0.8-0.5-1.1L76.7,108l1-0.2
				c1.1-0.2,2.1-0.5,3.1-0.7c12-3.1,18.8-8.6,20.1-16.3c1.6-9,0.8-17.7-2.3-25.9l-0.1-0.2l0.1-0.2c4.1-8.4,5-18.5,2.4-30.3
				c-0.5-2.4-2.7-4.1-5.1-4.1c-0.6,0-1.3,0.1-1.9,0.3l-7.3,2.8l-0.1-0.8c0-0.1,0-0.1,0-0.2c-0.5-3.1-3.5-5.3-7.3-5.3
				c-0.3,0-0.6,0-0.8,0H78v-0.5c-0.1-3.7-2.4-6.8-5.5-7.2c-0.3,0-0.5-0.1-0.8-0.1c-3,0-5.8,2.5-6.6,6L65,25.6l-0.5-0.2
				c-2.9-1-6.1-0.4-7.9,1.6l-0.2,0.2l-0.3-0.1c-1.9-0.8-3.9-0.9-5.1-0.9c-1.6,0-2.8,0.2-2.8,0.2c-0.5,0.1-1,0.4-1.3,0.9
				s-0.4,1-0.3,1.5c0,0.1,0.6,2.6,2.3,5.1l0.3,0.4l-0.4,0.3c-1.2,0.8-2,1.7-2.6,2.3L46.1,37h-0.2c-2.6,0.4-5.1,0.9-7.5,1.6h-0.2
				l-22.4-8.4c-0.6-0.2-1.2-0.3-1.9-0.3c-2.4,0-4.6,1.7-5.1,4.1c-2.5,12-1.7,22.1,2.5,30.5l0.1,0.2l-0.1,0.2
				c-3.1,8.2-3.8,17-2.3,25.9c1.3,7.7,8.1,13.2,20.1,16.3c1,0.3,2,0.5,3.1,0.7l1,0.2L23,116.9c-0.3,0.3-0.5,0.6-0.5,1.1
				c0,0.4,0.1,0.8,0.4,1.1l1.8,1.8l-6.9,6.6h-0.1c-1.9,0.3-6.5,1.6-8.4,6.2c-1,2.5-0.7,5.4,1,7.8c1.6,2.4,4.2,4.1,6.6,4.2H17
				l0.1,0.1c0.8,0.5,2,1.3,3.6,1.3c1.3,0,2.6-0.5,3.8-1.5c1.3-1.1,2-2.3,2.6-3.4c0.3-0.5,0.6-1,1-1.6l1.6-2.2L29,141
				c-0.3,1-0.1,2,0.4,2.9c0.6,1.1,1.8,1.8,3,1.8l2,0.1l1.1,29.3c0,0.8,0.7,1.4,1.5,1.4h2v2.8h-0.5c-1.1,0.1-2,0.2-2.8,0.5
				c-3.1,1-3.5,3.2-3.5,4c0,2.9,3,4.3,5.8,4.3h11.1c0.2,0,1.1,0,2-0.4c1.6-0.7,2.5-2,2.5-3.7v-7.5H53.7z"/>
		</g>
	</g>
	<g>
		<defs>
			<rect id="SVGID_5_" width="110" height="190"/>
		</defs>
		<clipPath id="SVGID_6_">
			<use xlink:href="#SVGID_5_"  style="overflow:visible;"/>
		</clipPath>
		<g class="st2">
			<g>
				<g>
					<g>
						<path class="st3" d="M55,149.2c-7.6,0-14.2-6.9-16.4-16.9l-10.9,7.4c-0.5,0.7-0.9,1.3-1.3,2c-0.6,1.1-1.2,2.1-2.4,3.2
							c-1,0.9-2.1,1.4-3.3,1.4c-1.6,0-2.8-0.9-3.4-1.3c0,0,0,0-0.1,0l0,0c-2.3,0-4.8-1.6-6.4-3.9c-1.5-2.3-1.8-4.8-0.9-7.1
							c1.9-4.6,6.6-5.6,8.2-5.8L41,106.4c0.2-0.2,0.5-0.3,0.9-0.3c0,0,0,0,0.1,0c0.3,0,0.7,0.2,0.9,0.4l0.4,0.5
							c3.2-4.1,7.3-6.3,11.6-6.3c4.4,0,8.5,2.2,11.6,6.3l0.4-0.5c0.2-0.3,0.5-0.4,0.9-0.4c0,0,0,0,0.1,0c0.3,0,0.6,0.1,0.9,0.3
							l22.9,21.8c1.5,0.2,6.3,1.2,8.2,5.8c0.9,2.3,0.6,4.9-0.9,7.1c-1.6,2.3-4.1,3.9-6.4,3.9l0,0c0,0,0,0-0.1,0
							c-0.6,0.5-1.9,1.3-3.4,1.3c-1.2,0-2.3-0.5-3.3-1.4c-1.2-1-1.8-2.1-2.4-3.2c-0.4-0.7-0.8-1.3-1.3-2l-10.8-7.4
							C69.2,142.3,62.6,149.2,55,149.2z"/>
					</g>
				</g>
				<g>
					<g>
						<path d="M55,101.8c4.5,0,8.6,2.7,11.6,7.1l1.5-1.8l23.2,22.1c0,0,5.6,0.4,7.6,5.1c1.9,4.5-2.6,9.3-6.1,9.3c-0.1,0-0.2,0-0.3,0
							l0,0c-0.3,0-1.5,1.4-3.2,1.4c-0.7,0-1.6-0.3-2.5-1c-1.8-1.6-2.1-3.3-3.7-5.2l-12.5-8.6c-1.7,10.2-8,17.8-15.6,17.8
							s-13.9-7.6-15.6-17.8l-12.5,8.6c-1.5,1.8-1.9,3.6-3.7,5.2c-0.9,0.8-1.7,1-2.5,1c-1.7,0-2.9-1.4-3.2-1.4l0,0
							c-0.1,0-0.2,0-0.3,0c-3.5,0-8-4.8-6.1-9.3c1.9-4.7,7.6-5.1,7.6-5.1l23.2-22.1l1.5,1.8C46.4,104.6,50.4,101.8,55,101.8
							 M55,99.3c-4.3,0-8.4,2.1-11.7,5.7c-0.4-0.2-0.8-0.3-1.2-0.4H42c-0.6,0-1.3,0.2-1.7,0.7l-22.7,21.5c-2,0.4-6.7,1.7-8.7,6.5
							c-1.1,2.7-0.7,5.7,1,8.3s4.4,4.3,7,4.4c0.8,0.5,2.1,1.4,3.9,1.4c1.5,0,2.9-0.6,4.1-1.7c1.3-1.2,2-2.4,2.7-3.5
							c0.3-0.6,0.7-1.1,1.1-1.7l9.2-6.3c2.7,9.7,9.5,16.1,17.2,16.1c7.8,0,14.5-6.5,17.2-16.1l9.2,6.3c0.4,0.5,0.7,1.1,1.1,1.7
							c0.6,1.1,1.3,2.3,2.7,3.5c1.3,1.1,2.6,1.7,4.1,1.7c1.8,0,3.1-0.8,3.9-1.4c2.6-0.2,5.3-1.9,7-4.4c1.7-2.6,2.1-5.6,1-8.3
							c-2-4.8-6.7-6.1-8.7-6.5l-22.9-21.4c-0.5-0.4-1.1-0.7-1.7-0.7h-0.1c-0.4,0-0.8,0.2-1.2,0.4C63.4,101.4,59.3,99.3,55,99.3
							L55,99.3z"/>
					</g>
				</g>
			</g>
			<g>
				<g>
					<g>
						<g>
							<path class="st3" d="M38,187.3c-1.8,0-5-0.7-5-3.5c0-1.4,0.9-3.8,6.8-3.8v-11c0-0.7,0.6-1.3,1.3-1.3h10.6
								c0.7,0,1.3,0.6,1.3,1.3v14.9c0,2.5-2.3,3.3-3.8,3.3H38V187.3z"/>
						</g>
					</g>
					<g>
						<g>
							<path d="M51.6,169c0,0,0,11.8,0,14.9c0,2.1-2.5,2.1-2.5,2.1H38c0,0-3.7,0-3.7-2.2s3.6-2.5,5.5-2.5c0.7,0,1.2,0,1.2,0V169
								H51.6 M51.6,166.4H41.1c-1.4,0-2.6,1.1-2.6,2.6v9.8c-1.1,0.1-2.1,0.2-2.9,0.5c-3.5,1.1-3.8,3.5-3.8,4.5
								c0,3.3,3.2,4.8,6.3,4.8h11.1l0,0c0.3,0,1.2,0,2.2-0.5c1.8-0.7,2.8-2.3,2.8-4.2V169C54.2,167.6,53.1,166.4,51.6,166.4
								L51.6,166.4z"/>
						</g>
					</g>
				</g>
				<g>
					<g>
						<g>
							<path class="st3" d="M60.8,187.3c-0.1,0-0.9,0-1.7-0.4c-1.3-0.5-2-1.6-2-3V169c0-0.7,0.6-1.3,1.3-1.3H69
								c0.7,0,1.3,0.6,1.3,1.3v11c1,0,2.5,0.1,3.8,0.5c2.6,0.8,2.9,2.4,2.9,3.3c0,2.7-3.1,3.5-5,3.5H60.8z"/>
						</g>
					</g>
					<g>
						<g>
							<path d="M68.9,169v12.4c0,0,0.5,0,1.2,0c1.9,0,5.5,0.3,5.5,2.5s-3.7,2.2-3.7,2.2H60.8l0,0c0,0-2.5,0-2.5-2.1
								c0-3.1,0-14.9,0-14.9L68.9,169 M68.9,166.4H58.3c-1.4,0-2.6,1.1-2.6,2.6v14.9c0,3,2.6,4.6,5.1,4.6h11.1c3,0,6.3-1.5,6.3-4.8
								c0-1.4-0.7-4.6-6.8-5V169C71.5,167.6,70.3,166.4,68.9,166.4L68.9,166.4z"/>
						</g>
					</g>
				</g>
			</g>
			<g>
				<g>
					<g>
						<path class="st3" d="M37,176c-0.5,0-1-0.4-1-0.9l-2-51.3c-0.1-2.6,0.8-5.1,2.7-7c1.8-1.9,4.4-3,6.9-3c1.1,0,2.2,0.2,3.2,0.5
							l5.6,2c0.8,0.3,1.7,0.4,2.5,0.4s1.7-0.1,2.5-0.4l5.6-2c1-0.4,2.1-0.5,3.2-0.5c2.6,0,5.1,1.1,6.9,3s2.8,4.4,2.7,7l-2,51.3
							c0,0.5-0.5,0.9-1,0.9H37z"/>
					</g>
				</g>
				<g>
					<g>
						<g>
							<path d="M66.4,114.7c4.7,0,8.8,3.9,8.6,9L73,175H37l-2-51.3c-0.2-5.1,3.9-9,8.6-9c0.9,0,1.9,0.2,2.9,0.5l5.6,2
								c0.9,0.3,1.9,0.5,2.9,0.5s1.9-0.2,2.9-0.5l5.6-2C64.5,114.9,65.4,114.7,66.4,114.7 M66.4,112.7L66.4,112.7
								c-1.2,0-2.4,0.2-3.5,0.6l-5.6,2c-0.7,0.2-1.5,0.4-2.2,0.4c-0.8,0-1.5-0.1-2.2-0.4l-5.6-2c-1.1-0.4-2.3-0.6-3.5-0.6
								c-2.9,0-5.6,1.2-7.7,3.3c-2,2.1-3.1,4.8-2.9,7.8l2,51.3c0,1.1,0.9,1.9,2,1.9h36c1.1,0,1.9-0.8,2-1.9l2-51.3
								c0.1-2.9-0.9-5.7-2.9-7.8C72,113.9,69.2,112.7,66.4,112.7L66.4,112.7z"/>
						</g>
					</g>
				</g>
			</g>
			<g>
				<g>
					<path d="M44.4,177c-0.6,0-1-0.4-1-1v-13c0-0.6,0.4-1,1-1s1,0.4,1,1v13C45.4,176.6,45,177,44.4,177z"/>
				</g>
			</g>
			<g>
				<g>
					<g>
						<g>
							<path class="st4" d="M49.1,120.1h3.2l2,5.4c0.3,0.7,0.5,1.5,0.7,2.3h0.1c0.3-0.8,0.5-1.6,0.7-2.3l1.9-5.4h3.2v12.4h-2.7v-4.3
								c0-1.2,0.2-3.1,0.4-4.3h-0.1l-1,3l-1.7,4.5h-1.6l-1.7-4.5l-1-3h-0.1c0.2,1.2,0.4,3.1,0.4,4.3v4.3h-2.7
								C49.1,132.5,49.1,120.1,49.1,120.1z"/>
						</g>
					</g>
				</g>
				<g>
					<g>
						<path class="st5" d="M67,112.4c3.8-0.4,7.4-0.9,10.7-1.6l-4.9-4.2c-1,0.2-2.1,0.3-3.1,0.4C68.7,108.8,67.8,110.6,67,112.4z"/>
					</g>
				</g>
				<g>
					<g>
						<path class="st5" d="M32.3,110.8c3.3,0.7,6.9,1.2,10.7,1.6c-0.8-1.9-1.8-3.7-2.8-5.4c-1-0.1-2-0.2-3.1-0.4L32.3,110.8z"/>
					</g>
				</g>
				<g>
					<g>
						<g>
							<path class="st6" d="M39.7,145.5c-0.2,0-0.3,0-0.5,0l-6.8-0.4c-1.1-0.1-2.1-0.7-2.6-1.6c-0.6-0.9-0.6-2.1-0.1-3.1l5.1-10.3
								l-11.5-11.5c-0.2-0.2-0.3-0.5-0.3-0.7s0.1-0.5,0.3-0.7l15-13c0.2-0.2,0.4-0.2,0.6-0.2H39c0.3,0,0.5,0.2,0.7,0.4l0.1,0.1
								c5.9,9.2,9.1,19.9,9.1,30.9v0.7C49,141.4,44.8,145.5,39.7,145.5z"/>
						</g>
					</g>
					<g>
						<g>
							<path d="M39,105L39,105c5.9,9.1,9,19.7,9,30.4v0.7c0,4.6-3.8,8.3-8.3,8.3c-0.1,0-0.3,0-0.4,0l-6.8-0.4
								c-1.6-0.1-2.6-1.8-1.9-3.3l2.5-4.9l3-6l-12-12L39,105 M39,103c-0.5,0-0.9,0.2-1.3,0.5l-15,13c-0.4,0.4-0.7,0.9-0.7,1.4
								s0.2,1.1,0.6,1.5l11,11l-2.4,4.7l-2.5,4.9c-0.6,1.3-0.6,2.8,0.1,4s2,2,3.4,2.1l6.8,0.4c0.2,0,0.4,0,0.5,0
								c5.7,0,10.3-4.6,10.3-10.3v-0.7c0-11.2-3.2-22-9.2-31.4l-0.1-0.1c-0.3-0.5-0.8-0.8-1.4-0.9C39.2,103,39.1,103,39,103L39,103z
								"/>
						</g>
					</g>
				</g>
				<g>
					<g>
						<g>
							<path class="st6" d="M70.3,145.5c-5.1,0-9.3-4.2-9.3-9.3v-0.7c0-11,3.1-21.6,9.1-30.8l0.1-0.1c0.2-0.2,0.4-0.4,0.7-0.4H71
								c0.2,0,0.5,0.1,0.6,0.2l15,13c0.2,0.2,0.3,0.4,0.3,0.7s-0.1,0.5-0.3,0.7l-11.5,11.5l5.1,10.3c0.5,1,0.5,2.1-0.1,3.1
								c-0.6,0.9-1.5,1.5-2.6,1.6l-6.8,0.4C70.6,145.5,70.5,145.5,70.3,145.5z"/>
						</g>
					</g>
					<g>
						<g>
							<path d="M71,105l15,13l-12,12l3,6l2.5,4.9c0.7,1.5-0.3,3.2-1.9,3.3l-6.8,0.4c-0.1,0-0.3,0-0.4,0c-4.6,0-8.3-3.7-8.3-8.3v-0.7
								c0-10.8,3.1-21.3,8.9-30.3L71,105 M71,103c-0.1,0-0.2,0-0.3,0c-0.6,0.1-1.1,0.4-1.4,0.9l-0.1,0.1c-6,9.4-9.2,20.2-9.2,31.4
								v0.7c0,5.7,4.6,10.3,10.3,10.3c0.2,0,0.4,0,0.5,0l6.8-0.4c1.4-0.1,2.7-0.9,3.4-2.1s0.8-2.7,0.1-4l-2.5-4.9l-2.4-4.7l11-11
								c0.4-0.4,0.6-0.9,0.6-1.5c0-0.5-0.3-1.1-0.7-1.4l-15-13C71.9,103.2,71.5,103,71,103L71,103z"/>
						</g>
					</g>
				</g>
			</g>
			<g>
				<g>
					<g>
						<g>
							<g>
								<g>
									<g>
										<path class="st3" d="M75.2,82.7c-1.8,0-3.5-1.2-4.2-2.9L59.5,49.2c-0.9-2.3,0.3-4.9,2.6-5.7l32.4-12.2
											c0.5-0.2,1-0.3,1.6-0.3c2.1,0,3.9,1.5,4.3,3.5c7.4,34.2-16.3,45.4-23.7,48C76.2,82.6,75.7,82.7,75.2,82.7L75.2,82.7z"/>
									</g>
								</g>
								<g>
									<g>
										<path d="M96,32.2c1.4,0,2.8,1,3.1,2.5c7.1,32.8-14.7,43.7-22.9,46.6c-0.3,0.1-0.7,0.2-1,0.2c-1.3,0-2.5-0.8-3-2.1
											L60.7,48.7c-0.6-1.6,0.2-3.5,1.8-4.1l32.4-12.2C95.3,32.3,95.7,32.2,96,32.2 M96,29.6c-0.7,0-1.4,0.1-2,0.4L61.6,42.2
											c-1.4,0.5-2.6,1.6-3.2,3s-0.7,3-0.1,4.4l11.6,30.6c0.8,2.2,3,3.7,5.4,3.7c0.6,0,1.3-0.1,1.9-0.3
											c7.7-2.7,32.2-14.3,24.5-49.5C101.1,31.5,98.7,29.6,96,29.6L96,29.6z"/>
									</g>
								</g>
							</g>
						</g>
						<g>
							<g>
								<g>
									<path class="st7" d="M90.5,40.5L67,49.4c-1.8,0.7-2.6,2.6-2,4.4l6.8,18c0.7,1.8,2.7,2.7,4.4,2C83,71.2,97.9,63.1,95,43.3
										C94.8,41,92.6,39.7,90.5,40.5z"/>
								</g>
							</g>
						</g>
					</g>
					<g>
						<g>
							<g>
								<g>
									<g>
										<path class="st3" d="M34.8,82.7c-0.5,0-1-0.1-1.5-0.3c-7.4-2.6-31.1-13.8-23.7-48c0.4-2,2.3-3.5,4.3-3.5
											c0.5,0,1.1,0.1,1.6,0.3l32.4,12.2c2.3,0.9,3.5,3.4,2.6,5.7L39,79.8C38.3,81.5,36.6,82.7,34.8,82.7z"/>
									</g>
								</g>
								<g>
									<g>
										<path d="M14,32.2c0.4,0,0.8,0.1,1.1,0.2l32.4,12.2c1.6,0.6,2.5,2.4,1.8,4.1L37.8,79.4c-0.5,1.3-1.7,2.1-3,2.1
											c-0.3,0-0.7-0.1-1-0.2c-8.2-2.9-30-13.8-22.9-46.6C11.2,33.2,12.5,32.2,14,32.2 M14,29.6L14,29.6c-2.7,0-5,1.9-5.6,4.5
											C0.7,69.4,25.2,80.9,32.9,83.7c0.6,0.2,1.3,0.3,1.9,0.3c2.4,0,4.5-1.5,5.4-3.7l11.5-30.7c0.5-1.4,0.5-3-0.1-4.4
											s-1.8-2.5-3.2-3L16,30C15.3,29.8,14.7,29.6,14,29.6L14,29.6z"/>
									</g>
								</g>
							</g>
						</g>
						<g>
							<g>
								<g>
									<path class="st7" d="M19.4,40.5l23.5,8.9c1.8,0.7,2.6,2.6,2,4.4l-6.8,18c-0.7,1.8-2.7,2.7-4.4,2C26.9,71.1,12,63,14.9,43.2
										C15.2,41,17.4,39.7,19.4,40.5z"/>
								</g>
							</g>
						</g>
					</g>
				</g>
				<g>
					<g>
						<g>
							<path class="st3" d="M57.3,109c-1.4,0-2.3,0-2.4,0c0,0-0.9,0-2.3,0c-9.3,0-40-1.3-42.9-18.3C5.6,66.6,19.3,49,28.9,43.6
								c10.5-6,23.3-6.3,25.7-6.3h0.7c2.4,0,15.2,0.3,25.7,6.3c9.6,5.4,23.3,23.1,19.2,47.1C97.3,107.7,66.6,109,57.3,109L57.3,109z
								"/>
						</g>
					</g>
					<g>
						<g>
							<g>
								<path d="M55.4,38.6c2.3,0,14.8,0.3,25.1,6.1c8.9,5.1,22.6,22.2,18.5,45.8c-2.8,16.1-33,17.2-41.6,17.2c-1.5,0-2.3,0-2.3,0
									s-0.8,0-2.3,0c-8.7,0-38.9-1.2-41.6-17.2c-4.1-23.6,9.6-40.7,18.5-45.8c10.3-5.8,22.8-6.1,25.1-6.1c0.2,0,0.4,0,0.4,0
									S55.1,38.6,55.4,38.6 M55.4,36c-0.2,0-0.3,0-0.4,0c-0.1,0-0.2,0-0.4,0c-2.5,0-15.5,0.3-26.3,6.4
									C18.4,48.1,4.2,66.2,8.5,90.9c1.4,7.9,8.3,13.5,20.5,16.7c9.1,2.3,18.7,2.7,23.7,2.7c1.2,0,2,0,2.3,0s1.1,0,2.3,0
									c4.9,0,14.6-0.3,23.7-2.7c12.2-3.1,19.1-8.7,20.5-16.7c4.2-24.7-9.9-42.8-19.8-48.4C70.9,36.3,57.9,36,55.4,36L55.4,36z"/>
							</g>
						</g>
					</g>
				</g>
				<g>
					<g>
						<g>
							<g>
								<g>
									<path class="st7" d="M32.8,81.4c0,2-3.6,3.6-8.1,3.6s-8.1-1.6-8.1-3.6s3.6-3.6,8.1-3.6C29.2,77.9,32.8,79.5,32.8,81.4z"/>
								</g>
							</g>
							<g>
								<g>
									<path d="M37.2,66c-0.2,0-0.4-0.1-0.5-0.2l0,0c-0.1-0.1-2.8-2.6-6.8-0.2c-0.4,0.2-0.8,0.1-1-0.3s-0.1-0.8,0.3-1
										c4.9-3,8.6,0.4,8.6,0.4c0.3,0.3,0.3,0.8,0,1.1C37.6,65.9,37.4,66,37.2,66z"/>
								</g>
							</g>
							<g>
								<g>
									<g>
										<path d="M28.3,76c0,3.3,2.2,6,5,6s5-2.7,5-6s-2.2-6-5-6C30.6,70,28.3,72.7,28.3,76z"/>
									</g>
								</g>
							</g>
							<g>
								<g>
									<path d="M29.7,75.7c-0.2,0-0.3-0.1-0.5-0.2l-5.1-3.9c-0.3-0.3-0.4-0.7-0.1-1.1c0.3-0.3,0.7-0.4,1.1-0.1l5.1,3.9
										c0.3,0.3,0.4,0.7,0.1,1.1C30.2,75.6,30,75.7,29.7,75.7z"/>
								</g>
							</g>
						</g>
						<g>
							<g>
								<g>
									<path class="st7" d="M77.2,81.4c0,2,3.6,3.6,8.1,3.6s8.1-1.6,8.1-3.6s-3.6-3.6-8.1-3.6C80.8,77.9,77.2,79.5,77.2,81.4z"/>
								</g>
							</g>
							<g>
								<g>
									<path d="M72.8,66c-0.2,0-0.4-0.1-0.5-0.2c-0.3-0.3-0.3-0.8,0-1.1c0,0,3.6-3.4,8.6-0.4c0.4,0.2,0.5,0.7,0.3,1
										c-0.2,0.4-0.7,0.5-1,0.3c-3.9-2.4-6.7,0.1-6.8,0.2C73.2,65.9,73,66,72.8,66z"/>
								</g>
							</g>
							<g>
								<g>
									<g>
										<path d="M81.7,76c0,3.3-2.2,6-5,6s-5-2.7-5-6s2.2-6,5-6C79.4,70,81.7,72.7,81.7,76z"/>
									</g>
								</g>
							</g>
							<g>
								<g>
									<path d="M80.2,75.7c-0.2,0-0.4-0.1-0.6-0.3c-0.3-0.3-0.2-0.8,0.1-1.1l5.1-3.9c0.3-0.3,0.8-0.2,1.1,0.1
										c0.3,0.3,0.2,0.8-0.1,1.1l-5.1,3.9C80.6,75.6,80.4,75.7,80.2,75.7z"/>
								</g>
							</g>
						</g>
					</g>
					<g>
						<g>
							<g>
								<path class="st7" d="M59,91.6c-1.6-0.3-2.6-1.3-3.1-2.5c-0.5,0.2-1,0.3-1.5,0.3c-0.1,0-0.2,0-0.3,0
									c-0.6,1.4-1.9,2.4-3.8,2.5c1,2.8,2.8,4.6,4.8,4.6s3.8-1.9,4.8-4.7C59.5,91.7,59.3,91.6,59,91.6z"/>
							</g>
						</g>
						<g>
							<g>
								<g>
									<path d="M62.2,93.4c-0.3,0-0.6,0-1,0c-4.4-0.3-7.3-2.9-7.3-6.5V84c0-0.6,0.4-1,1-1s1,0.4,1,1v2.8c0,3,2.8,4.3,5.4,4.5
										c3.9,0.3,8.2-1.5,8.8-5.1c0.1-0.5,0.6-0.9,1.1-0.8s0.9,0.6,0.8,1.1C71.5,91,66.7,93.4,62.2,93.4z"/>
								</g>
							</g>
							<g>
								<g>
									<path d="M47.8,93.4c-4.5,0-9.2-2.4-9.9-6.8c-0.1-0.5,0.3-1.1,0.8-1.1c0.5-0.1,1.1,0.3,1.1,0.8c0.6,3.6,4.9,5.4,8.8,5.1
										c2.6-0.2,5.4-1.5,5.4-4.5V84c0-0.6,0.4-1,1-1s1,0.4,1,1v2.8c0,3.6-2.9,6.2-7.3,6.5C48.4,93.4,48.1,93.4,47.8,93.4z"/>
								</g>
							</g>
						</g>
						<g>
							<g>
								<path class="st6" d="M60.6,80.2c0,2.5-2.5,4.5-5.6,4.5s-5.6-2-5.6-4.5s2.5-2.7,5.6-2.7S60.6,77.7,60.6,80.2z"/>
							</g>
						</g>
					</g>
				</g>
			</g>
		</g>
	</g>
	<g>
		<defs>
			<rect id="SVGID_7_" width="110" height="190"/>
		</defs>
		<clipPath id="SVGID_8_">
			<use xlink:href="#SVGID_7_"  style="overflow:visible;"/>
		</clipPath>
		<g class="st8">
			<g>
				<g>
					<path d="M70.3,29.8c0.3,0,0.5,0,0.8,0.1c3,0.4,5.2,3.3,4.7,6.3C75.4,39,73,41,70.3,41c-0.3,0-0.5,0-0.8-0.1
						c-3-0.4-5.2-3.3-4.7-6.3C65.2,31.9,67.6,29.8,70.3,29.8 M70.3,27.3L70.3,27.3c-4,0-7.4,3-8,6.9c-0.6,4.4,2.4,8.5,6.9,9.1
						c0.4,0.1,0.8,0.1,1.1,0.1c4,0,7.4-3,8-6.9c0.6-4.4-2.4-8.5-6.9-9.1C71,27.4,70.7,27.3,70.3,27.3L70.3,27.3z"/>
				</g>
			</g>
		</g>
	</g>
	<g>
		<defs>
			<rect id="SVGID_9_" width="110" height="190"/>
		</defs>
		<clipPath id="SVGID_10_">
			<use xlink:href="#SVGID_9_"  style="overflow:visible;"/>
		</clipPath>
		<g class="st9">
			<g>
				<g>
					<path class="st10" d="M52,42.4c-3.2,0-5.9-1.6-6-1.6c-0.3-0.2-0.5-0.5-0.6-0.8s0-0.7,0.2-1c0.1-0.2,2.5-4,6.5-4.9
						c0.7-0.2,1.4-0.2,2.1-0.2c3.2,0,5.9,1.6,6,1.6c0.3,0.2,0.5,0.5,0.6,0.8s0,0.7-0.2,1c-0.1,0.2-2.5,4-6.5,4.9
						C53.5,42.3,52.8,42.4,52,42.4L52,42.4z"/>
				</g>
			</g>
			<g>
				<g>
					<path d="M54.3,35.1c2.9,0,5.3,1.5,5.3,1.5s-2.2,3.5-5.8,4.4c-0.6,0.1-1.2,0.2-1.8,0.2c-2.9,0-5.3-1.5-5.3-1.5s2.2-3.5,5.8-4.4
						C53.1,35.2,53.7,35.1,54.3,35.1 M54.3,32.6c-0.8,0-1.6,0.1-2.4,0.3c-4.4,1.1-7,5-7.3,5.5c-0.4,0.6-0.5,1.3-0.3,1.9
						c0.2,0.7,0.6,1.2,1.2,1.6c0.3,0.2,3.2,1.8,6.6,1.8c0.8,0,1.6-0.1,2.4-0.3c4.4-1.1,7-5,7.3-5.5c0.4-0.6,0.5-1.3,0.3-1.9
						c-0.2-0.7-0.6-1.2-1.2-1.6C60.6,34.2,57.7,32.6,54.3,32.6L54.3,32.6z"/>
				</g>
			</g>
		</g>
	</g>
	<g>
		<defs>
			<rect id="SVGID_11_" width="110" height="190"/>
		</defs>
		<clipPath id="SVGID_12_">
			<use xlink:href="#SVGID_11_"  style="overflow:visible;"/>
		</clipPath>
		<g class="st11">
			<g>
				<g>
					<path class="st10" d="M59.1,38.4c-1.8,0-4.3-0.3-6.6-1.7c-4-2.5-5.2-7.6-5.2-7.8c-0.1-0.3,0-0.7,0.2-1s0.5-0.5,0.8-0.5
						c0,0,1.1-0.2,2.7-0.2c1.8,0,4.3,0.3,6.6,1.7c4,2.5,5.2,7.6,5.2,7.8c0.1,0.3,0,0.7-0.2,1s-0.5,0.5-0.8,0.5
						C61.7,38.2,60.6,38.4,59.1,38.4L59.1,38.4z"/>
				</g>
			</g>
			<g>
				<g>
					<path d="M50.9,28.4c1.7,0,4,0.3,5.9,1.5c3.6,2.3,4.7,7,4.7,7s-1,0.2-2.4,0.2c-1.7,0-4-0.3-5.9-1.5c-3.6-2.3-4.7-7-4.7-7
						S49.5,28.4,50.9,28.4 M50.9,25.9c-1.6,0-2.8,0.2-2.9,0.3c-0.7,0.1-1.2,0.5-1.6,1.1c-0.4,0.6-0.5,1.3-0.3,1.9
						c0.1,0.2,1.4,5.7,5.7,8.5c2.5,1.6,5.3,1.9,7.3,1.9c1.6,0,2.8-0.2,2.9-0.3c0.7-0.1,1.2-0.5,1.6-1.1s0.5-1.3,0.3-1.9
						c-0.1-0.2-1.4-5.7-5.7-8.5C55.7,26.2,52.9,25.9,50.9,25.9L50.9,25.9z"/>
				</g>
			</g>
		</g>
	</g>
	<g>
		<defs>
			<rect id="SVGID_13_" width="110" height="190"/>
		</defs>
		<clipPath id="SVGID_14_">
			<use xlink:href="#SVGID_13_"  style="overflow:visible;"/>
		</clipPath>
		<g class="st12">
			<g>
				<g>
					<path class="st7" d="M75.6,49.7c-2.4,0-4.9-1.6-6.3-4.1c-0.1,0.1-0.1,0.2-0.2,0.2c-1.6,1.7-3.7,2.6-5.7,2.6
						c-1.5,0-2.9-0.5-3.8-1.5c-2.4-2.3-2.1-6.5,0.6-9.4l0,0c-3.7-1.8-5.5-5.7-4-8.8c1-1.9,3-3.1,5.6-3.1c1.3,0,2.6,0.3,3.8,0.9v-0.1
						c0.5-3.8,3.3-6.6,6.4-6.6c0.2,0,0.5,0,0.7,0.1c3.2,0.5,5.4,4,5,7.9c0.1,0,0.2-0.1,0.3-0.1c0.5-0.1,1.1-0.1,1.6-0.1
						c3.5,0,6.3,2,6.8,4.9c0.3,1.6-0.2,3.3-1.5,4.7c-1.2,1.3-2.9,2.2-4.8,2.6l0,0c1.9,3.6,1,7.8-1.9,9.4
						C77.3,49.5,76.5,49.7,75.6,49.7z M68.9,35.9c0.3,0.1,0.5,0.1,0.6,0.1c0.3,0.1,0.6,0.3,0.7,0.7c0,0,0,0.1,0.1,0.3
						c0.2-0.4,0.4-0.7,0.4-0.8c0.2-0.3,0.5-0.5,0.8-0.5l0,0c0,0,0.2,0,0.6,0c-0.2-0.2-0.3-0.4-0.3-0.4c-0.2-0.3-0.3-0.6-0.2-1
						c0,0,0-0.1,0.1-0.2c-0.5,0.2-0.8,0.3-0.8,0.4c-0.1,0-0.2,0.1-0.4,0.1c-0.2,0-0.4-0.1-0.6-0.2c0,0-0.2-0.1-0.4-0.4
						c0.1,0.4,0.1,0.7,0.1,0.7c0,0.3-0.1,0.7-0.4,0.9C69.2,35.7,69.1,35.8,68.9,35.9z"/>
				</g>
			</g>
		</g>
	</g>
	<g>
		<defs>
			<rect id="SVGID_15_" width="110" height="190"/>
		</defs>
		<clipPath id="SVGID_16_">
			<use xlink:href="#SVGID_15_"  style="overflow:visible;"/>
		</clipPath>
		<g class="st13">
			<path class="st14" d="M70.3,42.2c-0.3,0-0.6,0-1-0.1c-1.8-0.3-3.4-1.2-4.5-2.7c-1.1-1.5-1.6-3.3-1.3-5.1c0.5-3.3,3.4-5.9,6.7-5.9
				c0.3,0,0.6,0,1,0.1c3.7,0.5,6.3,4,5.8,7.7C76.6,39.7,73.7,42.2,70.3,42.2z"/>
		</g>
	</g>
	<g>
		<defs>
			<rect id="SVGID_17_" width="110" height="190"/>
		</defs>
		<clipPath id="SVGID_18_">
			<use xlink:href="#SVGID_17_"  style="overflow:visible;"/>
		</clipPath>
		<g class="st15">
			<g>
				<g>
					<path d="M71.8,20.8c0.2,0,0.4,0,0.6,0c2.8,0.4,4.7,3.6,4.2,7.1c-0.1,0.6-0.3,1.2-0.7,1.8c0.6-0.5,1.4-1,2.2-1.1
						c0.5-0.1,0.9-0.1,1.4-0.1c2.9,0,5.4,1.6,5.9,4.1c0.5,2.8-2,5.5-5.5,6.2c-0.2,0-0.4,0.1-0.7,0.1c-0.5,0-1-0.1-1.5-0.2
						c0.6,0.4,1.1,0.9,1.4,1.6c1.7,3.2,1,6.8-1.5,8.1c-0.6,0.3-1.3,0.5-2,0.5c-2.1,0-4.3-1.4-5.6-3.8c-0.3-0.6-0.5-1.2-0.5-1.9
						c-0.2,0.8-0.6,1.6-1.1,2.2c-1.5,1.5-3.3,2.3-5,2.3c-1.2,0-2.3-0.4-3.2-1.2c-2-2-1.7-5.6,0.8-8.2c0.4-0.4,0.9-0.8,1.5-1
						c-0.7,0-1.4-0.1-2-0.4c-3.2-1.6-4.8-4.9-3.6-7.5c0.8-1.7,2.6-2.6,4.7-2.6c1.1,0,2.3,0.3,3.4,0.8c0.7,0.3,1.3,0.9,1.7,1.5
						c-0.3-0.8-0.5-1.6-0.4-2.4C66.9,23.2,69.2,20.8,71.8,20.8 M65.3,36.5c0.1,0,0.3,0,0.4,0c1.9,0,3.5,0.4,3.5,0.4s0.5,1.8,0.5,3.9
						c0.5-2.2,1.7-4.1,1.7-4.1s2.1,0.1,4.1,0.8c-1.8-1.2-3-2.7-3-2.7s0.6-1.8,1.8-3.4c-1.7,1.5-3.8,2.3-3.8,2.3s-1.7-1.3-3-3.2
						c0.9,2.1,1,4.4,1,4.4S67.2,35.9,65.3,36.5 M71.8,18.8L71.8,18.8c-3.3,0-6.2,2.7-7.1,6.3c-1-0.3-2-0.5-3-0.5
						c-2.9,0-5.3,1.4-6.4,3.7c-0.9,1.8-0.8,3.9,0.1,5.8c0.7,1.5,1.9,2.8,3.3,3.7c-2.3,3.2-2.3,7.4,0.2,9.8c1.2,1.1,2.8,1.8,4.5,1.8
						c2,0,4.1-0.8,5.8-2.3c1.6,2.2,4,3.5,6.5,3.5c1,0,2-0.2,2.9-0.7c1.7-0.9,2.9-2.6,3.3-4.8c0.3-1.6,0.1-3.2-0.5-4.8
						c1.7-0.5,3.1-1.4,4.2-2.6c1.4-1.6,2.1-3.6,1.7-5.5c-0.6-3.3-3.8-5.7-7.8-5.7c-0.3,0-0.6,0-0.9,0c-0.1-3.9-2.5-7.2-5.9-7.7
						C72.4,18.9,72.1,18.8,71.8,18.8L71.8,18.8z"/>
				</g>
			</g>
		</g>
	</g>
</g>
</svg>
