<?xml version="1.0" encoding="utf-8"?>
<!-- Generator: Adobe Illustrator 22.0.0, SVG Export Plug-In . SVG Version: 6.00 Build 0)  -->
<svg version="1.1" id="图层_1" xmlns="http://www.w3.org/2000/svg" xmlns:xlink="http://www.w3.org/1999/xlink" x="0px" y="0px"
	 width="210px" height="160px" viewBox="0 0 210 160" style="enable-background:new 0 0 210 160;" xml:space="preserve">
<style type="text/css">
	.st0{clip-path:url(#SVGID_2_);}
	.st1{fill:#FA9898;}
</style>
<g>
	<defs>
		<rect id="SVGID_1_" width="210" height="160"/>
	</defs>
	<clipPath id="SVGID_2_">
		<use xlink:href="#SVGID_1_"  style="overflow:visible;"/>
	</clipPath>
	<g class="st0">
		<g>
			<path class="st1" d="M105.1,152.1c-1.4,0-2.7-0.8-3.2-2.1c-8.1-18.8-22.3-27.3-38.7-37.1c-13.1-7.8-26.6-15.9-38.2-30
				c-6.5-8-13.3-17.6-14.3-28.5c-1.7-19.3,7.6-33.8,27.6-43.2c4.6-2.1,11.4-3.4,18.6-3.4c11.8,0,22.6,3.1,29.7,8.5
				c8.3,6.3,14.2,14.3,18.6,21.5c4.4-7.1,10.4-15.1,18.7-21.4c7-5.3,17.7-8.3,29.3-8.3c7.4,0,14.3,1.3,19,3.5
				c19.9,9.5,29.1,24.1,27.3,43.3c-1,10.9-7.9,20.5-14.5,28.4c-11.7,14-25,22-38,29.7c-16.3,9.7-30.4,18.1-38.6,36.9
				C107.8,151.3,106.5,152.1,105.1,152.1C105.1,152.1,105.1,152.1,105.1,152.1z"/>
		</g>
		<g>
			<path d="M56.8,11.4c9.6,0,20.3,2.3,27.5,7.8c9.1,7,15.4,16.1,20.7,25.7c5.4-9.5,11.7-18.6,20.9-25.5c7.1-5.4,17.6-7.6,27.2-7.6
				c6.9,0,13.3,1.2,17.5,3.2C196,27,196.7,45.3,195.8,54.7c-0.9,9.8-7.1,18.5-13.7,26.5c-25.8,31.1-61.7,32.2-77.1,67.5
				c-15.2-35.3-51.8-36.7-77.4-67.9c-6.6-8-12.6-16.8-13.5-26.6c-0.8-9.4,0-27.6,25.6-39.7C43.8,12.5,50,11.4,56.8,11.4 M56.8,4.3
				c-7.9,0-15,1.3-20.1,3.7C21.9,15,4.8,28.7,7.1,54.7c1,11.9,8.2,22.1,15.1,30.4c12,14.6,26.4,23.2,39.1,30.8
				c15.9,9.5,29.7,17.7,37.3,35.4c1.1,2.6,3.7,4.3,6.5,4.3c0,0,0,0,0,0c2.8,0,5.4-1.7,6.5-4.2c7.8-17.7,21.4-25.9,37.2-35.3
				c12.6-7.5,26.8-16,38.9-30.5c6.9-8.3,14.1-18.4,15.3-30.4c2.4-26-14.6-39.8-29.3-46.9C168.4,6,161.1,4.6,153,4.6
				c-12.4,0-23.9,3.3-31.5,9c-7,5.3-12.3,11.6-16.5,17.7c-4.2-6.1-9.5-12.5-16.4-17.8C81,7.7,69.4,4.3,56.8,4.3L56.8,4.3z"/>
		</g>
	</g>
</g>
</svg>
