<?xml version="1.0" encoding="utf-8"?>
<!-- Generator: Adobe Illustrator 22.0.0, SVG Export Plug-In . SVG Version: 6.00 Build 0)  -->
<svg version="1.1" id="图层_1" xmlns="http://www.w3.org/2000/svg" xmlns:xlink="http://www.w3.org/1999/xlink" x="0px" y="0px"
	 width="280px" height="280px" viewBox="0 0 280 280" style="enable-background:new 0 0 280 280;" xml:space="preserve">
<style type="text/css">
	.st0{clip-path:url(#SVGID_2_);}
	.st1{fill:#FFF4EC;}
	.st2{fill:#FAD558;}
	.st3{fill:#FA9898;}
	.st4{fill:#FFFFFF;}
</style>
<g>
	<defs>
		<rect id="SVGID_1_" width="280" height="280"/>
	</defs>
	<clipPath id="SVGID_2_">
		<use xlink:href="#SVGID_1_"  style="overflow:visible;"/>
	</clipPath>
	<g class="st0">
		<g>
			<g>
				<g>
					<g>
						<g>
							<path class="st1" d="M112.2,150.3c1.9,0,3.4,1.6,3.4,3.5l-1.1,114.3c0,1-0.5,2-1.2,2.6c-0.6,0.5-1.4,0.8-2.2,0.8
								c-0.2,0-0.4,0-0.6-0.1c-75.4-13.3-65.9-117.6-65.8-118.7c0.2-1.8,1.7-3.1,3.4-3.1C48.2,149.7,112.2,150.3,112.2,150.3z"/>
						</g>
					</g>
					<g>
						<g>
							<path d="M111.1,268.1c-73.1-12.9-62.9-115-62.9-115l64,0.6L111.1,268.1 M111.1,275c1.6,0,3.2-0.6,4.4-1.6
								c1.6-1.3,2.5-3.2,2.5-5.2l1.1-114.3c0-1.8-0.7-3.6-2-4.9c-1.3-1.3-3-2.1-4.9-2.1l-64-0.6c0,0,0,0-0.1,0
								c-3.5,0-6.5,2.7-6.9,6.2c-0.1,1.1-2.6,27,4.2,55c9.3,38.4,31.6,61.7,64.4,67.5C110.3,275,110.7,275,111.1,275L111.1,275z"/>
						</g>
					</g>
				</g>
				<g>
					<g>
						<g>
							<path class="st2" d="M112.2,151c0.7,0,1.4,0.3,1.9,0.8c0.5,0.5,0.8,1.2,0.8,2l-1.1,114.5c0,0.8-0.4,1.6-1.1,2.1
								c-0.5,0.4-1.1,0.6-1.7,0.6c-0.2,0-0.4,0-0.6-0.1C67,261,69.6,157.7,69.7,153.3c0-1.5,1.3-2.7,2.8-2.7
								C72.5,150.6,112.2,151,112.2,151z"/>
						</g>
					</g>
					<g>
						<g>
							<path d="M111.1,268.3c-41.8-9.5-38.6-114.9-38.6-114.9l39.7,0.4L111.1,268.3 M111.1,273.8c1.2,0,2.4-0.4,3.4-1.2
								c1.3-1,2.1-2.6,2.1-4.3l1.1-114.5c0-1.5-0.6-2.9-1.6-3.9c-1-1-2.4-1.6-3.9-1.7l-39.7-0.4c0,0,0,0-0.1,0c-3,0-5.4,2.4-5.5,5.4
								c0,1.1-0.8,27.2,3.7,54.9c6.3,39,19.5,61,39.2,65.5C110.3,273.8,110.7,273.8,111.1,273.8L111.1,273.8z"/>
						</g>
					</g>
				</g>
			</g>
			<g>
				<g>
					<g>
						<g>
							<path class="st1" d="M231.8,149.7c1.8,0,3.3,1.3,3.4,3.1c0.1,1.1,9.7,105.4-65.8,118.7c-0.2,0-0.4,0.1-0.6,0.1
								c-0.8,0-1.6-0.3-2.2-0.8c-0.8-0.6-1.2-1.6-1.2-2.6l-1.1-114.3c0-1.9,1.5-3.5,3.4-3.5C167.8,150.3,231.8,149.7,231.8,149.7z"
								/>
						</g>
					</g>
					<g>
						<g>
							<path d="M168.9,268.1l-1.1-114.3l64-0.6C231.8,153.1,242,255.2,168.9,268.1 M168.9,275c0.4,0,0.8,0,1.2-0.1
								c32.8-5.8,55.1-29.1,64.4-67.5c6.8-28,4.3-53.9,4.2-55c-0.4-3.5-3.3-6.2-6.9-6.2c0,0,0,0-0.1,0l-64,0.6
								c-1.8,0-3.6,0.8-4.9,2.1c-1.3,1.3-2,3.1-2,4.9l1.1,114.3c0,2,0.9,3.9,2.5,5.2C165.7,274.4,167.3,275,168.9,275L168.9,275z"/>
						</g>
					</g>
				</g>
				<g>
					<g>
						<g>
							<path class="st2" d="M207.5,150.6c1.5,0,2.7,1.2,2.8,2.7c0.1,4.4,2.8,107.8-40.8,117.7c-0.2,0-0.4,0.1-0.6,0.1
								c-0.6,0-1.2-0.2-1.7-0.6c-0.7-0.5-1-1.3-1.1-2.1L165,153.8c0-0.7,0.3-1.4,0.8-2c0.5-0.5,1.2-0.8,1.9-0.8
								C167.8,151,207.5,150.6,207.5,150.6z"/>
						</g>
					</g>
					<g>
						<g>
							<g>
								<path d="M168.9,268.3l-1.1-114.5l39.7-0.4C207.5,153.4,210.7,258.7,168.9,268.3 M168.9,273.8c0.4,0,0.8,0,1.2-0.1
									c19.8-4.5,33-26.6,39.2-65.5c4.5-27.7,3.7-53.8,3.7-54.9c-0.1-3-2.5-5.4-5.5-5.4c0,0,0,0-0.1,0l-39.7,0.4
									c-1.5,0-2.9,0.6-3.9,1.7c-1,1-1.6,2.5-1.6,3.9l1.1,114.5c0,1.7,0.8,3.2,2.1,4.3C166.5,273.4,167.7,273.8,168.9,273.8
									L168.9,273.8z"/>
							</g>
						</g>
					</g>
				</g>
			</g>
		</g>
		<g>
			<path class="st1" d="M233.7,1.9c-0.8-0.6-1.6-1.3-2.5-1.9H48.7c-0.8,0.6-1.7,1.2-2.5,1.9C20.9,21.6,7,49.3,7,79.9
				c0,66.3,62.2,124.6,133,124.6c70.9,0,133-58.2,133-124.6C273,49.3,259.1,21.6,233.7,1.9z"/>
		</g>
		<g>
			<g>
				<path class="st2" d="M154.9,153.8c0-60.5,45-110.5,103.4-118.3c7.2,13.1,11.2,28.1,11.2,44.4c0,55.1-45.6,107.7-105.9,118.9
					C158.1,184.9,154.9,169.7,154.9,153.8z"/>
			</g>
		</g>
		<g>
			<g>
				<path class="st2" d="M10.4,79.9c0-16.3,4-31.2,11.2-44.4c42.9,5.7,78.6,34.1,94.5,72.8c-7.3,3.4-12.3,10.8-12.3,19.3
					c0,11.7,9.5,21.2,21.1,21.3c0.1,1.6,0.1,3.2,0.1,4.8c0,15.9-3.1,31.1-8.8,45h0C56,187.6,10.4,135.1,10.4,79.9z"/>
			</g>
		</g>
		<g>
			<g>
				<g>
					<path class="st3" d="M203.1,51.3c0-9.6,7.7-17.3,17.3-17.3c9.6,0,17.3,7.7,17.3,17.3s-7.7,17.3-17.3,17.3
						C210.8,68.6,203.1,60.8,203.1,51.3z"/>
				</g>
			</g>
			<g>
				<g>
					<path class="st3" d="M42.3,51.3c0-9.6,7.7-17.3,17.3-17.3c9.6,0,17.3,7.7,17.3,17.3s-7.7,17.3-17.3,17.3
						C50.1,68.6,42.3,60.8,42.3,51.3z"/>
				</g>
			</g>
		</g>
		<g>
			<g>
				<g>
					<g>
						<line class="st4" x1="51.2" y1="127.9" x2="91.8" y2="144.9"/>
					</g>
					<g>
						<path d="M51.2,122.3c0.7,0,1.4,0.1,2.1,0.4l40.6,17c2.8,1.2,4.1,4.4,3,7.2s-4.4,4.1-7.2,3l-40.6-17c-2.8-1.2-4.1-4.4-3-7.2
							C47,123.6,49.1,122.3,51.2,122.3z"/>
					</g>
				</g>
			</g>
			<g>
				<g>
					<g>
						<line class="st4" x1="228.8" y1="127.9" x2="188.2" y2="144.9"/>
					</g>
					<g>
						<path d="M228.8,122.3c2.2,0,4.2,1.3,5.1,3.4c1.2,2.8-0.2,6.1-3,7.2l-40.6,17c-2.8,1.2-6.1-0.2-7.2-3c-1.2-2.8,0.2-6.1,3-7.2
							l40.6-17C227.4,122.5,228.1,122.3,228.8,122.3z"/>
					</g>
				</g>
			</g>
		</g>
		<g>
			<g>
				<g>
					<path d="M118.1,71.3c0-9.3,9.8-16.9,21.9-16.9c12.1,0,21.9,7.5,21.9,16.9c0,9.3-9.8,16.9-21.9,16.9
						C127.9,88.2,118.1,80.6,118.1,71.3z"/>
				</g>
			</g>
			<g>
				<g>
					<path d="M162.2,7.7c5.4,0,10.9,1.8,15.5,5.3c8.5,6.4,12.1,16.9,9.8,28.8c-0.3,1.5-1.7,2.5-3.2,2.2c-1.5-0.3-2.5-1.7-2.2-3.2
						c1.8-9.7-1-18.2-7.7-23.3c-6-4.5-13.9-5.4-20.1-2.3c-7.4,3.7-11.4,12.1-11.4,23.8v15.6c0,1.5-1.2,2.8-2.8,2.8s-2.8-1.2-2.8-2.8
						V38.8c0-18.7,9.1-26.1,14.5-28.7C155,8.4,158.5,7.7,162.2,7.7z"/>
				</g>
			</g>
			<g>
				<g>
					<path d="M117.8,7.7c3.6,0,7.2,0.8,10.4,2.4c5.4,2.7,14.5,10,14.5,28.7v15.6c0,1.5-1.2,2.8-2.8,2.8s-2.8-1.2-2.8-2.8V38.8
						c0-11.7-4.1-20.1-11.4-23.8c-6.3-3.1-14.2-2.2-20.1,2.3c-6.8,5.1-9.6,13.6-7.7,23.3c0.3,1.5-0.7,2.9-2.2,3.2
						c-1.5,0.3-2.9-0.7-3.2-2.2c-2.2-11.8,1.3-22.3,9.8-28.8C106.9,9.4,112.4,7.7,117.8,7.7z"/>
				</g>
			</g>
		</g>
		<g>
			<g>
				<g>
					<path d="M204.5,76.4c0.5,0,1,0,1.4,0.1c8.6,0.6,15.2,6.6,17.1,15.6c0.4,1.7-0.7,3.4-2.4,3.8c-1.7,0.4-3.4-0.7-3.8-2.4
						c-1.3-6.2-5.6-10.2-11.4-10.6c-5.8-0.4-13.1,2.9-16.3,11.4c-0.6,1.6-2.5,2.5-4.1,1.8c-1.6-0.6-2.5-2.4-1.8-4.1
						C187.3,81.1,196.6,76.4,204.5,76.4z"/>
				</g>
			</g>
			<g>
				<g>
					<path d="M75.5,76.4c7.9,0,17.2,4.7,21.3,15.5c0.6,1.6-0.2,3.5-1.8,4.1c-1.6,0.6-3.5-0.2-4.1-1.8c-3.2-8.5-10.5-11.8-16.3-11.4
						c-5.8,0.4-10,4.4-11.4,10.6c-0.4,1.7-2.1,2.8-3.8,2.4c-1.7-0.4-2.8-2.1-2.4-3.8c1.9-9,8.5-15,17.1-15.6
						C74.5,76.4,75,76.4,75.5,76.4z"/>
				</g>
			</g>
		</g>
		<g>
			<path d="M236.9,0h-11.7c27.2,18.3,44.3,46.1,44.3,79.9c0,62.2-58,121.1-129.6,121.1C68.4,201,10.4,142.1,10.4,79.9
				c0-33.8,17.2-61.6,44.3-79.9H43.1C17.6,20.3,3.5,48.6,3.5,79.9c0,32,14.6,64.4,40.1,88.8c26.3,25.3,60.6,39.2,96.4,39.2
				c35.9,0,70.1-13.9,96.4-39.2c25.5-24.4,40.1-56.8,40.1-88.8C276.5,48.6,262.4,20.3,236.9,0z"/>
		</g>
	</g>
</g>
</svg>
