<?xml version="1.0" encoding="utf-8"?>
<!-- Generator: Adobe Illustrator 22.0.0, SVG Export Plug-In . SVG Version: 6.00 Build 0)  -->
<svg version="1.1" id="图层_1" xmlns="http://www.w3.org/2000/svg" xmlns:xlink="http://www.w3.org/1999/xlink" x="0px" y="0px"
	 width="80px" height="80px" viewBox="0 0 80 80" style="enable-background:new 0 0 80 80;" xml:space="preserve">
<style type="text/css">
	.st0{clip-path:url(#SVGID_2_);}
	.st1{fill:#FA9898;}
</style>
<g>
	<defs>
		<rect id="SVGID_1_" width="80" height="80"/>
	</defs>
	<clipPath id="SVGID_2_">
		<use xlink:href="#SVGID_1_"  style="overflow:visible;"/>
	</clipPath>
	<g class="st0">
		<g>
			<g>
				<g>
					<path class="st1" d="M39.9,32.9c-1,0.7-1.8,1.6-2.3,2.8c-0.2,0.5-0.4,1-0.6,1.5c-0.1,0.3-0.2,0.7-0.3,1
						c-0.5-0.1-0.9-0.3-1.3-0.4c-1.5-0.4-2.9-0.3-4.3,0.2c-0.7,0.3-1.4,0.6-2.1,1.1c-0.9,0.6-1.6,1.4-2.2,2.3
						c-0.4,0.6-0.6,1.2-0.8,1.9c-0.4,1.5-0.4,3,0.1,4.5c0.1,0.3,0.2,0.7,0.3,1L27,50c0.2,0.3,0.4,0.5,0.7,0.8c0.8,0.9,1.8,1.6,2.9,2
						c1.3,0.5,2.7,0.8,4,1c1,0.2,1.9,0.4,2.8,0.6c1.5,0.3,2.9,0.6,4.4,0.8c1,0.2,2,0.4,2.9,0.6c0.6,0.1,1.2,0.2,1.8,0.3
						c0.1,0,0.2,0.1,0.2,0.1l0.1-0.1c0.3-1,0.7-1.9,1.1-2.9c0.5-1.4,1.1-2.8,1.6-4.2c0.3-0.9,0.7-1.9,1-2.8c0.5-1.2,0.9-2.5,1.4-3.7
						c0.4-1.2,0.7-2.3,0.6-3.6c0-0.9-0.2-1.7-0.6-2.5c0,0,0-0.1,0-0.1l-1-1.8c-0.3-0.3-0.6-0.6-0.8-0.9c-0.7-0.7-1.5-1.2-2.4-1.6
						c-1.5-0.7-3-0.8-4.6-0.5C41.9,31.7,40.9,32.2,39.9,32.9L39.9,32.9z M39.9,32.9"/>
				</g>
			</g>
			<g>
				<g>
					<path d="M40.4,72.8c-2.5,0-4.9-0.3-7.4-1c-7.3-2-13.4-6.7-17.2-13.2c-7.8-13.5-3.2-30.9,10.4-38.8c6.6-3.8,14.2-4.8,21.5-2.8
						c7.3,2,13.4,6.7,17.2,13.2l0,0c3.8,6.6,4.8,14.2,2.8,21.5S61.1,65.2,54.5,69C50.1,71.6,45.3,72.8,40.4,72.8z M40.3,21.8
						c-3.9,0-7.8,1-11.3,3.1c-10.8,6.3-14.6,20.2-8.3,31c3,5.3,7.9,9,13.8,10.6c5.9,1.6,12,0.8,17.2-2.3c5.3-3,9-7.9,10.6-13.8
						s0.8-12-2.3-17.2s-7.9-9-13.8-10.6C44.2,22,42.2,21.8,40.3,21.8z"/>
				</g>
			</g>
			<g>
				<g>
					<path d="M13.7,71.7c-4.5,0-8-1.3-9.7-4.2c-2.7-4.6,0.2-11.2,8.2-19.1c1.1-1.1,2.9-1.1,4,0c1.1,1.1,1.1,2.9,0,4
						C9.5,59.1,8.2,63.4,9,64.7c1.7,2.9,16.3,1.8,37.1-10.2c9-5.2,16.9-11.2,22.1-16.8c4.8-5.2,6.1-8.9,5.4-10.2
						c-0.6-1.1-4.2-2.4-13.5,0c-1.5,0.4-3.1-0.5-3.5-2s0.5-3.1,2-3.5c10.4-2.7,17.2-1.8,19.8,2.6c1.7,2.9,2,8.1-6.1,16.9
						c-5.6,6-13.9,12.4-23.4,17.9C36.6,66.5,22.9,71.7,13.7,71.7z"/>
				</g>
			</g>
		</g>
		<g>
			<g>
				<circle cx="8.5" cy="11" r="3"/>
			</g>
		</g>
		<g>
			<g>
				<circle cx="65.6" cy="70" r="3"/>
			</g>
		</g>
		<g>
			<g>
				<circle cx="19.5" cy="10" r="2"/>
			</g>
		</g>
		<g>
			<g>
				<circle cx="74.6" cy="61" r="2"/>
			</g>
		</g>
	</g>
</g>
</svg>
