<svg xmlns="http://www.w3.org/2000/svg" viewBox="0 0 430.34 1060.18">
  <defs>
    <style>
      .cls-1,
      .cls-4 {
        fill: #fff;
      }

      .cls-2 {
        fill: #faeeee;
      }

      .cls-3,
      .cls-5 {
        fill: #ffe7e7;
      }

      .cls-4,
      .cls-5 {
        fill-rule: evenodd;
      }

      .cls-6 {
        fill: #bf272d;
      }

      .cls-7 {
        fill: #fa7777;
      }

      .cls-8 {
        fill: #fa9898;
      }

      .cls-9 {
        fill: #facbcb;
      }

      .cls-10,
      .cls-20 {
        fill: none;
      }

      .cls-10 {
        stroke: #000;
        stroke-linecap: round;
        stroke-linejoin: round;
        stroke-width: 5.67px;
      }

      .cls-11 {
        fill: #ff0;
      }

      .cls-12 {
        fill: #39b34a;
      }

      .cls-13 {
        fill: #fff4ec;
      }

      .cls-14 {
        fill: #fad558;
      }

      .cls-15 {
        fill: #ffdada;
      }

      .cls-16 {
        fill: #f7e2d0;
      }

      .cls-17 {
        fill: #333;
      }

      .cls-18 {
        fill: gray;
      }

      .cls-19 {
        fill: #ff7676;
      }
    </style>
  </defs>
  <path class="cls-1"
    d="M324.36,963.3c-15.73,1.13-30.3-12.07-36.41-32.49l-21.21,17a29.09,29.09,0,0,0-2.36,4.27,23.46,23.46,0,0,1-4.5,6.91,10.23,10.23,0,0,1-6.58,3.29A12.23,12.23,0,0,1,246,960l-.13-.07h0c-4.65.33-10.16-2.52-13.7-7.08a15.54,15.54,0,0,1-2.87-14.57c3.23-9.67,12.85-12.46,16-13.13l44.11-48.37a2.62,2.62,0,0,1,1.72-.84h.15a2.58,2.58,0,0,1,1.89.79l1,1c5.94-8.92,14-14.13,23.06-14.77s17.77,3.36,24.93,11.35l.83-1.16a2.62,2.62,0,0,1,1.77-1h.14a2.58,2.58,0,0,1,1.83.58l50.54,41.62c3.18.21,13.11,1.61,17.67,10.72a15.5,15.5,0,0,1-.77,14.83c-2.85,5-7.9,8.62-12.55,9h0l-.12.09a12.28,12.28,0,0,1-6.9,3.21,10.15,10.15,0,0,1-7-2.31,23.67,23.67,0,0,1-5.43-6.2,29.3,29.3,0,0,0-2.94-3.9L355.77,926C352.62,947,340.08,962.18,324.36,963.3Z"
    transform="translate(2.34 0.17)" />
  <path
    d="M317.37,865.56c9.37-.67,18.23,4.37,24.88,13l2.8-3.84,51.21,42.16s11.62-.05,16.33,9.34c4.55,9.07-4.06,19.53-11.19,20-.21,0-.42,0-.62,0h0c-.6,0-2.93,3-6.4,3.3a7.59,7.59,0,0,1-5.24-1.8c-3.92-3-4.88-6.53-8.32-10.08l-27.12-15.95c-1.91,21.27-13.88,37.88-29.51,39s-29.83-13.61-34.75-34.4L264.84,946c-2.9,4-3.35,7.67-6.8,11.17a7.62,7.62,0,0,1-4.93,2.52c-3.47.25-6.21-2.4-6.81-2.35h0l-.62.07c-7.13.51-17.14-8.63-13.93-18.25,3.33-10,14.84-11.56,14.84-11.56l44.7-49,3.31,3.41c5.36-9.47,13.41-15.72,22.78-16.39m-.37-5.15c-8.86.63-17.11,5.49-23.32,13.55a5.27,5.27,0,0,0-2.48-.59h-.29a5.15,5.15,0,0,0-3.45,1.68l-43.58,47.79c-4.17,1-13.66,4.5-17,14.63a18.08,18.08,0,0,0,3.27,17c3.92,5,9.76,8.15,15.1,8.11a14.16,14.16,0,0,0,8.27,2.24,12.68,12.68,0,0,0,8.25-4,26,26,0,0,0,5-7.61,29.34,29.34,0,0,1,2-3.62l18-14.39c7.06,19.54,21.88,31.88,37.88,30.74s28.91-15.47,33.13-35.81l19.86,11.68a30.43,30.43,0,0,1,2.45,3.31,25.87,25.87,0,0,0,6,6.82,12.68,12.68,0,0,0,8.74,2.83,14.16,14.16,0,0,0,7.86-3.4c5.3-.71,10.64-4.62,13.79-10.16a18.07,18.07,0,0,0,.83-17.27c-4.78-9.55-14.67-11.62-18.95-12.06l-49.93-41.11a5.15,5.15,0,0,0-3.65-1.17l-.29,0a5.18,5.18,0,0,0-2.37.94c-7.3-7.1-16.15-10.74-25-10.1Z"
    transform="translate(2.34 0.17)" />
  <polygon class="cls-2" points="381.49 902.95 365.98 920.84 368.48 926.88 388.07 908.37 381.49 902.95" />
  <polygon class="cls-3" points="279.78 933.22 281.4 926.88 263.69 911.53 257.96 917.82 279.78 933.22" />
  <path class="cls-4"
    d="M295,1044.34c-3.8.27-10.35-.78-10.76-6.43-.21-2.9,1.26-7.9,13.37-8.79l-1.63-22.75a2.67,2.67,0,0,1,2.46-2.84l21.79-1.55a2.64,2.64,0,0,1,2.83,2.45l2.2,30.8c.36,5.07-4.17,7.25-7.31,7.47Z"
    transform="translate(2.34 0.17)" />
  <path
    d="M320.38,1004.62l2.2,30.8c.3,4.27-4.86,4.63-4.86,4.63l-22.94,1.64s-7.61.55-7.93-4,7-5.68,11-6c1.5-.1,2.54-.09,2.54-.09l-1.82-25.48,21.79-1.56m-.38-5.29-21.79,1.56a5.3,5.3,0,0,0-4.91,5.66l1.44,20.2a26.81,26.81,0,0,0-5.93,1.45c-7,2.71-7.4,7.83-7.25,9.9.48,6.74,7.38,9.33,13.59,8.88l23-1.64h0a12.57,12.57,0,0,0,4.52-1.26,9.14,9.14,0,0,0,5.24-9l-2.21-30.8a5.29,5.29,0,0,0-5.66-4.91Z"
    transform="translate(2.34 0.17)" />
  <path class="cls-4"
    d="M342,1041a10.34,10.34,0,0,1-3.64-.48,6.48,6.48,0,0,1-4.66-5.87l-2.2-30.81A2.65,2.65,0,0,1,334,1001l21.79-1.56a2.65,2.65,0,0,1,2.83,2.46l1.63,22.75a28.44,28.44,0,0,1,7.93.43c5.39,1.25,6.42,4.53,6.55,6.38.4,5.65-5.93,7.62-9.74,7.89Z"
    transform="translate(2.34 0.17)" />
  <path
    d="M356,1002.08l1.82,25.48s1-.16,2.52-.27c4-.28,11.44-.19,11.76,4.35s-7.28,5-7.28,5l-22.95,1.64h0s-5.16.37-5.46-3.89l-2.2-30.81,21.79-1.55m-.38-5.29-21.79,1.56a5.29,5.29,0,0,0-4.91,5.66l2.2,30.8c.44,6.21,6.07,9.17,11.13,8.81l23-1.64c6.21-.44,12.67-4,12.19-10.72-.21-2.94-2.1-9.42-14.66-9.36l-1.44-20.2a5.31,5.31,0,0,0-5.67-4.91Z"
    transform="translate(2.34 0.17)" />
  <path class="cls-5" d="M300.13,1027.84l21.79-1.56-.44-6.19-21.79,1.56Z" transform="translate(2.34 0.17)" />
  <path class="cls-5" d="M335.72,1025.29l21.78-1.55-.44-6.19-21.79,1.56Z" transform="translate(2.34 0.17)" />
  <path class="cls-1"
    d="M291.17,1021.18a2,2,0,0,1-2.16-1.8L277.32,913.86a19.7,19.7,0,0,1,4.46-14.92,19.84,19.84,0,0,1,20.56-6.5l11.93,3.24a15.91,15.91,0,0,0,10.45-.75l11.35-4.9a19.86,19.86,0,0,1,21.28,3.51,19.76,19.76,0,0,1,6.54,14.14l3.43,106.11a2,2,0,0,1-1.89,2.09Z"
    transform="translate(2.34 0.17)" />
  <path
    d="M342.73,890.45a17.92,17.92,0,0,1,19.13,17.29l3.43,106.11L291,1019.16l-11.7-105.52a17.85,17.85,0,0,1,22.48-19.24l11.93,3.24a18,18,0,0,0,11.79-.85l11.35-4.9a18.05,18.05,0,0,1,5.85-1.44m-.29-4.05h0a22.18,22.18,0,0,0-7.17,1.76l-11.35,4.91a14,14,0,0,1-4.5,1.09,13.5,13.5,0,0,1-4.61-.44l-11.94-3.24a21.84,21.84,0,0,0-22.65,7.16,21.71,21.71,0,0,0-4.92,16.45L287,1019.6a4.07,4.07,0,0,0,4.33,3.61l74.26-5.31a4.05,4.05,0,0,0,3.76-4.18l-3.42-106.11A21.76,21.76,0,0,0,358.71,892a22.07,22.07,0,0,0-16.27-5.64Z"
    transform="translate(2.34 0.17)" />
  <path
    d="M306.62,1022.19a2.07,2.07,0,0,1-2.21-1.92l-1.92-26.81a2.07,2.07,0,0,1,4.13-.3l1.91,26.82A2.06,2.06,0,0,1,306.62,1022.19Z"
    transform="translate(2.34 0.17)" />
  <path class="cls-6"
    d="M307.89,904.2l6.66-.47,4.86,10.78c.63,1.45,1.16,3,1.75,4.59h.17c.41-1.63.71-3.28,1.08-4.79l3.15-11.36,6.69-.48,1.83,25.67-5.62.4-.63-8.8a86.18,86.18,0,0,1,.16-9h-.14l-1.7,6.29-2.78,9.63L320,927l-4.15-9.13-2.51-6h-.14a85.37,85.37,0,0,1,1.43,8.85l.63,8.79-5.52.4Z"
    transform="translate(2.34 0.17)" />
  <path class="cls-7"
    d="M343.6,885.66a205.5,205.5,0,0,0,21.9-4.93l-10.64-8c-2.11.47-4.21.9-6.25,1.28A116.57,116.57,0,0,0,343.6,885.66Z"
    transform="translate(2.34 0.17)" />
  <path class="cls-7"
    d="M271.89,887.42a205.79,205.79,0,0,0,22.38,1.76,114.83,114.83,0,0,0-6.61-10.78c-2.08-.09-4.21-.22-6.37-.38Z"
    transform="translate(2.34 0.17)" />
  <path class="cls-8"
    d="M292.2,958c-.34,0-.68,0-1,0l-14.05.27A6.7,6.7,0,0,1,270.8,949l9.1-22-25.42-22a2,2,0,0,1-.1-3l29-29a2,2,0,0,1,1.29-.58H285a2,2,0,0,1,1.48.8l.22.29a117.77,117.77,0,0,1,23.24,62.3l.11,1.55A19.29,19.29,0,0,1,292.2,958Z"
    transform="translate(2.34 0.17)" />
  <path
    d="M284.84,874.47l.22.29A116,116,0,0,1,307.89,936l.11,1.54A17.24,17.24,0,0,1,292.05,956c-.3,0-.61,0-.92,0l-14.05.27a4.67,4.67,0,0,1-4.4-6.45L277,939.3l5.3-12.82-26.52-23,29-29m-.29-4.05A4,4,0,0,0,282,871.6l-29,29a4,4,0,0,0-1.19,3,4.08,4.08,0,0,0,1.4,2.93l24.31,21.06-4.18,10.12-4.35,10.51a8.72,8.72,0,0,0,8.22,12.06l14.06-.27c.38,0,.76,0,1.13,0a21.3,21.3,0,0,0,19.71-22.76l-.11-1.54a119.74,119.74,0,0,0-23.63-63.37l-.22-.29a4,4,0,0,0-3-1.62Z"
    transform="translate(2.34 0.17)" />
  <path class="cls-8"
    d="M355.43,953.46a19.27,19.27,0,0,1-20.57-17.85l-.11-1.54a117.68,117.68,0,0,1,14.14-65l.17-.32a2.06,2.06,0,0,1,1.36-1l.28,0a2.08,2.08,0,0,1,1.36.4l32.86,24.6a2,2,0,0,1,.8,1.41,2.08,2.08,0,0,1-.48,1.55l-22,25.42,12.12,20.46a6.68,6.68,0,0,1-4.93,10l-13.95,1.74Z"
    transform="translate(2.34 0.17)" />
  <path
    d="M350.84,869.75l32.86,24.61-23,26.52,7.07,11.94,5.8,9.78a4.67,4.67,0,0,1-3.44,7l-13.95,1.74-.92.09a17.24,17.24,0,0,1-18.4-16l-.11-1.54a116,116,0,0,1,13.9-63.85l.17-.33m-.28-4a5.4,5.4,0,0,0-.58.09,4.05,4.05,0,0,0-2.7,2l-.17.32a119.76,119.76,0,0,0-14.39,66.09l.11,1.54a21.32,21.32,0,0,0,22.74,19.73c.38,0,.76-.07,1.13-.12l13.95-1.73a8.73,8.73,0,0,0,6.43-13.11l-5.8-9.78-5.58-9.42L386.77,897a4.06,4.06,0,0,0-.63-5.91L353.28,866.5a4.17,4.17,0,0,0-2.72-.8Z"
    transform="translate(2.34 0.17)" />
  <path class="cls-1"
    d="M274.38,829.41a9.18,9.18,0,0,0,8-6.63l18.24-64.73a9.16,9.16,0,0,0-6.31-11.28L225.89,727.5a9.13,9.13,0,0,0-11.53,7.55c-9.2,71.32,41.27,90.06,56.95,94.1a9.09,9.09,0,0,0,3.07.26Z"
    transform="translate(2.34 0.17)" />
  <path
    d="M222.85,729.81a6.42,6.42,0,0,1,2.33.22l68.41,19.28a6.51,6.51,0,0,1,4.5,8l-18.24,64.72a6.53,6.53,0,0,1-5.7,4.73,6.76,6.76,0,0,1-2.18-.18c-17.25-4.45-63.81-22.89-55-91.23a6.45,6.45,0,0,1,5.88-5.57m-.45-5.25a11.79,11.79,0,0,0-10.65,10.15c-9.48,73.46,42.69,92.81,58.91,97a11.39,11.39,0,0,0,3.94.33,11.81,11.81,0,0,0,10.31-8.54l18.24-64.73A11.78,11.78,0,0,0,295,744.24L226.61,725a11.77,11.77,0,0,0-4.21-.4Z"
    transform="translate(2.34 0.17)" />
  <path class="cls-9"
    d="M235.51,745.74l49.6,14a7,7,0,0,1,4.83,8.63l-10.73,38.07a7,7,0,0,1-8.71,4.81c-14.41-4.21-46.18-18.17-43.88-59.07A7,7,0,0,1,235.51,745.74Z"
    transform="translate(2.34 0.17)" />
  <path class="cls-1"
    d="M357,822.3a9.11,9.11,0,0,0,3-.77c14.76-6.67,61.28-33.75,40-102.45a9.14,9.14,0,0,0-9.48-6.34,9.24,9.24,0,0,0-3.17.87l-64.11,30.68a9.13,9.13,0,0,0-4.3,12.18l29,60.66A9.15,9.15,0,0,0,357,822.3Z"
    transform="translate(2.34 0.17)" />
  <path
    d="M390.74,715.36a6.46,6.46,0,0,1,6.74,4.49c20.36,65.83-22.37,91.95-38.61,99.28a6.49,6.49,0,0,1-8.53-3.13l-29-60.66a6.51,6.51,0,0,1,3.06-8.68L388.48,716a6.7,6.7,0,0,1,2.26-.62m-.45-5.24a11.63,11.63,0,0,0-4.08,1.11L322.1,741.91a11.77,11.77,0,0,0-5.54,15.7l29,60.66A11.75,11.75,0,0,0,361,823.93C376.3,817,424.4,789.06,402.51,718.3a11.78,11.78,0,0,0-12.22-8.18Z"
    transform="translate(2.34 0.17)" />
  <path class="cls-9"
    d="M381,733.23l-46.48,22.24a7,7,0,0,0-3.29,9.33l17.07,35.68a7,7,0,0,0,9.41,3.25c13.47-6.61,42.4-25.79,33.14-65.7A7,7,0,0,0,381,733.23Z"
    transform="translate(2.34 0.17)" />
  <path class="cls-1"
    d="M315.58,880c2.88-.24,4.62-.46,4.81-.48,0,0,1.75-.08,4.64-.33,19.08-1.64,81.55-9.73,84.56-45,4.28-49.95-26.86-83.56-47.49-93-22.6-10.35-48.67-8.73-53.67-8.3l-1.48.13c-5,.43-31,3.29-51.45,17.34-18.72,12.84-43.67,51.27-30.92,99.76,9,34.18,71.91,31.49,91,29.84Z"
    transform="translate(2.34 0.17)" />
  <path
    d="M307.18,735.71l.74-.05.74-.07c4.64-.4,30.27-2,52.34,8.07,19.2,8.79,50.17,41.33,46,90.38-2.86,33.35-64.44,41-82.16,42.56-3,.26-4.74.34-4.74.34s-1.73.21-4.72.47c-17.72,1.53-79.71,4.47-88.22-27.9-12.52-47.61,12.44-85,29.85-96.9,20-13.73,45.56-16.5,50.2-16.9m-.45-5.24c-5.11.44-31.68,3.36-52.72,17.79C234.7,761.51,209,801.07,222,850.85c4.2,16,19.3,26.27,44.88,30.52,19,3.15,38.77,2.16,48.88,1.29,2.51-.22,4.17-.41,4.73-.47s2.22-.13,4.73-.35c10.11-.87,29.79-3.27,47.94-9.62,24.48-8.55,37.6-21.25,39-37.73,4.39-51.29-27.74-85.87-49-95.62-23.19-10.63-49.87-9-55-8.53l-.74.07-.74.06Z"
    transform="translate(2.34 0.17)" />
  <path class="cls-9"
    d="M360.87,819.4c.34,4,8,6.63,17.18,5.84s16.27-4.68,15.93-8.69-8-6.64-17.18-5.85S360.52,815.38,360.87,819.4Z"
    transform="translate(2.34 0.17)" />
  <path
    d="M349.15,788.47a1.5,1.5,0,0,0,1-.51h0c.22-.24,5.35-5.86,13.82-1.67a1.54,1.54,0,1,0,1.37-2.76c-10.64-5.27-17.44,2.32-17.5,2.4a1.54,1.54,0,0,0,.15,2.17A1.48,1.48,0,0,0,349.15,788.47Z"
    transform="translate(2.34 0.17)" />
  <path class="cls-9"
    d="M270.05,827.21c.35,4-6.78,7.91-15.93,8.69s-16.83-1.83-17.18-5.84,6.79-7.91,15.93-8.7S269.71,823.19,270.05,827.21Z"
    transform="translate(2.34 0.17)" />
  <path
    d="M276.31,794.74a1.54,1.54,0,0,0,.85-2.73c-.08-.06-8.07-6.39-17.66.63a1.54,1.54,0,0,0,1.82,2.49c7.63-5.59,13.65-.93,13.9-.72A1.57,1.57,0,0,0,276.31,794.74Z"
    transform="translate(2.34 0.17)" />
  <path class="cls-9"
    d="M309,844.75a8.26,8.26,0,0,0,6-5.7,9.6,9.6,0,0,0,3.18.27,6.18,6.18,0,0,0,.62-.12,8.41,8.41,0,0,0,8.22,4.4c-1.63,5.85-4.89,9.89-9,10.24s-8-3.13-10.64-8.69A9.12,9.12,0,0,0,309,844.75Z"
    transform="translate(2.34 0.17)" />
  <path
    d="M302.75,849c.66,0,1.32-.14,2-.24,9-1.49,14.37-7.23,13.74-14.63l-.5-5.81a2.06,2.06,0,0,0-4.1.35l.5,5.82c.54,6.18-5,9.33-10.31,10.21-7.87,1.32-17.07-1.67-18.86-8.9a2,2,0,1,0-4,1C283.41,845.71,293.52,849.83,302.75,849Z"
    transform="translate(2.34 0.17)" />
  <path
    d="M332.38,846.48c9.23-.79,18.49-6.57,19.14-15.72a2.06,2.06,0,0,0-4.1-.29c-.52,7.44-9.09,11.95-17.06,12-5.4,0-11.37-2.12-11.9-8.31l-.5-5.81a2.06,2.06,0,0,0-4.1.35l.5,5.82c.64,7.39,6.93,12.13,16,12.06C331.05,846.57,331.72,846.54,332.38,846.48Z"
    transform="translate(2.34 0.17)" />
  <path class="cls-8"
    d="M303.86,821.66c.43,5,5.88,8.66,12.16,8.12s11-5,10.59-10.08-5.56-5-11.84-4.47S303.43,816.62,303.86,821.66Z"
    transform="translate(2.34 0.17)" />
  <path
    d="M259.34,812.21a1.54,1.54,0,0,0,.7-2.84l-11.19-7.16a1.54,1.54,0,1,0-1.66,2.59L258.38,812A1.6,1.6,0,0,0,259.34,812.21Z"
    transform="translate(2.34 0.17)" />
  <path class="cls-10" d="M257.93,815.66c.27-4.72,5.22-8.28,11.08-8s10.38,4.42,10.12,9.14"
    transform="translate(2.34 0.17)" />
  <path
    d="M367.51,803.1a1.54,1.54,0,0,1-1.28-.47,1.52,1.52,0,0,1,0-2.17l9.6-9.2a1.54,1.54,0,0,1,2.13,2.22l-9.6,9.2A1.6,1.6,0,0,1,367.51,803.1Z"
    transform="translate(2.34 0.17)" />
  <path class="cls-10" d="M369.56,806.21c-1.17-4.58-6.72-7.11-12.4-5.66s-9.34,6.34-8.17,10.92"
    transform="translate(2.34 0.17)" />
  <path class="cls-11"
    d="M340.16,740.41a13.49,13.49,0,0,1-2,0,14.12,14.12,0,0,1,0-28.16,16.85,16.85,0,0,1,2,0,14.12,14.12,0,0,1,0,28.16Z"
    transform="translate(2.34 0.17)" />
  <path
    d="M338.3,714.83a11.22,11.22,0,0,1,1.64,0,11.53,11.53,0,0,1,0,23,11.22,11.22,0,0,1-1.64,0,11.53,11.53,0,0,1,0-23m-.37-5.15h0A16.7,16.7,0,0,0,338,743a18.9,18.9,0,0,0,2.38,0,16.7,16.7,0,0,0,0-33.31,15.76,15.76,0,0,0-2.38,0Z"
    transform="translate(2.34 0.17)" />
  <path class="cls-12"
    d="M302.54,743.42A26.83,26.83,0,0,1,290,740.93a2.55,2.55,0,0,1-1.31-1.53,2.58,2.58,0,0,1,.18-2c.18-.34,4.61-8.54,12.74-11.14a18.45,18.45,0,0,1,4.27-.81,26.93,26.93,0,0,1,12.57,2.49,2.6,2.6,0,0,1,1.12,3.53c-.18.34-4.61,8.54-12.73,11.14a18.64,18.64,0,0,1-4.28.81Z"
    transform="translate(2.34 0.17)" />
  <path
    d="M306.05,728a24.38,24.38,0,0,1,11.22,2.22s-4,7.59-11.24,9.9a16,16,0,0,1-3.68.69,24.38,24.38,0,0,1-11.22-2.22s4-7.59,11.24-9.9a16,16,0,0,1,3.68-.69m-.37-5.16a21,21,0,0,0-4.88.93c-9,2.87-13.72,11.43-14.24,12.39a5.18,5.18,0,0,0,2.26,7,29.07,29.07,0,0,0,13.9,2.76,21,21,0,0,0,4.88-.93c9-2.87,13.72-11.43,14.24-12.39a5.18,5.18,0,0,0-2.26-7,29.07,29.07,0,0,0-13.9-2.76Z"
    transform="translate(2.34 0.17)" />
  <path class="cls-12"
    d="M316.46,734.11a25.5,25.5,0,0,1-13.82-2.6c-8.54-4.67-11.74-14.83-11.87-15.26a2.54,2.54,0,0,1,.2-2,2.59,2.59,0,0,1,1.57-1.25,31,31,0,0,1,5.44-.86,25.5,25.5,0,0,1,13.82,2.6c8.54,4.67,11.74,14.83,11.87,15.26a2.54,2.54,0,0,1-.2,2,2.59,2.59,0,0,1-1.57,1.25,29.91,29.91,0,0,1-5.44.86Z"
    transform="translate(2.34 0.17)" />
  <path
    d="M298.16,714.72a22.84,22.84,0,0,1,12.4,2.29c7.72,4.22,10.64,13.75,10.64,13.75a27.4,27.4,0,0,1-4.92.77,22.75,22.75,0,0,1-12.4-2.29c-7.72-4.22-10.64-13.75-10.64-13.75a27.4,27.4,0,0,1,4.92-.77m-.37-5.16a32.61,32.61,0,0,0-6,1,5.18,5.18,0,0,0-3.54,6.5c.14.47,3.64,11.6,13.11,16.77,5.35,2.92,11.24,3.19,15.24,2.91a32.61,32.61,0,0,0,6-1,5.17,5.17,0,0,0,3.54-6.5c-.14-.47-3.64-11.6-13.11-16.76-5.35-2.93-11.24-3.2-15.24-2.92Z"
    transform="translate(2.34 0.17)" />
  <path class="cls-9"
    d="M352.18,755c-5,.35-10.28-2.55-13.57-7.44-.13.18-.26.35-.4.51a16.83,16.83,0,0,1-11.44,6.2,11.3,11.3,0,0,1-8.15-2.5c-5.22-4.38-5.22-13.06-.06-19.54l-.1,0c-7.89-3.2-12.18-11-9.57-17.49,1.68-4.16,5.79-6.86,11-7.23a18.2,18.2,0,0,1,7.89,1.25c0-.09,0-.18,0-.27.56-7.82,5.79-14.06,12.19-14.51a9.27,9.27,0,0,1,1.49,0c6.73.47,11.78,7.35,11.54,15.51.22-.07.44-.14.67-.19a18.63,18.63,0,0,1,3.22-.52c7.15-.51,13.37,3.29,14.8,9a11.52,11.52,0,0,1-2.36,9.94,17.37,17.37,0,0,1-9.57,6h0c4.41,7.2,3.25,16-2.61,19.65A10.8,10.8,0,0,1,352.18,755ZM336.35,727.5c.7.09,1.13.16,1.18.17a2,2,0,0,1,1.54,1.29s.09.25.21.61c.43-1,.75-1.55.78-1.61a2,2,0,0,1,1.64-1.06h.06c.06,0,.51,0,1.25,0-.47-.44-.74-.73-.77-.76a2,2,0,0,1-.49-2s.06-.21.16-.51c-.92.53-1.54.82-1.6.86a2.13,2.13,0,0,1-.73.19,2.06,2.06,0,0,1-1.27-.33c-.05,0-.4-.27-.94-.68.18.89.25,1.46.26,1.53a2,2,0,0,1-.75,1.85Z"
    transform="translate(2.34 0.17)" />
  <path
    d="M340.11,696a8,8,0,0,1,1.2,0c5.84.41,10.15,6.73,9.63,14.12a9.29,9.29,0,0,1-1.16,3.73,9.62,9.62,0,0,1,4.38-2.58,16.31,16.31,0,0,1,2.87-.46c6.09-.44,11.47,2.58,12.69,7.49,1.42,5.68-3.26,11.73-10.45,13.52a8,8,0,0,1-1.37.21,10.08,10.08,0,0,1-3.13-.29,9.36,9.36,0,0,1,3.16,3c3.92,6.28,3.07,13.88-1.89,17a8.63,8.63,0,0,1-4,1.29c-4.31.31-9.12-2.32-12.07-7.05a9.15,9.15,0,0,1-1.28-3.85,9.59,9.59,0,0,1-2,4.69,14.82,14.82,0,0,1-10,5.48,9.25,9.25,0,0,1-6.7-2c-4.47-3.76-4.25-11.41.52-17.08a8.91,8.91,0,0,1,2.94-2.25,9,9,0,0,1-4.16-.58c-6.86-2.77-10.64-9.42-8.45-14.84,1.43-3.53,5-5.67,9.26-6a16.13,16.13,0,0,1,7.14,1.18,9.61,9.61,0,0,1,3.75,2.89,9.76,9.76,0,0,1-1.11-5c.48-6.87,5-12.25,10.3-12.63M329,729.39c.27,0,.54-.06.81-.07a32.66,32.66,0,0,1,7.34.35,32.25,32.25,0,0,1,1.69,8,31.89,31.89,0,0,1,3-8.74,31.84,31.84,0,0,1,8.54,1,32.25,32.25,0,0,1-6.68-5.17,32.44,32.44,0,0,1,3.23-7.29,31.64,31.64,0,0,1-7.51,5.25,31.63,31.63,0,0,1-6.55-6.07,31.63,31.63,0,0,1,2.74,8.88,32.44,32.44,0,0,1-6.61,3.89m10.81-37.49h0c-6.75.48-12.37,6.39-13.78,14.12a19.84,19.84,0,0,0-6.3-.59c-5.91.42-10.79,3.68-12.74,8.5a13.71,13.71,0,0,0,1.07,11.94,18.81,18.81,0,0,0,7.45,7.15c-4.31,7-3.72,15.66,1.79,20.29a13.38,13.38,0,0,0,9.6,3,18.49,18.49,0,0,0,11.59-5.55c3.7,4.23,8.85,6.63,13.82,6.27a12.68,12.68,0,0,0,5.87-1.89,13.7,13.7,0,0,0,6.16-10.29,18.9,18.9,0,0,0-1.68-9.87,18.88,18.88,0,0,0,8.26-6,13.68,13.68,0,0,0,2.73-11.68c-1.69-6.81-8.65-11.15-16.91-10.56-.6,0-1.21.11-1.81.2-.77-8.07-6.26-14.51-13.34-15a13.22,13.22,0,0,0-1.78,0Z"
    transform="translate(2.34 0.17)" />
  <path class="cls-13"
    d="M83.51,1049.91a2.73,2.73,0,0,0,3-2.45L88.7,1024a2.77,2.77,0,0,0-.48-1.82,99.77,99.77,0,0,0,12,2.12c.85.08,1.65.13,2.38.14s1.51.23,2.37.31a99.53,99.53,0,0,0,12.14.16,2.85,2.85,0,0,0-.82,1.7L114,1050.07a2.72,2.72,0,0,0,2.45,3l44.82,4.25a2.73,2.73,0,0,0,2.83-1.82c7-20.31,6.93-50.32,6-75.8.21,2.06.34,3.31.34,3.31,2.24,13.17,9,18.22,14.36,20.17a20.12,20.12,0,0,0,5,1.12,22.19,22.19,0,0,0,20-9.63,29.14,29.14,0,0,0,5.11-14.25c3.76-39.67-33.74-96.29-35.34-98.68a2.72,2.72,0,0,0-2-1.2L56,869a2.73,2.73,0,0,0-2.2.8c-2,2.05-49.47,50.62-53.23,90.29a29.14,29.14,0,0,0,2.34,15A22.18,22.18,0,0,0,20.7,988.25h0a20.1,20.1,0,0,0,5.08-.17c5.59-.92,13.23-4.6,17.84-16.94,0,0,.39-1.32,1-3.41-5.74,24.85-11.49,54.33-8.38,75.62a2.73,2.73,0,0,0,2.44,2.32Z"
    transform="translate(2.34 0.17)" />
  <path
    d="M55.7,871.7l60.78,5.75,60.77,5.76s38.6,57.75,34.89,96.91a26.51,26.51,0,0,1-4.62,12.94,19.54,19.54,0,0,1-17.51,8.49,16.75,16.75,0,0,1-4.28-1c-5.27-1.93-10.69-6.72-12.59-17.88,0,0-3.12-30.23-4-38.51a1.53,1.53,0,0,0-1.39-1.48,1.6,1.6,0,0,0-1.77,1.7c.21,26.67,6.14,79.61-4.46,110.16l-44.81-4.25,2.23-23.5,7.87-2.84a1.22,1.22,0,0,0-.26-2.36h-.24c-6.66.49-15.41.91-21.16.37-.86-.08-1.65-.19-2.36-.31s-1.52-.06-2.38-.14c-5.75-.54-14.27-2.61-20.72-4.34l-.23,0a1.22,1.22,0,0,0-.7,2.27l7.2,4.27-2.22,23.5L39,1043c-4.67-32,11.09-82.88,16.3-109a1.6,1.6,0,0,0-1.41-2,1.54,1.54,0,0,0-1.65,1.19L41.07,970.19c-4,10.61-10.19,14.3-15.73,15.2a17.07,17.07,0,0,1-4.39.15,19.55,19.55,0,0,1-15.6-11.63,26.46,26.46,0,0,1-2.11-13.57C7,921.17,55.7,871.7,55.7,871.7m.52-5.42a5.43,5.43,0,0,0-4.4,1.6c-2,2.07-50.15,51.32-54,91.94A31.76,31.76,0,0,0,.4,976.16a24.9,24.9,0,0,0,20,14.8,22.84,22.84,0,0,0,5.78-.19,22.52,22.52,0,0,0,11.91-5.92c-4.11,20.51-7,42.1-4.57,58.89a5.46,5.46,0,0,0,4.88,4.64l44.81,4.24a5.45,5.45,0,0,0,5.94-4.91l2.09-22.13a81.25,81.25,0,0,0,8.64,1.38c.85.08,1.65.13,2.38.15s1.52.22,2.37.3a86.24,86.24,0,0,0,8.75.27l-2.1,22.13a5.44,5.44,0,0,0,4.91,5.93L161,1060a5.46,5.46,0,0,0,5.66-3.64c5.56-16,6.76-37.78,6.57-58.7A22.59,22.59,0,0,0,189.5,1007,24.89,24.89,0,0,0,212,996.2a31.86,31.86,0,0,0,5.6-15.57c3.85-40.62-34.16-98-35.78-100.45a5.44,5.44,0,0,0-4-2.39L117,872l-60.77-5.75Z"
    transform="translate(2.34 0.17)" />
  <path class="cls-14"
    d="M181.78,914.7c-2.41,25.49,10.93,47.62,29.83,49.41C208.32,940.18,195,913.52,186,897.56A60.06,60.06,0,0,0,181.78,914.7Z"
    transform="translate(2.34 0.17)" />
  <path class="cls-14"
    d="M6.76,944.71h0c18.88,1.79,36.16-17.44,38.57-42.93a60.37,60.37,0,0,0-.87-17.64C32.6,898.09,14.49,921.82,6.76,944.71Z"
    transform="translate(2.34 0.17)" />
  <rect class="cls-15" x="65.56" y="915.25" width="87.94" height="71.17" rx="29.69"
    transform="translate(-845.06 970.4) rotate(-84.59)" />
  <path class="cls-14" d="M116.74,1050.32l1.2-12.63,46.86,4.44a89.5,89.5,0,0,1-3.25,12.44Z"
    transform="translate(2.34 0.17)" />
  <path class="cls-14" d="M85,1034.57l-1.19,12.63L39,1043a90.13,90.13,0,0,1-.85-12.83Z"
    transform="translate(2.34 0.17)" />
  <path class="cls-16"
    d="M207.52,993.06c-4.94,7-13.76,10.46-21.79,7.52-4.42-1.62-8.93-5.26-11.4-13,.47,1,3,4.23,17.21,6.24,11,1.56,17.41-7.37,20.61-14a2.17,2.17,0,0,1,0,.26A26.51,26.51,0,0,1,207.52,993.06Z"
    transform="translate(2.34 0.17)" />
  <path class="cls-16"
    d="M5.35,973.91c3.54,7.79,11.55,12.86,20,11.48,4.64-.76,9.76-3.49,13.63-10.6-.66.94-3.79,3.59-18.07,2.9-11.08-.53-15.72-10.51-17.62-17.61,0,.09,0,.17,0,.26A26.46,26.46,0,0,0,5.35,973.91Z"
    transform="translate(2.34 0.17)" />
  <path class="cls-17"
    d="M93,1038a2.64,2.64,0,0,0,2.89-2.39l.69-7.21a4,4,0,0,0-1.25-3.28c1.46.19,2.86.35,4.13.47s2.14.18,3,.21,1.81.24,2.94.35,2.68.23,4.15.31a4,4,0,0,0-1.84,3l-.68,7.21a2.66,2.66,0,0,0,2.39,2.9l60.64,5.74a2.65,2.65,0,0,0,2.7-1.63c7.52-18.09,3.7-64,3.53-66a2.66,2.66,0,0,0-2.4-2.42L41.75,962.75a2.66,2.66,0,0,0-2.81,1.92C38.41,966.56,26,1011,30,1030.15a2.66,2.66,0,0,0,2.35,2.1Z"
    transform="translate(2.34 0.17)" />
  <path
    d="M41.5,965.39l66.06,6.26,66.05,6.25s4,47.05-3.33,64.75l-60.64-5.75.68-7.21a1.27,1.27,0,0,1,1-1.14c1.51-.28,11.65-1.61,14.75-2.34,1.34-.31,1.25-2.42,0-2.53a.83.83,0,0,0-.27,0c-5,.65-14.45.35-20.23-.19-1.15-.11-2.15-.23-2.95-.35h0c-.81,0-1.81-.11-3-.21-5.79-.55-15.12-2-19.91-3.62a1.32,1.32,0,0,0-.26-.05c-1.21-.12-1.7,1.93-.45,2.49,2.92,1.3,12.63,4.51,14.06,5.06a1.27,1.27,0,0,1,.78,1.32l-.68,7.21-60.64-5.74c-3.9-18.77,8.88-64.22,8.88-64.22m.5-5.28A5.3,5.3,0,0,0,36.39,964c-.54,1.9-13.09,46.92-9,66.73a5.31,5.31,0,0,0,4.7,4.2l60.64,5.75a5.32,5.32,0,0,0,5.79-4.79l.68-7.21,0-.42c1.11.11,2.09.18,2.92.22s1.8.23,2.91.34c0,.13,0,.27,0,.41l-.69,7.21a5.32,5.32,0,0,0,4.79,5.79l60.64,5.74a5.3,5.3,0,0,0,5.4-3.25c7.77-18.68,3.89-65.25,3.72-67.23a5.31,5.31,0,0,0-4.79-4.83l-66.05-6.26L42,960.11Z"
    transform="translate(2.34 0.17)" />
  <path class="cls-1" d="M157.42,976.37c2.42,41.26-1.8,60.33-3,64.77l8.3.79c1.72-7.07,5.13-26.62,3-64.77Z"
    transform="translate(2.34 0.17)" />
  <path class="cls-1" d="M49.41,966.15c-9.27,37.07-9.59,56.91-9.23,64.17l8.3.79c-.35-4.59-.91-24.12,9.22-64.18Z"
    transform="translate(2.34 0.17)" />
  <path d="M41.5,965.39l66.06,6.26,66.05,6.25s.38,4.42.69,11L38.75,976.1C40.3,969.66,41.5,965.39,41.5,965.39Z"
    transform="translate(2.34 0.17)" />
  <path class="cls-18" d="M157.93,987.38q-.18-5.22-.51-11l8.29.79c.21,3.87.36,7.51.47,11Z"
    transform="translate(2.34 0.17)" />
  <path class="cls-18"
    d="M49.41,966.15l8,.75.25,0q-1.43,5.63-2.58,10.72l-8.25-.78C47.64,973.45,48.47,969.91,49.41,966.15Z"
    transform="translate(2.34 0.17)" />
  <path
    d="M174.89,1008.15a2.12,2.12,0,0,0,.55-4.2c-22.59-3.85-23-29.82-23-30.92a2.13,2.13,0,1,0-4.25,0c0,.31.37,30.64,26.5,35.09Z"
    transform="translate(2.34 0.17)" />
  <path
    d="M34.57,994.87h.16c26.5.54,32.55-29.19,32.61-29.49a2.12,2.12,0,0,0-4.17-.81c-.21,1.09-5.45,26.52-28.36,26.06a2.13,2.13,0,0,0-.24,4.24Z"
    transform="translate(2.34 0.17)" />
  <path d="M110,1029.66a1.26,1.26,0,0,1,1-1.14c1-.18,5.73-.82,9.74-1.45l-1,10.79-10.42-1Z"
    transform="translate(2.34 0.17)" />
  <path d="M84.14,1023.75c3.68,1.31,7.83,2.7,8.73,3a1.25,1.25,0,0,1,.78,1.31l-.68,7.21-9.84-.93Z"
    transform="translate(2.34 0.17)" />
  <path class="cls-16" d="M161,921.2s6.93,11.23,11.88,12.5L174,947l-8.63-7.48L161.55,926Z"
    transform="translate(2.34 0.17)" />
  <path class="cls-16" d="M64.51,912.06s-8.92,9.73-14,10.05L47,935l9.88-5.73,6.26-12.65Z"
    transform="translate(2.34 0.17)" />
  <path
    d="M43.92,948.34a2.12,2.12,0,0,0,2.3-1.84c1.49-11.43,7.89-32.65,8-32.86a2.12,2.12,0,1,0-4.06-1.23c-.27.88-6.57,21.77-8.1,33.54a2.12,2.12,0,0,0,1.83,2.38Z"
    transform="translate(2.34 0.17)" />
  <path
    d="M174.44,960.7h.07a2.13,2.13,0,0,0,2.25-2c.7-11.86-1.56-33.56-1.65-34.47a2.13,2.13,0,0,0-4.23.44c0,.22,2.32,22.27,1.64,33.77A2.12,2.12,0,0,0,174.44,960.7Z"
    transform="translate(2.34 0.17)" />
  <path class="cls-6"
    d="M178.25,980.44a2.08,2.08,0,0,0,2.28-2.25l-2.41-29.29a2.08,2.08,0,0,0-1.88-1.9c-18.16-1.72-18.67-45.51-17.34-62.24a2.09,2.09,0,0,0-2.44-2.22l-8.91,1.56a2.08,2.08,0,0,0-1.71,1.85c-1.44,15.2-6.69,25.63-15.61,31a28.3,28.3,0,0,1-16.8,3.76c-.53-.05-.84-.1-.88-.11l-.32,0s-.35,0-.88-.06c-6.77-.64-28.6-5.43-25.31-40.2a2.08,2.08,0,0,0-1.34-2.14L76.25,875a2.12,2.12,0,0,0-.54-.13,2.1,2.1,0,0,0-1.29.3,2.07,2.07,0,0,0-1,1.55c-1.83,16.68-10.56,59.59-28.72,57.87a2.09,2.09,0,0,0-2.2,1.52l-7.87,28.32A2.08,2.08,0,0,0,36.47,967Z"
    transform="translate(2.34 0.17)" />
  <path
    d="M75.51,876.89,84,880.1c-3.56,37.51,21.69,41.95,27.19,42.47.66.06,1,.07,1,.07s.37.06,1,.12c5.5.52,31.13.91,34.68-36.61l8.91-1.55s-5,62.18,19.22,64.47l2.41,29.29-70.89-6.71-70.9-6.72,7.87-28.31c24.19,2.29,31-59.73,31-59.73m.39-4.15a4.17,4.17,0,0,0-4.53,3.7c-1.65,15-10,57.58-26.45,56a4.17,4.17,0,0,0-4.41,3l-7.87,28.32a4.18,4.18,0,0,0,3.63,5.27l70.89,6.71,70.9,6.71a4.17,4.17,0,0,0,4.55-4.49l-2.41-29.29a4.18,4.18,0,0,0-3.77-3.81c-16.38-1.55-16.65-44.92-15.45-60a4.2,4.2,0,0,0-1.35-3.42,4.27,4.27,0,0,0-2.42-1.07,4.16,4.16,0,0,0-1.11,0L147.2,882a4.19,4.19,0,0,0-3.44,3.72c-3.11,32.84-23.85,33.45-30.13,32.85l-.71-.08-.32,0-.32,0-.73-.05c-6.28-.6-26.54-5.09-23.43-37.93a4.17,4.17,0,0,0-2.68-4.29L77,873a4.65,4.65,0,0,0-1.09-.25Z"
    transform="translate(2.34 0.17)" />
  <path class="cls-13"
    d="M106.63,755.23a2.66,2.66,0,0,0,1.93-.61,2.68,2.68,0,0,0,.94-1.81l7.44-87.52a2.65,2.65,0,0,0-2.4-2.87h-.46c-58.65,4.68-58.88,85.2-58.88,86a2.65,2.65,0,0,0,2.4,2.62Z"
    transform="translate(2.34 0.17)" />
  <path
    d="M114.29,665.07l-7.44,87.52-49-4.17s-.43-78.81,56.44-83.35m.5-5.29a5.64,5.64,0,0,0-.92,0c-25.52,2-44.24,18.27-54.14,46.94a139.59,139.59,0,0,0-7.18,41.74,5.31,5.31,0,0,0,4.8,5.26h0l49,4.17a5.31,5.31,0,0,0,5.74-4.84l7.44-87.52a5.32,5.32,0,0,0-1.52-4.2,5.39,5.39,0,0,0-3.27-1.54Z"
    transform="translate(2.34 0.17)" />
  <path class="cls-14"
    d="M106.67,754.7a2.13,2.13,0,0,0,2.3-1.93l7.45-87.67a2.14,2.14,0,0,0-.65-1.72,2.16,2.16,0,0,0-1.27-.58,2.48,2.48,0,0,0-.47,0c-34,4.44-39.48,83.69-39.7,87.06a2.13,2.13,0,0,0,1.92,2.25Z"
    transform="translate(2.34 0.17)" />
  <path
    d="M114.31,664.92l-7.46,87.67L76.45,750s5.18-80.81,37.86-85.08m.4-4.23a4.4,4.4,0,0,0-1,0C98.32,662.72,86.63,678.63,79,708a250.92,250.92,0,0,0-6.81,41.74,4.25,4.25,0,0,0,3.84,4.5h0l30.4,2.59a4.26,4.26,0,0,0,3.1-1,4.2,4.2,0,0,0,1.49-2.88l7.46-87.67a4.26,4.26,0,0,0-3.83-4.59Z"
    transform="translate(2.34 0.17)" />
  <path class="cls-13"
    d="M198,764.36a2.64,2.64,0,0,0,2.85-2.13c.16-.8,15-79.93-41.68-95.54a2.33,2.33,0,0,0-.46-.08,2.66,2.66,0,0,0-2.89,2.37l-9.12,87.36a2.69,2.69,0,0,0,.58,1.95,2.66,2.66,0,0,0,1.79,1Z"
    transform="translate(2.34 0.17)" />
  <path
    d="M158.49,669.25c55,15.14,39.79,92.47,39.79,92.47l-48.91-5.11,9.12-87.36M159,664a5.31,5.31,0,0,0-5.78,4.73l-9.12,87.36a5.3,5.3,0,0,0,4.73,5.83L197.73,767h.05a5.33,5.33,0,0,0,5.71-4.26,140,140,0,0,0,.78-42.35c-4.34-30-19.69-49.47-44.37-56.27A5.59,5.59,0,0,0,159,664Z"
    transform="translate(2.34 0.17)" />
  <path class="cls-14"
    d="M179.52,761.9a2.14,2.14,0,0,0,2.31-1.85c.42-3.36,9.92-82.21-22.66-93a2.52,2.52,0,0,0-.46-.1,2.19,2.19,0,0,0-1.36.33,2.11,2.11,0,0,0-.95,1.56l-9.14,87.51a2.13,2.13,0,0,0,1.89,2.34Z"
    transform="translate(2.34 0.17)" />
  <path
    d="M158.51,669.1c31.29,10.33,21.21,90.68,21.21,90.68l-30.35-3.17,9.14-87.51m.4-4.22a4.21,4.21,0,0,0-2.71.66,4.26,4.26,0,0,0-1.92,3.12l-9.13,87.51a4.24,4.24,0,0,0,.92,3.12,4.29,4.29,0,0,0,2.86,1.55L179.28,764h0a4.24,4.24,0,0,0,4.61-3.7A248.4,248.4,0,0,0,185.08,718c-2-30.27-10.46-48.09-25.24-53a4.39,4.39,0,0,0-.93-.19Z"
    transform="translate(2.34 0.17)" />
  <path class="cls-13"
    d="M115,893.24c27.57,2.61,53.79-3,73.82-15.71,20.81-13.23,33.48-33.41,35.7-56.84C229.31,770,186,720.94,131.78,715.81S25.83,750.68,21,801.42c-2.22,23.43,6.44,45.63,24.39,62.53C62.71,880.23,87.41,890.63,115,893.24Z"
    transform="translate(2.34 0.17)" />
  <path
    d="M131.53,718.45c54.73,5.19,94.83,54.46,90.33,102S170,895.78,115.23,890.6s-96.06-41.39-91.56-88.93,53.14-88.4,107.86-83.22m.51-5.28a106.63,106.63,0,0,0-76.57,23c-21.25,16.85-34.77,40.56-37.09,65C16.09,825.43,25,848.41,43.6,865.89c17.71,16.68,43,27.33,71.13,30s55-3.06,75.5-16.12c21.51-13.68,34.62-34.57,36.91-58.83,2.32-24.48-6.5-50.3-24.21-70.84A106.64,106.64,0,0,0,132,713.17Z"
    transform="translate(2.34 0.17)" />
  <path class="cls-14"
    d="M139.53,755.63a91.65,91.65,0,0,0,70.55,97.93,70.15,70.15,0,0,0,11.77-33.12c4-42.17-27.08-85.69-72.36-98.59A91.88,91.88,0,0,0,139.53,755.63Z"
    transform="translate(2.34 0.17)" />
  <path class="cls-14"
    d="M23.68,801.67A70.07,70.07,0,0,0,29,836.42a91.68,91.68,0,0,0,77.53-48.87,16.36,16.36,0,0,1,9.71-30.41c.18-1.2.31-2.45.43-3.67a91.66,91.66,0,0,0-3.44-35.05h0C66.34,722.61,27.67,759.5,23.68,801.67Z"
    transform="translate(2.34 0.17)" />
  <path class="cls-8" d="M168.92,837.55a13.29,13.29,0,1,0,14.49-12A13.29,13.29,0,0,0,168.92,837.55Z"
    transform="translate(2.34 0.17)" />
  <path class="cls-8" d="M46,825.91a13.29,13.29,0,1,0,14.49-12A13.29,13.29,0,0,0,46,825.91Z"
    transform="translate(2.34 0.17)" />
  <line class="cls-1" x1="188.08" y1="767.09" x2="159.9" y2="785.77" />
  <path
    d="M157.16,789.83a4.2,4.2,0,0,0,2.74-.69l28.18-18.68a4.25,4.25,0,1,0-4.69-7.08l-28.18,18.68a4.24,4.24,0,0,0,1.95,7.77Z"
    transform="translate(2.34 0.17)" />
  <line class="cls-1" x1="71.54" y1="756.06" x2="95.71" y2="779.69" />
  <path
    d="M93,783.75a4.25,4.25,0,0,0,3.37-7.27L72.16,752.85a4.24,4.24,0,0,0-5.93,6.07L90.4,782.56A4.31,4.31,0,0,0,93,783.75Z"
    transform="translate(2.34 0.17)" />
  <path
    d="M105.41,816.07c-.68,7.12,6.27,13.6,15.51,14.48s17.28-4.19,18-11.31-6.28-13.6-15.52-14.47S106.08,809,105.41,816.07Z"
    transform="translate(2.34 0.17)" />
  <path
    d="M134.47,867.93A19.84,19.84,0,0,0,146.71,865c6.95-4.3,10.45-12.06,9.6-21.28a2.12,2.12,0,0,0-4.23.39c.7,7.56-2.07,13.85-7.61,17.27a14.91,14.91,0,0,1-15.56.31c-5.36-3.34-7.86-10.09-7-19l1.13-12a2.12,2.12,0,0,0-4.23-.4l-1.13,11.95c-1.36,14.34,5.06,20.59,9,23A18,18,0,0,0,134.47,867.93Z"
    transform="translate(2.34 0.17)" />
  <path
    d="M100.59,864.72a18,18,0,0,0,8.15-1.08c4.33-1.67,11.8-6.6,13.16-20.93l1.13-12a2.12,2.12,0,0,0-4.23-.4l-1.13,11.95c-.84,8.94-4.56,15.11-10.46,17.37A14.87,14.87,0,0,1,92,856.45c-4.8-4.39-6.34-11.1-4.24-18.39a2.12,2.12,0,1,0-4.07-1.18c-2.57,8.9-.59,17.17,5.44,22.7A19.79,19.79,0,0,0,100.59,864.72Z"
    transform="translate(2.34 0.17)" />
  <path
    d="M75.3,798.12l-25.87-2.39a2.12,2.12,0,1,1,.39-4.22l18.29,1.68-13.24-9.76a2.13,2.13,0,0,1-.45-3,2.11,2.11,0,0,1,3-.44L76.75,794.3a2.11,2.11,0,0,1,.72,2.46A2.13,2.13,0,0,1,75.3,798.12Z"
    transform="translate(2.34 0.17)" />
  <path
    d="M198.35,809.47h0l-25.87-2.39a2.15,2.15,0,0,1-1.9-1.73,2.12,2.12,0,0,1,1.17-2.29l21.65-10.5a2.12,2.12,0,0,1,1.85,3.82l-14.81,7.17,18.29,1.69a2.12,2.12,0,0,1-.38,4.23Z"
    transform="translate(2.34 0.17)" />
  <path class="cls-1"
    d="M104.85,966.88A19.14,19.14,0,0,1,92.47,961l1.71-18,14.32,1.36-.71,7.55-6.11-.58-.58,6.21a6.6,6.6,0,0,0,3.57,1.33c7.14.67,11-3.45,11.7-11.1s-3-12.33-8.64-12.87a9.79,9.79,0,0,0-7.37,2.32L96,930.82A17.13,17.13,0,0,1,108.79,927c10.29,1,18.23,9.14,17,22C124.57,962,115.55,967.89,104.85,966.88Z"
    transform="translate(2.34 0.17)" />
  <path class="cls-11"
    d="M243.54,897.11a19.13,19.13,0,0,1-1.08,2.61A19.82,19.82,0,0,1,206,884.52a19.13,19.13,0,0,1,1.08-2.61,19.82,19.82,0,0,1,36.51,15.2Z"
    transform="translate(2.34 0.17)" />
  <path
    d="M209.39,885.67a16.19,16.19,0,1,1,8.08,19.61,16.29,16.29,0,0,1-8.08-19.61m-6.89-2.31h0a23.46,23.46,0,0,0,43.2,18,24.43,24.43,0,0,0,1.29-3.08,23.46,23.46,0,0,0-43.2-18,24.43,24.43,0,0,0-1.29,3.08Z"
    transform="translate(2.34 0.17)" />
  <path class="cls-12"
    d="M180.6,911.34c5.22,7.16,5.62,16.12,5.64,16.5a3.92,3.92,0,0,1-1.05,2.75,4.37,4.37,0,0,1-2.7,1.44c-.57.07-14.25,1.7-23.32-5.51a21.62,21.62,0,0,1-4-4.26c-5.23-7.16-5.63-16.11-5.64-16.49a3.89,3.89,0,0,1,1-2.75,4.4,4.4,0,0,1,2.7-1.44c.58-.07,14.25-1.71,23.32,5.51a21.61,21.61,0,0,1,4.06,4.25Z"
    transform="translate(2.34 0.17)" />
  <path
    d="M158.31,919.94c-4.72-6.47-5-14.74-5-14.74s12.6-1.59,20.66,4.81a19.35,19.35,0,0,1,3.48,3.66c4.72,6.47,5,14.73,5,14.73s-12.61,1.6-20.66-4.81a18.42,18.42,0,0,1-3.48-3.65m-6.39,4.65a25.2,25.2,0,0,0,4.63,4.86c10,7.95,24.39,6.4,26,6.2a8.83,8.83,0,0,0,5.4-2.87,7.94,7.94,0,0,0,2.09-5.51c0-1-.56-10.47-6.24-18.26a25.13,25.13,0,0,0-4.63-4.85c-10-8-24.38-6.4-26-6.2a8.8,8.8,0,0,0-5.4,2.87,7.92,7.92,0,0,0-2.09,5.51c0,1,.56,10.46,6.24,18.25Z"
    transform="translate(2.34 0.17)" />
  <path class="cls-12"
    d="M279.39,924.4c-3.42,3.85-9,8.87-16.44,11-13.17,3.71-26.36-3.35-26.91-3.66a3.62,3.62,0,0,1-1.41-5,42.81,42.81,0,0,1,4.61-6.2c3.41-3.85,9-8.88,16.44-11,13.17-3.71,26.36,3.35,26.91,3.66a3.62,3.62,0,0,1,1.41,5,42.81,42.81,0,0,1-4.61,6.2Z"
    transform="translate(2.34 0.17)" />
  <path
    d="M242,922.9c3.24-3.64,8.25-8,14.7-9.87,11.9-3.35,24.19,3.35,24.19,3.35a38.1,38.1,0,0,1-4.18,5.61c-3.24,3.65-8.25,8.06-14.7,9.87-11.9,3.36-24.19-3.34-24.19-3.34A38.45,38.45,0,0,1,242,922.9m-5.43-4.81a44.67,44.67,0,0,0-5.05,6.8,7.28,7.28,0,0,0,2.82,10c.61.33,15.06,8.07,29.63,4,8.26-2.32,14.44-7.83,18.17-12a45.23,45.23,0,0,0,5-6.8,7.3,7.3,0,0,0,.69-5.6,7.22,7.22,0,0,0-3.51-4.4c-.61-.34-15.06-8.07-29.64-4-8.25,2.33-14.43,7.84-18.16,12.05Z"
    transform="translate(2.34 0.17)" />
  <path class="cls-19"
    d="M264.93,888.42c-2.24,6.69-8.85,11.94-17,13.56.16.26.31.53.44.79A23.62,23.62,0,0,1,250.24,921a15.86,15.86,0,0,1-7.65,9.21c-8.51,4.39-19.75-.31-25.36-10.5a.94.94,0,0,1-.1.1c-8.41,8.5-20.9,9.83-27.85,3-4.48-4.43-5.76-11.22-3.42-18.17a25.43,25.43,0,0,1,5.9-9.54l-.35-.17c-9.84-4.94-15.09-15.11-12.22-23.64a14.09,14.09,0,0,1,.81-1.93c4.25-8.47,15.91-11.3,26.35-6.57,0-.33.07-.65.11-1a27.89,27.89,0,0,1,1.08-4.46c3.21-9.54,11.5-15.55,19.72-14.29a16.19,16.19,0,0,1,11.62,8.45,24.34,24.34,0,0,1,2.63,15.66.06.06,0,0,1,0,0c11.72-1.82,22.48,4.44,24.05,14A14.91,14.91,0,0,1,264.93,888.42Zm-44.18,5.64c.49-.87.83-1.38.87-1.44a2.85,2.85,0,0,1,2.5-1.29s.37,0,.9,0c-1-1.07-1.6-1.8-1.67-1.88a2.86,2.86,0,0,1-.48-2.7l0-.08c0-.08.25-.68.66-1.62-.82.36-1.33.56-1.4.59a2.87,2.87,0,0,1-2.78-.43s-.25-.19-.58-.48c.18,1.48.23,2.44.24,2.54a2.65,2.65,0,0,1-.15,1,2.77,2.77,0,0,1-1.11,1.46c-.07,0-.56.37-1.38.86,1.25.25,2,.45,2.11.48a2.83,2.83,0,0,1,2,2C220.53,893.2,220.62,893.52,220.75,894.06Z"
    transform="translate(2.34 0.17)" />
  <path
    d="M181.9,872.1a10.86,10.86,0,0,1,.65-1.55c3.69-7.34,14.21-9.51,23.5-4.83a12.64,12.64,0,0,1,4.21,3.52,13.82,13.82,0,0,1-1-7.08,24.35,24.35,0,0,1,1-4c2.73-8.12,9.56-13.46,16.58-12.39,8.12,1.25,13.43,10.59,11.86,20.86a11,11,0,0,1-.46,1.9,14.64,14.64,0,0,1-2.07,3.9,13.15,13.15,0,0,1,5.59-2.47c10.26-1.68,19.65,3.53,21,11.63a12.16,12.16,0,0,1-.5,5.9c-1.93,5.75-8,10.56-15.67,11.83a12.91,12.91,0,0,1-5.69-.43,13.6,13.6,0,0,1,5,5.17,20.88,20.88,0,0,1,1.68,16,13,13,0,0,1-6.26,7.59c-7.3,3.77-17.08-.67-21.85-9.91a12.52,12.52,0,0,1-1.32-5,13.07,13.07,0,0,1-3,5.07c-7.31,7.39-18,8.7-23.81,2.92-3.8-3.75-4.63-9.58-2.73-15.23a22.71,22.71,0,0,1,5.39-8.61,13.52,13.52,0,0,1,5.78-3.3,13.64,13.64,0,0,1-7-1.26C184,888,179.51,879.21,181.9,872.1m37.32,32.5c.11-.37.23-.73.35-1.09a45.69,45.69,0,0,1,4.44-9.33,45.48,45.48,0,0,1,11.26,2.13,44.4,44.4,0,0,1-9.7-8.6,45,45,0,0,1,5.89-10.56A44.88,44.88,0,0,1,221.14,883a45.47,45.47,0,0,1-7.7-8.13,44.29,44.29,0,0,1,2.75,12.57,44.6,44.6,0,0,1-11.43,5.21,44.42,44.42,0,0,1,13,1.25,45.69,45.69,0,0,1,1.45,10.68m-42.73-34.31h0c-3,9,1.59,19.5,10.85,25.5a27.67,27.67,0,0,0-4.18,7.85c-2.65,7.89-1.08,16,4.11,21.11a19.26,19.26,0,0,0,16.07,5.08,26.65,26.65,0,0,0,13.3-5.77c6.79,9.39,18.28,13.28,27.26,8.65a18.76,18.76,0,0,0,9-10.84,26,26,0,0,0-.91-18c7.48-2.5,13.38-7.88,15.61-14.52a17.76,17.76,0,0,0,.72-8.63,19.2,19.2,0,0,0-10-13.55,26.49,26.49,0,0,0-13.7-3.16,26.59,26.59,0,0,0-3.3-14,19.25,19.25,0,0,0-13.66-9.86c-9.75-1.49-19.15,5.17-22.86,16.21-.27.8-.51,1.61-.71,2.44-10.87-3.36-22.2.27-26.68,9.18a17.17,17.17,0,0,0-1,2.3Z"
    transform="translate(2.34 0.17)" />
  <polyline class="cls-20" points="430.34 925 2.34 925 2.34 0" />
  <path class="cls-8"
    d="M250.94,680.64a14.32,14.32,0,0,0-2-5.46c-1.52-2.25-5.29-3.52-7.21-3.29-5,.58-6.12,3.59-6.51,5.21a9,9,0,0,0,.77,5.21c2.55,6.67,8.61,9,9.18,15.73,4.55-5,10.63-3.23,16.7-7a9.09,9.09,0,0,0,3.77-3.67c.68-1.52,1.59-4.62-2-8.1-1.39-1.34-5.16-2.62-7.73-1.75A14.35,14.35,0,0,0,250.94,680.64Z"
    transform="translate(2.34 0.17)" />
</svg>