<svg xmlns="http://www.w3.org/2000/svg" width="421" height="400">
  <g>
    <path fill="#fff"
      d="m326.67118,303.53879c-15.73,1.13 -30.3,-12.07 -36.41,-32.49l-21.21,17a29.09,29.09 0 0 0 -2.36,4.27a23.46,23.46 0 0 1 -4.5,6.91a10.23,10.23 0 0 1 -6.58,3.29a12.23,12.23 0 0 1 -7.3,-2.28l-0.13,-0.07l0,0c-4.65,0.33 -10.16,-2.52 -13.7,-7.08a15.54,15.54 0 0 1 -2.87,-14.57c3.23,-9.67 12.85,-12.46 16,-13.13l44.11,-48.37a2.62,2.62 0 0 1 1.72,-0.84l0.15,0a2.58,2.58 0 0 1 1.89,0.79l1,1c5.94,-8.92 14,-14.13 23.06,-14.77s17.77,3.36 24.93,11.35l0.83,-1.16a2.62,2.62 0 0 1 1.77,-1l0.14,0a2.58,2.58 0 0 1 1.83,0.58l50.54,41.62c3.18,0.21 13.11,1.61 17.67,10.72a15.5,15.5 0 0 1 -0.77,14.83c-2.85,5 -7.9,8.62 -12.55,9l0,0l-0.12,0.09a12.28,12.28 0 0 1 -6.9,3.21a10.15,10.15 0 0 1 -7,-2.31a23.67,23.67 0 0 1 -5.43,-6.2a29.3,29.3 0 0 0 -2.94,-3.9l-23.46,-13.79c-3.15,21 -15.69,36.18 -31.41,37.3z" />
    <path
      d="m319.68118,205.79879c9.37,-0.67 18.23,4.37 24.88,13l2.8,-3.84l51.21,42.16s11.62,-0.05 16.33,9.34c4.55,9.07 -4.06,19.53 -11.19,20c-0.21,0 -0.42,0 -0.62,0l0,0c-0.6,0 -2.93,3 -6.4,3.3a7.59,7.59 0 0 1 -5.24,-1.8c-3.92,-3 -4.88,-6.53 -8.32,-10.08l-27.12,-15.95c-1.91,21.27 -13.88,37.88 -29.51,39s-29.83,-13.61 -34.75,-34.4l-24.6,19.71c-2.9,4 -3.35,7.67 -6.8,11.17a7.62,7.62 0 0 1 -4.93,2.52c-3.47,0.25 -6.21,-2.4 -6.81,-2.35l0,0l-0.62,0.07c-7.13,0.51 -17.14,-8.63 -13.93,-18.25c3.33,-10 14.84,-11.56 14.84,-11.56l44.7,-49l3.31,3.41c5.36,-9.47 13.41,-15.72 22.78,-16.39m-0.37,-5.15c-8.86,0.63 -17.11,5.49 -23.32,13.55a5.27,5.27 0 0 0 -2.48,-0.59l-0.29,0a5.15,5.15 0 0 0 -3.45,1.68l-43.58,47.79c-4.17,1 -13.66,4.5 -17,14.63a18.08,18.08 0 0 0 3.27,17c3.92,5 9.76,8.15 15.1,8.11a14.16,14.16 0 0 0 8.27,2.24a12.68,12.68 0 0 0 8.25,-4a26,26 0 0 0 5,-7.61a29.34,29.34 0 0 1 1.95,-3.62l18,-14.39c7.06,19.54 21.88,31.88 37.88,30.74s28.91,-15.47 33.13,-35.81l19.86,11.68a30.43,30.43 0 0 1 2.4,3.19a25.87,25.87 0 0 0 6,6.82a12.68,12.68 0 0 0 8.74,2.83a14.16,14.16 0 0 0 7.86,-3.4c5.3,-0.71 10.64,-4.62 13.79,-10.16a18.07,18.07 0 0 0 0.83,-17.27c-4.78,-9.55 -14.67,-11.62 -19,-12.06l-49.93,-41.11a5.15,5.15 0 0 0 -3.65,-1.17l-0.29,0a5.18,5.18 0 0 0 -2.37,0.94c-7.3,-7.1 -16.15,-10.74 -25,-10.1l0.03,0.09z" />
    <polygon fill="#faeeee"
      points="381.46118354797363,243.0187976360321 365.95120429992676,260.90882754325867 368.45120429992676,266.9488055706024 388.0412006378174,248.43878054618835 381.46118354797363,243.0187976360321 " />
    <polygon fill="#ffe7e7"
      points="279.7511920928955,273.2887713909149 281.371187210083,266.9488055706024 263.6611957550049,251.59881472587585 257.93118476867676,257.88880801200867 279.7511920928955,273.2887713909149 " />
    <path fill-rule="evenodd" fill="#fff"
      d="m297.31118,384.57879c-3.8,0.27 -10.35,-0.78 -10.76,-6.43c-0.21,-2.9 1.26,-7.9 13.37,-8.79l-1.63,-22.75a2.67,2.67 0 0 1 2.46,-2.84l21.79,-1.55a2.64,2.64 0 0 1 2.83,2.45l2.2,30.8c0.36,5.07 -4.17,7.25 -7.31,7.47l-22.95,1.64z" />
    <path
      d="m322.69118,344.85879l2.2,30.8c0.3,4.27 -4.86,4.63 -4.86,4.63l-22.94,1.64s-7.61,0.55 -7.93,-4s7,-5.68 11,-6c1.5,-0.1 2.54,-0.09 2.54,-0.09l-1.82,-25.48l21.79,-1.56m-0.38,-5.29l-21.79,1.56a5.3,5.3 0 0 0 -4.91,5.66l1.44,20.2a26.81,26.81 0 0 0 -5.93,1.45c-7,2.71 -7.4,7.83 -7.25,9.9c0.48,6.74 7.38,9.33 13.59,8.88l22.95,-1.64l0,0a12.57,12.57 0 0 0 4.52,-1.26a9.14,9.14 0 0 0 5.24,-9l-2.21,-30.8a5.29,5.29 0 0 0 -5.66,-4.91l0.01,-0.04z" />
    <path fill-rule="evenodd" fill="#fff"
      d="m344.31118,381.23879a10.34,10.34 0 0 1 -3.64,-0.48a6.48,6.48 0 0 1 -4.66,-5.87l-2.2,-30.81a2.65,2.65 0 0 1 2.5,-2.84l21.79,-1.56a2.65,2.65 0 0 1 2.83,2.46l1.63,22.75a28.44,28.44 0 0 1 7.93,0.43c5.39,1.25 6.42,4.53 6.55,6.38c0.4,5.65 -5.93,7.62 -9.74,7.89l-22.99,1.65z" />
    <path
      d="m358.31118,342.31879l1.82,25.48s1,-0.16 2.52,-0.27c4,-0.28 11.44,-0.19 11.76,4.35s-7.28,5 -7.28,5l-23,1.64l0,0s-5.16,0.37 -5.46,-3.89l-2.2,-30.81l21.79,-1.55m-0.38,-5.29l-21.79,1.56a5.29,5.29 0 0 0 -4.91,5.66l2.2,30.8c0.44,6.21 6.07,9.17 11.13,8.81l23,-1.64c6.21,-0.44 12.67,-4 12.19,-10.72c-0.21,-2.94 -2.1,-9.42 -14.66,-9.36l-1.44,-20.2a5.31,5.31 0 0 0 -5.67,-4.91l-0.05,0z" />
    <path fill-rule="evenodd" fill="#ffe7e7" d="m302.44118,368.07879l21.79,-1.56l-0.44,-6.19l-21.79,1.56l0.44,6.19z" />
    <path fill-rule="evenodd" fill="#ffe7e7" d="m338.03118,365.52879l21.78,-1.55l-0.44,-6.19l-21.79,1.56l0.45,6.18z" />
    <path fill="#fff"
      d="m293.48118,361.41879a2,2 0 0 1 -2.16,-1.8l-11.69,-105.52a19.7,19.7 0 0 1 4.46,-14.92a20.06,20.06 0 0 1 13.89,-7.16a19.86,19.86 0 0 1 6.67,0.66l11.93,3.24a16,16 0 0 0 5.29,0.51a15.87,15.87 0 0 0 5.16,-1.26l11.35,-4.9a20.06,20.06 0 0 1 6.51,-1.6a20.09,20.09 0 0 1 14.77,5.11a19.76,19.76 0 0 1 6.54,14.14l3.43,106.11a2,2 0 0 1 -1.89,2.09l-74.26,5.3z" />
    <path
      d="m345.04118,230.68879a17.92,17.92 0 0 1 19.13,17.29l3.43,106.11l-74.26,5.31l-11.7,-105.52a17.94,17.94 0 0 1 16.49,-19.84a18,18 0 0 1 6,0.6l11.93,3.24a17.74,17.74 0 0 0 6,0.57a17.68,17.68 0 0 0 5.82,-1.42l11.35,-4.9a18.05,18.05 0 0 1 5.85,-1.44m-0.29,-4.05l0,0a22.18,22.18 0 0 0 -7.17,1.76l-11.35,4.91a14,14 0 0 1 -4.5,1.09a13.5,13.5 0 0 1 -4.61,-0.44l-11.94,-3.24a22,22 0 0 0 -7.34,-0.73a22.11,22.11 0 0 0 -15.31,7.89a21.71,21.71 0 0 0 -4.92,16.45l11.66,105.51a4.07,4.07 0 0 0 4.33,3.61l74.26,-5.31a4.05,4.05 0 0 0 3.76,-4.18l-3.42,-106.11a21.76,21.76 0 0 0 -7.22,-15.61a22.07,22.07 0 0 0 -16.27,-5.64l0.04,0.04z" />
    <path
      d="m308.93118,362.42879a2.07,2.07 0 0 1 -2.21,-1.92l-1.92,-26.81a2.07,2.07 0 0 1 1.92,-2.21a2.06,2.06 0 0 1 2.21,1.91l1.91,26.82a2.06,2.06 0 0 1 -1.91,2.21z" />
    <path fill="#bf272d"
      d="m310.20118,244.43879l6.66,-0.47l4.86,10.78c0.63,1.45 1.16,3 1.75,4.59l0.17,0c0.41,-1.63 0.71,-3.28 1.08,-4.79l3.15,-11.36l6.69,-0.48l1.83,25.67l-5.62,0.4l-0.63,-8.8a86.18,86.18 0 0 1 0.16,-9l-0.14,0l-1.7,6.29l-2.78,9.63l-3.37,0.34l-4.15,-9.13l-2.51,-6l-0.14,0a85.37,85.37 0 0 1 1.43,8.85l0.63,8.79l-5.52,0.4l-1.85,-25.71z" />
    <path fill="#fa7777"
      d="m345.91118,225.89879a205.5,205.5 0 0 0 21.9,-4.93l-10.64,-8c-2.11,0.47 -4.21,0.9 -6.25,1.28a116.57,116.57 0 0 0 -5.01,11.65z" />
    <path fill="#fa7777"
      d="m274.20118,227.65879a205.79,205.79 0 0 0 22.38,1.76a114.83,114.83 0 0 0 -6.61,-10.78c-2.08,-0.09 -4.21,-0.22 -6.37,-0.38l-9.4,9.4z" />
    <path fill="#fa9898"
      d="m294.51118,298.23879c-0.34,0 -0.68,0 -1,0l-14,0.27a6.69,6.69 0 0 1 -5.66,-2.92a6.7,6.7 0 0 1 -0.66,-6.34l9.1,-22l-25.42,-22a2.06,2.06 0 0 1 -0.7,-1.46a2,2 0 0 1 0.6,-1.51l29,-29a2,2 0 0 1 1.29,-0.58l0.29,0a2,2 0 0 1 1.48,0.8l0.22,0.29a117.77,117.77 0 0 1 23.24,62.3l0.11,1.55a19.29,19.29 0 0 1 -17.89,20.6z" />
    <path
      d="m287.15118,214.70879l0.22,0.29a116,116 0 0 1 22.83,61.24l0.11,1.54a17.24,17.24 0 0 1 -15.95,18.46c-0.3,0 -0.61,0 -0.92,0l-14,0.27a4.67,4.67 0 0 1 -4.4,-6.45l4.27,-10.52l5.3,-12.82l-26.52,-23l29,-29m-0.29,-4.05a4,4 0 0 0 -2.49,1.17l-29,29a4,4 0 0 0 -1.19,3a4.08,4.08 0 0 0 1.4,2.93l24.31,21.06l-4.18,10.12l-4.35,10.51a8.7,8.7 0 0 0 0.85,8.25a8.72,8.72 0 0 0 7.37,3.81l14.06,-0.27c0.38,0 0.76,0 1.13,0a21.3,21.3 0 0 0 19.71,-22.76l-0.11,-1.54a119.74,119.74 0 0 0 -23.63,-63.37l-0.22,-0.29a4,4 0 0 0 -3,-1.62l-0.66,0z" />
    <path fill="#fa9898"
      d="m357.74118,293.69879a19.27,19.27 0 0 1 -20.57,-17.85l-0.11,-1.54a117.68,117.68 0 0 1 14.14,-65l0.17,-0.32a2.06,2.06 0 0 1 1.36,-1l0.28,0a2.08,2.08 0 0 1 1.36,0.4l32.86,24.6a2,2 0 0 1 0.8,1.41a2.08,2.08 0 0 1 -0.48,1.55l-22,25.42l12.12,20.46a6.68,6.68 0 0 1 0.26,6.36a6.69,6.69 0 0 1 -5.19,3.69l-14,1.74l-1,0.08z" />
    <path
      d="m353.15118,209.98879l32.86,24.61l-23,26.52l7.07,11.94l5.8,9.78a4.67,4.67 0 0 1 -3.44,7l-14,1.74l-0.92,0.09a17.24,17.24 0 0 1 -18.4,-16l-0.11,-1.54a116,116 0 0 1 13.9,-63.85l0.17,-0.33m-0.28,-4a5.4,5.4 0 0 0 -0.58,0.09a4.05,4.05 0 0 0 -2.7,2l-0.17,0.32a119.76,119.76 0 0 0 -14.39,66.09l0.11,1.54a21.32,21.32 0 0 0 22.74,19.73c0.38,0 0.76,-0.07 1.13,-0.12l14,-1.73a8.72,8.72 0 0 0 6.76,-4.82a8.69,8.69 0 0 0 -0.33,-8.29l-5.8,-9.78l-5.58,-9.42l21.09,-24.32a4,4 0 0 0 1,-3.09a4.08,4.08 0 0 0 -1.6,-2.82l-32.86,-24.61a4.17,4.17 0 0 0 -2.72,-0.8l-0.1,0.03z" />
    <path fill="#fff"
      d="m358.51118,163.36879a9.26,9.26 0 0 1 -9,-5.34l-28.34,-61.51a9.21,9.21 0 0 1 4.5,-12.21l65,-30a9.12,9.12 0 0 1 3.2,-0.83a9.22,9.22 0 0 1 9.44,6.56c20.39,69.5 -26.86,96.09 -41.82,102.59a9.5,9.5 0 0 1 -3,0.74l0.02,0z" />
    <path
      d="m394.07118,56.16879a6.48,6.48 0 0 1 6.72,4.61c19.52,66.59 -23.87,92.27 -40.33,99.46a6.57,6.57 0 0 1 -2.14,0.52a6.54,6.54 0 0 1 -6.41,-3.8l-28.35,-61.51a6.57,6.57 0 0 1 3.21,-8.7l65,-30a6.56,6.56 0 0 1 2.29,-0.58m-0.38,-5.29a11.88,11.88 0 0 0 -4.13,1.06l-65,30a11.79,11.79 0 0 0 -6.16,6.66a11.8,11.8 0 0 0 0.36,9.07l28.35,61.51a11.9,11.9 0 0 0 11.6,6.87a11.51,11.51 0 0 0 3.87,-0.95c15.47,-6.71 64.31,-34.19 43.31,-105.77a11.86,11.86 0 0 0 -12.19,-8.41l-0.01,-0.04z" />
    <path fill="#facbcb"
      d="m383.99118,74.00879l-47.14,21.73a7,7 0 0 0 -3.45,9.34l16.68,36.16a7,7 0 0 0 9.42,3.41c13.67,-6.46 43.08,-25.35 34.34,-65.67a7.07,7.07 0 0 0 -9.85,-4.97z" />
    <path fill="#fff"
      d="m275.22118,169.31879a9.16,9.16 0 0 1 -3.08,-0.31c-15.74,-4.3 -66.29,-23.91 -56,-95.6a9.19,9.19 0 0 1 8.43,-7.79a9.16,9.16 0 0 1 3.29,0.36l68.61,20.41a9.21,9.21 0 0 1 6.2,11.45l-19.32,64.91a9.23,9.23 0 0 1 -8.13,6.57z" />
    <path
      d="m224.78118,68.23879a6.35,6.35 0 0 1 2.35,0.26l68.61,20.41a6.56,6.56 0 0 1 4.41,8.15l-19.32,64.92a6.54,6.54 0 0 1 -5.8,4.67a6.3,6.3 0 0 1 -2.19,-0.21c-17.31,-4.74 -63.93,-24 -54.06,-92.67a6.51,6.51 0 0 1 6,-5.53m-0.38,-5.29l0,0a11.88,11.88 0 0 0 -10.87,10.06c-10.61,73.84 41.64,94.09 57.91,98.54a11.54,11.54 0 0 0 4,0.39a11.91,11.91 0 0 0 10.52,-8.45l19.31,-64.92a11.77,11.77 0 0 0 -0.94,-9a11.76,11.76 0 0 0 -7,-5.72l-68.61,-20.41a11.71,11.71 0 0 0 -4.24,-0.47l-0.08,-0.02z" />
    <path fill="#facbcb"
      d="m237.31118,84.48879l49.74,14.8a7,7 0 0 1 4.74,8.76l-11.37,38.19a7,7 0 0 1 -8.84,4.71c-14.45,-4.45 -46.24,-19 -43.33,-60.12a7.08,7.08 0 0 1 9.06,-6.34z" />
    <path fill="#fff"
      d="m325.51118,220.23879c-2.92,0.21 -4.68,0.27 -4.86,0.28c0,0 -1.77,0.19 -4.68,0.4c-19.23,1.37 -82.65,3.17 -91.2,-31.39c-12.13,-49 13.55,-87.35 32.59,-100c20.84,-13.86 47,-16.36 52.07,-16.72l1.49,-0.1c5,-0.36 31.32,-1.61 53.92,9.14c20.65,9.82 51.52,44.12 46.48,94.35c-3.55,35.42 -66.57,42.66 -85.81,44l0,0.04z" />
    <path
      d="m311.11118,75.32879c4.68,-0.33 30.52,-1.61 52.6,8.89c19.2,9.14 49.92,42.36 45,91.7c-3.37,33.54 -65.5,40.38 -83.36,41.65c-3,0.22 -4.78,0.28 -4.78,0.28s-1.74,0.19 -4.76,0.41c-17.87,1.27 -80.34,3.33 -88.44,-29.39c-11.91,-48.13 13.77,-85.38 31.48,-97.15c20.37,-13.54 46.12,-16 50.8,-16.28l0.75,-0.05l0.74,-0.06m-0.38,-5.29l-0.74,0.06l-0.75,0c-5.15,0.37 -32,2.92 -53.35,17.15c-19.64,13.05 -46.15,52.52 -33.69,102.85c4,16.17 19.06,26.73 44.75,31.38c19.06,3.45 39,2.74 49.21,2c2.53,-0.18 4.2,-0.34 4.76,-0.4s2.24,-0.1 4.77,-0.28c10.2,-0.73 30.05,-2.86 48.42,-9c24.78,-8.26 38.18,-20.85 39.85,-37.43c5.17,-51.59 -26.68,-86.89 -48,-97c-23.2,-11 -50.09,-9.77 -55.25,-9.4l0.02,0.07z" />
    <path fill="#facbcb"
      d="m270.90118,167.03879c0.28,4.05 -7,7.86 -16.17,8.52s-16.93,-2.09 -17.22,-6.14s7,-7.86 16.17,-8.52s16.93,2.09 17.22,6.14z" />
    <path
      d="m277.68118,134.42879a1.55,1.55 0 0 1 -1.1,-0.35l0,0c-0.25,-0.21 -6.25,-5 -14,0.52a1.55,1.55 0 0 1 -2.16,-0.37a1.55,1.55 0 0 1 0.36,-2.16c9.76,-6.92 17.71,-0.44 17.79,-0.37a1.54,1.54 0 0 1 0.2,2.18a1.56,1.56 0 0 1 -1.09,0.55z" />
    <path
      d="m260.88118,156.45879c0.48,6.84 5.52,12 11.24,11.64s10,-6.28 9.48,-13.12s-5.53,-12 -11.25,-11.63s-9.96,6.28 -9.47,13.11z" />
    <path
      d="m263.75118,155.62879a1.52,1.52 0 0 1 -1,-0.26l-11.17,-7.38a1.55,1.55 0 0 1 -0.44,-2.15a1.56,1.56 0 0 1 2.15,-0.44l11.17,7.38a1.56,1.56 0 0 1 0.44,2.15a1.58,1.58 0 0 1 -1.15,0.7z" />
    <path fill="#facbcb"
      d="m362.46118,160.48879c0.29,4 8,6.8 17.22,6.14s16.46,-4.47 16.17,-8.52s-8,-6.8 -17.22,-6.14s-16.45,4.48 -16.17,8.52z" />
    <path
      d="m351.12118,129.17879a1.51,1.51 0 0 1 -1.15,-0.4a1.54,1.54 0 0 1 -0.12,-2.18c0.07,-0.08 7,-7.62 17.66,-2.15a1.54,1.54 0 0 1 0.67,2.08a1.55,1.55 0 0 1 -2.08,0.68c-8.47,-4.36 -13.73,1.23 -14,1.47a1.56,1.56 0 0 1 -0.98,0.5z" />
    <path
      d="m370.88118,148.59879c0.49,6.84 -3.75,12.71 -9.48,13.12s-10.75,-4.8 -11.24,-11.64s3.75,-12.7 9.47,-13.11s10.76,4.8 11.25,11.63z" />
    <path
      d="m367.91118,148.17879a1.55,1.55 0 0 1 -1.27,-0.51a1.55,1.55 0 0 1 0.13,-2.19l10,-8.9a1.56,1.56 0 0 1 2.19,0.13a1.55,1.55 0 0 1 -0.13,2.19l-10,8.9a1.54,1.54 0 0 1 -0.92,0.38z" />
    <path fill="#facbcb"
      d="m326.45118,184.08879a8.31,8.31 0 0 1 -6.86,-4.73a9.59,9.59 0 0 1 -3.12,0.77c-0.22,0 -0.42,0 -0.64,0a8.46,8.46 0 0 1 -7.48,5.66c2.54,5.57 6.43,9.07 10.53,8.78s7.5,-4.38 9.21,-10.32a9.61,9.61 0 0 1 -1.64,-0.16z" />
    <path
      d="m333.38118,187.35879c-0.67,0 -1.34,0.07 -2,0.06c-9.17,-0.06 -15.44,-4.92 -16,-12.38l-0.42,-5.86a2.07,2.07 0 0 1 1.92,-2.21a2.07,2.07 0 0 1 2.21,1.92l0.42,5.86c0.44,6.24 6.42,8.5 11.87,8.54c8,0.07 16.71,-4.36 17.35,-11.84a2.08,2.08 0 0 1 2.24,-1.88a2.06,2.06 0 0 1 1.88,2.23c-0.75,9.21 -10.17,14.89 -19.47,15.56z" />
    <path
      d="m303.50118,189.48879c-9.3,0.67 -19.43,-3.62 -21.51,-12.62a2.06,2.06 0 0 1 1.55,-2.48a2.07,2.07 0 0 1 2.48,1.55c1.69,7.31 10.93,10.45 18.86,9.24c5.38,-0.81 11,-3.9 10.53,-10.14l-0.42,-5.86a2.07,2.07 0 0 1 1.92,-2.21a2.07,2.07 0 0 1 2.21,1.92l0.42,5.86c0.53,7.46 -5,13.16 -14,14.52c-0.7,0.1 -1.37,0.18 -2.04,0.22z" />
    <path fill="#fa9898"
      d="m327.96118,160.29879c0.36,5.07 -4.48,9.55 -10.81,10s-11.76,-3.29 -12.13,-8.36s4.75,-5.86 11.08,-6.31s11.5,-0.39 11.86,4.67z" />
    <path fill="#ff0"
      d="m342.47118,80.64879a13.49,13.49 0 0 1 -2,0a14.07,14.07 0 0 1 -9.67,-4.82a14,14 0 0 1 -3.42,-10.25a14.18,14.18 0 0 1 13.06,-13.09a16.85,16.85 0 0 1 2,0a14.13,14.13 0 0 1 13.08,15.07a14.18,14.18 0 0 1 -13.05,13.09z" />
    <path
      d="m340.61118,55.06879a11.22,11.22 0 0 1 1.64,0a11.52,11.52 0 0 1 10.69,12.31a11.52,11.52 0 0 1 -10.63,10.69a11.22,11.22 0 0 1 -1.64,0a11.53,11.53 0 0 1 -10.69,-12.31a11.53,11.53 0 0 1 10.66,-10.69m-0.37,-5.15l0,0a16.76,16.76 0 0 0 -15.45,15.48a16.72,16.72 0 0 0 15.49,17.84a18.9,18.9 0 0 0 2.38,0a16.78,16.78 0 0 0 15.45,-15.49a16.7,16.7 0 0 0 -15.48,-17.82a15.76,15.76 0 0 0 -2.38,0l-0.01,-0.01z" />
    <path fill="#39b34a"
      d="m304.85118,83.65879a26.83,26.83 0 0 1 -12.54,-2.49a2.55,2.55 0 0 1 -1.31,-1.53a2.58,2.58 0 0 1 0.18,-2c0.18,-0.34 4.61,-8.54 12.74,-11.14a18.45,18.45 0 0 1 4.27,-0.81a26.93,26.93 0 0 1 12.57,2.49a2.57,2.57 0 0 1 1.3,1.53a2.58,2.58 0 0 1 -0.18,2c-0.18,0.34 -4.61,8.54 -12.73,11.14a18.64,18.64 0 0 1 -4.28,0.81l-0.02,0z" />
    <path
      d="m308.36118,68.23879a24.38,24.38 0 0 1 11.22,2.22s-4,7.59 -11.24,9.9a16,16 0 0 1 -3.68,0.69a24.38,24.38 0 0 1 -11.22,-2.22s4,-7.59 11.24,-9.9a16,16 0 0 1 3.68,-0.69m-0.37,-5.16a21,21 0 0 0 -4.88,0.93c-9,2.87 -13.72,11.43 -14.24,12.39a5.16,5.16 0 0 0 -0.35,4a5.12,5.12 0 0 0 2.61,3a29.07,29.07 0 0 0 13.9,2.76a21,21 0 0 0 4.88,-0.93c9,-2.87 13.72,-11.43 14.24,-12.39a5.16,5.16 0 0 0 0.35,-4a5.12,5.12 0 0 0 -2.61,-3a29.07,29.07 0 0 0 -13.9,-2.76z" />
    <path fill="#39b34a"
      d="m318.77118,74.34879a25.5,25.5 0 0 1 -13.82,-2.6c-8.54,-4.67 -11.74,-14.83 -11.87,-15.26a2.54,2.54 0 0 1 0.2,-2a2.59,2.59 0 0 1 1.57,-1.25a31,31 0 0 1 5.44,-0.86a25.5,25.5 0 0 1 13.82,2.6c8.54,4.67 11.74,14.83 11.87,15.26a2.54,2.54 0 0 1 -0.2,2a2.59,2.59 0 0 1 -1.57,1.25a29.91,29.91 0 0 1 -5.44,0.86z" />
    <path
      d="m300.47118,54.95879a22.84,22.84 0 0 1 12.4,2.29c7.72,4.22 10.64,13.75 10.64,13.75a27.4,27.4 0 0 1 -4.92,0.77a22.75,22.75 0 0 1 -12.4,-2.29c-7.72,-4.22 -10.64,-13.75 -10.64,-13.75a27.4,27.4 0 0 1 4.92,-0.77m-0.37,-5.16a32.61,32.61 0 0 0 -5.95,1a5.18,5.18 0 0 0 -3.14,2.44a5.14,5.14 0 0 0 -0.4,4c0.14,0.47 3.64,11.6 13.11,16.77c5.35,2.92 11.24,3.19 15.24,2.91a32.61,32.61 0 0 0 5.95,-1a5.2,5.2 0 0 0 3.14,-2.5a5.17,5.17 0 0 0 0.4,-4c-0.14,-0.47 -3.64,-11.6 -13.11,-16.76c-5.35,-2.93 -11.24,-3.2 -15.24,-2.92l0,0.06z" />
    <path fill="#facbcb"
      d="m354.49118,95.23879c-5,0.35 -10.28,-2.55 -13.57,-7.44c-0.13,0.18 -0.26,0.35 -0.4,0.51a16.83,16.83 0 0 1 -11.44,6.2a11.3,11.3 0 0 1 -8.15,-2.5c-5.22,-4.38 -5.22,-13.06 -0.06,-19.54l-0.1,0c-7.89,-3.2 -12.18,-11 -9.57,-17.49c1.68,-4.16 5.79,-6.86 11,-7.23a18.2,18.2 0 0 1 7.89,1.25c0,-0.09 0,-0.18 0,-0.27c0.56,-7.82 5.79,-14.06 12.19,-14.51a9.27,9.27 0 0 1 1.49,0c6.73,0.47 11.78,7.35 11.54,15.51c0.22,-0.07 0.44,-0.14 0.67,-0.19a18.63,18.63 0 0 1 3.22,-0.52c7.15,-0.51 13.37,3.29 14.8,9a11.52,11.52 0 0 1 -2.36,9.94a17.37,17.37 0 0 1 -9.57,6l0,0c4.41,7.2 3.25,16 -2.61,19.65a10.8,10.8 0 0 1 -4.97,1.63zm-15.83,-27.48c0.7,0.09 1.13,0.16 1.18,0.17a2,2 0 0 1 1.54,1.29s0.09,0.25 0.21,0.61c0.43,-1 0.75,-1.55 0.78,-1.61a2,2 0 0 1 1.64,-1.06l0.06,0c0.06,0 0.51,0 1.25,0c-0.47,-0.44 -0.74,-0.73 -0.77,-0.76a2,2 0 0 1 -0.49,-2s0.06,-0.21 0.16,-0.51c-0.92,0.53 -1.54,0.82 -1.6,0.86a2.13,2.13 0 0 1 -0.73,0.19a2.06,2.06 0 0 1 -1.27,-0.33s-0.4,-0.27 -0.94,-0.68c0.18,0.89 0.25,1.46 0.26,1.53a2,2 0 0 1 -0.75,1.85l-0.53,0.45z" />
    <path
      d="m342.42118,36.23879a8,8 0 0 1 1.2,0c5.84,0.41 10.15,6.73 9.63,14.12a9.29,9.29 0 0 1 -1.16,3.73a9.62,9.62 0 0 1 4.38,-2.58a16.31,16.31 0 0 1 2.87,-0.46c6.09,-0.44 11.47,2.58 12.69,7.49c1.42,5.68 -3.26,11.73 -10.45,13.52a8,8 0 0 1 -1.37,0.21a10.08,10.08 0 0 1 -3.13,-0.29a9.36,9.36 0 0 1 3.16,3c3.92,6.28 3.07,13.88 -1.89,17a8.63,8.63 0 0 1 -4,1.29c-4.31,0.31 -9.12,-2.32 -12.07,-7.05a9.15,9.15 0 0 1 -1.28,-3.85a9.59,9.59 0 0 1 -2,4.69a14.82,14.82 0 0 1 -10,5.48a9.25,9.25 0 0 1 -6.7,-2c-4.47,-3.76 -4.25,-11.41 0.52,-17.08a8.91,8.91 0 0 1 2.94,-2.25a9,9 0 0 1 -4.16,-0.58c-6.86,-2.77 -10.64,-9.42 -8.45,-14.84c1.43,-3.53 5,-5.67 9.26,-6a16.13,16.13 0 0 1 7.14,1.18a9.61,9.61 0 0 1 3.75,2.89a9.76,9.76 0 0 1 -1.11,-5c0.48,-6.87 5,-12.25 10.3,-12.63m-11.18,33.4c0.27,0 0.54,-0.06 0.81,-0.07a32.66,32.66 0 0 1 7.34,0.35a32.25,32.25 0 0 1 1.69,8a31.89,31.89 0 0 1 3,-8.74a31.84,31.84 0 0 1 8.54,1a32.25,32.25 0 0 1 -6.68,-5.17a32.44,32.44 0 0 1 3.23,-7.29a31.64,31.64 0 0 1 -7.51,5.25a31.63,31.63 0 0 1 -6.55,-6.07a31.63,31.63 0 0 1 2.74,8.88a32.44,32.44 0 0 1 -6.61,3.89m10.81,-37.49l0,0c-6.75,0.48 -12.37,6.39 -13.78,14.12a19.84,19.84 0 0 0 -6.3,-0.59c-5.91,0.42 -10.79,3.68 -12.74,8.5a13.71,13.71 0 0 0 1.07,11.94a18.81,18.81 0 0 0 7.45,7.15c-4.31,7 -3.72,15.66 1.79,20.29a13.38,13.38 0 0 0 9.6,3a18.49,18.49 0 0 0 11.59,-5.55c3.7,4.23 8.85,6.63 13.82,6.27a12.68,12.68 0 0 0 5.87,-1.89a13.7,13.7 0 0 0 6.16,-10.29a18.9,18.9 0 0 0 -1.67,-9.88a18.88,18.88 0 0 0 8.26,-6a13.68,13.68 0 0 0 2.73,-11.68c-1.69,-6.81 -8.65,-11.15 -16.91,-10.56c-0.6,0 -1.21,0.11 -1.81,0.2c-0.77,-8.07 -6.26,-14.51 -13.34,-15a13.22,13.22 0 0 0 -1.78,0l-0.01,-0.03z" />
    <path fill="#fff4ec"
      d="m85.82118,390.14879a2.73,2.73 0 0 0 3,-2.45l2.22,-23.51a2.77,2.77 0 0 0 -0.48,-1.82a99.77,99.77 0 0 0 12,2.12c0.85,0.08 1.65,0.13 2.38,0.14s1.51,0.23 2.37,0.31a99.53,99.53 0 0 0 12.14,0.16a2.85,2.85 0 0 0 -0.82,1.7l-2.22,23.51a2.72,2.72 0 0 0 2.45,3l44.82,4.25a2.73,2.73 0 0 0 2.83,-1.82c7,-20.31 6.93,-50.32 6,-75.8c0.21,2.06 0.34,3.31 0.34,3.31c2.24,13.17 9,18.22 14.36,20.17a20.12,20.12 0 0 0 5,1.12a22.19,22.19 0 0 0 20,-9.63a29.14,29.14 0 0 0 5.11,-14.25c3.76,-39.67 -33.74,-96.29 -35.34,-98.68a2.72,2.72 0 0 0 -2,-1.2l-121.67,-11.54a2.73,2.73 0 0 0 -2.2,0.8c-2,2.05 -49.47,50.62 -53.23,90.29a29.14,29.14 0 0 0 2.34,15a22.18,22.18 0 0 0 17.83,13.21l0,0a20.1,20.1 0 0 0 5.08,-0.17c5.59,-0.92 13.23,-4.6 17.84,-16.94c0,0 0.39,-1.32 1,-3.41c-5.74,24.85 -11.49,54.33 -8.38,75.62a2.73,2.73 0 0 0 2.44,2.32l44.79,4.19z" />
    <path
      d="m58.01118,211.93879l60.78,5.75l60.77,5.76s38.6,57.75 34.89,96.91a26.51,26.51 0 0 1 -4.62,12.94a19.54,19.54 0 0 1 -17.51,8.49a16.75,16.75 0 0 1 -4.28,-1c-5.27,-1.93 -10.69,-6.72 -12.59,-17.88c0,0 -3.12,-30.23 -4,-38.51a1.53,1.53 0 0 0 -1.39,-1.48a1.6,1.6 0 0 0 -1.77,1.7c0.21,26.67 6.14,79.61 -4.46,110.16l-44.81,-4.25l2.23,-23.5l7.87,-2.84a1.22,1.22 0 0 0 -0.26,-2.36l-0.24,0c-6.66,0.49 -15.41,0.91 -21.16,0.37c-0.86,-0.08 -1.65,-0.19 -2.36,-0.31s-1.52,-0.06 -2.38,-0.14c-5.75,-0.54 -14.27,-2.61 -20.72,-4.34l-0.23,0a1.22,1.22 0 0 0 -0.7,2.27l7.2,4.27l-2.22,23.5l-44.74,-4.21c-4.67,-32 11.09,-82.88 16.3,-109a1.6,1.6 0 0 0 -1.41,-2a1.54,1.54 0 0 0 -1.65,1.19l-11.12,37.08c-4,10.61 -10.19,14.3 -15.73,15.2a17.07,17.07 0 0 1 -4.39,0.15a19.55,19.55 0 0 1 -15.6,-11.63a26.46,26.46 0 0 1 -2.11,-13.57c3.71,-39.17 52.46,-88.64 52.46,-88.64m0.52,-5.42a5.43,5.43 0 0 0 -4.4,1.6c-2,2.07 -50.15,51.32 -54,91.94a31.76,31.76 0 0 0 2.58,16.34a24.9,24.9 0 0 0 20,14.8a22.84,22.84 0 0 0 5.78,-0.19a22.52,22.52 0 0 0 11.91,-5.92c-4.11,20.51 -7,42.1 -4.57,58.89a5.46,5.46 0 0 0 4.88,4.64l44.81,4.24a5.45,5.45 0 0 0 5.94,-4.91l2.09,-22.13a81.25,81.25 0 0 0 8.64,1.38c0.85,0.08 1.65,0.13 2.38,0.15s1.52,0.22 2.37,0.3a86.24,86.24 0 0 0 8.75,0.27l-2.1,22.13a5.44,5.44 0 0 0 4.91,5.93l44.76,4.18a5.46,5.46 0 0 0 5.66,-3.64c5.56,-16 6.76,-37.78 6.57,-58.7a22.52,22.52 0 0 0 10.58,8a22.37,22.37 0 0 0 5.65,1.28a24.89,24.89 0 0 0 22.54,-10.74a31.86,31.86 0 0 0 5.6,-15.57c3.85,-40.62 -34.16,-98 -35.78,-100.45a5.44,5.44 0 0 0 -4,-2.39l-60.82,-5.79l-60.77,-5.75l0.04,0.11z" />
    <path fill="#fad558"
      d="m184.09118,254.93879c-2.41,25.49 10.93,47.62 29.83,49.41c-3.29,-23.93 -16.61,-50.59 -25.65,-66.55a60.06,60.06 0 0 0 -4.18,17.14z" />
    <path fill="#fad558"
      d="m9.07118,284.94879l0,0c18.88,1.79 36.16,-17.44 38.57,-42.93a60.37,60.37 0 0 0 -0.87,-17.64c-11.86,13.95 -29.97,37.68 -37.7,60.57z" />
    <rect transform="rotate(-84.59 -801.909 -145.491)" fill="#ffdada" rx="29.69" height="71.17" width="87.94"
      y="769.75879" x="-1194.34882" />
    <path fill="#fad558" d="m119.05118,390.55879l1.2,-12.63l46.86,4.44a89.5,89.5 0 0 1 -3.25,12.44l-44.81,-4.25z" />
    <path fill="#fad558" d="m87.31118,374.80879l-1.19,12.63l-44.81,-4.2a90.13,90.13 0 0 1 -0.85,-12.83l46.85,4.4z" />
    <path fill="#f7e2d0"
      d="m209.83118,333.29879c-4.94,7 -13.76,10.46 -21.79,7.52c-4.42,-1.62 -8.93,-5.26 -11.4,-13c0.47,1 3.05,4.23 17.21,6.24c11,1.56 17.41,-7.37 20.61,-14a2.17,2.17 0 0 1 0,0.26a26.51,26.51 0 0 1 -4.63,12.98z" />
    <path fill="#f7e2d0"
      d="m7.66118,314.14879c3.54,7.79 11.55,12.86 20,11.48c4.64,-0.76 9.76,-3.49 13.63,-10.6c-0.66,0.94 -3.79,3.59 -18.07,2.9c-11.08,-0.53 -15.72,-10.51 -17.62,-17.61c0,0.09 0,0.17 0,0.26a26.46,26.46 0 0 0 2.06,13.57z" />
    <path fill="#333"
      d="m95.31118,378.23879a2.64,2.64 0 0 0 2.89,-2.39l0.69,-7.21a4,4 0 0 0 -1.25,-3.28c1.46,0.19 2.86,0.35 4.13,0.47s2.14,0.18 3,0.21s1.81,0.24 2.94,0.35s2.68,0.23 4.15,0.31a4,4 0 0 0 -1.84,3l-0.68,7.21a2.66,2.66 0 0 0 2.39,2.9l60.64,5.74a2.65,2.65 0 0 0 2.7,-1.63c7.52,-18.09 3.7,-64 3.53,-66a2.66,2.66 0 0 0 -2.4,-2.42l-132.11,-12.51a2.66,2.66 0 0 0 -2.81,1.92c-0.53,1.89 -12.91,46.3 -8.92,65.48a2.66,2.66 0 0 0 2.35,2.1l60.6,5.75z" />
    <path
      d="m43.81118,305.62879l66.06,6.26l66.05,6.25s4,47.05 -3.33,64.75l-60.64,-5.75l0.68,-7.21a1.27,1.27 0 0 1 1,-1.14c1.51,-0.28 11.65,-1.61 14.75,-2.34c1.34,-0.31 1.25,-2.42 0,-2.53a0.83,0.83 0 0 0 -0.27,0c-5,0.65 -14.45,0.35 -20.23,-0.19c-1.15,-0.11 -2.15,-0.23 -2.95,-0.35l0,0c-0.81,0 -1.81,-0.11 -3,-0.21c-5.79,-0.55 -15.12,-2 -19.91,-3.62a1.32,1.32 0 0 0 -0.26,-0.05c-1.21,-0.12 -1.7,1.93 -0.45,2.49c2.92,1.3 12.63,4.51 14.06,5.06a1.27,1.27 0 0 1 0.78,1.32l-0.68,7.21l-60.64,-5.74c-3.9,-18.77 8.88,-64.22 8.88,-64.22m0.5,-5.28a5.3,5.3 0 0 0 -5.61,3.85c-0.54,1.9 -13.09,46.92 -9,66.73a5.31,5.31 0 0 0 4.7,4.2l60.64,5.75a5.32,5.32 0 0 0 5.79,-4.79l0.68,-7.21l0,-0.42c1.11,0.11 2.09,0.18 2.92,0.22s1.8,0.23 2.91,0.34c0,0.13 0,0.27 0,0.41l-0.69,7.21a5.32,5.32 0 0 0 4.79,5.79l60.64,5.74a5.3,5.3 0 0 0 5.4,-3.25c7.77,-18.68 3.89,-65.25 3.72,-67.23a5.31,5.31 0 0 0 -4.79,-4.83l-66.05,-6.26l-65.95,-6.24l-0.1,-0.01z" />
    <path fill="#fff"
      d="m159.73118,316.60879c2.42,41.26 -1.8,60.33 -3,64.77l8.3,0.79c1.72,-7.07 5.13,-26.62 3,-64.77l-8.3,-0.79z" />
    <path fill="#fff"
      d="m51.72118,306.38879c-9.27,37.07 -9.59,56.91 -9.23,64.17l8.3,0.79c-0.35,-4.59 -0.91,-24.12 9.22,-64.18l-8.29,-0.78z" />
    <path
      d="m43.81118,305.62879l66.06,6.26l66.05,6.25s0.38,4.42 0.69,11l-135.55,-12.8c1.55,-6.44 2.75,-10.71 2.75,-10.71z" />
    <path fill="gray"
      d="m160.24118,327.61879q-0.18,-5.22 -0.51,-11l8.29,0.79c0.21,3.87 0.36,7.51 0.47,11l-8.25,-0.79z" />
    <path fill="gray"
      d="m51.72118,306.38879l8,0.75l0.25,0q-1.43,5.63 -2.58,10.72l-8.25,-0.78c0.81,-3.39 1.64,-6.93 2.58,-10.69z" />
    <path
      d="m177.20118,348.38879a2.12,2.12 0 0 0 2.29,-1.75a2.12,2.12 0 0 0 -1.74,-2.45c-22.59,-3.85 -23,-29.82 -23,-30.92a2.14,2.14 0 0 0 -2.13,-2.12a2.14,2.14 0 0 0 -2.12,2.13c0,0.31 0.37,30.64 26.5,35.09l0.2,0.02z" />
    <path
      d="m36.88118,335.10879l0.16,0c26.5,0.54 32.55,-29.19 32.61,-29.49a2.13,2.13 0 0 0 -1.68,-2.49a2.13,2.13 0 0 0 -2.49,1.68c-0.21,1.09 -5.45,26.52 -28.36,26.06a2.12,2.12 0 0 0 -2.16,2.08a2.13,2.13 0 0 0 1.92,2.16z" />
    <path
      d="m112.31118,369.89879a1.26,1.26 0 0 1 1,-1.14c1,-0.18 5.73,-0.82 9.74,-1.45l-1,10.79l-10.42,-1l0.68,-7.2z" />
    <path
      d="m86.45118,363.98879c3.68,1.31 7.83,2.7 8.73,3a1.25,1.25 0 0 1 0.78,1.31l-0.68,7.21l-9.84,-0.93l1.01,-10.59z" />
    <path fill="#f7e2d0" d="m163.31118,261.43879s6.93,11.23 11.88,12.5l1.12,13.3l-8.63,-7.48l-3.77,-13.6l-0.6,-4.72z" />
    <path fill="#f7e2d0" d="m66.82118,252.29879s-8.92,9.73 -14,10.05l-3.51,12.89l9.88,-5.73l6.26,-12.65l1.37,-4.56z" />
    <path
      d="m46.23118,288.57879a2.12,2.12 0 0 0 2.3,-1.84c1.49,-11.43 7.89,-32.65 7.95,-32.86a2.12,2.12 0 0 0 -1.42,-2.65a2.12,2.12 0 0 0 -2.64,1.42c-0.27,0.88 -6.57,21.77 -8.1,33.54a2.12,2.12 0 0 0 1.83,2.38l0.08,0.01z" />
    <path
      d="m176.75118,300.93879l0.07,0a2.13,2.13 0 0 0 2.25,-2c0.7,-11.86 -1.56,-33.56 -1.65,-34.47a2.12,2.12 0 0 0 -2.34,-1.89a2.13,2.13 0 0 0 -1.89,2.33c0,0.22 2.32,22.27 1.64,33.77a2.12,2.12 0 0 0 1.92,2.26z" />
    <path fill="#bf272d"
      d="m180.56118,320.67879a2.1,2.1 0 0 0 1.67,-0.59a2.1,2.1 0 0 0 0.61,-1.66l-2.41,-29.29a2.08,2.08 0 0 0 -1.88,-1.9c-18.16,-1.72 -18.67,-45.51 -17.34,-62.24a2.1,2.1 0 0 0 -0.68,-1.71a2.09,2.09 0 0 0 -1.2,-0.53a2.1,2.1 0 0 0 -0.56,0l-8.91,1.56a2.08,2.08 0 0 0 -1.71,1.85c-1.44,15.2 -6.69,25.63 -15.61,31a28.3,28.3 0 0 1 -16.8,3.76c-0.53,-0.05 -0.84,-0.1 -0.88,-0.11l-0.32,0s-0.35,0 -0.88,-0.06c-6.77,-0.64 -28.6,-5.43 -25.31,-40.2a2.08,2.08 0 0 0 -1.34,-2.14l-8.45,-3.2a2.12,2.12 0 0 0 -0.54,-0.13a2.1,2.1 0 0 0 -1.29,0.3a2.07,2.07 0 0 0 -1,1.55c-1.83,16.68 -10.56,59.59 -28.72,57.87a2.09,2.09 0 0 0 -2.2,1.52l-7.87,28.32a2.11,2.11 0 0 0 0.29,1.74a2.12,2.12 0 0 0 1.53,0.89l141.8,13.4z" />
    <path
      d="m77.82118,217.12879l8.46,3.21c-3.56,37.51 21.69,41.95 27.19,42.47c0.66,0.06 1,0.07 1,0.07s0.37,0.06 1,0.12c5.5,0.52 31.13,0.91 34.68,-36.61l8.91,-1.55s-5,62.18 19.22,64.47l2.41,29.29l-70.89,-6.71l-70.9,-6.72l7.87,-28.31c24.19,2.29 31,-59.73 31,-59.73m0.39,-4.15a4.18,4.18 0 0 0 -2.57,0.6a4.16,4.16 0 0 0 -2,3.1c-1.65,15 -10,57.58 -26.45,56a4.17,4.17 0 0 0 -4.41,3l-7.87,28.32a4.17,4.17 0 0 0 0.59,3.48a4.17,4.17 0 0 0 3,1.79l70.89,6.71l70.9,6.71a4.14,4.14 0 0 0 3.32,-1.18a4.18,4.18 0 0 0 1.23,-3.31l-2.41,-29.29a4.18,4.18 0 0 0 -3.77,-3.81c-16.38,-1.55 -16.65,-44.92 -15.45,-60a4.2,4.2 0 0 0 -1.35,-3.42a4.27,4.27 0 0 0 -2.42,-1.07a4.16,4.16 0 0 0 -1.11,0l-8.9,1.55a4.19,4.19 0 0 0 -3.44,3.72c-3.11,32.84 -23.85,33.45 -30.13,32.85l-0.71,-0.08l-0.32,0l-0.32,0l-0.73,-0.05c-6.28,-0.6 -26.54,-5.09 -23.43,-37.93a4.17,4.17 0 0 0 -2.68,-4.29l-8.31,-3.14a4.65,4.65 0 0 0 -1.09,-0.25l-0.06,-0.01z" />
    <path fill="#fff4ec"
      d="m108.94118,95.46879a2.66,2.66 0 0 0 1.93,-0.61a2.68,2.68 0 0 0 0.94,-1.81l7.44,-87.52a2.72,2.72 0 0 0 -0.76,-2.1a2.71,2.71 0 0 0 -1.64,-0.77l-0.46,0c-58.65,4.68 -58.88,85.2 -58.88,86a2.65,2.65 0 0 0 2.4,2.62l49.03,4.19z" />
    <path
      d="m116.60118,5.30879l-7.44,87.52l-49,-4.17s-0.43,-78.81 56.44,-83.35m0.5,-5.29a5.64,5.64 0 0 0 -0.92,0c-25.52,2 -44.24,18.27 -54.14,46.94a139.59,139.59 0 0 0 -7.18,41.74a5.31,5.31 0 0 0 4.8,5.26l0,0l49,4.17a5.33,5.33 0 0 0 3.87,-1.23a5.31,5.31 0 0 0 1.87,-3.61l7.44,-87.52a5.32,5.32 0 0 0 -1.52,-4.2a5.39,5.39 0 0 0 -3.27,-1.54l0.05,-0.01z" />
    <path fill="#fad558"
      d="m108.98118,94.93879a2.13,2.13 0 0 0 1.55,-0.49a2.13,2.13 0 0 0 0.75,-1.44l7.45,-87.67a2.14,2.14 0 0 0 -0.65,-1.72a2.16,2.16 0 0 0 -1.27,-0.58a2.48,2.48 0 0 0 -0.47,0c-34,4.44 -39.48,83.69 -39.7,87.06a2.13,2.13 0 0 0 1.92,2.25l30.42,2.59z" />
    <path
      d="m116.62118,5.15879l-7.46,87.67l-30.4,-2.59s5.18,-80.81 37.86,-85.08m0.4,-4.23a4.4,4.4 0 0 0 -1,0c-15.43,2 -27.12,17.92 -34.73,47.28a250.92,250.92 0 0 0 -6.81,41.74a4.25,4.25 0 0 0 3.84,4.5l0,0l30.4,2.59a4.26,4.26 0 0 0 3.1,-1a4.2,4.2 0 0 0 1.49,-2.88l7.46,-87.67a4.25,4.25 0 0 0 -1.3,-3.43a4.23,4.23 0 0 0 -2.53,-1.16l0.08,0.03z" />
    <path fill="#fff4ec"
      d="m200.31118,104.59879a2.64,2.64 0 0 0 2.85,-2.13c0.16,-0.8 15,-79.93 -41.68,-95.54a2.33,2.33 0 0 0 -0.46,-0.08a2.63,2.63 0 0 0 -1.74,0.45a2.64,2.64 0 0 0 -1.15,1.92l-9.12,87.36a2.69,2.69 0 0 0 0.58,1.95a2.66,2.66 0 0 0 1.79,1l48.93,5.07z" />
    <path
      d="m160.80118,9.48879c55,15.14 39.79,92.47 39.79,92.47l-48.91,-5.11l9.12,-87.36m0.5,-5.28a5.25,5.25 0 0 0 -3.49,0.9a5.3,5.3 0 0 0 -2.29,3.83l-9.12,87.36a5.35,5.35 0 0 0 1.16,3.9a5.29,5.29 0 0 0 3.57,1.93l48.91,5.11l0,0a5.33,5.33 0 0 0 5.71,-4.26a140,140 0 0 0 0.78,-42.35c-4.34,-30 -19.69,-49.47 -44.37,-56.27a5.59,5.59 0 0 0 -0.85,-0.12l-0.01,-0.03z" />
    <path fill="#fad558"
      d="m181.83118,102.13879a2.14,2.14 0 0 0 2.31,-1.85c0.42,-3.36 9.92,-82.21 -22.66,-93a2.52,2.52 0 0 0 -0.46,-0.1a2.19,2.19 0 0 0 -1.36,0.33a2.11,2.11 0 0 0 -1,1.56l-9.14,87.51a2.14,2.14 0 0 0 0.46,1.56a2.14,2.14 0 0 0 1.43,0.78l30.42,3.21z" />
    <path
      d="m160.82118,9.33879c31.29,10.33 21.21,90.68 21.21,90.68l-30.35,-3.17l9.14,-87.51m0.4,-4.22a4.21,4.21 0 0 0 -2.71,0.66a4.26,4.26 0 0 0 -1.92,3.12l-9.13,87.51a4.24,4.24 0 0 0 0.92,3.12a4.29,4.29 0 0 0 2.86,1.55l30.35,3.17l0,0a4.24,4.24 0 0 0 4.61,-3.7a248.4,248.4 0 0 0 1.19,-42.31c-2,-30.27 -10.46,-48.09 -25.24,-53a4.39,4.39 0 0 0 -0.93,-0.19l0,0.07z" />
    <path fill="#fff4ec"
      d="m117.31118,233.47879c27.57,2.61 53.79,-3 73.82,-15.71c20.81,-13.23 33.48,-33.41 35.7,-56.84c4.81,-50.74 -38.52,-99.75 -92.72,-104.88s-105.97,34.87 -110.8,85.61c-2.22,23.43 6.44,45.63 24.39,62.53c17.32,16.28 42.02,26.68 69.61,29.29z" />
    <path
      d="m133.84118,58.68879c54.73,5.19 94.83,54.46 90.33,102s-51.86,75.33 -106.63,70.15s-96.06,-41.39 -91.56,-88.93s53.14,-88.4 107.86,-83.22m0.51,-5.28a106.63,106.63 0 0 0 -76.57,23c-21.25,16.85 -34.77,40.56 -37.09,65c-2.29,24.26 6.66,47.24 25.22,64.72c17.71,16.68 43,27.33 71.13,30s55,-3.06 75.5,-16.12c21.51,-13.68 34.62,-34.57 36.91,-58.83c2.32,-24.48 -6.5,-50.3 -24.21,-70.84a106.64,106.64 0 0 0 -70.93,-36.93l0.04,0z" />
    <path fill="#fad558"
      d="m141.84118,95.86879a91.65,91.65 0 0 0 70.55,97.93a70.15,70.15 0 0 0 11.77,-33.12c4,-42.17 -27.08,-85.69 -72.36,-98.59a91.88,91.88 0 0 0 -9.96,33.78z" />
    <path fill="#fad558"
      d="m25.99118,141.90879a70.07,70.07 0 0 0 5.32,34.75a91.68,91.68 0 0 0 77.53,-48.87a16.39,16.39 0 0 1 -8,-15.66a16.33,16.33 0 0 1 17.72,-14.75c0.18,-1.2 0.31,-2.45 0.43,-3.67a91.66,91.66 0 0 0 -3.44,-35.05l0,0c-46.9,4.19 -85.57,41.08 -89.56,83.25z" />
    <path fill="#fa9898"
      d="m171.23118,177.78879a13.29,13.29 0 0 0 12,14.49a13.28,13.28 0 0 0 14.48,-12a13.29,13.29 0 0 0 -12,-14.49a13.29,13.29 0 0 0 -14.48,12z" />
    <path fill="#fa9898"
      d="m48.31118,166.14879a13.29,13.29 0 0 0 12,14.49a13.29,13.29 0 0 0 14.49,-12a13.29,13.29 0 0 0 -12,-14.49a13.29,13.29 0 0 0 -14.49,12z" />
    <line fill="#fff" y2="125.83879" x2="159.87118" y1="107.15879" x1="188.05118" />
    <path
      d="m159.47118,130.06879a4.2,4.2 0 0 0 2.74,-0.69l28.18,-18.68a4.23,4.23 0 0 0 1.2,-5.88a4.25,4.25 0 0 0 -5.89,-1.2l-28.18,18.68a4.25,4.25 0 0 0 -1.21,5.94a4.26,4.26 0 0 0 3.16,1.83z" />
    <line fill="#fff" y2="119.75879" x2="95.68118" y1="96.12879" x1="71.51118" />
    <path
      d="m95.31118,123.98879a4.24,4.24 0 0 0 3.44,-1.26a4.25,4.25 0 0 0 -0.07,-6l-24.18,-23.63a4.24,4.24 0 0 0 -6,0.07a4.24,4.24 0 0 0 0.07,6l24.17,23.64a4.31,4.31 0 0 0 2.57,1.18z" />
    <path
      d="m166.10118,145.03879c-0.89,9.39 2.3,17.37 7.12,17.83s9.45,-6.78 10.34,-16.18s-2.3,-17.37 -7.12,-17.83s-9.45,6.79 -10.34,16.18z" />
    <path
      d="m68.50118,135.79879c-0.89,9.39 2.3,17.37 7.12,17.83s9.45,-6.79 10.34,-16.18s-2.3,-17.38 -7.12,-17.83s-9.45,6.78 -10.34,16.18z" />
    <path
      d="m107.72118,156.30879c-0.68,7.12 6.27,13.6 15.51,14.48s17.28,-4.19 18,-11.31s-6.28,-13.6 -15.52,-14.47s-17.32,4.23 -17.99,11.3z" />
    <path
      d="m136.78118,208.16879a19.84,19.84 0 0 0 12.24,-2.93c7,-4.3 10.45,-12.06 9.6,-21.28a2.12,2.12 0 0 0 -2.31,-1.92a2.13,2.13 0 0 0 -1.92,2.31c0.7,7.56 -2.07,13.85 -7.61,17.27a14.91,14.91 0 0 1 -15.56,0.31c-5.36,-3.34 -7.86,-10.09 -7,-19l1.13,-12a2.11,2.11 0 0 0 -1.91,-2.31a2.12,2.12 0 0 0 -2.32,1.91l-1.13,11.95c-1.36,14.34 5.06,20.59 9,23a18,18 0 0 0 7.79,2.69z" />
    <path
      d="m102.90118,204.95879a18,18 0 0 0 8.15,-1.08c4.33,-1.67 11.8,-6.6 13.16,-20.93l1.13,-12a2.11,2.11 0 0 0 -1.91,-2.31a2.12,2.12 0 0 0 -2.32,1.91l-1.13,11.95c-0.84,8.94 -4.56,15.11 -10.46,17.37a14.87,14.87 0 0 1 -15.21,-3.18c-4.8,-4.39 -6.34,-11.1 -4.24,-18.39a2.11,2.11 0 0 0 -1.45,-2.63a2.1,2.1 0 0 0 -2.62,1.45c-2.57,8.9 -0.59,17.17 5.44,22.7a19.79,19.79 0 0 0 11.46,5.14z" />
    <path fill="#fff"
      d="m107.16118,307.11879a19.14,19.14 0 0 1 -12.38,-5.88l1.71,-18l14.32,1.36l-0.71,7.55l-6.11,-0.58l-0.58,6.21a6.6,6.6 0 0 0 3.57,1.33c7.14,0.67 11,-3.45 11.7,-11.1s-3,-12.33 -8.64,-12.87a9.79,9.79 0 0 0 -7.37,2.32l-4.36,-6.36a17.13,17.13 0 0 1 12.79,-3.86c10.29,1 18.23,9.14 17,22c-1.22,13 -10.24,18.89 -20.94,17.88z" />
    <path fill="#ff0"
      d="m245.85118,237.34879a19.13,19.13 0 0 1 -1.08,2.61a19.73,19.73 0 0 1 -11.46,9.92a19.7,19.7 0 0 1 -15.13,-1.11a19.9,19.9 0 0 1 -9.89,-24a19.13,19.13 0 0 1 1.08,-2.61a19.85,19.85 0 0 1 26.62,-8.81a19.9,19.9 0 0 1 9.86,24z" />
    <path
      d="m211.70118,225.90879a16.29,16.29 0 0 1 0.89,-2.13a16.19,16.19 0 0 1 21.72,-7.19a16.19,16.19 0 0 1 8.1,19.65a16.29,16.29 0 0 1 -0.89,2.13a16.19,16.19 0 0 1 -21.74,7.19a16.19,16.19 0 0 1 -8.08,-19.61m-6.89,-2.31l0,0a23.56,23.56 0 0 0 11.71,28.41a23.47,23.47 0 0 0 31.49,-10.42a24.43,24.43 0 0 0 1.29,-3.08a23.56,23.56 0 0 0 -11.71,-28.41a23.49,23.49 0 0 0 -31.49,10.42a24.43,24.43 0 0 0 -1.29,3.08z" />
    <path fill="#39b34a"
      d="m182.91118,251.57879c5.22,7.16 5.62,16.12 5.64,16.5a3.92,3.92 0 0 1 -1.05,2.75a4.37,4.37 0 0 1 -2.7,1.44c-0.57,0.07 -14.25,1.7 -23.32,-5.51a21.62,21.62 0 0 1 -4.05,-4.26c-5.23,-7.16 -5.63,-16.11 -5.64,-16.49a3.89,3.89 0 0 1 1,-2.75a4.4,4.4 0 0 1 2.7,-1.44c0.58,-0.07 14.25,-1.71 23.32,5.51a21.61,21.61 0 0 1 4.06,4.25l0.04,0z" />
    <path
      d="m160.62118,260.17879c-4.72,-6.47 -5,-14.74 -5,-14.74s12.6,-1.59 20.66,4.81a19.35,19.35 0 0 1 3.48,3.66c4.72,6.47 5,14.73 5,14.73s-12.61,1.6 -20.66,-4.81a18.42,18.42 0 0 1 -3.48,-3.65m-6.39,4.65a25.2,25.2 0 0 0 4.63,4.86c10,7.95 24.39,6.4 26,6.2a8.83,8.83 0 0 0 5.4,-2.87a7.94,7.94 0 0 0 2.09,-5.51c0,-1 -0.56,-10.47 -6.24,-18.26a25.13,25.13 0 0 0 -4.63,-4.85c-10,-8 -24.38,-6.4 -26,-6.2a8.8,8.8 0 0 0 -5.4,2.87a7.92,7.92 0 0 0 -2.09,5.51c0,1 0.56,10.46 6.24,18.25z" />
    <path fill="#39b34a"
      d="m281.70118,264.63879c-3.42,3.85 -9,8.87 -16.44,11c-13.17,3.71 -26.36,-3.35 -26.91,-3.66a3.59,3.59 0 0 1 -1.76,-2.2a3.61,3.61 0 0 1 0.35,-2.8a42.81,42.81 0 0 1 4.61,-6.2c3.41,-3.85 9,-8.88 16.44,-11c13.17,-3.71 26.36,3.35 26.91,3.66a3.62,3.62 0 0 1 1.76,2.2a3.66,3.66 0 0 1 -0.35,2.8a42.81,42.81 0 0 1 -4.61,6.2z" />
    <path
      d="m244.31118,263.13879c3.24,-3.64 8.25,-8 14.7,-9.87c11.9,-3.35 24.19,3.35 24.19,3.35a38.1,38.1 0 0 1 -4.18,5.61c-3.24,3.65 -8.25,8.06 -14.7,9.87c-11.9,3.36 -24.19,-3.34 -24.19,-3.34a38.45,38.45 0 0 1 4.18,-5.62m-5.43,-4.81a44.67,44.67 0 0 0 -5.05,6.8a7.23,7.23 0 0 0 -0.69,5.59a7.21,7.21 0 0 0 3.51,4.41c0.61,0.33 15.06,8.07 29.63,4c8.26,-2.32 14.44,-7.83 18.17,-12a45.23,45.23 0 0 0 5.05,-6.8a7.3,7.3 0 0 0 0.69,-5.6a7.22,7.22 0 0 0 -3.51,-4.4c-0.61,-0.34 -15.06,-8.07 -29.64,-4c-8.25,2.33 -14.43,7.84 -18.16,12.05l0,-0.05z" />
    <path fill="#ff7676"
      d="m267.24118,228.65879c-2.24,6.69 -8.85,11.94 -17,13.56c0.16,0.26 0.31,0.53 0.44,0.79a23.62,23.62 0 0 1 1.87,18.23a15.86,15.86 0 0 1 -7.65,9.21c-8.51,4.39 -19.75,-0.31 -25.36,-10.5a0.94,0.94 0 0 1 -0.1,0.1c-8.41,8.5 -20.9,9.83 -27.85,3c-4.48,-4.43 -5.76,-11.22 -3.42,-18.17a25.43,25.43 0 0 1 5.9,-9.54l-0.35,-0.17c-9.84,-4.94 -15.09,-15.11 -12.22,-23.64a14.09,14.09 0 0 1 0.81,-1.93c4.25,-8.47 15.91,-11.3 26.35,-6.57c0,-0.33 0.07,-0.65 0.11,-1a27.89,27.89 0 0 1 1.08,-4.46c3.21,-9.54 11.5,-15.55 19.72,-14.29a16.19,16.19 0 0 1 11.62,8.45a24.34,24.34 0 0 1 2.63,15.66a0.06,0.06 0 0 1 0,0c11.72,-1.82 22.48,4.44 24.05,14a14.91,14.91 0 0 1 -0.63,7.27zm-44.18,5.64c0.49,-0.87 0.83,-1.38 0.87,-1.44a2.85,2.85 0 0 1 2.5,-1.29s0.37,0 0.9,0c-1,-1.07 -1.6,-1.8 -1.67,-1.88a2.86,2.86 0 0 1 -0.48,-2.7l0,-0.08c0,-0.08 0.25,-0.68 0.66,-1.62c-0.82,0.36 -1.33,0.56 -1.4,0.59a2.87,2.87 0 0 1 -2.78,-0.43s-0.25,-0.19 -0.58,-0.48c0.18,1.48 0.23,2.44 0.24,2.54a2.65,2.65 0 0 1 -0.15,1a2.77,2.77 0 0 1 -1.11,1.46c-0.07,0 -0.56,0.37 -1.38,0.86c1.25,0.25 2,0.45 2.11,0.48a2.83,2.83 0 0 1 2,2c0.05,0.13 0.14,0.45 0.27,0.99z" />
    <path
      d="m184.21118,212.33879a10.86,10.86 0 0 1 0.65,-1.55c3.69,-7.34 14.21,-9.51 23.5,-4.83a12.64,12.64 0 0 1 4.21,3.52a13.82,13.82 0 0 1 -1,-7.08a24.35,24.35 0 0 1 1,-4c2.73,-8.12 9.56,-13.46 16.58,-12.39c8.12,1.25 13.43,10.59 11.86,20.86a11,11 0 0 1 -0.46,1.9a14.64,14.64 0 0 1 -2.07,3.9a13.15,13.15 0 0 1 5.59,-2.47c10.26,-1.68 19.65,3.53 21,11.63a12.16,12.16 0 0 1 -0.5,5.9c-1.93,5.75 -7.95,10.56 -15.67,11.83a12.91,12.91 0 0 1 -5.69,-0.43a13.6,13.6 0 0 1 5,5.17a20.88,20.88 0 0 1 1.68,16a13,13 0 0 1 -6.26,7.59c-7.3,3.77 -17.08,-0.67 -21.85,-9.91a12.52,12.52 0 0 1 -1.32,-5a13.07,13.07 0 0 1 -3,5.07c-7.31,7.39 -18,8.7 -23.81,2.92c-3.8,-3.75 -4.63,-9.58 -2.73,-15.23a22.71,22.71 0 0 1 5.39,-8.61a13.52,13.52 0 0 1 5.78,-3.3a13.64,13.64 0 0 1 -7,-1.26c-8.78,-4.33 -13.27,-13.12 -10.88,-20.23m37.32,32.5c0.11,-0.37 0.23,-0.73 0.35,-1.09a45.69,45.69 0 0 1 4.44,-9.33a45.48,45.48 0 0 1 11.26,2.13a44.4,44.4 0 0 1 -9.7,-8.6a45,45 0 0 1 5.89,-10.56a44.88,44.88 0 0 1 -10.32,5.85a45.47,45.47 0 0 1 -7.7,-8.13a44.29,44.29 0 0 1 2.75,12.57a44.6,44.6 0 0 1 -11.43,5.21a44.42,44.42 0 0 1 13,1.25a45.69,45.69 0 0 1 1.45,10.68m-42.73,-34.31l0,0c-3,9 1.59,19.5 10.85,25.5a27.67,27.67 0 0 0 -4.18,7.85c-2.65,7.89 -1.08,16 4.11,21.11a19.26,19.26 0 0 0 16.07,5.08a26.65,26.65 0 0 0 13.3,-5.77c6.79,9.39 18.28,13.28 27.26,8.65a18.76,18.76 0 0 0 9,-10.84a26,26 0 0 0 -0.91,-18c7.48,-2.5 13.38,-7.88 15.61,-14.52a17.76,17.76 0 0 0 0.72,-8.63a19.2,19.2 0 0 0 -10,-13.55a26.49,26.49 0 0 0 -13.7,-3.16a26.59,26.59 0 0 0 -3.3,-14a19.25,19.25 0 0 0 -13.66,-9.86c-9.75,-1.49 -19.15,5.17 -22.86,16.21c-0.27,0.8 -0.51,1.61 -0.71,2.44c-10.87,-3.36 -22.2,0.27 -26.68,9.18a17.17,17.17 0 0 0 -1,2.3l0.08,0.01z" />
  </g>
</svg>