<?xml version="1.0" encoding="utf-8"?>
<!-- Generator: Adobe Illustrator 22.0.0, SVG Export Plug-In . SVG Version: 6.00 Build 0)  -->
<svg version="1.1" id="图层_1" xmlns="http://www.w3.org/2000/svg" xmlns:xlink="http://www.w3.org/1999/xlink" x="0px" y="0px"
	 width="420px" height="270px" viewBox="0 0 420 270" style="enable-background:new 0 0 420 270;" xml:space="preserve">
<style type="text/css">
	.st0{fill:#FFFF00;}
	.st1{clip-path:url(#SVGID_2_);}
	.st2{fill:#FFFFFF;}
	.st3{fill:#BF272D;}
	.st4{fill:#FFF4EC;}
	.st5{fill:#FFDADA;}
	.st6{fill:#FAD558;}
	.st7{fill:#FA7777;}
	.st8{fill:#FACBCB;}
	.st9{fill:#FA9898;}
	.st10{fill:#39B34A;}
	.st11{fill:none;}
	.st12{fill:#FF7676;}
</style>
<g>
	<path class="st0" d="M239.7,242.1c-0.3,0.9-0.7,1.8-1.1,2.6c-2.4,4.7-6.5,8.3-11.5,9.9c-5,1.7-10.4,1.3-15.1-1.1
		c-8.8-4.4-13-14.7-9.9-24c0.3-0.9,0.7-1.8,1.1-2.6c4.9-9.8,16.8-13.7,26.6-8.8C238.6,222.5,242.8,232.8,239.7,242.1z"/>
</g>
<g>
	<g>
		<g>
			<defs>
				<rect id="SVGID_1_" width="420" height="270"/>
			</defs>
			<clipPath id="SVGID_2_">
				<use xlink:href="#SVGID_1_"  style="overflow:visible;"/>
			</clipPath>
			<g class="st1">
				<path class="st2" d="M411,270.3c-4.6-9.1-14.5-10.5-17.6-10.7L342.9,218c-0.5-0.4-1.2-0.6-1.8-0.6H341c-0.7,0.1-1.3,0.5-1.8,1
					l-0.8,1.2c-7.2-8-15.9-12-24.9-11.4s-17.1,5.9-23.1,14.8l-1-1c-0.5-0.5-1.2-0.8-1.9-0.8h-0.1c-0.7,0-1.3,0.3-1.7,0.8l-44.1,48.3
					H411z"/>
				<path class="st2" d="M274.7,270.3h85.9L360,253c-0.2-5.5-2.5-10.5-6.5-14.1s-9.4-5.5-14.8-5.1c-2.2,0.2-4.4,0.7-6.5,1.6
					l-11.4,4.9c-1.6,0.7-3.4,1.1-5.2,1.3c-1.8,0.1-3.6,0-5.3-0.5l-11.9-3.2c-2.2-0.6-4.4-0.8-6.7-0.7c-5.4,0.4-10.4,3-13.9,7.2
					s-5.1,9.5-4.5,14.9L274.7,270.3z"/>
				<path d="M272.7,270.3h4.1l-1.3-11.4c-1.2-10.5,6.8-19.1,16.5-19.8c1.9-0.1,4,0,6,0.6l11.9,3.2c2,0.5,4,0.7,6,0.6s4-0.6,5.8-1.4
					l11.3-4.9c1.9-0.8,3.9-1.3,5.8-1.4c9.7-0.7,18.8,6.8,19.1,17.3l0.6,17.2h4.1l-0.6-17.4c-0.2-6-2.8-11.6-7.2-15.6
					c-4.4-4-10.4-6.1-16.3-5.6l0,0c-2.5,0.2-4.9,0.8-7.2,1.8l-11.3,4.9c-1.4,0.6-2.9,1-4.5,1.1s-3.1,0-4.6-0.4l-11.9-3.2
					c-2.4-0.7-4.9-0.9-7.3-0.7c-5.9,0.4-11.5,3.3-15.3,7.9c-3.8,4.6-5.6,10.4-4.9,16.4L272.7,270.3z"/>
				<path class="st3" d="M311.1,270.3l-0.3-4.3c-0.2-2.6-0.9-6.3-1.4-8.8h0.1l2.5,6l3.3,7.2h4.8l2.3-7.9l1.7-6.3h0.1
					c-0.1,2.5-0.3,6.4-0.2,9l0.4,5.3h5.7l-1.6-22.5l-6.7,0.5l-3.1,11.4c-0.4,1.5-0.7,3.2-1.1,4.8h-0.2c-0.6-1.6-1.1-3.1-1.7-4.6
					l-4.9-10.8l-6.7,0.5l1.5,20.8h5.5L311.1,270.3L311.1,270.3z"/>
				<g>
					<path d="M349.5,270.3h5.9l-5.5-3.3C349.7,268.1,349.6,269.2,349.5,270.3z"/>
					<path d="M245.1,270.3l42.4-46.4l3.3,3.4c5.4-9.5,13.4-15.7,22.8-16.4s18.2,4.4,24.9,13l2.8-3.8l51.2,42.2c0,0,10.6,0,15.7,8.1
						h5.8c-0.2-0.4-0.3-0.7-0.5-1.1c-4.8-9.5-14.7-11.6-19-12.1l-49.9-41.1c-1-0.8-2.3-1.3-3.7-1.2c-0.1,0-0.2,0-0.3,0
						c-0.9,0.1-1.7,0.4-2.4,0.9c-7.3-7.1-16.1-10.7-25-10.1c-8.9,0.6-17.1,5.5-23.3,13.6c-0.8-0.4-1.6-0.6-2.5-0.6
						c-0.1,0-0.2,0-0.3,0c-1.3,0.1-2.6,0.7-3.5,1.7L240,268.2c-1.4,0.4-3.5,1-5.8,2.1L245.1,270.3L245.1,270.3z"/>
				</g>
				<path class="st4" d="M198.9,270.3c-9.9-23.2-22.3-41.9-23.2-43.3c-0.5-0.7-1.2-1.1-2-1.2L52.1,214.3c-0.8-0.1-1.6,0.2-2.2,0.8
					c-1.4,1.5-25.9,26.5-41.2,55.2L198.9,270.3L198.9,270.3z"/>
				<path class="st5" d="M140,270.3c-4.3-9.4-13.3-16.3-24.2-17.4l-11.7-1.1c-13.3-1.3-25.5,6.6-30.3,18.5H140z"/>
				<path class="st6" d="M34.4,270.3c3.7-6.6,6.3-14.6,7.1-23.2c0.6-6.2,0.2-12.1-0.9-17.6c-8.5,9.9-20.1,24.8-28.9,40.9h22.7V270.3
					z"/>
				<path class="st3" d="M157.1,270.3c-2.9-14-2.7-31.1-2-40.2c0.1-0.6-0.2-1.3-0.7-1.7c-0.3-0.3-0.8-0.5-1.2-0.5
					c-0.2,0-0.4,0-0.6,0l-8.9,1.6c-0.9,0.2-1.6,0.9-1.7,1.9c-1.4,15.2-6.7,25.6-15.6,31c-6.9,4.2-14.1,4-16.8,3.8
					c-0.5-0.1-0.8-0.1-0.9-0.1s-0.3,0-0.3,0s-0.3,0-0.9-0.1c-6.8-0.6-28.6-5.4-25.3-40.2c0.1-0.9-0.5-1.8-1.3-2.1l-8.5-3.2
					c-0.2-0.1-0.4-0.1-0.5-0.1c-0.4,0-0.9,0.1-1.3,0.3c-0.5,0.3-0.9,0.9-1,1.6c-1.3,11.4-5.7,35-14.2,48.3h101.7V270.3z"/>
				<path d="M57.9,270.3c10.4-17.4,13.8-48.1,13.8-48.1l8.5,3.2c-3.6,37.5,21.7,42,27.2,42.5c0.7,0.1,1,0.1,1,0.1s0.4,0.1,1,0.1
					c5.5,0.5,31.1,0.9,34.7-36.6l8.9-1.6c0,0-1.8,22.1,1.9,40.4h4.3c-2.9-13.9-2.7-31.5-2-40.1c0.1-1.3-0.4-2.5-1.3-3.4
					c-0.7-0.6-1.5-1-2.4-1.1c-0.4,0-0.7,0-1.1,0l-8.9,1.6c-1.9,0.3-3.3,1.8-3.4,3.7c-3.1,32.8-23.9,33.4-30.1,32.9
					c-0.4,0-0.7-0.1-0.7-0.1c-0.1,0-0.2,0-0.3,0c-0.1,0-0.2,0-0.3,0c-0.1,0-0.3,0-0.7-0.1c-6.3-0.6-26.5-5.1-23.4-37.9
					c0.2-1.9-0.9-3.6-2.7-4.3l-8.5-3.2c-0.4-0.1-0.7-0.2-1.1-0.3c-0.9-0.1-1.8,0.1-2.6,0.6c-1.1,0.7-1.8,1.8-2,3.1
					c-1.2,10.8-5.9,35.9-14.5,48.5h4.7L57.9,270.3L57.9,270.3z"/>
				<path d="M47.1,270.3c1.7-6.3,3.2-11.2,3.2-11.4c0.3-1.1-0.3-2.3-1.4-2.6c-1.1-0.3-2.3,0.3-2.6,1.4c-0.1,0.4-1.8,5.8-3.5,12.6
					H47.1z"/>
				<path d="M11.8,270.3C27.4,241.9,51.9,217,51.9,217l60.8,5.8l60.8,5.8c0,0,12.4,18.6,22.5,41.8h6c-10.1-24-23-43.4-23.9-44.8
					c-0.9-1.4-2.4-2.2-4-2.4l-60.8-5.8l-60.8-5.8c-1.6-0.2-3.2,0.4-4.4,1.6c-1.5,1.5-26.9,27.5-42.4,57.1H11.8z"/>
				<g>
					<g>
						<path class="st7" d="M339.8,231c7.8-1.3,15.2-3,21.9-4.9l-10.6-8c-2.1,0.5-4.2,0.9-6.3,1.3C342.9,223.1,341.2,227,339.8,231z"
							/>
					</g>
				</g>
				<g>
					<g>
						<path class="st7" d="M268.1,232.7c6.9,1,14.4,1.6,22.4,1.8c-2-3.7-4.2-7.3-6.6-10.8c-2.1-0.1-4.2-0.2-6.4-0.4L268.1,232.7z"/>
					</g>
				</g>
				<g>
					<g>
						<g>
							<g>
								<g>
									<g>
										<g>
											<path class="st2" d="M352.4,168.4c-3.8,0.3-7.4-1.9-9-5.3L315,101.6c-2.1-4.6-0.1-10.1,4.5-12.2l65-30
												c1-0.5,2.1-0.7,3.2-0.8c4.3-0.3,8.3,2.4,9.5,6.5c20.4,69.5-26.9,96.1-41.8,102.6C354.4,168.1,353.4,168.4,352.4,168.4
												L352.4,168.4z"/>
										</g>
									</g>
									<g>
										<g>
											<path d="M387.9,61.2c3-0.2,5.8,1.6,6.7,4.6c19.5,66.6-23.9,92.3-40.3,99.4c-0.7,0.3-1.4,0.5-2.1,0.5
												c-2.6,0.2-5.2-1.3-6.4-3.8l-28.3-61.5c-1.5-3.3-0.1-7.2,3.2-8.7l65-30C386.4,61.5,387.2,61.3,387.9,61.2 M387.6,55.9
												c-1.4,0.1-2.8,0.5-4.1,1.1l-65,30c-2.9,1.3-5.1,3.7-6.2,6.7s-1,6.2,0.4,9.1l28.3,61.5c2.1,4.5,6.7,7.2,11.6,6.9
												c1.3-0.1,2.6-0.4,3.9-1c15.5-6.7,64.3-34.2,43.3-105.8C398.2,59.1,393.1,55.6,387.6,55.9L387.6,55.9z"/>
										</g>
									</g>
								</g>
							</g>
							<g>
								<g>
									<g>
										<path class="st8" d="M377.8,79.1l-47.1,21.7c-3.5,1.6-5.1,5.8-3.4,9.3l16.7,36.2c1.6,3.6,5.9,5.1,9.4,3.4
											c13.7-6.5,43.1-25.4,34.3-65.7C386.7,79.6,382,77.2,377.8,79.1z"/>
									</g>
								</g>
							</g>
						</g>
						<g>
							<g>
								<g>
									<g>
										<g>
											<path class="st2" d="M269.1,174.4c-1,0.1-2.1,0-3.1-0.3c-15.7-4.3-66.3-23.9-56-95.6c0.6-4.2,4.2-7.5,8.4-7.8
												c1.1-0.1,2.2,0,3.3,0.4l68.6,20.4c4.9,1.4,7.6,6.6,6.2,11.4l-19.3,64.9C276.1,171.5,272.9,174.1,269.1,174.4z"/>
										</g>
									</g>
									<g>
										<g>
											<path d="M218.6,73.3c0.8-0.1,1.6,0,2.3,0.3L289.5,94c3.5,1,5.4,4.7,4.4,8.2l-19.3,64.9c-0.8,2.7-3.2,4.5-5.8,4.7
												c-0.7,0.1-1.5,0-2.2-0.2c-17.3-4.7-63.9-24-54.1-92.7C213.1,75.7,215.7,73.5,218.6,73.3 M218.3,68L218.3,68
												c-5.5,0.4-10.1,4.6-10.9,10.1c-10.6,73.8,41.6,94.1,57.9,98.5c1.3,0.4,2.6,0.5,4,0.4c4.9-0.3,9.1-3.7,10.5-8.5l19.3-64.9
												c0.9-3,0.6-6.2-0.9-9s-4-4.8-7-5.7l-68.6-20.4C221.1,68.1,219.7,67.9,218.3,68L218.3,68z"/>
										</g>
									</g>
								</g>
							</g>
							<g>
								<g>
									<g>
										<path class="st8" d="M231.2,89.6l49.7,14.8c3.7,1.1,5.8,5,4.7,8.8l-11.3,38.1c-1.1,3.8-5.1,5.9-8.8,4.7
											c-14.4-4.5-46.2-19-43.3-60.1C222.4,91.4,226.8,88.3,231.2,89.6z"/>
									</g>
								</g>
							</g>
						</g>
					</g>
					<g>
						<g>
							<g>
								<path class="st2" d="M319.4,225.3c-2.9,0.2-4.7,0.3-4.9,0.3c0,0-1.8,0.2-4.7,0.4c-19.2,1.4-82.6,3.2-91.2-31.4
									c-12.1-49,13.6-87.4,32.6-100c20.8-13.9,47-16.4,52.1-16.7l1.5-0.1c5-0.4,31.3-1.6,53.9,9.1c20.6,9.8,51.5,44.1,46.5,94.4
									C401.6,216.7,338.6,223.9,319.4,225.3L319.4,225.3z"/>
							</g>
						</g>
						<g>
							<g>
								<g>
									<path d="M305,80.4c4.7-0.3,30.5-1.6,52.6,8.9c19.2,9.1,49.9,42.4,45,91.7c-3.4,33.5-65.5,40.4-83.4,41.7
										c-3,0.2-4.8,0.3-4.8,0.3s-1.7,0.2-4.8,0.4c-17.9,1.3-80.3,3.3-88.4-29.4c-11.9-48.1,13.8-85.4,31.5-97.2
										c20.3-13.5,46.1-16,50.8-16.3c0.5,0,0.7,0,0.7,0S304.5,80.4,305,80.4 M304.6,75.1c-0.4,0-0.6,0-0.7,0.1c-0.1,0-0.4,0-0.7,0
										c-5.2,0.4-32,2.9-53.4,17.2c-19.6,13.1-46.1,52.5-33.7,102.8c4,16.2,19.1,26.7,44.8,31.4c19.1,3.5,39,2.7,49.2,2
										c2.5-0.2,4.2-0.3,4.8-0.4c0.6,0,2.2-0.1,4.8-0.3c10.2-0.7,30-2.9,48.4-9c24.8-8.3,38.2-20.9,39.8-37.4
										c5.2-51.6-26.7-86.9-48-97C336.6,73.5,309.7,74.7,304.6,75.1L304.6,75.1z"/>
								</g>
							</g>
						</g>
					</g>
					<g>
						<g>
							<g>
								<g>
									<g>
										<path class="st8" d="M264.8,172.1c0.3,4-6.9,7.9-16.2,8.5c-9.2,0.7-16.9-2.1-17.2-6.1s6.9-7.9,16.2-8.5
											C256.8,165.3,264.5,168.1,264.8,172.1z"/>
									</g>
								</g>
								<g>
									<g>
										<path d="M271.5,139.5c-0.4,0-0.8-0.1-1.1-0.4l0,0c-0.3-0.2-6.2-5-14,0.5c-0.7,0.5-1.7,0.3-2.2-0.4s-0.3-1.7,0.4-2.2
											c9.8-6.9,17.7-0.4,17.8-0.4c0.7,0.5,0.7,1.5,0.2,2.2C272.3,139.3,271.9,139.5,271.5,139.5z"/>
									</g>
								</g>
								<g>
									<g>
										<g>
											<path d="M254.7,161.5c0.5,6.8,5.5,12,11.2,11.6c5.7-0.4,10-6.3,9.5-13.1s-5.5-12-11.2-11.6
												C258.5,148.8,254.2,154.7,254.7,161.5z"/>
										</g>
									</g>
								</g>
								<g>
									<g>
										<path d="M257.6,160.7c-0.3,0-0.7-0.1-1-0.3l-11.2-7.4c-0.7-0.5-0.9-1.4-0.4-2.1c0.5-0.7,1.4-0.9,2.1-0.4l11.2,7.4
											c0.7,0.5,0.9,1.4,0.4,2.1C258.5,160.4,258.1,160.7,257.6,160.7z"/>
									</g>
								</g>
							</g>
							<g>
								<g>
									<g>
										<path class="st8" d="M356.3,165.6c0.3,4,8,6.8,17.2,6.1s16.5-4.5,16.2-8.5s-8-6.8-17.2-6.1
											C363.3,157.7,356,161.5,356.3,165.6z"/>
									</g>
								</g>
								<g>
									<g>
										<path d="M345,134.3c-0.4,0-0.8-0.1-1.2-0.4c-0.6-0.6-0.7-1.5-0.1-2.2c0.1-0.1,7-7.6,17.7-2.2c0.8,0.4,1.1,1.3,0.7,2.1
											s-1.3,1.1-2.1,0.7c-8.5-4.4-13.7,1.2-13.9,1.5C345.7,134.1,345.4,134.2,345,134.3z"/>
									</g>
								</g>
								<g>
									<g>
										<g>
											<path d="M364.7,153.7c0.5,6.8-3.8,12.7-9.5,13.1c-5.7,0.4-10.8-4.8-11.2-11.6c-0.5-6.8,3.8-12.7,9.5-13.1
												C359.2,141.6,364.3,146.8,364.7,153.7z"/>
										</g>
									</g>
								</g>
								<g>
									<g>
										<path d="M361.8,153.3c-0.5,0-0.9-0.1-1.3-0.5c-0.6-0.6-0.5-1.6,0.1-2.2l10-8.9c0.6-0.6,1.6-0.5,2.2,0.1s0.5,1.6-0.1,2.2
											l-10,8.9C362.4,153.1,362.1,153.2,361.8,153.3z"/>
									</g>
								</g>
							</g>
						</g>
						<g>
							<g>
								<g>
									<path class="st8" d="M320.3,189.2c-3.3-0.3-5.6-2.2-6.9-4.7c-0.9,0.4-1.9,0.7-3.1,0.8c-0.2,0-0.4,0-0.6,0
										c-1.1,2.9-3.5,5.3-7.5,5.7c2.5,5.6,6.4,9.1,10.5,8.8s7.5-4.4,9.2-10.3C321.4,189.3,320.8,189.2,320.3,189.2z"/>
								</g>
							</g>
							<g>
								<g>
									<g>
										<path d="M327.2,192.4c-0.7,0-1.3,0.1-2,0.1c-9.2-0.1-15.4-4.9-16-12.4l-0.4-5.9c-0.1-1.1,0.8-2.1,1.9-2.2
											c1.1-0.1,2.1,0.8,2.2,1.9l0.4,5.9c0.4,6.2,6.4,8.5,11.9,8.5c8,0.1,16.7-4.4,17.4-11.8c0.1-1.1,1.1-2,2.2-1.9
											s2,1.1,1.9,2.2C346,186.1,336.5,191.8,327.2,192.4z"/>
									</g>
								</g>
								<g>
									<g>
										<path d="M297.4,194.6c-9.3,0.7-19.4-3.6-21.5-12.6c-0.3-1.1,0.4-2.2,1.5-2.5s2.2,0.4,2.5,1.5c1.7,7.3,10.9,10.4,18.9,9.2
											c5.4-0.8,11-3.9,10.5-10.1l-0.4-5.9c-0.1-1.1,0.8-2.1,1.9-2.2c1.1-0.1,2.1,0.8,2.2,1.9l0.4,5.9c0.5,7.5-5,13.2-14,14.5
											C298.7,194.4,298,194.5,297.4,194.6z"/>
									</g>
								</g>
							</g>
							<g>
								<g>
									<path class="st9" d="M321.8,165.4c0.4,5.1-4.5,9.5-10.8,10s-11.8-3.3-12.1-8.4c-0.4-5.1,4.7-5.9,11.1-6.3
										C316.3,160.2,321.5,160.3,321.8,165.4z"/>
								</g>
							</g>
						</g>
					</g>
				</g>
				<g>
					<g>
						<g>
							<g>
								<path class="st10" d="M298.7,88.7c-6.6,0.5-12.3-2.4-12.6-2.5c-0.6-0.3-1.1-0.9-1.3-1.5c-0.2-0.7-0.1-1.4,0.2-2
									c0.2-0.3,4.6-8.5,12.7-11.1c1.3-0.4,2.8-0.7,4.3-0.8c6.6-0.5,12.3,2.4,12.6,2.5c0.6,0.3,1.1,0.9,1.3,1.5
									c0.2,0.7,0.1,1.4-0.2,2c-0.2,0.3-4.6,8.5-12.7,11.1C301.6,88.4,300.2,88.6,298.7,88.7L298.7,88.7z"/>
							</g>
						</g>
						<g>
							<g>
								<path d="M302.2,73.3c5.9-0.4,11.2,2.2,11.2,2.2s-4,7.6-11.2,9.9c-1.2,0.4-2.5,0.6-3.7,0.7c-5.9,0.4-11.2-2.2-11.2-2.2
									s4-7.6,11.2-9.9C299.8,73.6,301,73.4,302.2,73.3 M301.8,68.2c-1.7,0.1-3.3,0.4-4.9,0.9c-9,2.9-13.7,11.4-14.2,12.4
									c-0.7,1.2-0.8,2.7-0.4,4s1.4,2.4,2.6,3c0.7,0.3,6.8,3.3,13.9,2.8c1.7-0.1,3.3-0.4,4.9-0.9c9-2.9,13.7-11.4,14.2-12.4
									c0.7-1.2,0.8-2.7,0.4-4s-1.4-2.4-2.6-3C315.1,70.6,309,67.7,301.8,68.2L301.8,68.2z"/>
							</g>
						</g>
					</g>
					<g>
						<g>
							<g>
								<path class="st10" d="M312.6,79.4c-3.7,0.3-9,0-13.8-2.6c-8.5-4.7-11.7-14.8-11.9-15.3c-0.2-0.7-0.1-1.4,0.2-2
									c0.3-0.6,0.9-1.1,1.6-1.3c0.1,0,2.3-0.6,5.4-0.9c3.7-0.3,9,0,13.8,2.6c8.5,4.7,11.7,14.8,11.9,15.3c0.2,0.7,0.1,1.4-0.2,2
									c-0.3,0.6-0.9,1.1-1.6,1.3C318,78.6,315.8,79.2,312.6,79.4L312.6,79.4z"/>
							</g>
						</g>
						<g>
							<g>
								<path d="M294.3,60c3.5-0.2,8.2,0,12.4,2.3c7.7,4.2,10.6,13.7,10.6,13.7s-2,0.6-4.9,0.8c-3.5,0.2-8.2,0-12.4-2.3
									c-7.7-4.2-10.6-13.7-10.6-13.7S291.4,60.2,294.3,60 M294,54.9c-3.3,0.2-5.7,0.9-6,1c-1.3,0.4-2.5,1.3-3.1,2.5
									c-0.7,1.2-0.8,2.7-0.4,4c0.1,0.5,3.6,11.6,13.1,16.8c5.4,2.9,11.2,3.2,15.2,2.9c3.3-0.2,5.7-0.9,6-1
									c1.3-0.4,2.5-1.3,3.1-2.5c0.7-1.2,0.8-2.7,0.4-4c-0.1-0.5-3.6-11.6-13.1-16.8C303.8,54.9,298,54.6,294,54.9L294,54.9z"/>
							</g>
						</g>
					</g>
					<g>
						<g>
							<g>
								<path class="st8" d="M348.3,100.3c-5,0.4-10.3-2.5-13.6-7.4c-0.1,0.2-0.3,0.3-0.4,0.5c-3.1,3.6-7.2,5.9-11.4,6.2
									c-3.1,0.2-6-0.7-8.1-2.5c-5.2-4.4-5.2-13.1-0.1-19.5h-0.1c-7.9-3.2-12.2-11-9.6-17.5c1.7-4.2,5.8-6.9,11-7.2
									c2.6-0.2,5.3,0.2,7.9,1.3c0-0.1,0-0.2,0-0.3c0.6-7.8,5.8-14.1,12.2-14.5c0.5,0,1,0,1.5,0c6.7,0.5,11.8,7.4,11.5,15.5
									c0.2-0.1,0.4-0.1,0.7-0.2c1.1-0.3,2.1-0.4,3.2-0.5c7.1-0.5,13.4,3.3,14.8,9c0.8,3.4,0,6.9-2.4,9.9c-2.3,2.9-5.6,5.1-9.6,6
									l0,0c4.4,7.2,3.2,16-2.6,19.6C351.8,99.6,350.1,100.2,348.3,100.3z M332.5,72.8c0.7,0.1,1.1,0.2,1.2,0.2
									c0.7,0.1,1.3,0.6,1.5,1.3c0,0,0.1,0.2,0.2,0.6c0.4-1,0.7-1.5,0.8-1.6c0.3-0.6,1-1,1.6-1.1c0,0,0,0,0.1,0s0.5,0,1.2,0
									c-0.5-0.4-0.7-0.7-0.8-0.8c-0.5-0.5-0.7-1.3-0.5-1.9c0,0,0.1-0.2,0.2-0.5c-0.9,0.5-1.5,0.8-1.6,0.9
									c-0.2,0.1-0.5,0.2-0.7,0.2c-0.4,0-0.9-0.1-1.3-0.3c0,0-0.4-0.3-0.9-0.7c0.2,0.9,0.3,1.5,0.3,1.5c0.1,0.7-0.2,1.4-0.8,1.9
									C333,72.4,332.8,72.6,332.5,72.8z"/>
							</g>
						</g>
					</g>
					<g>
						<g>
							<path class="st6" d="M334.3,57.4c0.7,0,1.4,0,2,0c7.9,0.6,13.8,7.4,13.3,15.3c-0.5,7.2-6.3,12.8-13.3,13.3c-0.7,0-1.4,0-2,0
								c-7.9-0.6-13.8-7.4-13.3-15.3C321.5,63.4,327.3,57.9,334.3,57.4"/>
						</g>
					</g>
					<g>
						<g>
							<path d="M336.3,41.3c0.4,0,0.8,0,1.2,0c5.8,0.4,10.1,6.7,9.6,14.1c-0.1,1.3-0.5,2.6-1.2,3.7c1.3-1.2,2.7-2.2,4.4-2.6
								c1-0.2,1.9-0.4,2.9-0.5c6.1-0.4,11.5,2.6,12.7,7.5c1.4,5.7-3.3,11.7-10.5,13.5c-0.5,0.1-0.9,0.2-1.4,0.2
								c-1,0.1-2.1,0-3.1-0.3c1.3,0.8,2.4,1.7,3.2,3c3.9,6.3,3.1,13.9-1.9,17c-1.2,0.8-2.6,1.2-4,1.3c-4.3,0.3-9.1-2.3-12.1-7
								c-0.7-1.2-1.1-2.5-1.3-3.9c-0.3,1.7-0.9,3.4-2,4.7c-2.8,3.3-6.5,5.2-10,5.5c-2.5,0.2-4.8-0.5-6.7-2
								c-4.5-3.8-4.2-11.4,0.5-17.1c0.8-1,1.8-1.7,2.9-2.2c-1.4,0.1-2.8,0-4.2-0.6c-6.9-2.8-10.6-9.4-8.5-14.8c1.4-3.5,5-5.7,9.3-6
								c2.3-0.2,4.7,0.2,7.1,1.2c1.5,0.6,2.7,1.6,3.8,2.9c-0.8-1.6-1.2-3.3-1.1-5C326.5,47,331,41.6,336.3,41.3 M325.2,74.7
								c0.3,0,0.5-0.1,0.8-0.1c3.9-0.3,7.3,0.4,7.3,0.4s1.4,3.7,1.7,8c0.8-4.6,3-8.7,3-8.7s4.3-0.2,8.5,1c-3.8-2.1-6.7-5.2-6.7-5.2
								s1-3.7,3.2-7.3c-3.3,3.3-7.5,5.3-7.5,5.3s-3.7-2.5-6.6-6.1c2.1,4.2,2.7,8.9,2.7,8.9S328.9,73.1,325.2,74.7 M336,37.2
								L336,37.2c-6.8,0.5-12.4,6.4-13.8,14.1c-2.1-0.5-4.2-0.7-6.3-0.6c-5.9,0.4-10.8,3.7-12.7,8.5c-1.5,3.7-1.1,8.1,1.1,11.9
								c1.7,2.9,4.3,5.4,7.4,7.2c-4.3,7-3.7,15.7,1.8,20.3c2.6,2.2,6,3.2,9.6,3c4.2-0.3,8.3-2.3,11.6-5.5c3.7,4.2,8.8,6.6,13.8,6.3
								c2.1-0.2,4.1-0.8,5.9-1.9c3.4-2.1,5.7-5.9,6.2-10.3c0.4-3.3-0.2-6.7-1.7-9.9c3.3-1.3,6.2-3.3,8.3-6c2.7-3.5,3.7-7.8,2.7-11.7
								c-1.7-6.8-8.7-11.2-16.9-10.6c-0.6,0-1.2,0.1-1.8,0.2c-0.8-8.1-6.3-14.5-13.3-15C337.2,37.2,336.6,37.2,336,37.2L336,37.2z"
								/>
						</g>
					</g>
				</g>
				<g>
					<g>
						<g>
							<g>
								<g>
									<path class="st4" d="M102.8,100.5c0.7,0.1,1.4-0.2,1.9-0.6c0.5-0.5,0.9-1.1,0.9-1.8l7.4-87.5c0.1-0.8-0.2-1.5-0.8-2.1
										c-0.4-0.4-1-0.7-1.6-0.8c-0.2,0-0.3,0-0.5,0c-58.6,4.7-58.9,85.2-58.9,86c0,1.4,1,2.5,2.4,2.6
										C53.8,96.4,102.8,100.5,102.8,100.5z"/>
								</g>
							</g>
							<g>
								<g>
									<path d="M110.5,10.4L103,97.9l-49-4.2C54,93.7,53.6,14.9,110.5,10.4 M111,5.1c-0.3,0-0.6,0-0.9,0C84.6,7.1,65.9,23.4,56,52
										c-7.2,20.9-7.2,40.9-7.2,41.7c0,2.7,2.1,5,4.8,5.3c0,0,0,0,0.1,0l49,4.2c1.4,0.1,2.8-0.3,3.9-1.2c1.1-0.9,1.7-2.2,1.9-3.6
										l7.4-87.5c0.1-1.6-0.4-3.1-1.5-4.2C113.3,5.7,112.2,5.2,111,5.1L111,5.1z"/>
								</g>
							</g>
						</g>
						<g>
							<g>
								<g>
									<path class="st6" d="M102.8,100c0.6,0,1.1-0.1,1.5-0.5s0.7-0.9,0.7-1.4l7.5-87.7c0.1-0.6-0.2-1.3-0.6-1.7
										c-0.3-0.3-0.8-0.5-1.3-0.6c-0.2,0-0.3,0-0.5,0c-34,4.4-39.5,83.7-39.7,87.1c-0.1,1.1,0.8,2.1,1.9,2.3
										C72.4,97.4,102.8,100,102.8,100z"/>
								</g>
							</g>
							<g>
								<g>
									<path d="M110.5,10.2L103,97.9l-30.4-2.6C72.6,95.3,77.8,14.5,110.5,10.2 M110.9,6c-0.3,0-0.6,0-1,0
										C94.5,8,82.8,23.9,75.2,53.3c-5.4,20.9-6.7,40.9-6.8,41.7c-0.1,2.3,1.6,4.3,3.8,4.5l0,0l30.4,2.6c1.1,0.1,2.2-0.3,3.1-1
										s1.4-1.8,1.5-2.9l7.5-87.7c0.1-1.3-0.4-2.5-1.3-3.4C112.7,6.5,111.8,6.1,110.9,6L110.9,6z"/>
								</g>
							</g>
						</g>
					</g>
					<g>
						<g>
							<g>
								<g>
									<path class="st4" d="M194.2,109.7c1.4,0.1,2.6-0.8,2.9-2.1c0.2-0.8,15-79.9-41.7-95.5c-0.2,0-0.3-0.1-0.5-0.1
										c-0.6-0.1-1.2,0.1-1.7,0.5c-0.6,0.4-1.1,1.1-1.1,1.9l-9.1,87.4c-0.1,0.7,0.1,1.4,0.6,1.9c0.4,0.5,1.1,0.9,1.8,1
										C145.3,104.6,194.2,109.7,194.2,109.7z"/>
								</g>
							</g>
							<g>
								<g>
									<path d="M154.7,14.6c55,15.1,39.8,92.5,39.8,92.5l-48.9-5.1L154.7,14.6 M155.2,9.3c-1.2-0.1-2.5,0.2-3.5,0.9
										c-1.3,0.9-2.1,2.3-2.3,3.8l-9.1,87.4c-0.1,1.4,0.3,2.8,1.2,3.9s2.2,1.8,3.6,1.9l48.9,5.1c0,0,0,0,0.1,0
										c2.7,0.3,5.2-1.6,5.7-4.3c0.2-0.8,3.9-20.5,0.8-42.3c-4.3-30-19.7-49.5-44.4-56.3C155.8,9.4,155.5,9.3,155.2,9.3L155.2,9.3
										z"/>
								</g>
							</g>
						</g>
						<g>
							<g>
								<g>
									<path class="st6" d="M175.7,107.2c1.1,0.1,2.2-0.7,2.3-1.8c0.4-3.4,9.9-82.2-22.7-93c-0.2,0-0.3-0.1-0.5-0.1
										c-0.5,0-0.9,0.1-1.4,0.3c-0.5,0.3-0.9,0.9-1,1.6l-9.1,87.5c-0.1,0.6,0.1,1.1,0.5,1.6s0.9,0.7,1.4,0.8
										C145.3,104,175.7,107.2,175.7,107.2z"/>
								</g>
							</g>
							<g>
								<g>
									<g>
										<path d="M154.7,14.4c31.3,10.3,21.2,90.7,21.2,90.7l-30.3-3.2L154.7,14.4 M155.1,10.2c-0.9-0.1-1.9,0.1-2.7,0.7
											c-1.1,0.7-1.8,1.8-1.9,3.1l-9.1,87.5c-0.1,1.1,0.2,2.2,0.9,3.1s1.7,1.4,2.9,1.5l30.3,3.2l0,0c2.3,0.2,4.3-1.4,4.6-3.7
											c0.1-0.8,2.6-20.7,1.2-42.3c-2-30.3-10.5-48.1-25.2-53C155.7,10.3,155.4,10.2,155.1,10.2L155.1,10.2z"/>
									</g>
								</g>
							</g>
						</g>
					</g>
				</g>
				<g>
					<g>
						<g>
							<path class="st4" d="M111.2,238.6c27.6,2.6,53.8-3,73.8-15.7c20.8-13.2,33.5-33.4,35.7-56.8c4.8-50.8-38.5-99.8-92.7-105
								S22,96,17.2,146.7c-2.2,23.4,6.4,45.6,24.4,62.5C58.9,225.5,83.6,235.9,111.2,238.6z"/>
						</g>
					</g>
					<g>
						<g>
							<path d="M127.7,63.8c54.7,5.2,94.8,54.5,90.3,102s-51.9,75.3-106.6,70.2c-54.7-5.2-96.1-41.4-91.6-88.9
								C24.3,99.4,73,58.6,127.7,63.8 M128.2,58.5c-27.4-2.6-54.6,5.6-76.6,23c-21.2,16.8-34.8,40.6-37.1,65
								c-2.3,24.3,6.7,47.2,25.2,64.7c17.7,16.7,43,27.3,71.1,30c28.2,2.7,55-3.1,75.5-16.1c21.5-13.7,34.6-34.6,36.9-58.8
								c2.3-24.5-6.5-50.3-24.2-70.8C180.8,74.2,155.6,61.1,128.2,58.5L128.2,58.5z"/>
						</g>
					</g>
				</g>
				<g>
					<g>
						<path class="st6" d="M135.7,100.9c-4.4,46.3,26.4,87.8,70.5,97.9c6.5-9.5,10.6-20.6,11.8-33.1c4-42.2-27.1-85.7-72.4-98.6
							C140.3,77.4,136.9,88.8,135.7,100.9z"/>
					</g>
				</g>
				<g>
					<g>
						<path class="st6" d="M19.8,147c-1.2,12.5,0.8,24.2,5.3,34.7c33.2-1.2,62.6-20.4,77.5-48.9c-5.3-3.1-8.6-9.1-8-15.7
							c0.8-9,8.8-15.6,17.7-14.7c0.2-1.2,0.3-2.4,0.4-3.7c1.2-12.2-0.1-24-3.4-35.1l0,0C62.5,67.9,23.8,104.8,19.8,147z"/>
					</g>
				</g>
				<g>
					<g>
						<g>
							<path class="st9" d="M165.1,182.9c-0.7,7.3,4.7,13.8,12,14.5s13.8-4.7,14.5-12s-4.7-13.8-12-14.5S165.8,175.6,165.1,182.9z"
								/>
						</g>
					</g>
					<g>
						<g>
							<path class="st9" d="M42.2,171.2c-0.7,7.3,4.7,13.8,12,14.5s13.8-4.7,14.5-12s-4.7-13.8-12-14.5
								C49.3,158.5,42.8,163.9,42.2,171.2z"/>
						</g>
					</g>
				</g>
				<g>
					<g>
						<g>
							<line class="st11" x1="181.9" y1="112.2" x2="153.7" y2="130.9"/>
						</g>
						<g>
							<path d="M153.3,135.1c0.9,0.1,1.9-0.1,2.7-0.7l28.2-18.7c2-1.3,2.5-3.9,1.2-5.9s-3.9-2.5-5.9-1.2l-28.2,18.7
								c-2,1.3-2.5,3.9-1.2,5.9C150.9,134.4,152.1,135,153.3,135.1z"/>
						</g>
					</g>
					<g>
						<g>
							<line class="st11" x1="65.4" y1="101.2" x2="89.5" y2="124.8"/>
						</g>
						<g>
							<path d="M89.1,129.1c1.2,0.1,2.5-0.3,3.4-1.3c1.6-1.7,1.6-4.4-0.1-6L68.3,98.2c-1.7-1.6-4.4-1.6-6,0.1s-1.6,4.4,0.1,6
								l24.2,23.6C87.3,128.6,88.2,129,89.1,129.1z"/>
						</g>
					</g>
				</g>
				<g>
					<g>
						<g>
							<g>
								<path d="M160,150.1c-0.9,9.4,2.3,17.4,7.1,17.8c4.8,0.5,9.4-6.8,10.3-16.2c0.9-9.4-2.3-17.4-7.1-17.8S160.8,140.7,160,150.1
									z"/>
							</g>
						</g>
						<g>
							<g>
								<path d="M62.4,140.9c-0.9,9.4,2.3,17.4,7.1,17.8c4.8,0.5,9.4-6.8,10.3-16.2s-2.3-17.4-7.1-17.8
									C67.9,124.2,63.2,131.5,62.4,140.9z"/>
							</g>
						</g>
					</g>
					<g>
						<g>
							<g>
								<path d="M101.6,161.4c-0.7,7.1,6.3,13.6,15.5,14.5s17.3-4.2,18-11.3c0.7-7.1-6.3-13.6-15.5-14.5
									C110.3,149.2,102.2,154.3,101.6,161.4z"/>
							</g>
						</g>
						<g>
							<g>
								<path d="M130.6,213.2c4.1,0.4,8.5-0.6,12.2-2.9c7-4.3,10.5-12.1,9.6-21.3c-0.1-1.2-1.1-2-2.3-1.9s-2,1.1-1.9,2.3
									c0.7,7.6-2.1,13.9-7.6,17.3c-4.9,3-11,3.1-15.6,0.3c-5.4-3.3-7.9-10.1-7-19l1.1-12c0.1-1.2-0.7-2.2-1.9-2.3
									c-1.2-0.1-2.2,0.7-2.3,1.9l-1.1,12c-1.4,14.3,5.1,20.6,9,23C125.2,212.1,127.9,213,130.6,213.2z"/>
							</g>
						</g>
						<g>
							<g>
								<path d="M96.8,210c2.8,0.3,5.5-0.1,8.1-1.1c4.3-1.7,11.8-6.6,13.2-20.9l1.1-12c0.1-1.2-0.7-2.2-1.9-2.3
									c-1.2-0.1-2.2,0.7-2.3,1.9l-1.1,12c-0.8,8.9-4.6,15.1-10.5,17.4c-5,1.9-11,0.7-15.2-3.2c-4.8-4.4-6.3-11.1-4.2-18.4
									c0.3-1.1-0.3-2.3-1.5-2.6c-1.1-0.3-2.3,0.3-2.6,1.5c-2.6,8.9-0.6,17.2,5.4,22.7C88.5,207.9,92.6,209.6,96.8,210z"/>
							</g>
						</g>
					</g>
				</g>
				<g>
					<g>
						<g>
							<path d="M205.6,231c0.2-0.7,0.5-1.4,0.9-2.1c4-8,13.8-11.2,21.7-7.2c7.3,3.7,10.6,12.1,8.1,19.6c-0.2,0.7-0.5,1.4-0.9,2.1
								c-4,8-13.8,11.2-21.7,7.2C206.4,246.9,203,238.5,205.6,231 M198.7,228.7L198.7,228.7c-3.7,11,1.3,23.2,11.7,28.4
								c11.6,5.8,25.7,1.1,31.5-10.4c0.5-1,0.9-2,1.3-3.1c3.7-11-1.3-23.2-11.7-28.4c-11.6-5.8-25.7-1.1-31.5,10.4
								C199.5,226.6,199,227.6,198.7,228.7L198.7,228.7z"/>
						</g>
					</g>
				</g>
				<path class="st9" d="M361.7,270.3l-2.3-3.9l22-25.4c0.4-0.4,0.5-1,0.5-1.5c-0.1-0.6-0.4-1.1-0.8-1.4l-32.9-24.6
					c-0.4-0.3-0.9-0.4-1.4-0.4c-0.1,0-0.2,0-0.3,0c-0.6,0.1-1.1,0.5-1.4,1l-0.2,0.3c-9.4,17.2-14.3,36.4-14.4,55.9L361.7,270.3
					L361.7,270.3z"/>
				<path class="st9" d="M273.7,270.3h31.1c-3.1-18.6-10.5-36.2-21.9-51.4l-0.2-0.3c-0.4-0.5-0.9-0.8-1.5-0.8c-0.1,0-0.2,0-0.3,0
					c-0.5,0-0.9,0.2-1.3,0.6l-29,29c-0.4,0.4-0.6,0.9-0.6,1.5s0.3,1.1,0.7,1.5L273.7,270.3z"/>
				<path d="M270.6,270.3h6.2L252,248.8l29-29l0.2,0.3c11.1,14.8,18.4,32.1,21.5,50.2h4.1c-3.1-19.1-10.7-37.1-22.4-52.7l-0.2-0.3
					c-0.7-0.9-1.8-1.5-3-1.6c-0.2,0-0.4,0-0.6,0c-1,0.1-1.9,0.5-2.6,1.2l-29,29c-0.8,0.8-1.2,1.9-1.2,3s0.5,2.2,1.4,2.9L270.6,270.3
					z"/>
				<path d="M148.4,270.3H160c-0.7-0.4-1.4-0.9-2-1.4c-1.4-1.1-2.5-2.3-3.5-3.7c-4.7-6.5-5-14.7-5-14.7s12.6-1.6,20.7,4.8
					c1.4,1.1,2.5,2.3,3.5,3.7c2.8,3.8,4.1,8.3,4.6,11.3h7.8c-0.4-3.5-1.8-10.2-6-16c-1.4-1.9-2.9-3.5-4.6-4.9c-10-8-24.4-6.4-26-6.2
					c-2,0.3-4,1.3-5.4,2.9c-1.4,1.6-2.2,3.6-2.1,5.5c0,1,0.6,10.5,6.2,18.3C148.2,270,148.3,270.2,148.4,270.3z"/>
				<path d="M236.4,270.3c0.5-0.6,1.1-1.3,1.7-2.1c3.2-3.6,8.2-8.1,14.7-9.9c11.9-3.4,24.2,3.3,24.2,3.3s-1.5,2.5-4.2,5.6
					c-0.9,1-1.8,2-2.9,3h9.9c2.2-2.7,3.4-4.7,3.5-5c1-1.7,1.2-3.7,0.7-5.6s-1.8-3.5-3.5-4.4c-0.6-0.3-15.1-8.1-29.6-4
					c-8.3,2.3-14.4,7.8-18.2,12c-3.1,3.5-4.9,6.5-5,6.8c0,0,0,0.1-0.1,0.1h8.8V270.3z"/>
				<path class="st10" d="M275,270.3c0.2-0.2,0.4-0.4,0.5-0.6c2.9-3.3,4.5-6.1,4.6-6.2c0.5-0.8,0.6-1.9,0.3-2.8
					c-0.3-0.9-0.9-1.7-1.8-2.2c-0.6-0.3-13.7-7.4-26.9-3.7c-7.4,2.1-13,7.1-16.4,11c-1.6,1.8-2.7,3.4-3.5,4.5H275z"/>
				<path class="st10" d="M153.6,270.3h28.5c-0.5-3.3-1.8-8.9-5.3-13.6c-1.2-1.6-2.6-3.1-4.1-4.3c-9.1-7.2-22.7-5.6-23.3-5.5
					c-1,0.1-2,0.6-2.7,1.4c-0.7,0.8-1.1,1.8-1,2.8c0,0.4,0.4,9.3,5.6,16.5C152,268.6,152.8,269.5,153.6,270.3z"/>
				<path class="st12" d="M187.6,240.1c0.1,0.1,0.2,0.1,0.4,0.2c-2.7,2.8-4.7,6.1-5.9,9.5c-2.3,6.9-1.1,13.7,3.4,18.2
					c0.9,0.9,1.9,1.6,3,2.3H206c2.6-1.2,5.2-3,7.4-5.2l0.1-0.1c1.1,2,2.4,3.8,3.9,5.3h27.2c0.8-1.2,1.5-2.6,2-4
					c1.9-5.6,1.2-12.3-1.8-18.2c-0.1-0.3-0.3-0.5-0.4-0.8c8.1-1.6,14.7-6.9,17-13.6c0.8-2.4,1-4.8,0.6-7.3c-1.6-9.6-12.3-15.8-24-14
					l0,0c0.9-5.6-0.1-11.2-2.6-15.7c-2.7-4.7-6.8-7.7-11.6-8.4c-8.2-1.3-16.5,4.8-19.7,14.3c-0.5,1.4-0.8,2.9-1.1,4.5
					c0,0.3-0.1,0.6-0.1,1c-10.4-4.7-22.1-1.9-26.4,6.6c-0.3,0.6-0.6,1.3-0.8,1.9C172.5,224.9,177.7,235.1,187.6,240.1z M213.9,235
					c0.5-0.4,0.9-0.9,1.1-1.5c0.1-0.3,0.2-0.7,0.1-1.1c0-0.1-0.1-1.1-0.2-2.5c0.3,0.3,0.5,0.4,0.6,0.5c0.8,0.6,1.8,0.8,2.8,0.4
					c0.1,0,0.6-0.2,1.4-0.6c-0.4,0.9-0.6,1.5-0.7,1.6v0.1c-0.3,0.9-0.1,1.9,0.5,2.7c0.1,0.1,0.7,0.8,1.7,1.9c-0.5,0-0.8-0.1-0.9-0.1
					c-1,0-2,0.5-2.5,1.3c0,0.1-0.4,0.6-0.9,1.4c-0.1-0.5-0.2-0.9-0.2-0.9c-0.3-1-1-1.7-2-2c-0.1,0-0.9-0.2-2.1-0.5
					C213.4,235.4,213.9,235.1,213.9,235z"/>
				<g>
					<path d="M213.9,239.3c0,0,1.4,5,1.5,10.7c0.1-0.4,0.2-0.7,0.3-1.1c1.8-5.2,4.4-9.3,4.4-9.3s5.6,0.2,11.3,2.1
						c-5.6-3.5-9.7-8.6-9.7-8.6s2.1-5.6,5.9-10.6c-4.9,3.8-10.3,5.9-10.3,5.9s-4.3-3.4-7.7-8.1c2.4,6.1,2.8,12.6,2.8,12.6
						s-5.2,3.5-11.4,5.2C207.5,237.6,213.9,239.3,213.9,239.3z"/>
					<path d="M183.5,241.2c-1.8,2.4-3.2,5.1-4.2,7.8c-2.7,7.9-1.1,16,4.1,21.1c0.1,0.1,0.2,0.2,0.3,0.2h27.9
						c0.4-0.3,0.8-0.6,1.2-0.9c0.2,0.3,0.5,0.6,0.7,0.9h7.9c-2.3-1.9-4.3-4.3-5.9-7.3c-0.8-1.6-1.2-3.3-1.3-5
						c-0.6,1.9-1.6,3.7-3,5.1c-7.3,7.4-18,8.7-23.8,2.9c-3.8-3.8-4.6-9.6-2.7-15.2c1-3,2.8-6,5.4-8.6c1.6-1.6,3.6-2.6,5.8-3.3
						c-2.5,0.1-4.9-0.2-7-1.3c-8.6-4.3-13.2-13.1-10.8-20.2c0.2-0.5,0.4-1,0.6-1.6c3.7-7.3,14.2-9.5,23.5-4.8
						c1.7,0.8,3.1,2.1,4.2,3.5c-0.9-2.3-1.3-4.7-1-7.1c0.2-1.4,0.5-2.7,1-4c2.7-8.1,9.6-13.5,16.6-12.4c8.1,1.2,13.4,10.6,11.9,20.9
						c-0.1,0.7-0.3,1.3-0.5,1.9c-0.5,1.4-1.2,2.7-2.1,3.9c1.7-1.2,3.5-2.1,5.6-2.5c10.3-1.7,19.7,3.5,21,11.6c0.3,2,0.1,4-0.5,5.9
						c-1.9,5.8-7.9,10.6-15.7,11.8c-1.9,0.3-3.8,0.1-5.7-0.4c2.1,1.3,3.9,3,5,5.2c2.8,5.4,3.2,11.3,1.7,16c-0.6,1.9-1.7,3.6-3,5h6.9
						c0.5-1,1.1-2.1,1.5-3.2c1.9-5.6,1.5-12-0.9-18c7.5-2.5,13.4-7.9,15.6-14.5c1-2.8,1.2-5.7,0.7-8.6c-0.9-5.6-4.6-10.5-10-13.6
						c-4-2.2-8.8-3.3-13.7-3.2c0.2-5-1-9.9-3.3-14c-3.1-5.4-8.1-9-13.7-9.9c-9.7-1.5-19.1,5.2-22.9,16.2c-0.3,0.8-0.5,1.6-0.7,2.4
						c-10.9-3.4-22.2,0.3-26.7,9.2c-0.4,0.7-0.7,1.5-1,2.3l0,0C169.6,224.7,174.2,235.2,183.5,241.2z"/>
				</g>
				<path d="M332.7,270.3c0.1-19.2,5-38,14.2-54.9l0.2-0.3l32.9,24.6l-23,26.5l2.4,4.1h4.7l-2.2-3.7l21.1-24.3c0.7-0.9,1.1-2,1-3.1
					s-0.7-2.1-1.6-2.8l-32.9-24.6c-0.8-0.6-1.8-0.9-2.7-0.8c-0.2,0-0.4,0-0.6,0.1c-1.2,0.3-2.1,1-2.7,2l-0.2,0.3
					c-9.6,17.5-14.6,37-14.7,56.9H332.7z"/>
			</g>
		</g>
	</g>
</g>
</svg>
