<svg xmlns="http://www.w3.org/2000/svg" viewBox="0 0 428 306">
  <defs>
    <style>
      .cls-1 {
        fill: #fff4ec;
      }

      .cls-2 {
        fill: #fad558;
      }

      .cls-3 {
        fill: #fa9898;
      }

      .cls-4 {
        fill: #fff;
      }

      .cls-5 {
        fill: none;
      }
    </style>
  </defs>
  <path class="cls-1"
    d="M186.23,150.29a3.45,3.45,0,0,1,3.42,3.49l-1.09,114.34a3.45,3.45,0,0,1-3.46,3.42,3,3,0,0,1-.6-.05c-75.43-13.27-65.86-117.65-65.75-118.7a3.45,3.45,0,0,1,3.44-3.11Z"
    transform="translate(0 31)" />
  <path
    d="M185.1,268.09c-73.15-12.87-62.91-115-62.91-115l64,.62-1.1,114.34m0,6.91a6.91,6.91,0,0,0,6.91-6.84l1.1-114.35a6.91,6.91,0,0,0-6.84-7l-64-.62h-.06a6.92,6.92,0,0,0-6.88,6.22,181.75,181.75,0,0,0,4.19,55c9.31,38.37,31.58,61.7,64.4,67.48a6.94,6.94,0,0,0,1.2.1Z"
    transform="translate(0 31)" />
  <path class="cls-2"
    d="M186.23,151a2.78,2.78,0,0,1,1.94.83,2.74,2.74,0,0,1,.79,2l-1.1,114.53a2.77,2.77,0,0,1-2.76,2.74,3.27,3.27,0,0,1-.62-.07c-43.53-9.93-40.89-113.3-40.76-117.7a2.76,2.76,0,0,1,2.76-2.68Z"
    transform="translate(0 31)" />
  <path
    d="M185.1,268.28c-41.82-9.54-38.62-114.91-38.62-114.91l39.72.38-1.1,114.53m0,5.53a5.53,5.53,0,0,0,5.53-5.47l1.1-114.54a5.53,5.53,0,0,0-5.48-5.58l-39.72-.38h-.05A5.53,5.53,0,0,0,141,153.2a324,324,0,0,0,3.69,54.92c6.27,39,19.46,61.05,39.22,65.55a5.16,5.16,0,0,0,1.23.14Z"
    transform="translate(0 31)" />
  <path class="cls-1"
    d="M305.81,149.68a3.45,3.45,0,0,1,3.44,3.11c.11,1.05,9.68,105.43-65.75,118.7a3,3,0,0,1-.6.05,3.45,3.45,0,0,1-3.46-3.42l-1.09-114.34a3.45,3.45,0,0,1,3.42-3.49Z"
    transform="translate(0 31)" />
  <path
    d="M242.9,268.09l-1.1-114.34,64-.62s10.24,102.09-62.91,115m0,6.91a6.94,6.94,0,0,0,1.2-.1c32.82-5.78,55.09-29.11,64.4-67.48a181.75,181.75,0,0,0,4.19-55,6.92,6.92,0,0,0-6.88-6.22h-.06l-64,.62a6.91,6.91,0,0,0-6.84,7L236,268.16A6.91,6.91,0,0,0,242.9,275Z"
    transform="translate(0 31)" />
  <path class="cls-2"
    d="M281.52,150.6a2.76,2.76,0,0,1,2.76,2.68c.14,4.4,2.77,107.77-40.76,117.7a3.27,3.27,0,0,1-.62.07,2.76,2.76,0,0,1-1.71-.6,2.72,2.72,0,0,1-1.05-2.14L239,153.78a2.77,2.77,0,0,1,2.74-2.8Z"
    transform="translate(0 31)" />
  <path
    d="M242.9,268.28l-1.1-114.53,39.72-.38s3.2,105.37-38.62,114.91m0,5.53a5.16,5.16,0,0,0,1.23-.14c19.76-4.5,32.95-26.56,39.22-65.55A324,324,0,0,0,287,153.2a5.53,5.53,0,0,0-5.52-5.36h0l-39.72.38a5.53,5.53,0,0,0-5.48,5.58l1.1,114.54a5.53,5.53,0,0,0,5.53,5.47Z"
    transform="translate(0 31)" />
  <path class="cls-1"
    d="M214-27.55c36.05,0,69.35,10.45,93.75,29.43,25.33,19.7,39.29,47.41,39.29,78,0,66.35-62.17,124.55-133,124.55S81,146.27,81,79.92c0-30.63,14-58.34,39.28-78C144.65-17.1,178-27.55,214-27.55Z"
    transform="translate(0 31)" />
  <path
    d="M214,201C142.44,201,84.42,142.08,84.42,79.92s58-104,129.58-104,129.58,41.85,129.58,104S285.56,201,214,201m0,6.92a138.77,138.77,0,0,0,96.41-39.17c25.47-24.44,40.08-56.82,40.08-88.84,0-31.72-14.43-60.4-40.62-80.77C284.86-20.29,250.82-31,214-31S143.14-20.29,118.13-.85C91.94,19.52,77.51,48.2,77.51,79.92c0,32,14.61,64.4,40.08,88.84A138.77,138.77,0,0,0,214,207.93Z"
    transform="translate(0 31)" />
  <path class="cls-2"
    d="M228.93,153.82A119.31,119.31,0,0,1,332.37,35.55a91.18,91.18,0,0,1,11.2,44.37c0,55.15-45.61,107.73-105.88,118.9A119.31,119.31,0,0,1,228.93,153.82Z"
    transform="translate(0 31)" />
  <path class="cls-2"
    d="M84.43,79.92a91.18,91.18,0,0,1,11.2-44.37,119.4,119.4,0,0,1,94.49,72.85A21.3,21.3,0,0,0,199,149c.09,1.57.11,3.2.11,4.81a119.31,119.31,0,0,1-8.76,45h0C130,187.62,84.43,135.07,84.43,79.92Z"
    transform="translate(0 31)" />
  <path class="cls-3" d="M277.07,51.25a17.31,17.31,0,1,1,17.31,17.31A17.31,17.31,0,0,1,277.07,51.25Z"
    transform="translate(0 31)" />
  <path class="cls-3" d="M116.31,51.25a17.31,17.31,0,1,1,17.31,17.31A17.31,17.31,0,0,1,116.31,51.25Z"
    transform="translate(0 31)" />
  <line class="cls-4" x1="125.21" y1="158.87" x2="165.82" y2="175.85" />
  <path
    d="M125.22,122.34a5.55,5.55,0,0,1,2.13.43l40.6,17a5.53,5.53,0,0,1-4.26,10.2l-40.61-17a5.53,5.53,0,0,1,2.14-10.63Z"
    transform="translate(0 31)" />
  <line class="cls-4" x1="302.79" y1="158.87" x2="262.18" y2="175.85" />
  <path
    d="M302.78,122.34A5.53,5.53,0,0,1,304.92,133l-40.61,17a5.53,5.53,0,0,1-4.26-10.2l40.6-17A5.55,5.55,0,0,1,302.78,122.34Z"
    transform="translate(0 31)" />
  <path
    d="M192.12,71.29c0-9.31,9.8-16.85,21.88-16.85S235.88,62,235.88,71.29,226.09,88.15,214,88.15,192.12,80.6,192.12,71.29Z"
    transform="translate(0 31)" />
  <path
    d="M236.15,7.65a25.81,25.81,0,0,1,15.5,5.25c8.49,6.43,12.08,16.91,9.84,28.76a2.76,2.76,0,1,1-5.43-1c1.83-9.71-1-18.2-7.74-23.32-6-4.51-13.87-5.42-20.13-2.3-7.37,3.66-11.43,12.11-11.43,23.79V54.44a2.76,2.76,0,1,1-5.52,0V38.8c0-18.74,9.08-26,14.49-28.74A23.29,23.29,0,0,1,236.15,7.65Z"
    transform="translate(0 31)" />
  <path
    d="M191.85,7.65a23.29,23.29,0,0,1,10.42,2.41c5.41,2.69,14.49,10,14.49,28.74V54.44a2.76,2.76,0,1,1-5.52,0V38.8c0-11.68-4.06-20.13-11.43-23.79-6.26-3.11-14.16-2.21-20.13,2.3-6.75,5.12-9.57,13.61-7.74,23.32a2.76,2.76,0,0,1-5.43,1c-2.24-11.85,1.35-22.33,9.84-28.75A25.75,25.75,0,0,1,191.85,7.65Z"
    transform="translate(0 31)" />
  <path
    d="M278.49,76.42c.49,0,1,0,1.45,0,8.62.64,15.17,6.63,17.11,15.62a3.17,3.17,0,1,1-6.19,1.34c-1.35-6.23-5.6-10.2-11.39-10.64s-13.12,2.93-16.32,11.4A3.17,3.17,0,0,1,257.22,92C261.32,81.09,270.6,76.42,278.49,76.42Z"
    transform="translate(0 31)" />
  <path
    d="M149.51,76.42c7.89,0,17.17,4.67,21.27,15.53a3.17,3.17,0,0,1-5.93,2.24c-3.2-8.47-10.52-11.82-16.32-11.4s-10.05,4.41-11.39,10.64A3.17,3.17,0,1,1,131,92.09c1.94-9,8.49-15,17.11-15.62C148.54,76.44,149,76.42,149.51,76.42Z"
    transform="translate(0 31)" />
  <line class="cls-5" y1="31" x2="428" y2="31" />
</svg>