<?xml version="1.0" encoding="utf-8"?>
<!-- Generator: Adobe Illustrator 22.0.0, SVG Export Plug-In . SVG Version: 6.00 Build 0)  -->
<svg version="1.1" xmlns="http://www.w3.org/2000/svg" xmlns:xlink="http://www.w3.org/1999/xlink" x="0px" y="0px" width="165px"
	 height="165px" viewBox="0 0 165 165" style="enable-background:new 0 0 165 165;" xml:space="preserve">
<style type="text/css">
	.st0{clip-path:url(#SVGID_2_);}
	.st1{fill:#FF3000;}
	.st2{clip-path:url(#SVGID_6_);}
	.st3{clip-path:url(#SVGID_10_);}
	.st4{clip-path:url(#SVGID_14_);}
	.st5{clip-path:url(#SVGID_18_);}
	.st6{clip-path:url(#SVGID_22_);}
	.st7{clip-path:url(#SVGID_26_);}
	.st8{clip-path:url(#SVGID_30_);}
	.st9{clip-path:url(#SVGID_34_);}
	.st10{clip-path:url(#SVGID_38_);}
	.st11{clip-path:url(#SVGID_42_);}
	.st12{clip-path:url(#SVGID_46_);}
	.st13{clip-path:url(#SVGID_50_);}
	.st14{clip-path:url(#SVGID_54_);}
	.st15{clip-path:url(#SVGID_58_);}
	.st16{clip-path:url(#SVGID_62_);}
	.st17{clip-path:url(#SVGID_66_);}
	.st18{clip-path:url(#SVGID_70_);}
	.st19{clip-path:url(#SVGID_74_);}
	.st20{clip-path:url(#SVGID_78_);}
	.st21{clip-path:url(#SVGID_82_);}
	.st22{clip-path:url(#SVGID_86_);}
	.st23{clip-path:url(#SVGID_90_);}
	.st24{clip-path:url(#SVGID_94_);}
	.st25{fill:none;}
</style>
<g id="图层_2">
</g>
<g id="图层_1">
	<g>
		<g>
			<defs>
				<rect id="SVGID_1_" width="165" height="165"/>
			</defs>
			<clipPath id="SVGID_2_">
				<use xlink:href="#SVGID_1_"  style="overflow:visible;"/>
			</clipPath>
			<g class="st0">
				<g>
					<g>
						<path id="SVGID_3_" class="st1" d="M79.2,19.7c0,3.9,3.6,32.4,3.6,32.4s3.6-28.6,3.6-32.4c0-3.9-1.6-7-3.6-7
							C80.8,12.7,79.2,15.9,79.2,19.7"/>
					</g>
					<g>
						<defs>
							<path id="SVGID_4_" d="M79.2,19.7c0,3.9,3.6,32.4,3.6,32.4s3.6-28.6,3.6-32.4c0-3.9-1.6-7-3.6-7
								C80.8,12.7,79.2,15.9,79.2,19.7"/>
						</defs>
						<clipPath id="SVGID_6_">
							<use xlink:href="#SVGID_4_"  style="overflow:visible;"/>
						</clipPath>
						<g class="st2">
							<rect x="79.2" y="12.7" class="st1" width="7.2" height="39.4"/>
						</g>
					</g>
					<g>
						<g>
							<path id="SVGID_5_" class="st1" d="M47.3,22.3c-1.7,1-1.5,4.5,0.4,7.9C49.6,33.5,67,56.5,67,56.5s-11.1-26.6-13.1-30
								C52.3,23.7,50,22,48.3,22C48,22,47.6,22.1,47.3,22.3"/>
						</g>
						<g>
							<defs>
								<path id="SVGID_8_" d="M47.3,22.3c-1.7,1-1.5,4.5,0.4,7.9C49.6,33.5,67,56.5,67,56.5s-11.1-26.6-13.1-30
									C52.3,23.7,50,22,48.3,22C48,22,47.6,22.1,47.3,22.3"/>
							</defs>
							<clipPath id="SVGID_10_">
								<use xlink:href="#SVGID_8_"  style="overflow:visible;"/>
							</clipPath>
							<g class="st3">
								<rect x="45.6" y="22" class="st1" width="21.4" height="34.4"/>
							</g>
						</g>
						<g>
							<g>
								<path id="SVGID_7_" class="st1" d="M21.4,48.3c-1,1.7,0.9,4.7,4.3,6.6C29,56.8,55.6,68,55.6,68s-23-17.4-26.3-19.3
									c-1.8-1-3.7-1.6-5.1-1.6C22.9,47.1,21.9,47.5,21.4,48.3"/>
							</g>
							<g>
								<defs>
									<path id="SVGID_12_" d="M21.4,48.3c-1,1.7,0.9,4.7,4.3,6.6C29,56.8,55.6,68,55.6,68s-23-17.4-26.3-19.3
										c-1.8-1-3.7-1.6-5.1-1.6C22.9,47.1,21.9,47.5,21.4,48.3"/>
								</defs>
								<clipPath id="SVGID_14_">
									<use xlink:href="#SVGID_12_"  style="overflow:visible;"/>
								</clipPath>
								<g class="st4">
									<rect x="20.4" y="47.1" class="st1" width="35.1" height="20.9"/>
								</g>
							</g>
							<g>
								<g>
									<path id="SVGID_9_" class="st1" d="M12,83.7c0,2,3.1,3.6,7,3.6s32.4-3.6,32.4-3.6S22.8,80.1,19,80.1
										C15.1,80.1,12,81.7,12,83.7"/>
								</g>
								<g>
									<defs>
										<path id="SVGID_16_" d="M12,83.7c0,2,3.1,3.6,7,3.6s32.4-3.6,32.4-3.6S22.8,80.1,19,80.1C15.1,80.1,12,81.7,12,83.7"/>
									</defs>
									<clipPath id="SVGID_18_">
										<use xlink:href="#SVGID_16_"  style="overflow:visible;"/>
									</clipPath>
									<g class="st5">
										<rect x="12" y="80.1" class="st1" width="39.4" height="7.2"/>
									</g>
								</g>
								<g>
									<g>
										<path id="SVGID_11_" class="st1" d="M25.8,112.6c-3.3,1.9-5.3,4.9-4.3,6.6s4.5,1.5,7.9-0.4c3.3-1.9,26.3-19.3,26.3-19.3
											S29.1,110.6,25.8,112.6"/>
									</g>
									<g>
										<defs>
											<path id="SVGID_20_" d="M25.8,112.6c-3.3,1.9-5.3,4.9-4.3,6.6s4.5,1.5,7.9-0.4c3.3-1.9,26.3-19.3,26.3-19.3
												S29.1,110.6,25.8,112.6"/>
										</defs>
										<clipPath id="SVGID_22_">
											<use xlink:href="#SVGID_20_"  style="overflow:visible;"/>
										</clipPath>
										<g class="st6">
											<rect x="20.5" y="99.4" class="st1" width="35.1" height="21.4"/>
										</g>
									</g>
									<g>
										<g>
											<path id="SVGID_13_" class="st1" d="M47.9,137.2c-1.9,3.3-2.1,6.9-0.4,7.9c1.7,1,4.7-0.9,6.6-4.3
												c1.9-3.3,13.1-29.9,13.1-29.9S49.8,133.9,47.9,137.2"/>
										</g>
										<g>
											<defs>
												<path id="SVGID_24_" d="M47.9,137.2c-1.9,3.3-2.1,6.9-0.4,7.9c1.7,1,4.7-0.9,6.6-4.3c1.9-3.3,13.1-29.9,13.1-29.9
													S49.8,133.9,47.9,137.2"/>
											</defs>
											<clipPath id="SVGID_26_">
												<use xlink:href="#SVGID_24_"  style="overflow:visible;"/>
											</clipPath>
											<g class="st7">
												<rect x="45.8" y="110.9" class="st1" width="21.4" height="35.1"/>
											</g>
										</g>
										<g>
											<g>
												<path id="SVGID_15_" class="st1" d="M79.4,147.5c0,3.9,1.6,7,3.6,7s3.6-3.1,3.6-7S83,115.1,83,115.1
													S79.4,143.7,79.4,147.5"/>
											</g>
											<g>
												<defs>
													<path id="SVGID_28_" d="M79.4,147.5c0,3.9,1.6,7,3.6,7s3.6-3.1,3.6-7S83,115.1,83,115.1S79.4,143.7,79.4,147.5"/>
												</defs>
												<clipPath id="SVGID_30_">
													<use xlink:href="#SVGID_28_"  style="overflow:visible;"/>
												</clipPath>
												<g class="st8">
													<rect x="79.4" y="115.1" class="st1" width="7.2" height="39.4"/>
												</g>
											</g>
											<g>
												<g>
													<path id="SVGID_17_" class="st1" d="M111.8,140.7c1.9,3.3,4.9,5.3,6.6,4.3s1.5-4.5-0.4-7.9
														c-1.9-3.3-19.3-26.3-19.3-26.3S109.9,137.4,111.8,140.7"/>
												</g>
												<g>
													<defs>
														<path id="SVGID_32_" d="M111.8,140.7c1.9,3.3,4.9,5.3,6.6,4.3s1.5-4.5-0.4-7.9c-1.9-3.3-19.3-26.3-19.3-26.3
															S109.9,137.4,111.8,140.7"/>
													</defs>
													<clipPath id="SVGID_34_">
														<use xlink:href="#SVGID_32_"  style="overflow:visible;"/>
													</clipPath>
													<g class="st9">
														<rect x="98.7" y="110.8" class="st1" width="21.4" height="35.1"/>
													</g>
												</g>
												<g>
													<g>
														<path id="SVGID_19_" class="st1" d="M136.5,118.6c3.3,1.9,6.9,2.1,7.9,0.4s-0.9-4.7-4.3-6.6
															c-3.3-1.9-29.9-13.1-29.9-13.1S133.1,116.7,136.5,118.6"/>
													</g>
													<g>
														<defs>
															<path id="SVGID_36_" d="M136.5,118.6c3.3,1.9,6.9,2.1,7.9,0.4s-0.9-4.7-4.3-6.6c-3.3-1.9-29.9-13.1-29.9-13.1
																S133.1,116.7,136.5,118.6"/>
														</defs>
														<clipPath id="SVGID_38_">
															<use xlink:href="#SVGID_36_"  style="overflow:visible;"/>
														</clipPath>
														<g class="st10">
															<rect x="110.2" y="99.3" class="st1" width="35.1" height="21.4"/>
														</g>
													</g>
													<g>
														<g>
															<path id="SVGID_21_" class="st1" d="M114.4,83.5c0,0,28.6,3.6,32.4,3.6c3.9,0,7-1.6,7-3.6s-3.1-3.6-7-3.6
																C142.9,80,114.4,83.5,114.4,83.5"/>
														</g>
														<g>
															<defs>
																<path id="SVGID_40_" d="M114.4,83.5c0,0,28.6,3.6,32.4,3.6c3.9,0,7-1.6,7-3.6s-3.1-3.6-7-3.6
																	C142.9,80,114.4,83.5,114.4,83.5"/>
															</defs>
															<clipPath id="SVGID_42_">
																<use xlink:href="#SVGID_40_"  style="overflow:visible;"/>
															</clipPath>
															<g class="st11">
																<rect x="114.4" y="80" class="st1" width="39.4" height="7.2"/>
															</g>
														</g>
														<g>
															<g>
																<path id="SVGID_23_" class="st1" d="M136.4,48.5c-3.3,1.9-26.3,19.3-26.3,19.3s26.5-11.2,29.9-13.1
																	c3.3-1.9,5.3-4.9,4.3-6.6c-0.5-0.8-1.4-1.2-2.7-1.2C140.1,46.9,138.2,47.4,136.4,48.5"/>
															</g>
															<g>
																<defs>
																	<path id="SVGID_44_" d="M136.4,48.5c-3.3,1.9-26.3,19.3-26.3,19.3s26.5-11.2,29.9-13.1c3.3-1.9,5.3-4.9,4.3-6.6
																		c-0.5-0.8-1.4-1.2-2.7-1.2C140.1,46.9,138.2,47.4,136.4,48.5"/>
																</defs>
																<clipPath id="SVGID_46_">
																	<use xlink:href="#SVGID_44_"  style="overflow:visible;"/>
																</clipPath>
																<g class="st12">
																	<rect x="110.1" y="46.9" class="st1" width="35.1" height="20.9"/>
																</g>
															</g>
															<g>
																<g>
																	<path id="SVGID_25_" class="st1" d="M111.6,26.4c-1.9,3.3-13.1,29.9-13.1,29.9s17.4-22.9,19.3-26.3
																		c1.9-3.3,2.1-6.9,0.4-7.9c-0.3-0.2-0.7-0.3-1-0.3C115.5,21.9,113.2,23.7,111.6,26.4"/>
																</g>
																<g>
																	<defs>
																		<path id="SVGID_48_" d="M111.6,26.4c-1.9,3.3-13.1,29.9-13.1,29.9s17.4-22.9,19.3-26.3c1.9-3.3,2.1-6.9,0.4-7.9
																			c-0.3-0.2-0.7-0.3-1-0.3C115.5,21.9,113.2,23.7,111.6,26.4"/>
																	</defs>
																	<clipPath id="SVGID_50_">
																		<use xlink:href="#SVGID_48_"  style="overflow:visible;"/>
																	</clipPath>
																	<g class="st13">
																		<rect x="98.5" y="21.9" class="st1" width="21.4" height="34.4"/>
																	</g>
																</g>
																<g>
																	<g>
																		<path id="SVGID_27_" class="st1" d="M100.3,5C99.9,6.7,99,23,99,23s6.2-15.1,6.6-16.8s-0.5-3.4-1.9-3.8
																			c-0.2,0-0.3-0.1-0.5-0.1C101.9,2.4,100.7,3.4,100.3,5"/>
																	</g>
																	<g>
																		<defs>
																			<path id="SVGID_52_" d="M100.3,5C99.9,6.7,99,23,99,23s6.2-15.1,6.6-16.8s-0.5-3.4-1.9-3.8
																				c-0.2,0-0.3-0.1-0.5-0.1C101.9,2.4,100.7,3.4,100.3,5"/>
																		</defs>
																		<clipPath id="SVGID_54_">
																			<use xlink:href="#SVGID_52_"  style="overflow:visible;"/>
																		</clipPath>
																		<g class="st14">
																			<rect x="99" y="2.4" class="st1" width="7" height="20.6"/>
																		</g>
																	</g>
																	<g>
																		<g>
																			<path id="SVGID_29_" class="st1" d="M60.8,2.6c-1.4,0.4-2.2,2.2-1.7,3.9C59.7,8.2,67,22.7,67,22.7
																				S64.9,6.6,64.4,4.9c-0.4-1.4-1.6-2.4-2.9-2.4C61.3,2.5,61,2.5,60.8,2.6"/>
																		</g>
																		<g>
																			<defs>
																				<path id="SVGID_56_" d="M60.8,2.6c-1.4,0.4-2.2,2.2-1.7,3.9C59.7,8.2,67,22.7,67,22.7S64.9,6.6,64.4,4.9
																					c-0.4-1.4-1.6-2.4-2.9-2.4C61.3,2.5,61,2.5,60.8,2.6"/>
																			</defs>
																			<clipPath id="SVGID_58_">
																				<use xlink:href="#SVGID_56_"  style="overflow:visible;"/>
																			</clipPath>
																			<g class="st15">
																				<rect x="58.6" y="2.5" class="st1" width="8.4" height="20.3"/>
																			</g>
																		</g>
																		<g>
																			<g>
																				<path id="SVGID_31_" class="st1" d="M23.8,24.1c-1,1.1-0.8,3,0.5,4.2c1.3,1.2,14.9,10.1,14.9,10.1
																					S29.3,25.5,28,24.3c-0.7-0.6-1.6-1-2.4-1C24.9,23.3,24.2,23.6,23.8,24.1"/>
																			</g>
																			<g>
																				<defs>
																					<path id="SVGID_60_" d="M23.8,24.1c-1,1.1-0.8,3,0.5,4.2c1.3,1.2,14.9,10.1,14.9,10.1S29.3,25.5,28,24.3
																						c-0.7-0.6-1.6-1-2.4-1C24.9,23.3,24.2,23.6,23.8,24.1"/>
																				</defs>
																				<clipPath id="SVGID_62_">
																					<use xlink:href="#SVGID_60_"  style="overflow:visible;"/>
																				</clipPath>
																				<g class="st16">
																					<rect x="22.7" y="23.3" class="st1" width="16.5" height="15.1"/>
																				</g>
																			</g>
																			<g>
																				<g>
																					<path id="SVGID_33_" class="st1" d="M2.4,61.3c-0.3,1.5,0.8,3,2.5,3.4C6.7,65.1,23,66,23,66S7.9,59.8,6.2,59.4
																						c-0.3-0.1-0.6-0.1-0.8-0.1C3.9,59.3,2.7,60.1,2.4,61.3"/>
																				</g>
																				<g>
																					<defs>
																						<path id="SVGID_64_" d="M2.4,61.3c-0.3,1.5,0.8,3,2.5,3.4C6.7,65.1,23,66,23,66S7.9,59.8,6.2,59.4
																							c-0.3-0.1-0.6-0.1-0.8-0.1C3.9,59.3,2.7,60.1,2.4,61.3"/>
																					</defs>
																					<clipPath id="SVGID_66_">
																						<use xlink:href="#SVGID_64_"  style="overflow:visible;"/>
																					</clipPath>
																					<g class="st17">
																						<rect x="2.1" y="59.3" class="st1" width="20.9" height="6.7"/>
																					</g>
																				</g>
																				<g>
																					<g>
																						<path id="SVGID_35_" class="st1" d="M4.9,100.6c-1.7,0.5-2.7,2.1-2.3,3.6c0.4,1.4,2.2,2.2,3.9,1.7
																							S22.8,98,22.8,98S6.6,100.1,4.9,100.6"/>
																					</g>
																					<g>
																						<defs>
																							<path id="SVGID_68_" d="M4.9,100.6c-1.7,0.5-2.7,2.1-2.3,3.6c0.4,1.4,2.2,2.2,3.9,1.7S22.8,98,22.8,98
																								S6.6,100.1,4.9,100.6"/>
																						</defs>
																						<clipPath id="SVGID_70_">
																							<use xlink:href="#SVGID_68_"  style="overflow:visible;"/>
																						</clipPath>
																						<g class="st18">
																							<rect x="2.1" y="98" class="st1" width="20.6" height="8.4"/>
																						</g>
																					</g>
																					<g>
																						<g>
																							<path id="SVGID_37_" class="st1" d="M24.3,137c-1.2,1.3-1.3,3.2-0.2,4.2c1.1,1,3,0.8,4.2-0.5
																								s10.1-14.9,10.1-14.9S25.5,135.7,24.3,137"/>
																						</g>
																						<g>
																							<defs>
																								<path id="SVGID_72_" d="M24.3,137c-1.2,1.3-1.3,3.2-0.2,4.2c1.1,1,3,0.8,4.2-0.5s10.1-14.9,10.1-14.9
																									S25.5,135.7,24.3,137"/>
																							</defs>
																							<clipPath id="SVGID_74_">
																								<use xlink:href="#SVGID_72_"  style="overflow:visible;"/>
																							</clipPath>
																							<g class="st19">
																								<rect x="23" y="125.8" class="st1" width="15.4" height="16.5"/>
																							</g>
																						</g>
																						<g>
																							<g>
																								<path id="SVGID_39_" class="st1" d="M59.4,158.8c-0.4,1.7,0.5,3.4,1.9,3.8c1.5,0.3,3-0.8,3.4-2.5
																									s1.3-18,1.3-18S59.8,157.1,59.4,158.8"/>
																							</g>
																							<g>
																								<defs>
																									<path id="SVGID_76_" d="M59.4,158.8c-0.4,1.7,0.5,3.4,1.9,3.8c1.5,0.3,3-0.8,3.4-2.5s1.3-18,1.3-18
																										S59.8,157.1,59.4,158.8"/>
																								</defs>
																								<clipPath id="SVGID_78_">
																									<use xlink:href="#SVGID_76_"  style="overflow:visible;"/>
																								</clipPath>
																								<g class="st20">
																									<rect x="59" y="142" class="st1" width="7" height="20.9"/>
																								</g>
																							</g>
																							<g>
																								<g>
																									<path id="SVGID_41_" class="st1" d="M100.6,160.1c0.5,1.7,2.1,2.7,3.6,2.3c1.4-0.4,2.2-2.2,1.7-3.9
																										S98,142.2,98,142.2S100.1,158.4,100.6,160.1"/>
																								</g>
																								<g>
																									<defs>
																										<path id="SVGID_80_" d="M100.6,160.1c0.5,1.7,2.1,2.7,3.6,2.3c1.4-0.4,2.2-2.2,1.7-3.9S98,142.2,98,142.2
																											S100.1,158.4,100.6,160.1"/>
																									</defs>
																									<clipPath id="SVGID_82_">
																										<use xlink:href="#SVGID_80_"  style="overflow:visible;"/>
																									</clipPath>
																									<g class="st21">
																										<rect x="98" y="142.3" class="st1" width="8.4" height="20.6"/>
																									</g>
																								</g>
																								<g>
																									<g>
																										<path id="SVGID_43_" class="st1" d="M137,140.7c1.3,1.2,3.2,1.3,4.2,0.2s0.8-3-0.5-4.2
																											s-14.9-10.1-14.9-10.1S135.7,139.5,137,140.7"/>
																									</g>
																									<g>
																										<defs>
																											<path id="SVGID_84_" d="M137,140.7c1.3,1.2,3.2,1.3,4.2,0.2s0.8-3-0.5-4.2s-14.9-10.1-14.9-10.1
																												S135.7,139.5,137,140.7"/>
																										</defs>
																										<clipPath id="SVGID_86_">
																											<use xlink:href="#SVGID_84_"  style="overflow:visible;"/>
																										</clipPath>
																										<g class="st22">
																											<rect x="125.8" y="126.5" class="st1" width="16.5" height="15.4"/>
																										</g>
																									</g>
																									<g>
																										<g>
																											<path id="SVGID_45_" class="st1" d="M158.8,105.6c1.7,0.4,3.4-0.5,3.8-1.9c0.3-1.5-0.8-3-2.5-3.4
																												s-18-1.3-18-1.3S157.1,105.2,158.8,105.6"/>
																										</g>
																										<g>
																											<defs>
																												<path id="SVGID_88_" d="M158.8,105.6c1.7,0.4,3.4-0.5,3.8-1.9c0.3-1.5-0.8-3-2.5-3.4s-18-1.3-18-1.3
																													S157.1,105.2,158.8,105.6"/>
																											</defs>
																											<clipPath id="SVGID_90_">
																												<use xlink:href="#SVGID_88_"  style="overflow:visible;"/>
																											</clipPath>
																											<g class="st23">
																												<rect x="142" y="99" class="st1" width="20.9" height="7"/>
																											</g>
																										</g>
																										<g>
																											<g>
																												<path id="SVGID_47_" class="st1" d="M158.5,59.2c-1.7,0.5-16.3,7.9-16.3,7.9s16.2-2.1,17.9-2.7
																													c1.7-0.5,2.7-2.1,2.3-3.6c-0.3-1.1-1.5-1.8-2.8-1.8C159.3,59,158.9,59.1,158.5,59.2"/>
																											</g>
																											<g>
																												<defs>
																													<path id="SVGID_92_" d="M158.5,59.2c-1.7,0.5-16.3,7.9-16.3,7.9s16.2-2.1,17.9-2.7
																														c1.7-0.5,2.7-2.1,2.3-3.6c-0.3-1.1-1.5-1.8-2.8-1.8C159.3,59,158.9,59.1,158.5,59.2"/>
																												</defs>
																												<clipPath id="SVGID_94_">
																													<use xlink:href="#SVGID_92_"  style="overflow:visible;"/>
																												</clipPath>
																												<g class="st24">
																													<rect x="142.3" y="59" class="st1" width="20.6" height="8"/>
																												</g>
																											</g>
																											<g>
																												<g>
																													<path id="SVGID_49_" class="st1" d="M136.7,24.3c-1.2,1.3-10.1,14.9-10.1,14.9s12.9-9.9,14.1-11.2
																														c1.2-1.3,1.3-3.2,0.2-4.2c-0.5-0.4-1.1-0.6-1.7-0.6C138.3,23.1,137.4,23.5,136.7,24.3"/>
																												</g>
																												<g>
																													<g>
																														<path id="SVGID_51_" class="st1" d="M82.3,61.9c0,0.9,0.4,7.1,0.4,7.1s0.4-6.2,0.4-7.1
																															s-0.2-1.7-0.4-1.7S82.3,61,82.3,61.9"/>
																													</g>
																													<g>
																														<path id="SVGID_53_" class="st1" d="M76.7,61c-0.2,0.1-0.2,0.8,0,1.7s2.3,6.7,2.3,6.7s-1.2-6-1.5-7
																															C77.3,61.7,76.9,61,76.7,61L76.7,61"/>
																													</g>
																													<g>
																														<path id="SVGID_55_" class="st1" d="M71.1,63.4c-0.2,0.1,0,0.9,0.5,1.7c0.5,0.8,3.9,5.9,3.9,5.9
																															s-2.8-5.5-3.2-6.3C71.8,63.9,71.4,63.3,71.1,63.4C71.1,63.3,71.1,63.3,71.1,63.4"/>
																													</g>
																													<g>
																														<path id="SVGID_57_" class="st1" d="M66.3,67.1c-0.2,0.2,0.3,0.8,0.9,1.5c0.7,0.7,5.3,4.7,5.3,4.7
																															s-4.1-4.6-4.8-5.3C67.2,67.4,66.6,67,66.3,67.1C66.3,67,66.3,67,66.3,67.1"/>
																													</g>
																													<g>
																														<path id="SVGID_59_" class="st1" d="M62.6,71.9c-0.1,0.2,0.5,0.7,1.3,1.2s6.4,3.2,6.4,3.2
																															s-5.1-3.4-6-3.9c-0.6-0.4-1.2-0.6-1.5-0.6C62.7,71.8,62.6,71.8,62.6,71.9"/>
																													</g>
																													<g>
																														<path id="SVGID_61_" class="st1" d="M60.2,77.5c-0.1,0.2,0.6,0.6,1.5,0.8c0.9,0.2,7,1.4,7,1.4
																															s-5.9-2-6.8-2.2c-0.5-0.1-0.9-0.2-1.3-0.2C60.4,77.3,60.3,77.4,60.2,77.5"/>
																													</g>
																													<g>
																														<path id="SVGID_63_" class="st1" d="M59.4,83.5c0,0.2,0.8,0.4,1.7,0.4s7.1-0.4,7.1-0.4
																															s-6.2-0.4-7.1-0.4S59.4,83.3,59.4,83.5"/>
																													</g>
																													<g>
																														<path id="SVGID_65_" class="st1" d="M61.8,88.7c-0.9,0.2-1.6,0.6-1.5,0.8c0.1,0.2,0.8,0.2,1.7,0
																															s6.7-2.3,6.7-2.3S62.7,88.4,61.8,88.7"/>
																													</g>
																													<g>
																														<path id="SVGID_67_" class="st1" d="M63.8,93.9c-0.8,0.5-1.4,1-1.3,1.2c0.1,0.2,0.9,0,1.7-0.5
																															c0.8-0.5,5.9-3.9,5.9-3.9S64.6,93.5,63.8,93.9"/>
																													</g>
																													<g>
																														<path id="SVGID_69_" class="st1" d="M67.2,98.5c-0.7,0.7-1.1,1.3-0.9,1.5s0.8-0.3,1.5-0.9
																															c0.7-0.7,4.7-5.3,4.7-5.3S67.8,97.8,67.2,98.5"/>
																													</g>
																													<g>
																														<path id="SVGID_71_" class="st1" d="M71.6,102c-0.5,0.8-0.7,1.6-0.5,1.7s0.7-0.5,1.2-1.3
																															s3.2-6.4,3.2-6.4S72,101.2,71.6,102"/>
																													</g>
																													<g>
																														<path id="SVGID_73_" class="st1" d="M76.7,104.2c-0.2,0.9-0.3,1.7,0,1.7c0.2,0.1,0.6-0.6,0.8-1.5
																															c0.2-0.9,1.4-7,1.4-7S77,103.3,76.7,104.2"/>
																													</g>
																													<g>
																														<path id="SVGID_75_" class="st1" d="M82.3,105.1c0,0.9,0.2,1.7,0.4,1.7s0.4-0.8,0.4-1.7
																															S82.7,98,82.7,98S82.3,104.1,82.3,105.1"/>
																													</g>
																													<g>
																														<path id="SVGID_77_" class="st1" d="M87.9,104.4c0.2,0.9,0.6,1.6,0.8,1.5c0.2-0.1,0.2-0.8,0-1.7
																															c-0.2-0.9-2.3-6.7-2.3-6.7S87.7,103.5,87.9,104.4"/>
																													</g>
																													<g>
																														<path id="SVGID_79_" class="st1" d="M93.1,102.4c0.5,0.8,1,1.4,1.2,1.3s0-0.9-0.5-1.7
																															c-0.5-0.8-3.9-5.9-3.9-5.9S92.7,101.6,93.1,102.4"/>
																													</g>
																													<g>
																														<path id="SVGID_81_" class="st1" d="M97.7,99c0.7,0.7,1.3,1.1,1.5,0.9s-0.3-0.8-0.9-1.5
																															c-0.7-0.7-5.3-4.7-5.3-4.7S97,98.4,97.7,99"/>
																													</g>
																													<g>
																														<path id="SVGID_83_" class="st1" d="M101.2,94.6c0.8,0.5,1.6,0.7,1.7,0.5s-0.5-0.7-1.3-1.2
																															s-6.4-3.2-6.4-3.2S100.4,94.2,101.2,94.6"/>
																													</g>
																													<g>
																														<path id="SVGID_85_" class="st1" d="M103.4,89.5c0.9,0.2,1.7,0.3,1.7,0c0.1-0.2-0.6-0.6-1.5-0.8
																															c-0.9-0.2-7-1.4-7-1.4S102.5,89.2,103.4,89.5"/>
																													</g>
																													<g>
																														<path id="SVGID_87_" class="st1" d="M97.2,83.5c0,0,6.2,0.4,7.1,0.4s1.7-0.2,1.7-0.4
																															c0-0.2-0.8-0.4-1.7-0.4C103.3,83.1,97.2,83.5,97.2,83.5"/>
																													</g>
																													<g>
																														<path id="SVGID_89_" class="st1" d="M103.4,77.5c-0.9,0.2-6.7,2.3-6.7,2.3s6-1.2,7-1.5
																															c0.9-0.2,1.6-0.6,1.5-0.8c0-0.1-0.2-0.1-0.5-0.1C104.4,77.3,103.9,77.4,103.4,77.5"/>
																													</g>
																													<g>
																														<path id="SVGID_91_" class="st1" d="M101.2,72.4c-0.8,0.5-5.9,3.9-5.9,3.9s5.5-2.8,6.3-3.2
																															c0.8-0.5,1.4-1,1.3-1.2c0,0-0.1-0.1-0.2-0.1C102.4,71.8,101.8,72,101.2,72.4"/>
																													</g>
																													<g>
																														<path id="SVGID_93_" class="st1" d="M97.7,68C97,68.6,93,73.3,93,73.3s4.6-4.1,5.3-4.8
																															c0.7-0.7,1.1-1.3,0.9-1.5h-0.1C98.8,67,98.2,67.4,97.7,68"/>
																													</g>
																													<g>
																														<path id="SVGID_95_" class="st1" d="M93.1,64.6C92.7,65.4,90,71,90,71s3.4-5.1,3.9-6
																															c0.5-0.8,0.7-1.6,0.5-1.7c0,0,0,0-0.1,0C94.1,63.3,93.6,63.9,93.1,64.6"/>
																													</g>
																													<g>
																														<path id="SVGID_97_" class="st1" d="M87.9,62.6c-0.2,0.9-1.4,7-1.4,7s2-5.9,2.2-6.8
																															c0.2-0.9,0.3-1.7,0-1.7l0,0C88.5,61,88.1,61.7,87.9,62.6"/>
																													</g>
																												</g>
																											</g>
																										</g>
																									</g>
																								</g>
																							</g>
																						</g>
																					</g>
																				</g>
																			</g>
																		</g>
																	</g>
																</g>
															</g>
														</g>
													</g>
												</g>
											</g>
										</g>
									</g>
								</g>
							</g>
						</g>
					</g>
				</g>
			</g>
		</g>
	</g>
	<path class="st25" d="M136.7,24.3c-1.2,1.3-10.1,14.9-10.1,14.9s12.9-9.9,14.1-11.2c1.2-1.3,1.3-3.2,0.2-4.2
		c-0.5-0.4-1.1-0.6-1.7-0.6C138.3,23.1,137.4,23.5,136.7,24.3"/>
	<path class="st25" d="M82.3,61.9c0,0.9,0.4,7.1,0.4,7.1s0.4-6.2,0.4-7.1s-0.2-1.7-0.4-1.7S82.3,61,82.3,61.9"/>
	<path class="st25" d="M76.7,61c-0.2,0.1-0.2,0.8,0,1.7s2.3,6.7,2.3,6.7s-1.2-6-1.5-7C77.3,61.7,76.9,61,76.7,61L76.7,61"/>
	<path class="st25" d="M71.1,63.4c-0.2,0.1,0,0.9,0.5,1.7c0.5,0.8,3.9,5.9,3.9,5.9s-2.8-5.5-3.2-6.3C71.8,63.9,71.4,63.3,71.1,63.4
		C71.1,63.3,71.1,63.3,71.1,63.4"/>
	<path class="st25" d="M66.3,67.1c-0.2,0.2,0.3,0.8,0.9,1.5c0.7,0.7,5.3,4.7,5.3,4.7s-4.1-4.6-4.8-5.3C67.2,67.4,66.6,67,66.3,67.1
		C66.3,67,66.3,67,66.3,67.1"/>
	<path class="st25" d="M62.6,71.9c-0.1,0.2,0.5,0.7,1.3,1.2s6.4,3.2,6.4,3.2s-5.1-3.4-6-3.9c-0.6-0.4-1.2-0.6-1.5-0.6
		C62.7,71.8,62.6,71.8,62.6,71.9"/>
	<path class="st25" d="M60.2,77.5c-0.1,0.2,0.6,0.6,1.5,0.8c0.9,0.2,7,1.4,7,1.4s-5.9-2-6.8-2.2c-0.5-0.1-0.9-0.2-1.3-0.2
		C60.4,77.3,60.3,77.4,60.2,77.5"/>
	<path class="st25" d="M59.4,83.5c0,0.2,0.8,0.4,1.7,0.4s7.1-0.4,7.1-0.4s-6.2-0.4-7.1-0.4S59.4,83.3,59.4,83.5"/>
	<path class="st25" d="M61.8,88.7c-0.9,0.2-1.6,0.6-1.5,0.8c0.1,0.2,0.8,0.2,1.7,0s6.7-2.3,6.7-2.3S62.7,88.4,61.8,88.7"/>
	<path class="st25" d="M63.8,93.9c-0.8,0.5-1.4,1-1.3,1.2c0.1,0.2,0.9,0,1.7-0.5c0.8-0.5,5.9-3.9,5.9-3.9S64.6,93.5,63.8,93.9"/>
	<path class="st25" d="M67.2,98.5c-0.7,0.7-1.1,1.3-0.9,1.5s0.8-0.3,1.5-0.9c0.7-0.7,4.7-5.3,4.7-5.3S67.8,97.8,67.2,98.5"/>
	<path class="st25" d="M71.6,102c-0.5,0.8-0.7,1.6-0.5,1.7s0.7-0.5,1.2-1.3s3.2-6.4,3.2-6.4S72,101.2,71.6,102"/>
	<path class="st25" d="M76.7,104.2c-0.2,0.9-0.3,1.7,0,1.7c0.2,0.1,0.6-0.6,0.8-1.5c0.2-0.9,1.4-7,1.4-7S77,103.3,76.7,104.2"/>
	<path class="st25" d="M82.3,105.1c0,0.9,0.2,1.7,0.4,1.7s0.4-0.8,0.4-1.7S82.7,98,82.7,98S82.3,104.1,82.3,105.1"/>
	<path class="st25" d="M87.9,104.4c0.2,0.9,0.6,1.6,0.8,1.5c0.2-0.1,0.2-0.8,0-1.7c-0.2-0.9-2.3-6.7-2.3-6.7S87.7,103.5,87.9,104.4"
		/>
	<path class="st25" d="M93.1,102.4c0.5,0.8,1,1.4,1.2,1.3s0-0.9-0.5-1.7c-0.5-0.8-3.9-5.9-3.9-5.9S92.7,101.6,93.1,102.4"/>
	<path class="st25" d="M97.7,99c0.7,0.7,1.3,1.1,1.5,0.9s-0.3-0.8-0.9-1.5c-0.7-0.7-5.3-4.7-5.3-4.7S97,98.4,97.7,99"/>
	<path class="st25" d="M101.2,94.6c0.8,0.5,1.6,0.7,1.7,0.5s-0.5-0.7-1.3-1.2s-6.4-3.2-6.4-3.2S100.4,94.2,101.2,94.6"/>
	<path class="st25" d="M103.4,89.5c0.9,0.2,1.7,0.3,1.7,0c0.1-0.2-0.6-0.6-1.5-0.8c-0.9-0.2-7-1.4-7-1.4S102.5,89.2,103.4,89.5"/>
	<path class="st25" d="M97.2,83.5c0,0,6.2,0.4,7.1,0.4s1.7-0.2,1.7-0.4c0-0.2-0.8-0.4-1.7-0.4C103.3,83.1,97.2,83.5,97.2,83.5"/>
	<path class="st25" d="M103.4,77.5c-0.9,0.2-6.7,2.3-6.7,2.3s6-1.2,7-1.5c0.9-0.2,1.6-0.6,1.5-0.8c0-0.1-0.2-0.1-0.5-0.1
		C104.4,77.3,103.9,77.4,103.4,77.5"/>
	<path class="st25" d="M101.2,72.4c-0.8,0.5-5.9,3.9-5.9,3.9s5.5-2.8,6.3-3.2c0.8-0.5,1.4-1,1.3-1.2c0,0-0.1-0.1-0.2-0.1
		C102.4,71.8,101.8,72,101.2,72.4"/>
	<path class="st25" d="M97.7,68C97,68.6,93,73.3,93,73.3s4.6-4.1,5.3-4.8c0.7-0.7,1.1-1.3,0.9-1.5h-0.1C98.8,67,98.2,67.4,97.7,68"
		/>
	<path class="st25" d="M93.1,64.6C92.7,65.4,90,71,90,71s3.4-5.1,3.9-6c0.5-0.8,0.7-1.6,0.5-1.7c0,0,0,0-0.1,0
		C94.1,63.3,93.6,63.9,93.1,64.6"/>
	<path class="st25" d="M87.9,62.6c-0.2,0.9-1.4,7-1.4,7s2-5.9,2.2-6.8c0.2-0.9,0.3-1.7,0-1.7l0,0C88.5,61,88.1,61.7,87.9,62.6"/>
</g>
</svg>
