<?xml version="1.0" encoding="utf-8"?>
<!-- Generator: Adobe Illustrator 22.0.0, SVG Export Plug-In . SVG Version: 6.00 Build 0)  -->
<svg version="1.1" xmlns="http://www.w3.org/2000/svg" xmlns:xlink="http://www.w3.org/1999/xlink" x="0px" y="0px" width="260px"
	 height="260px" viewBox="0 0 260 260" style="enable-background:new 0 0 260 260;" xml:space="preserve">
<style type="text/css">
	.st0{clip-path:url(#SVGID_2_);}
	.st1{fill:#EB1C24;}
	.st2{clip-path:url(#SVGID_6_);}
	.st3{clip-path:url(#SVGID_10_);}
	.st4{clip-path:url(#SVGID_14_);}
	.st5{clip-path:url(#SVGID_18_);}
	.st6{clip-path:url(#SVGID_22_);}
	.st7{clip-path:url(#SVGID_26_);}
	.st8{clip-path:url(#SVGID_30_);}
	.st9{clip-path:url(#SVGID_34_);}
	.st10{clip-path:url(#SVGID_38_);}
	.st11{clip-path:url(#SVGID_42_);}
	.st12{clip-path:url(#SVGID_46_);}
	.st13{clip-path:url(#SVGID_50_);}
	.st14{clip-path:url(#SVGID_53_);}
	.st15{clip-path:url(#SVGID_55_);}
	.st16{clip-path:url(#SVGID_57_);}
	.st17{clip-path:url(#SVGID_59_);}
	.st18{clip-path:url(#SVGID_61_);}
	.st19{clip-path:url(#SVGID_63_);}
	.st20{clip-path:url(#SVGID_65_);}
	.st21{clip-path:url(#SVGID_67_);}
	.st22{clip-path:url(#SVGID_69_);}
	.st23{clip-path:url(#SVGID_71_);}
	.st24{clip-path:url(#SVGID_73_);}
	.st25{fill:none;}
</style>
<g id="图层_2">
</g>
<g id="图层_1">
	<g>
		<g>
			<defs>
				<rect id="SVGID_1_" width="260" height="260"/>
			</defs>
			<clipPath id="SVGID_2_">
				<use xlink:href="#SVGID_1_"  style="overflow:visible;"/>
			</clipPath>
			<g class="st0">
				<g>
					<g>
						<path id="SVGID_3_" class="st1" d="M123.5,130c0,3.6,2.9,6.5,6.5,6.5c3.6,0,6.5-2.9,6.5-6.5c0-3.6-2.9-6.5-6.5-6.5
							C126.4,123.5,123.5,126.4,123.5,130"/>
					</g>
					<g>
						<defs>
							<path id="SVGID_4_" d="M123.5,130c0,3.6,2.9,6.5,6.5,6.5c3.6,0,6.5-2.9,6.5-6.5c0-3.6-2.9-6.5-6.5-6.5
								C126.4,123.5,123.5,126.4,123.5,130"/>
						</defs>
						<clipPath id="SVGID_6_">
							<use xlink:href="#SVGID_4_"  style="overflow:visible;"/>
						</clipPath>
						<g class="st2">
							<rect x="123.5" y="123.5" class="st1" width="12.9" height="12.9"/>
						</g>
					</g>
					<g>
						<g>
							<path id="SVGID_5_" class="st1" d="M122.1,42.5c0,8.7,7.9,60.9,7.9,60.9s7.9-52.2,7.9-60.9s-3.5-15.8-7.9-15.8
								C125.6,26.8,122.1,33.8,122.1,42.5"/>
						</g>
						<g>
							<defs>
								<path id="SVGID_8_" d="M122.1,42.5c0,8.7,7.9,60.9,7.9,60.9s7.9-52.2,7.9-60.9s-3.5-15.8-7.9-15.8
									C125.6,26.8,122.1,33.8,122.1,42.5"/>
							</defs>
							<clipPath id="SVGID_10_">
								<use xlink:href="#SVGID_8_"  style="overflow:visible;"/>
							</clipPath>
							<g class="st3">
								<rect x="122.1" y="26.8" class="st1" width="15.8" height="76.7"/>
							</g>
						</g>
						<g>
							<g>
								<path id="SVGID_7_" class="st1" d="M78.4,40.6c-3.8,2.2-3.3,10.1,1.1,17.6s37.3,48.8,37.3,48.8S97.5,57.9,93.1,50.3
									C89.5,44.1,84.4,40,80.6,40C79.8,40,79,40.2,78.4,40.6"/>
							</g>
							<g>
								<defs>
									<path id="SVGID_12_" d="M78.4,40.6c-3.8,2.2-3.3,10.1,1.1,17.6s37.3,48.8,37.3,48.8S97.5,57.9,93.1,50.3
										C89.5,44.1,84.4,40,80.6,40C79.8,40,79,40.2,78.4,40.6"/>
								</defs>
								<clipPath id="SVGID_14_">
									<use xlink:href="#SVGID_12_"  style="overflow:visible;"/>
								</clipPath>
								<g class="st4">
									<rect x="74.6" y="40" class="st1" width="42.1" height="67"/>
								</g>
							</g>
							<g>
								<g>
									<path id="SVGID_9_" class="st1" d="M40.6,78.4c-2.2,3.8,2.2,10.4,9.7,14.7c7.5,4.4,56.7,23.6,56.7,23.6
										S65.7,83.8,58.2,79.4c-4.1-2.4-8.4-3.6-11.7-3.6C43.7,75.8,41.6,76.7,40.6,78.4"/>
								</g>
								<g>
									<defs>
										<path id="SVGID_16_" d="M40.6,78.4c-2.2,3.8,2.2,10.4,9.7,14.7c7.5,4.4,56.7,23.6,56.7,23.6S65.7,83.8,58.2,79.4
											c-4.1-2.4-8.4-3.6-11.7-3.6C43.7,75.8,41.6,76.7,40.6,78.4"/>
									</defs>
									<clipPath id="SVGID_18_">
										<use xlink:href="#SVGID_16_"  style="overflow:visible;"/>
									</clipPath>
									<g class="st5">
										<rect x="38.4" y="75.8" class="st1" width="68.6" height="40.9"/>
									</g>
								</g>
								<g>
									<g>
										<path id="SVGID_11_" class="st1" d="M26.8,130c0,4.4,7.1,7.9,15.8,7.9s60.9-7.9,60.9-7.9s-52.2-7.9-60.9-7.9
											C33.8,122.1,26.8,125.6,26.8,130"/>
									</g>
									<g>
										<defs>
											<path id="SVGID_20_" d="M26.8,130c0,4.4,7.1,7.9,15.8,7.9s60.9-7.9,60.9-7.9s-52.2-7.9-60.9-7.9
												C33.8,122.1,26.8,125.6,26.8,130"/>
										</defs>
										<clipPath id="SVGID_22_">
											<use xlink:href="#SVGID_20_"  style="overflow:visible;"/>
										</clipPath>
										<g class="st6">
											<rect x="26.8" y="122.1" class="st1" width="76.7" height="15.8"/>
										</g>
									</g>
									<g>
										<g>
											<path id="SVGID_13_" class="st1" d="M50.3,166.9c-7.5,4.4-11.9,10.9-9.7,14.7c2.2,3.8,10.1,3.3,17.6-1.1
												c7.5-4.4,48.8-37.3,48.8-37.3S57.9,162.5,50.3,166.9"/>
										</g>
										<g>
											<defs>
												<path id="SVGID_24_" d="M50.3,166.9c-7.5,4.4-11.9,10.9-9.7,14.7c2.2,3.8,10.1,3.3,17.6-1.1
													c7.5-4.4,48.8-37.3,48.8-37.3S57.9,162.5,50.3,166.9"/>
											</defs>
											<clipPath id="SVGID_26_">
												<use xlink:href="#SVGID_24_"  style="overflow:visible;"/>
											</clipPath>
											<g class="st7">
												<rect x="38.4" y="143.3" class="st1" width="68.6" height="42.1"/>
											</g>
										</g>
										<g>
											<g>
												<path id="SVGID_15_" class="st1" d="M79.4,201.8c-4.4,7.5-4.8,15.4-1.1,17.6c3.8,2.2,10.4-2.2,14.7-9.7
													c4.4-7.5,23.6-56.7,23.6-56.7S83.8,194.3,79.4,201.8"/>
											</g>
											<g>
												<defs>
													<path id="SVGID_28_" d="M79.4,201.8c-4.4,7.5-4.8,15.4-1.1,17.6c3.8,2.2,10.4-2.2,14.7-9.7
														c4.4-7.5,23.6-56.7,23.6-56.7S83.8,194.3,79.4,201.8"/>
												</defs>
												<clipPath id="SVGID_30_">
													<use xlink:href="#SVGID_28_"  style="overflow:visible;"/>
												</clipPath>
												<g class="st8">
													<rect x="74.6" y="153" class="st1" width="42.1" height="68.6"/>
												</g>
											</g>
											<g>
												<g>
													<path id="SVGID_17_" class="st1" d="M122.1,217.5c0,8.7,3.5,15.8,7.9,15.8c4.4,0,7.9-7.1,7.9-15.8s-7.9-60.9-7.9-60.9
														S122.1,208.7,122.1,217.5"/>
												</g>
												<g>
													<defs>
														<path id="SVGID_32_" d="M122.1,217.5c0,8.7,3.5,15.8,7.9,15.8c4.4,0,7.9-7.1,7.9-15.8s-7.9-60.9-7.9-60.9
															S122.1,208.7,122.1,217.5"/>
													</defs>
													<clipPath id="SVGID_34_">
														<use xlink:href="#SVGID_32_"  style="overflow:visible;"/>
													</clipPath>
													<g class="st9">
														<rect x="122.1" y="156.5" class="st1" width="15.8" height="76.7"/>
													</g>
												</g>
												<g>
													<g>
														<path id="SVGID_19_" class="st1" d="M166.9,209.7c4.4,7.5,10.9,11.9,14.7,9.7s3.3-10.1-1.1-17.6
															c-4.4-7.5-37.3-48.8-37.3-48.8S162.5,202.1,166.9,209.7"/>
													</g>
													<g>
														<defs>
															<path id="SVGID_36_" d="M166.9,209.7c4.4,7.5,10.9,11.9,14.7,9.7s3.3-10.1-1.1-17.6c-4.4-7.5-37.3-48.8-37.3-48.8
																S162.5,202.1,166.9,209.7"/>
														</defs>
														<clipPath id="SVGID_38_">
															<use xlink:href="#SVGID_36_"  style="overflow:visible;"/>
														</clipPath>
														<g class="st10">
															<rect x="143.3" y="153" class="st1" width="42.1" height="68.6"/>
														</g>
													</g>
													<g>
														<g>
															<path id="SVGID_21_" class="st1" d="M201.8,180.6c7.5,4.4,15.4,4.8,17.6,1.1c2.2-3.8-2.2-10.4-9.7-14.7
																c-7.5-4.4-56.7-23.6-56.7-23.6S194.3,176.2,201.8,180.6"/>
														</g>
														<g>
															<defs>
																<path id="SVGID_40_" d="M201.8,180.6c7.5,4.4,15.4,4.8,17.6,1.1c2.2-3.8-2.2-10.4-9.7-14.7
																	c-7.5-4.4-56.7-23.6-56.7-23.6S194.3,176.2,201.8,180.6"/>
															</defs>
															<clipPath id="SVGID_42_">
																<use xlink:href="#SVGID_40_"  style="overflow:visible;"/>
															</clipPath>
															<g class="st11">
																<rect x="153" y="143.3" class="st1" width="68.6" height="42.1"/>
															</g>
														</g>
														<g>
															<g>
																<path id="SVGID_23_" class="st1" d="M156.5,130c0,0,52.2,7.9,60.9,7.9s15.8-3.5,15.8-7.9c0-4.4-7.1-7.9-15.8-7.9
																	S156.5,130,156.5,130"/>
															</g>
															<g>
																<defs>
																	<path id="SVGID_44_" d="M156.5,130c0,0,52.2,7.9,60.9,7.9s15.8-3.5,15.8-7.9c0-4.4-7.1-7.9-15.8-7.9
																		S156.5,130,156.5,130"/>
																</defs>
																<clipPath id="SVGID_46_">
																	<use xlink:href="#SVGID_44_"  style="overflow:visible;"/>
																</clipPath>
																<g class="st12">
																	<rect x="156.5" y="122.1" class="st1" width="76.7" height="15.8"/>
																</g>
															</g>
															<g>
																<g>
																	<path id="SVGID_25_" class="st1" d="M201.8,79.4c-7.5,4.4-48.8,37.3-48.8,37.3s49.2-19.3,56.7-23.6
																		c7.5-4.4,11.9-10.9,9.7-14.7c-1-1.7-3.1-2.5-5.9-2.5C210.1,75.8,205.9,77.1,201.8,79.4"/>
																</g>
																<g>
																	<defs>
																		<path id="SVGID_48_" d="M201.8,79.4c-7.5,4.4-48.8,37.3-48.8,37.3s49.2-19.3,56.7-23.6
																			c7.5-4.4,11.9-10.9,9.7-14.7c-1-1.7-3.1-2.5-5.9-2.5C210.1,75.8,205.9,77.1,201.8,79.4"/>
																	</defs>
																	<clipPath id="SVGID_50_">
																		<use xlink:href="#SVGID_48_"  style="overflow:visible;"/>
																	</clipPath>
																	<g class="st13">
																		<rect x="153" y="75.8" class="st1" width="68.6" height="40.9"/>
																	</g>
																</g>
																<g>
																	<g>
																		<path id="SVGID_27_" class="st1" d="M166.9,50.3c-4.4,7.5-23.6,56.7-23.6,56.7s32.9-41.3,37.3-48.8
																			c4.4-7.5,4.8-15.4,1.1-17.6c-0.7-0.4-1.4-0.6-2.2-0.6C175.6,40,170.5,44.1,166.9,50.3"/>
																	</g>
																	<g>
																		<defs>
																			<path id="SVGID_52_" d="M166.9,50.3c-4.4,7.5-23.6,56.7-23.6,56.7s32.9-41.3,37.3-48.8
																				c4.4-7.5,4.8-15.4,1.1-17.6c-0.7-0.4-1.4-0.6-2.2-0.6C175.6,40,170.5,44.1,166.9,50.3"/>
																		</defs>
																		<clipPath id="SVGID_53_">
																			<use xlink:href="#SVGID_52_"  style="overflow:visible;"/>
																		</clipPath>
																		<g class="st14">
																			<rect x="143.3" y="40" class="st1" width="42.1" height="67"/>
																		</g>
																	</g>
																	<g>
																		<g>
																			<path id="SVGID_29_" class="st1" d="M210.6,39c-3.3,3.5-19,28.2-19,28.2s23.8-17.1,27.1-20.6s4.1-8,1.9-10.1
																				c-0.8-0.7-1.8-1.1-2.9-1.1C215.4,35.4,212.7,36.7,210.6,39"/>
																		</g>
																		<g>
																			<defs>
																				<path id="SVGID_54_" d="M210.6,39c-3.3,3.5-19,28.2-19,28.2s23.8-17.1,27.1-20.6s4.1-8,1.9-10.1
																					c-0.8-0.7-1.8-1.1-2.9-1.1C215.4,35.4,212.7,36.7,210.6,39"/>
																			</defs>
																			<clipPath id="SVGID_55_">
																				<use xlink:href="#SVGID_54_"  style="overflow:visible;"/>
																			</clipPath>
																			<g class="st15">
																				<rect x="191.6" y="35.4" class="st1" width="31.2" height="31.8"/>
																			</g>
																		</g>
																		<g>
																			<g>
																				<path id="SVGID_31_" class="st1" d="M154.3,10.9c-1.1,4.7-2.3,33.9-2.3,33.9s12-26.7,13.2-31.4
																					c1.1-4.7-0.4-9-3.4-9.7c-0.3-0.1-0.6-0.1-0.8-0.1C158.1,3.6,155.3,6.7,154.3,10.9"/>
																			</g>
																			<g>
																				<defs>
																					<path id="SVGID_56_" d="M154.3,10.9c-1.1,4.7-2.3,33.9-2.3,33.9s12-26.7,13.2-31.4c1.1-4.7-0.4-9-3.4-9.7
																						c-0.3-0.1-0.6-0.1-0.8-0.1C158.1,3.6,155.3,6.7,154.3,10.9"/>
																				</defs>
																				<clipPath id="SVGID_57_">
																					<use xlink:href="#SVGID_56_"  style="overflow:visible;"/>
																				</clipPath>
																				<g class="st16">
																					<rect x="151.9" y="3.6" class="st1" width="14.3" height="41.2"/>
																				</g>
																			</g>
																			<g>
																				<g>
																					<path id="SVGID_33_" class="st1" d="M94.3,4.8c-2.9,0.9-4.2,5.3-2.8,9.9c1.4,4.6,15,30.6,15,30.6
																						s-2.9-29.2-4.3-33.7c-1.2-4.1-4.1-6.9-6.8-6.9C95,4.6,94.6,4.7,94.3,4.8"/>
																				</g>
																				<g>
																					<defs>
																						<path id="SVGID_58_" d="M94.3,4.8c-2.9,0.9-4.2,5.3-2.8,9.9c1.4,4.6,15,30.6,15,30.6s-2.9-29.2-4.3-33.7
																							c-1.2-4.1-4.1-6.9-6.8-6.9C95,4.6,94.6,4.7,94.3,4.8"/>
																					</defs>
																					<clipPath id="SVGID_59_">
																						<use xlink:href="#SVGID_58_"  style="overflow:visible;"/>
																					</clipPath>
																					<g class="st17">
																						<rect x="90.1" y="4.6" class="st1" width="16.3" height="40.6"/>
																					</g>
																				</g>
																				<g>
																					<g>
																						<path id="SVGID_35_" class="st1" d="M36.5,39.4c-2.1,2.2-1,6.7,2.5,10s28.2,19,28.2,19S50.1,44.6,46.6,41.3
																							c-2.2-2.1-4.8-3.2-6.9-3.2C38.4,38.2,37.3,38.6,36.5,39.4"/>
																					</g>
																					<g>
																						<defs>
																							<path id="SVGID_60_" d="M36.5,39.4c-2.1,2.2-1,6.7,2.5,10s28.2,19,28.2,19S50.1,44.6,46.6,41.3
																								c-2.2-2.1-4.8-3.2-6.9-3.2C38.4,38.2,37.3,38.6,36.5,39.4"/>
																						</defs>
																						<clipPath id="SVGID_61_">
																							<use xlink:href="#SVGID_60_"  style="overflow:visible;"/>
																						</clipPath>
																						<g class="st18">
																							<rect x="34.4" y="38.2" class="st1" width="32.8" height="30.2"/>
																						</g>
																					</g>
																					<g>
																						<g>
																							<path id="SVGID_37_" class="st1" d="M3.7,98.3c-0.7,3,2.5,6.3,7.2,7.4s33.9,2.3,33.9,2.3S18.1,96,13.5,94.9
																								c-1-0.2-2-0.4-3-0.4C7,94.6,4.3,96,3.7,98.3"/>
																						</g>
																						<g>
																							<defs>
																								<path id="SVGID_62_" d="M3.7,98.3c-0.7,3,2.5,6.3,7.2,7.4s33.9,2.3,33.9,2.3S18.1,96,13.5,94.9
																									c-1-0.2-2-0.4-3-0.4C7,94.6,4.3,96,3.7,98.3"/>
																							</defs>
																							<clipPath id="SVGID_63_">
																								<use xlink:href="#SVGID_62_"  style="overflow:visible;"/>
																							</clipPath>
																							<g class="st19">
																								<rect x="3" y="94.6" class="st1" width="41.8" height="13.5"/>
																							</g>
																						</g>
																						<g>
																							<g>
																								<path id="SVGID_39_" class="st1" d="M11.5,157.9c-4.6,1.4-7.6,4.9-6.7,7.8c0.9,2.9,5.3,4.2,9.9,2.8
																									s30.6-15,30.6-15S16.1,156.5,11.5,157.9"/>
																							</g>
																							<g>
																								<defs>
																									<path id="SVGID_64_" d="M11.5,157.9c-4.6,1.4-7.6,4.9-6.7,7.8c0.9,2.9,5.3,4.2,9.9,2.8s30.6-15,30.6-15
																										S16.1,156.5,11.5,157.9"/>
																								</defs>
																								<clipPath id="SVGID_65_">
																									<use xlink:href="#SVGID_64_"  style="overflow:visible;"/>
																								</clipPath>
																								<g class="st20">
																									<rect x="3.9" y="153.6" class="st1" width="41.4" height="16.3"/>
																								</g>
																							</g>
																							<g>
																								<g>
																									<path id="SVGID_41_" class="st1" d="M41.3,213.4c-3.3,3.5-4.1,8-1.9,10.1c2.2,2.1,6.7,1,10-2.5
																										s19-28.2,19-28.2S44.6,209.9,41.3,213.4"/>
																								</g>
																								<g>
																									<defs>
																										<path id="SVGID_66_" d="M41.3,213.4c-3.3,3.5-4.1,8-1.9,10.1c2.2,2.1,6.7,1,10-2.5s19-28.2,19-28.2
																											S44.6,209.9,41.3,213.4"/>
																									</defs>
																									<clipPath id="SVGID_67_">
																										<use xlink:href="#SVGID_66_"  style="overflow:visible;"/>
																									</clipPath>
																									<g class="st21">
																										<rect x="37.2" y="192.8" class="st1" width="31.2" height="32.8"/>
																									</g>
																								</g>
																								<g>
																									<g>
																										<path id="SVGID_43_" class="st1" d="M94.9,246.5c-1.1,4.7,0.4,9,3.4,9.7s6.3-2.5,7.4-7.2
																											s2.3-33.9,2.3-33.9S96,241.9,94.9,246.5"/>
																									</g>
																									<g>
																										<defs>
																											<path id="SVGID_68_" d="M94.9,246.5c-1.1,4.7,0.4,9,3.4,9.7s6.3-2.5,7.4-7.2s2.3-33.9,2.3-33.9
																												S96,241.9,94.9,246.5"/>
																										</defs>
																										<clipPath id="SVGID_69_">
																											<use xlink:href="#SVGID_68_"  style="overflow:visible;"/>
																										</clipPath>
																										<g class="st22">
																											<rect x="93.8" y="215.2" class="st1" width="14.3" height="41.8"/>
																										</g>
																									</g>
																									<g>
																										<g>
																											<path id="SVGID_45_" class="st1" d="M157.9,248.5c1.4,4.6,4.9,7.6,7.8,6.7c2.9-0.9,4.2-5.3,2.8-9.9
																												c-1.4-4.6-15-30.6-15-30.6S156.5,243.9,157.9,248.5"/>
																										</g>
																										<g>
																											<defs>
																												<path id="SVGID_70_" d="M157.9,248.5c1.4,4.6,4.9,7.6,7.8,6.7c2.9-0.9,4.2-5.3,2.8-9.9
																													c-1.4-4.6-15-30.6-15-30.6S156.5,243.9,157.9,248.5"/>
																											</defs>
																											<clipPath id="SVGID_71_">
																												<use xlink:href="#SVGID_70_"  style="overflow:visible;"/>
																											</clipPath>
																											<g class="st23">
																												<rect x="153.6" y="214.7" class="st1" width="16.3" height="41.4"/>
																											</g>
																										</g>
																										<g>
																											<g>
																												<path id="SVGID_47_" class="st1" d="M213.4,218.7c3.5,3.3,8,4.1,10.1,1.9c2.1-2.2,1-6.7-2.5-10
																													s-28.2-19-28.2-19S209.9,215.4,213.4,218.7"/>
																											</g>
																											<g>
																												<defs>
																													<path id="SVGID_72_" d="M213.4,218.7c3.5,3.3,8,4.1,10.1,1.9c2.1-2.2,1-6.7-2.5-10s-28.2-19-28.2-19
																														S209.9,215.4,213.4,218.7"/>
																												</defs>
																												<clipPath id="SVGID_73_">
																													<use xlink:href="#SVGID_72_"  style="overflow:visible;"/>
																												</clipPath>
																												<g class="st24">
																													<rect x="192.8" y="191.6" class="st1" width="32.8" height="31.2"/>
																												</g>
																											</g>
																											<g>
																												<g>
																													<path id="SVGID_49_" class="st1" d="M246.5,165.1c4.7,1.1,9-0.4,9.7-3.4s-2.5-6.3-7.2-7.4
																														c-4.7-1.1-33.9-2.3-33.9-2.3S241.9,164,246.5,165.1"/>
																												</g>
																												<g>
																													<g>
																														<path id="SVGID_51_" class="st1" d="M245.3,91.4c-4.6,1.4-30.6,15-30.6,15s29.2-2.9,33.7-4.3
																															c4.6-1.4,7.6-4.9,6.7-7.8c-0.6-2.1-3.2-3.4-6.2-3.4C247.8,90.9,246.5,91.1,245.3,91.4"/>
																													</g>
																												</g>
																											</g>
																										</g>
																									</g>
																								</g>
																							</g>
																						</g>
																					</g>
																				</g>
																			</g>
																		</g>
																	</g>
																</g>
															</g>
														</g>
													</g>
												</g>
											</g>
										</g>
									</g>
								</g>
							</g>
						</g>
					</g>
				</g>
			</g>
		</g>
	</g>
	<path class="st25" d="M246.5,165.1c4.7,1.1,9-0.4,9.7-3.4s-2.5-6.3-7.2-7.4c-4.7-1.1-33.9-2.3-33.9-2.3S241.9,164,246.5,165.1"/>
	<path class="st25" d="M245.3,91.4c-4.6,1.4-30.6,15-30.6,15s29.2-2.9,33.7-4.3c4.6-1.4,7.6-4.9,6.7-7.8c-0.6-2.1-3.2-3.4-6.2-3.4
		C247.8,90.9,246.5,91.1,245.3,91.4"/>
</g>
</svg>
