<?xml version="1.0" encoding="utf-8"?>
<!-- Generator: Adobe Illustrator 22.0.0, SVG Export Plug-In . SVG Version: 6.00 Build 0)  -->
<svg version="1.1" xmlns="http://www.w3.org/2000/svg" xmlns:xlink="http://www.w3.org/1999/xlink" x="0px" y="0px" width="103px"
	 height="103px" viewBox="0 0 103 103" style="enable-background:new 0 0 103 103;" xml:space="preserve">
<style type="text/css">
	.st0{clip-path:url(#SVGID_2_);}
	.st1{fill:#FF0000;}
	.st2{clip-path:url(#SVGID_6_);}
	.st3{clip-path:url(#SVGID_10_);}
	.st4{clip-path:url(#SVGID_14_);}
	.st5{clip-path:url(#SVGID_18_);}
	.st6{clip-path:url(#SVGID_22_);}
	.st7{clip-path:url(#SVGID_26_);}
	.st8{clip-path:url(#SVGID_30_);}
	.st9{clip-path:url(#SVGID_34_);}
	.st10{clip-path:url(#SVGID_38_);}
	.st11{clip-path:url(#SVGID_42_);}
	.st12{clip-path:url(#SVGID_46_);}
	.st13{clip-path:url(#SVGID_50_);}
	.st14{clip-path:url(#SVGID_54_);}
	.st15{clip-path:url(#SVGID_58_);}
	.st16{clip-path:url(#SVGID_61_);}
	.st17{clip-path:url(#SVGID_63_);}
	.st18{clip-path:url(#SVGID_65_);}
	.st19{clip-path:url(#SVGID_67_);}
	.st20{clip-path:url(#SVGID_69_);}
	.st21{clip-path:url(#SVGID_71_);}
	.st22{clip-path:url(#SVGID_73_);}
	.st23{clip-path:url(#SVGID_75_);}
	.st24{clip-path:url(#SVGID_77_);}
	.st25{fill:none;}
</style>
<g id="图层_2">
</g>
<g id="图层_1">
	<g>
		<g>
			<defs>
				<rect id="SVGID_1_" width="103" height="103"/>
			</defs>
			<clipPath id="SVGID_2_">
				<use xlink:href="#SVGID_1_"  style="overflow:visible;"/>
			</clipPath>
			<g class="st0">
				<g>
					<g>
						<polygon id="SVGID_3_" class="st1" points="49.3,49.6 44.8,52 49.3,54.4 51.7,58.9 54.1,54.4 58.5,52 54.1,49.6 51.7,45.2 
													"/>
					</g>
					<g>
						<defs>
							<polygon id="SVGID_4_" points="49.3,49.6 44.8,52 49.3,54.4 51.7,58.9 54.1,54.4 58.5,52 54.1,49.6 51.7,45.2 							"/>
						</defs>
						<clipPath id="SVGID_6_">
							<use xlink:href="#SVGID_4_"  style="overflow:visible;"/>
						</clipPath>
						<g class="st2">
							<rect x="44.8" y="45.2" class="st1" width="13.7" height="13.7"/>
						</g>
					</g>
					<g>
						<g>
							<path id="SVGID_5_" class="st1" d="M50.2,38.8c0,0.8,0.7,1.5,1.5,1.5s1.5-0.7,1.5-1.5s-0.7-1.5-1.5-1.5S50.2,38,50.2,38.8"/>
						</g>
						<g>
							<defs>
								<path id="SVGID_8_" d="M50.2,38.8c0,0.8,0.7,1.5,1.5,1.5s1.5-0.7,1.5-1.5s-0.7-1.5-1.5-1.5S50.2,38,50.2,38.8"/>
							</defs>
							<clipPath id="SVGID_10_">
								<use xlink:href="#SVGID_8_"  style="overflow:visible;"/>
							</clipPath>
							<g class="st3">
								<rect x="50.2" y="37.3" class="st1" width="3" height="3"/>
							</g>
						</g>
						<g>
							<g>
								<path id="SVGID_7_" class="st1" d="M50.2,65.3c0,0.8,0.7,1.5,1.5,1.5s1.5-0.7,1.5-1.5s-0.7-1.5-1.5-1.5
									C50.9,63.8,50.2,64.5,50.2,65.3"/>
							</g>
							<g>
								<defs>
									<path id="SVGID_12_" d="M50.2,65.3c0,0.8,0.7,1.5,1.5,1.5s1.5-0.7,1.5-1.5s-0.7-1.5-1.5-1.5C50.9,63.8,50.2,64.5,50.2,65.3
										"/>
								</defs>
								<clipPath id="SVGID_14_">
									<use xlink:href="#SVGID_12_"  style="overflow:visible;"/>
								</clipPath>
								<g class="st4">
									<rect x="50.2" y="63.8" class="st1" width="3" height="3"/>
								</g>
							</g>
							<g>
								<g>
									<path id="SVGID_9_" class="st1" d="M63.4,52.1c0,0.8,0.7,1.5,1.5,1.5s1.5-0.7,1.5-1.5s-0.7-1.5-1.5-1.5
										S63.4,51.2,63.4,52.1"/>
								</g>
								<g>
									<defs>
										<path id="SVGID_16_" d="M63.4,52.1c0,0.8,0.7,1.5,1.5,1.5s1.5-0.7,1.5-1.5s-0.7-1.5-1.5-1.5S63.4,51.2,63.4,52.1"/>
									</defs>
									<clipPath id="SVGID_18_">
										<use xlink:href="#SVGID_16_"  style="overflow:visible;"/>
									</clipPath>
									<g class="st5">
										<rect x="63.4" y="50.6" class="st1" width="3" height="3"/>
									</g>
								</g>
								<g>
									<g>
										<path id="SVGID_11_" class="st1" d="M36.9,52.1c0,0.8,0.7,1.5,1.5,1.5s1.5-0.7,1.5-1.5s-0.7-1.5-1.5-1.5
											C37.6,50.6,36.9,51.2,36.9,52.1"/>
									</g>
									<g>
										<defs>
											<path id="SVGID_20_" d="M36.9,52.1c0,0.8,0.7,1.5,1.5,1.5s1.5-0.7,1.5-1.5s-0.7-1.5-1.5-1.5
												C37.6,50.6,36.9,51.2,36.9,52.1"/>
										</defs>
										<clipPath id="SVGID_22_">
											<use xlink:href="#SVGID_20_"  style="overflow:visible;"/>
										</clipPath>
										<g class="st6">
											<rect x="36.9" y="50.6" class="st1" width="3" height="3"/>
										</g>
									</g>
									<g>
										<g>
											<path id="SVGID_13_" class="st1" d="M49.4,12c0,2.4,2.3,20.4,2.3,20.4S54,14.4,54,12s-1-4.4-2.3-4.4
												C50.4,7.6,49.4,9.6,49.4,12"/>
										</g>
										<g>
											<defs>
												<path id="SVGID_24_" d="M49.4,12c0,2.4,2.3,20.4,2.3,20.4S54,14.4,54,12s-1-4.4-2.3-4.4C50.4,7.6,49.4,9.6,49.4,12"/>
											</defs>
											<clipPath id="SVGID_26_">
												<use xlink:href="#SVGID_24_"  style="overflow:visible;"/>
											</clipPath>
											<g class="st7">
												<rect x="49.4" y="7.6" class="st1" width="4.5" height="24.8"/>
											</g>
										</g>
										<g>
											<g>
												<path id="SVGID_15_" class="st1" d="M29.4,13.6c-1.1,0.6-1,2.8,0.3,4.9C30.9,20.6,41.8,35,41.8,35s-7-16.7-8.2-18.8
													c-1-1.7-2.4-2.9-3.5-2.9C29.8,13.5,29.6,13.5,29.4,13.6"/>
											</g>
											<g>
												<defs>
													<path id="SVGID_28_" d="M29.4,13.6c-1.1,0.6-1,2.8,0.3,4.9C30.9,20.6,41.8,35,41.8,35s-7-16.7-8.2-18.8
														c-1-1.7-2.4-2.9-3.5-2.9C29.8,13.5,29.6,13.5,29.4,13.6"/>
												</defs>
												<clipPath id="SVGID_30_">
													<use xlink:href="#SVGID_28_"  style="overflow:visible;"/>
												</clipPath>
												<g class="st8">
													<rect x="28.3" y="13.5" class="st1" width="13.5" height="21.6"/>
												</g>
											</g>
											<g>
												<g>
													<path id="SVGID_17_" class="st1" d="M13.1,30c-0.6,1.1,0.6,2.9,2.7,4.2c2.1,1.2,18.8,8.2,18.8,8.2S20.1,31.4,18,30.2
														c-1.1-0.7-2.3-1-3.2-1C14,29.2,13.4,29.5,13.1,30"/>
												</g>
												<g>
													<defs>
														<path id="SVGID_32_" d="M13.1,30c-0.6,1.1,0.6,2.9,2.7,4.2c2.1,1.2,18.8,8.2,18.8,8.2S20.1,31.4,18,30.2
															c-1.1-0.7-2.3-1-3.2-1C14,29.2,13.4,29.5,13.1,30"/>
													</defs>
													<clipPath id="SVGID_34_">
														<use xlink:href="#SVGID_32_"  style="overflow:visible;"/>
													</clipPath>
													<g class="st9">
														<rect x="12.5" y="29.2" class="st1" width="22.1" height="13.1"/>
													</g>
												</g>
												<g>
													<g>
														<path id="SVGID_19_" class="st1" d="M7.2,52.3c0,1.2,2,2.3,4.4,2.3S32,52.3,32,52.3S14,50,11.6,50S7.2,51,7.2,52.3"/>
													</g>
													<g>
														<defs>
															<path id="SVGID_36_" d="M7.2,52.3c0,1.2,2,2.3,4.4,2.3S32,52.3,32,52.3S14,50,11.6,50S7.2,51,7.2,52.3"/>
														</defs>
														<clipPath id="SVGID_38_">
															<use xlink:href="#SVGID_36_"  style="overflow:visible;"/>
														</clipPath>
														<g class="st10">
															<rect x="7.2" y="50" class="st1" width="24.8" height="4.5"/>
														</g>
													</g>
													<g>
														<g>
															<path id="SVGID_21_" class="st1" d="M15.8,70.4c-2.1,1.2-3.3,3.1-2.7,4.2s2.8,1,4.9-0.3c2.1-1.2,16.5-12.1,16.5-12.1
																S18,69.2,15.8,70.4"/>
														</g>
														<g>
															<defs>
																<path id="SVGID_40_" d="M15.8,70.4c-2.1,1.2-3.3,3.1-2.7,4.2s2.8,1,4.9-0.3c2.1-1.2,16.5-12.1,16.5-12.1
																	S18,69.2,15.8,70.4"/>
															</defs>
															<clipPath id="SVGID_42_">
																<use xlink:href="#SVGID_40_"  style="overflow:visible;"/>
															</clipPath>
															<g class="st11">
																<rect x="12.5" y="62.2" class="st1" width="22.1" height="13.5"/>
															</g>
														</g>
														<g>
															<g>
																<path id="SVGID_23_" class="st1" d="M29.7,85.9c-1.2,2.1-1.3,4.3-0.3,4.9c1.1,0.6,2.9-0.6,4.2-2.7
																	c1.2-2.1,8.2-18.8,8.2-18.8S31,83.8,29.7,85.9"/>
															</g>
															<g>
																<defs>
																	<path id="SVGID_44_" d="M29.7,85.9c-1.2,2.1-1.3,4.3-0.3,4.9c1.1,0.6,2.9-0.6,4.2-2.7c1.2-2.1,8.2-18.8,8.2-18.8
																		S31,83.8,29.7,85.9"/>
																</defs>
																<clipPath id="SVGID_46_">
																	<use xlink:href="#SVGID_44_"  style="overflow:visible;"/>
																</clipPath>
																<g class="st12">
																	<rect x="28.4" y="69.4" class="st1" width="13.5" height="22.1"/>
																</g>
															</g>
															<g>
																<g>
																	<path id="SVGID_25_" class="st1" d="M49.5,92.4c0,2.4,1,4.4,2.3,4.4c1.2,0,2.3-2,2.3-4.4C54,90,51.8,72,51.8,72
																		S49.5,90,49.5,92.4"/>
																</g>
																<g>
																	<defs>
																		<path id="SVGID_48_" d="M49.5,92.4c0,2.4,1,4.4,2.3,4.4c1.2,0,2.3-2,2.3-4.4C54,90,51.8,72,51.8,72
																			S49.5,90,49.5,92.4"/>
																	</defs>
																	<clipPath id="SVGID_50_">
																		<use xlink:href="#SVGID_48_"  style="overflow:visible;"/>
																	</clipPath>
																	<g class="st13">
																		<rect x="49.5" y="72" class="st1" width="4.5" height="24.8"/>
																	</g>
																</g>
																<g>
																	<g>
																		<path id="SVGID_27_" class="st1" d="M69.9,88.1c1.2,2.1,3.1,3.3,4.2,2.7c1.1-0.6,1-2.8-0.3-4.9
																			c-1.2-2.1-12.1-16.5-12.1-16.5S68.7,86,69.9,88.1"/>
																	</g>
																	<g>
																		<defs>
																			<path id="SVGID_52_" d="M69.9,88.1c1.2,2.1,3.1,3.3,4.2,2.7c1.1-0.6,1-2.8-0.3-4.9c-1.2-2.1-12.1-16.5-12.1-16.5
																				S68.7,86,69.9,88.1"/>
																		</defs>
																		<clipPath id="SVGID_54_">
																			<use xlink:href="#SVGID_52_"  style="overflow:visible;"/>
																		</clipPath>
																		<g class="st14">
																			<rect x="61.7" y="69.3" class="st1" width="13.5" height="22.1"/>
																		</g>
																	</g>
																	<g>
																		<g>
																			<path id="SVGID_29_" class="st1" d="M85.4,74.2c2.1,1.2,4.3,1.3,4.9,0.3c0.6-1.1-0.6-2.9-2.7-4.2
																				c-2.1-1.2-18.8-8.2-18.8-8.2S83.3,73,85.4,74.2"/>
																		</g>
																		<g>
																			<defs>
																				<path id="SVGID_56_" d="M85.4,74.2c2.1,1.2,4.3,1.3,4.9,0.3c0.6-1.1-0.6-2.9-2.7-4.2
																					c-2.1-1.2-18.8-8.2-18.8-8.2S83.3,73,85.4,74.2"/>
																			</defs>
																			<clipPath id="SVGID_58_">
																				<use xlink:href="#SVGID_56_"  style="overflow:visible;"/>
																			</clipPath>
																			<g class="st15">
																				<rect x="68.9" y="62.1" class="st1" width="22.1" height="13.5"/>
																			</g>
																		</g>
																		<g>
																			<g>
																				<path id="SVGID_31_" class="st1" d="M71.5,52.2c0,0,18,2.3,20.4,2.3s4.4-1,4.4-2.3c0-1.2-2-2.3-4.4-2.3
																					S71.5,52.2,71.5,52.2"/>
																			</g>
																			<g>
																				<defs>
																					<path id="SVGID_60_" d="M71.5,52.2c0,0,18,2.3,20.4,2.3s4.4-1,4.4-2.3c0-1.2-2-2.3-4.4-2.3
																						S71.5,52.2,71.5,52.2"/>
																				</defs>
																				<clipPath id="SVGID_61_">
																					<use xlink:href="#SVGID_60_"  style="overflow:visible;"/>
																				</clipPath>
																				<g class="st16">
																					<rect x="71.5" y="49.9" class="st1" width="24.8" height="4.5"/>
																				</g>
																			</g>
																			<g>
																				<g>
																					<path id="SVGID_33_" class="st1" d="M85.4,30.1c-2.1,1.2-16.5,12.1-16.5,12.1s16.7-7,18.8-8.2
																						c2.1-1.2,3.3-3.1,2.7-4.2c-0.3-0.5-0.9-0.7-1.7-0.7C87.7,29.1,86.5,29.5,85.4,30.1"/>
																				</g>
																				<g>
																					<defs>
																						<path id="SVGID_62_" d="M85.4,30.1c-2.1,1.2-16.5,12.1-16.5,12.1s16.7-7,18.8-8.2c2.1-1.2,3.3-3.1,2.7-4.2
																							c-0.3-0.5-0.9-0.7-1.7-0.7C87.7,29.1,86.5,29.5,85.4,30.1"/>
																					</defs>
																					<clipPath id="SVGID_63_">
																						<use xlink:href="#SVGID_62_"  style="overflow:visible;"/>
																					</clipPath>
																					<g class="st17">
																						<rect x="68.8" y="29.1" class="st1" width="22.1" height="13.1"/>
																					</g>
																				</g>
																				<g>
																					<g>
																						<path id="SVGID_35_" class="st1" d="M69.8,16.3C68.6,18.4,61.6,35,61.6,35s10.9-14.4,12.1-16.5
																							s1.3-4.3,0.3-4.9c-0.2-0.1-0.4-0.2-0.6-0.2C72.3,13.4,70.8,14.5,69.8,16.3"/>
																					</g>
																					<g>
																						<defs>
																							<path id="SVGID_64_" d="M69.8,16.3C68.6,18.4,61.6,35,61.6,35s10.9-14.4,12.1-16.5s1.3-4.3,0.3-4.9
																								c-0.2-0.1-0.4-0.2-0.6-0.2C72.3,13.4,70.8,14.5,69.8,16.3"/>
																						</defs>
																						<clipPath id="SVGID_65_">
																							<use xlink:href="#SVGID_64_"  style="overflow:visible;"/>
																						</clipPath>
																						<g class="st18">
																							<rect x="61.6" y="13.4" class="st1" width="13.5" height="21.6"/>
																						</g>
																					</g>
																					<g>
																						<g>
																							<path id="SVGID_37_" class="st1" d="M62.7,2.8c-0.2,1.1-0.8,11.3-0.8,11.3S65.8,4.6,66,3.5s-0.3-2.2-1.2-2.4
																								c-0.1,0-0.2,0-0.3,0C63.7,1.1,62.9,1.8,62.7,2.8"/>
																						</g>
																						<g>
																							<defs>
																								<path id="SVGID_66_" d="M62.7,2.8c-0.2,1.1-0.8,11.3-0.8,11.3S65.8,4.6,66,3.5s-0.3-2.2-1.2-2.4
																									c-0.1,0-0.2,0-0.3,0C63.7,1.1,62.9,1.8,62.7,2.8"/>
																							</defs>
																							<clipPath id="SVGID_67_">
																								<use xlink:href="#SVGID_66_"  style="overflow:visible;"/>
																							</clipPath>
																							<g class="st19">
																								<rect x="61.9" y="1.1" class="st1" width="4.4" height="13"/>
																							</g>
																						</g>
																						<g>
																							<g>
																								<path id="SVGID_39_" class="st1" d="M37.9,1.3c-0.9,0.3-1.4,1.4-1,2.4c0.3,1.1,4.9,10.2,4.9,10.2
																									S40.4,3.8,40.1,2.7c-0.3-0.9-1-1.5-1.8-1.5C38.2,1.2,38,1.2,37.9,1.3"/>
																							</g>
																							<g>
																								<defs>
																									<path id="SVGID_68_" d="M37.9,1.3c-0.9,0.3-1.4,1.4-1,2.4c0.3,1.1,4.9,10.2,4.9,10.2S40.4,3.8,40.1,2.7
																										c-0.3-0.9-1-1.5-1.8-1.5C38.2,1.2,38,1.2,37.9,1.3"/>
																								</defs>
																								<clipPath id="SVGID_69_">
																									<use xlink:href="#SVGID_68_"  style="overflow:visible;"/>
																								</clipPath>
																								<g class="st20">
																									<rect x="36.5" y="1.2" class="st1" width="5.3" height="12.7"/>
																								</g>
																							</g>
																							<g>
																								<g>
																									<path id="SVGID_41_" class="st1" d="M14.6,14.8c-0.6,0.7-0.5,1.9,0.3,2.6c0.8,0.8,9.4,6.4,9.4,6.4
																										s-6.2-8.1-7.1-8.9c-0.4-0.4-1-0.6-1.5-0.6C15.3,14.3,14.9,14.5,14.6,14.8"/>
																								</g>
																								<g>
																									<defs>
																										<path id="SVGID_70_" d="M14.6,14.8c-0.6,0.7-0.5,1.9,0.3,2.6c0.8,0.8,9.4,6.4,9.4,6.4s-6.2-8.1-7.1-8.9
																											c-0.4-0.4-1-0.6-1.5-0.6C15.3,14.3,14.9,14.5,14.6,14.8"/>
																									</defs>
																									<clipPath id="SVGID_71_">
																										<use xlink:href="#SVGID_70_"  style="overflow:visible;"/>
																									</clipPath>
																									<g class="st21">
																										<rect x="13.9" y="14.3" class="st1" width="10.4" height="9.5"/>
																									</g>
																								</g>
																								<g>
																									<g>
																										<path id="SVGID_43_" class="st1" d="M1.2,38.2C1,39.1,1.7,40,2.8,40.3s11.3,0.8,11.3,0.8S4.6,37.2,3.5,37
																											c-0.2,0-0.4-0.1-0.5-0.1C2.1,36.9,1.3,37.4,1.2,38.2"/>
																									</g>
																									<g>
																										<defs>
																											<path id="SVGID_72_" d="M1.2,38.2C1,39.1,1.7,40,2.8,40.3s11.3,0.8,11.3,0.8S4.6,37.2,3.5,37
																												c-0.2,0-0.4-0.1-0.5-0.1C2.1,36.9,1.3,37.4,1.2,38.2"/>
																										</defs>
																										<clipPath id="SVGID_73_">
																											<use xlink:href="#SVGID_72_"  style="overflow:visible;"/>
																										</clipPath>
																										<g class="st22">
																											<rect x="1" y="36.9" class="st1" width="13.1" height="4.2"/>
																										</g>
																									</g>
																									<g>
																										<g>
																											<path id="SVGID_45_" class="st1" d="M2.7,62.9c-1.1,0.3-1.7,1.3-1.4,2.2c0.3,0.9,1.4,1.4,2.4,1
																												c1.1-0.3,10.2-4.9,10.2-4.9S3.8,62.6,2.7,62.9"/>
																										</g>
																										<g>
																											<defs>
																												<path id="SVGID_74_" d="M2.7,62.9c-1.1,0.3-1.7,1.3-1.4,2.2c0.3,0.9,1.4,1.4,2.4,1
																													c1.1-0.3,10.2-4.9,10.2-4.9S3.8,62.6,2.7,62.9"/>
																											</defs>
																											<clipPath id="SVGID_75_">
																												<use xlink:href="#SVGID_74_"  style="overflow:visible;"/>
																											</clipPath>
																											<g class="st23">
																												<rect x="1" y="61.2" class="st1" width="12.9" height="5.3"/>
																											</g>
																										</g>
																										<g>
																											<g>
																												<path id="SVGID_47_" class="st1" d="M14.9,85.8c-0.8,0.8-0.8,2-0.1,2.7c0.7,0.6,1.9,0.5,2.6-0.3
																													c0.8-0.8,6.4-9.4,6.4-9.4S15.7,84.9,14.9,85.8"/>
																											</g>
																											<g>
																												<defs>
																													<path id="SVGID_76_" d="M14.9,85.8c-0.8,0.8-0.8,2-0.1,2.7c0.7,0.6,1.9,0.5,2.6-0.3
																														c0.8-0.8,6.4-9.4,6.4-9.4S15.7,84.9,14.9,85.8"/>
																												</defs>
																												<clipPath id="SVGID_77_">
																													<use xlink:href="#SVGID_76_"  style="overflow:visible;"/>
																												</clipPath>
																												<g class="st24">
																													<rect x="14.1" y="78.7" class="st1" width="9.7" height="10.4"/>
																												</g>
																											</g>
																											<g>
																												<g>
																													<path id="SVGID_49_" class="st1" d="M37,99.5c-0.3,1.1,0.3,2.2,1.2,2.4c0.9,0.2,1.9-0.5,2.1-1.6
																														c0.2-1.1,0.8-11.3,0.8-11.3S37.2,98.4,37,99.5"/>
																												</g>
																												<g>
																													<g>
																														<path id="SVGID_51_" class="st1" d="M62.9,100.3c0.3,1.1,1.3,1.7,2.2,1.4c0.9-0.3,1.4-1.4,1-2.4
																															c-0.3-1.1-4.9-10.2-4.9-10.2S62.6,99.2,62.9,100.3"/>
																													</g>
																													<g>
																														<path id="SVGID_53_" class="st1" d="M85.8,88.1c0.8,0.8,2,0.8,2.7,0.1c0.6-0.7,0.5-1.9-0.3-2.6
																															c-0.8-0.8-9.4-6.4-9.4-6.4S84.9,87.3,85.8,88.1"/>
																													</g>
																													<g>
																														<path id="SVGID_55_" class="st1" d="M99.5,66c1.1,0.3,2.2-0.3,2.4-1.2c0.2-0.9-0.5-1.9-1.6-2.1
																															C99.2,62.5,89,61.9,89,61.9S98.4,65.8,99.5,66"/>
																													</g>
																													<g>
																														<path id="SVGID_57_" class="st1" d="M99.3,36.8c-1.1,0.3-10.2,4.9-10.2,4.9s10.2-1.3,11.2-1.7
																															c1.1-0.3,1.7-1.3,1.4-2.2c-0.2-0.7-0.9-1.1-1.7-1.1C99.8,36.7,99.5,36.8,99.3,36.8"/>
																													</g>
																													<g>
																														<path id="SVGID_59_" class="st1" d="M85.6,14.9c-0.8,0.8-6.4,9.4-6.4,9.4s8.1-6.2,8.9-7.1
																															c0.8-0.8,0.8-2,0.1-2.7c-0.3-0.3-0.7-0.4-1.1-0.4C86.6,14.2,86,14.4,85.6,14.9"/>
																													</g>
																												</g>
																											</g>
																										</g>
																									</g>
																								</g>
																							</g>
																						</g>
																					</g>
																				</g>
																			</g>
																		</g>
																	</g>
																</g>
															</g>
														</g>
													</g>
												</g>
											</g>
										</g>
									</g>
								</g>
							</g>
						</g>
					</g>
				</g>
			</g>
		</g>
	</g>
	<path class="st25" d="M37,99.5c-0.3,1.1,0.3,2.2,1.2,2.4c0.9,0.2,1.9-0.5,2.1-1.6c0.2-1.1,0.8-11.3,0.8-11.3S37.2,98.4,37,99.5"/>
	<path class="st25" d="M62.9,100.3c0.3,1.1,1.3,1.7,2.2,1.4c0.9-0.3,1.4-1.4,1-2.4c-0.3-1.1-4.9-10.2-4.9-10.2S62.6,99.2,62.9,100.3
		"/>
	<path class="st25" d="M85.8,88.1c0.8,0.8,2,0.8,2.7,0.1c0.6-0.7,0.5-1.9-0.3-2.6c-0.8-0.8-9.4-6.4-9.4-6.4S84.9,87.3,85.8,88.1"/>
	<path class="st25" d="M99.5,66c1.1,0.3,2.2-0.3,2.4-1.2c0.2-0.9-0.5-1.9-1.6-2.1C99.2,62.5,89,61.9,89,61.9S98.4,65.8,99.5,66"/>
	<path class="st25" d="M99.3,36.8c-1.1,0.3-10.2,4.9-10.2,4.9s10.2-1.3,11.2-1.7c1.1-0.3,1.7-1.3,1.4-2.2c-0.2-0.7-0.9-1.1-1.7-1.1
		C99.8,36.7,99.5,36.8,99.3,36.8"/>
	<path class="st25" d="M85.6,14.9c-0.8,0.8-6.4,9.4-6.4,9.4s8.1-6.2,8.9-7.1c0.8-0.8,0.8-2,0.1-2.7c-0.3-0.3-0.7-0.4-1.1-0.4
		C86.6,14.2,86,14.4,85.6,14.9"/>
</g>
</svg>
