<?xml version="1.0" encoding="utf-8"?>
<!-- Generator: Adobe Illustrator 22.0.0, SVG Export Plug-In . SVG Version: 6.00 Build 0)  -->
<svg version="1.1" id="图层_1" xmlns="http://www.w3.org/2000/svg" xmlns:xlink="http://www.w3.org/1999/xlink" x="0px" y="0px"
	 width="80px" height="80px" viewBox="0 0 80 80" style="enable-background:new 0 0 80 80;" xml:space="preserve">
<style type="text/css">
	.st0{clip-path:url(#SVGID_2_);}
	.st1{fill:#FA9898;}
</style>
<g>
	<defs>
		<rect id="SVGID_1_" width="80" height="80"/>
	</defs>
	<clipPath id="SVGID_2_">
		<use xlink:href="#SVGID_1_"  style="overflow:visible;"/>
	</clipPath>
	<g class="st0">
		<g>
			<g>
				<circle cx="75.2" cy="73.9" r="3"/>
			</g>
		</g>
		<g>
			<g>
				<circle cx="9.2" cy="24.9" r="3"/>
			</g>
		</g>
		<g>
			<g>
				<circle cx="14.2" cy="17.9" r="2"/>
			</g>
		</g>
		<g>
			<g>
				<circle cx="4.2" cy="75.9" r="2"/>
			</g>
		</g>
		<g>
			<g>
				<g>
					<g>
						<path d="M15.5,43c-0.7,0-1.5-0.3-2-0.8c-1.1-1.1-1.1-2.9,0-4L38,13.6c1.1-1.1,2.9-1.1,4,0c1.1,1.1,1.1,2.9,0,4L17.5,42.1
							C16.9,42.7,16.2,43,15.5,43z"/>
					</g>
				</g>
				<g>
					<g>
						<path d="M39.6,63.4h-19c-1.6,0-2.8-1.3-2.8-2.8V36.5c0-1.6,1.3-2.8,2.8-2.8s2.8,1.3,2.8,2.8v21.3h16.2c1.6,0,2.8,1.3,2.8,2.8
							S41.2,63.4,39.6,63.4z"/>
					</g>
				</g>
			</g>
			<g>
				<g>
					<g>
						<path d="M64.5,43c-0.7,0-1.5-0.3-2-0.8L38,17.6c-1.1-1.1-1.1-2.9,0-4c1.1-1.1,2.9-1.1,4,0l24.5,24.5c1.1,1.1,1.1,2.9,0,4
							C65.9,42.7,65.2,43,64.5,43z"/>
					</g>
				</g>
				<g>
					<g>
						<path d="M59.4,63.4h-19c-1.6,0-2.8-1.3-2.8-2.8s1.3-2.8,2.8-2.8h16.2V36.5c0-1.6,1.3-2.8,2.8-2.8s2.8,1.3,2.8,2.8v24.1
							C62.2,62.2,60.9,63.4,59.4,63.4z"/>
					</g>
				</g>
			</g>
		</g>
		<g>
			<g>
				<path d="M40,75.2c-19,0-38.2-4.8-38.2-13.9c0-5.2,5.9-9.3,16.9-11.8c1.5-0.3,3,0.6,3.4,2.1s-0.6,3-2.1,3.4
					c-9.4,2.1-12.5,5.1-12.5,6.2c0,2.9,12.3,8.2,32.5,8.2s32.5-5.3,32.5-8.2c0-1.1-3.1-4.1-12.5-6.2c-1.5-0.3-2.5-1.9-2.1-3.4
					s1.9-2.5,3.4-2.1c11.1,2.5,16.9,6.6,16.9,11.8C78.1,70.4,58.9,75.2,40,75.2z"/>
			</g>
		</g>
		<g>
			<g>
				<path class="st1" d="M44.5,33.9c-1,0.1-2,0.5-2.8,1.1c-0.4,0.2-0.7,0.5-1,0.8c-0.2,0.2-0.4,0.4-0.6,0.6
					c-0.3-0.3-0.5-0.6-0.8-0.8c-0.9-0.9-2-1.4-3.3-1.6c-0.6-0.1-1.3-0.1-2-0.1c-0.9,0.1-1.8,0.4-2.6,0.8c-0.5,0.3-1,0.6-1.4,1.1
					c-0.9,0.9-1.5,2-1.8,3.3c-0.1,0.3-0.1,0.6-0.2,0.9v1.2c0.1,0.3,0.1,0.6,0.2,0.8c0.2,1,0.6,1.9,1.3,2.7c0.7,0.9,1.6,1.7,2.5,2.4
					c0.6,0.5,1.2,1.1,1.9,1.6c1,0.8,1.9,1.6,2.9,2.4c0.6,0.5,1.3,1.1,1.9,1.7c0.4,0.3,0.8,0.6,1.2,1c0.1,0,0.1,0.1,0.1,0.2H40
					c0.7-0.6,1.3-1.1,2-1.7c1-0.8,1.9-1.6,2.9-2.4c0.6-0.5,1.3-1.1,1.9-1.7c0.8-0.7,1.7-1.4,2.5-2.1c0.8-0.7,1.5-1.4,1.9-2.4
					c0.3-0.7,0.6-1.4,0.6-2.1c0,0,0,0,0.1-0.1v-1.7c-0.1-0.3-0.2-0.7-0.3-1c-0.2-0.8-0.6-1.5-1.1-2.2c-0.8-1.1-1.9-1.9-3.2-2.3
					C46.5,33.8,45.5,33.8,44.5,33.9L44.5,33.9z M44.5,33.9"/>
			</g>
		</g>
	</g>
</g>
</svg>
