<?xml version="1.0" encoding="utf-8"?>
<!-- Generator: Adobe Illustrator 22.0.0, SVG Export Plug-In . SVG Version: 6.00 Build 0)  -->
<svg version="1.1" id="图层_1" xmlns="http://www.w3.org/2000/svg" xmlns:xlink="http://www.w3.org/1999/xlink" x="0px" y="0px"
	 width="160px" height="260px" viewBox="0 0 160 260" style="enable-background:new 0 0 160 260;" xml:space="preserve">
<style type="text/css">
	.st0{clip-path:url(#SVGID_2_);}
	.st1{fill:#FACBCB;}
	.st2{fill:#FA9898;}
</style>
<g>
	<defs>
		<rect id="SVGID_1_" width="160" height="260"/>
	</defs>
	<clipPath id="SVGID_2_">
		<use xlink:href="#SVGID_1_"  style="overflow:visible;"/>
	</clipPath>
	<g class="st0">
		<g>
			<path class="st1" d="M105.9,154.5c-0.6,0.1-1.2,0.1-1.8,0.1c-3.6,0-6.9-0.9-9.8-2.4c-3.5,3.4-8.1,5.8-12.9,6.3
				c-0.2,0-0.5,0.1-0.7,0.1c6.4,3.7,10.6,10.8,11,18.6c0.3,5.8-2.3,11.2-6.4,15.1c2.9,1.4,6.1,2.2,9.6,2.2
				c11.9,0,21.6-9.7,21.6-21.6C116.4,165.1,112.2,158.3,105.9,154.5z"/>
		</g>
		<g>
			<path class="st1" d="M56.8,108.3l-5.4,4.8c-1.3,1.2-0.7,3.3,1,3.7l8.3,1.8c1.7,0.4,3.1-1.4,2.4-3l-2.9-6.6
				C59.6,107.7,57.8,107.3,56.8,108.3z"/>
		</g>
		<g>
			<path class="st2" d="M101.8,178.8l-5.3-4.9c-1.3-1.2-3.4-0.4-3.6,1.4l-0.9,8.5c-0.2,1.7,1.7,3,3.2,2.1l6.2-3.6
				C102.7,181.5,102.9,179.8,101.8,178.8z"/>
		</g>
		<g>
			<path d="M82.4,163c-1.2,0-2.4-0.6-3.1-1.8c-1-1.7-0.4-3.9,1.3-4.8c9.7-5.5,15.2-11.8,15.9-18.2c0.5-4.7-1.5-9.4-5.9-13.4
				c-7.8-7.2-20.7,2.6-20.9,2.7c-1.5,1.2-3.8,0.9-5-0.6c-1.2-1.5-0.9-3.8,0.6-5c0.7-0.6,17.8-13.6,30-2.4c6,5.5,8.9,12.4,8.1,19.4
				c-0.7,6.1-4.6,15.2-19.5,23.6C83.6,162.9,83,163,82.4,163z"/>
		</g>
		<g>
			<path d="M104.1,157.9c-9.6,0-12.5-5.6-12.8-6.3l6.4-3c0,0,0,0-0.1-0.1c0.1,0.1,1.4,2.3,6.5,2.3c4.3,0,9.5-4.3,10.9-16.4
				c0.6-5.1-0.3-9.1-2.7-11.8c-3-3.4-7.3-3.7-9-3.7c-5.4,0-7.9,4-8,4.2c-1,1.7-3.2,2.2-4.8,1.2c-1.7-1-2.3-3.1-1.3-4.8
				c0.2-0.3,4.5-7.7,14.1-7.7c5.6,0,10.9,2.2,14.3,6.1c2.6,2.9,5.5,8.3,4.5,17.3C120,152,111.5,157.9,104.1,157.9z"/>
		</g>
		<g>
			<ellipse class="st1" cx="57.5" cy="138.9" rx="7.2" ry="9.1"/>
		</g>
		<g>
			<g>
				<path class="st2" d="M62.8,66.8c-0.5,0-1-0.1-1.4-0.4c-1-0.6-1.5-1.6-1.4-2.8c0.3-2.9-0.9-5-2.5-7.7c-1.4-2.4-2.9-5.1-3.6-8.6
					c-0.4-2.1-0.6-4.6,0.4-6.9c1.6-3.6,4.9-5.6,9.1-5.6c0.3,0,0.7,0,1,0c3,0.2,7.4,2.8,8.9,6.3c0.4,0.9,0.6,1.7,0.8,2.5
					c0.8-0.3,1.7-0.5,2.6-0.6c0.4-0.1,0.7-0.1,1.1-0.1c3.6,0,7.4,2.3,8.9,4.4c2.8,3.9,3,8,0.5,11.6c-1.4,2.1-3.7,3.2-5.7,4
					c-3.4,1.3-6.4,1.4-9.2,1.5c-3.1,0.1-5.5,0.2-7.9,1.9C64,66.6,63.4,66.8,62.8,66.8z"/>
			</g>
			<g>
				<path d="M63.4,37.6c0.3,0,0.5,0,0.8,0c1.9,0.1,5.4,2.1,6.5,4.6c0.8,1.9,1,3.8,1,5.7c1.7-1,3.4-1.9,5.4-2.2c0.2,0,0.5,0,0.7,0
					c2.6,0,5.5,1.8,6.6,3.2c2.9,4.1,1.4,7,0.5,8.3c-1,1.4-2.7,2.3-4.4,2.9c-6.7,2.6-12.3-0.3-17.7,3.8c0.7-6.8-4.9-10.1-6.1-17.1
					c-0.3-1.8-0.5-3.7,0.2-5.3C57.5,40.1,59,37.6,63.4,37.6 M63.4,31.9L63.4,31.9c-5.4,0-9.6,2.6-11.7,7.3c-1.4,3-1,6.2-0.6,8.6
					c0.7,4.1,2.5,7.1,3.9,9.5c1.6,2.7,2.3,4.1,2.1,6c-0.2,2.2,0.9,4.4,2.9,5.5c0.9,0.5,1.8,0.7,2.8,0.7c1.2,0,2.4-0.4,3.4-1.2
					c1.5-1.2,3.1-1.3,6.2-1.4c2.8-0.1,6.3-0.2,10.1-1.7c2.3-0.9,5.1-2.2,7-5c3.1-4.6,2.9-10-0.6-14.8c-1.9-2.7-6.5-5.6-11.2-5.6
					c-0.5,0-1,0-1.5,0.1c-0.1,0-0.2,0-0.3,0c0-0.1-0.1-0.2-0.1-0.3c-2-4.6-7.4-7.7-11.3-8C64.2,31.9,63.8,31.9,63.4,31.9L63.4,31.9z
					"/>
			</g>
		</g>
		<path d="M160,203.1c-18.4-1.3-23.4-7.9-25.1-10.1c-0.5-0.8-1.5-4.4-2.4-7.6c-3.1-10.8-7.7-27.2-16.6-36.1c-1.4-1.4-3.6-1.4-5,0
			c-1.4,1.4-1.4,3.6,0,5c7.6,7.6,12.1,23.5,14.8,33c1.6,5.7,2.4,8.3,3.5,9.8c3.9,5.1,11.2,11.8,30.8,13.1V203.1z"/>
		<path d="M61.5,260h14.6c-0.4-0.2-0.9-0.5-1.5-0.7c-23.3-11-39-32.9-46.7-65.1c-8.9-36.9,0.4-55.4,6.7-63.2
			c5.6-6.9,11.9-9.2,15.6-9.1c5.9,0.2,13.9,2.5,17.2,8.4c3.1,5.5,1.7,13.7-4.1,23.6c-0.6,1.1-0.6,2.5,0,3.6c0.7,1.1,1.9,1.8,3.2,1.7
			c0.7,0,18.1-0.5,20.1,12.3c1.4,8.6-0.1,15.5-4.1,19.4c-3.8,3.7-10,4.8-18.4,3.3c-1.9-0.4-3.8,0.9-4.1,2.8
			c-0.4,1.9,0.9,3.8,2.8,4.1c10.8,2,19.1,0.3,24.7-5.2c5.7-5.6,7.9-14.6,6.2-25.6c-1.9-12.2-12.9-16.8-21.5-17.9
			c4.8-10.2,5.3-18.8,1.5-25.6c-4.7-8.5-15.1-11.8-23.2-12c-0.2,0-0.3,0-0.5,0c-6.9,0-14.8,4.5-20.8,11.7
			c-7.2,8.8-17.7,29.5-8.1,69.3C28.1,225.4,41.7,246.9,61.5,260z"/>
	</g>
</g>
</svg>
