<?xml version="1.0" encoding="utf-8"?>
<!-- Generator: Adobe Illustrator 22.0.0, SVG Export Plug-In . SVG Version: 6.00 Build 0)  -->
<svg version="1.1" id="图层_1" xmlns="http://www.w3.org/2000/svg" xmlns:xlink="http://www.w3.org/1999/xlink" x="0px" y="0px"
	 width="260px" height="260px" viewBox="0 0 260 260" style="enable-background:new 0 0 260 260;" xml:space="preserve">
<style type="text/css">
	.st0{clip-path:url(#SVGID_2_);}
	.st1{fill:#FFFFFF;}
	.st2{fill:#FACBCB;}
	.st3{fill:#FA9898;}
	.st4{fill:#39B34A;}
	.st5{fill:#FAD558;}
</style>
<g>
	<g>
		<defs>
			<rect id="SVGID_1_" width="260" height="260"/>
		</defs>
		<clipPath id="SVGID_2_">
			<use xlink:href="#SVGID_1_"  style="overflow:visible;"/>
		</clipPath>
		<g class="st0">
			<g>
				<g>
					<g>
						<g>
							<g>
								<g>
									<path class="st1" d="M19.2,156.6c3.6,3.7,9.3,4.8,14.1,2.7l85.1-37.3c6.4-2.8,9.3-10.3,6.5-16.6l-39.5-90
										c-0.6-1.4-1.5-2.7-2.5-3.8c-4.1-4.2-10.7-5-15.6-1.9C-17,62.5,7.3,132.8,16.7,153.1C17.4,154.4,18.2,155.6,19.2,156.6
										L19.2,156.6z"/>
								</g>
							</g>
							<g>
								<g>
									<path d="M80.3,14.2c0.7,0.8,1.4,1.7,1.8,2.7l39.5,89.9c2,4.5-0.1,9.9-4.6,11.8L31.8,156c-3.5,1.5-7.5,0.7-10-1.9
										c-0.7-0.7-1.3-1.5-1.7-2.5c-10.4-22.3-31.6-88.2,49-138.8C72.8,10.5,77.4,11.3,80.3,14.2 M85.5,9.1
										c-5.3-5.4-13.8-6.5-20.2-2.5c-86.7,54.4-61.6,127-51.8,148c0.8,1.7,1.8,3.2,3.1,4.5c4.7,4.8,12,6.2,18.2,3.5l85.1-37.3
										c4-1.7,7-4.9,8.6-9c1.6-4,1.5-8.5-0.3-12.4L88.7,14C87.9,12.2,86.8,10.5,85.5,9.1L85.5,9.1z"/>
								</g>
							</g>
						</g>
					</g>
					<g>
						<g>
							<g>
								<path class="st2" d="M74.4,41.7l28.6,65.2c2.1,4.9-0.1,10.6-5,12.7l-50.1,22c-4.9,2.2-10.7-0.1-12.8-5.1
									C27,117.5,14,71.3,59.7,37.9C64.7,34.2,71.9,36,74.4,41.7z"/>
							</g>
						</g>
					</g>
				</g>
				<g>
					<g>
						<g>
							<g>
								<g>
									<path class="st1" d="M99.2,238.6c1,1,2.2,1.9,3.4,2.5c20.1,9.9,89.8,35.8,144.5-47.2c3.2-4.9,2.6-11.5-1.6-15.7
										c-1.1-1.1-2.3-2-3.7-2.6l-89-41.5c-6.3-2.9-13.8-0.2-16.8,6.1l-39.3,84.2C94.6,229.1,95.6,234.8,99.2,238.6z"/>
								</g>
							</g>
							<g>
								<g>
									<path d="M243,180.7c2.8,2.9,3.5,7.5,1.1,11.1c-52.4,79.5-117.8,56.8-139.8,45.9c-0.9-0.5-1.8-1.1-2.4-1.8
										c-2.5-2.6-3.3-6.6-1.7-10.1l39.3-84.2c2.1-4.5,7.4-6.4,11.9-4.3l89,41.5C241.4,179.3,242.3,180,243,180.7 M248.2,175.7
										c-1.4-1.4-3-2.5-4.8-3.4l-89-41.5c-3.9-1.8-8.4-2-12.4-0.5c-4.1,1.5-7.3,4.5-9.2,8.4l-39.3,84.2
										c-2.8,6.1-1.6,13.4,3.1,18.2c1.3,1.3,2.8,2.4,4.4,3.2c20.7,10.2,92.8,37,149.1-48.4C254.4,189.6,253.5,181.1,248.2,175.7
										L248.2,175.7L248.2,175.7z"/>
								</g>
							</g>
						</g>
					</g>
					<g>
						<g>
							<g>
								<path class="st2" d="M215.4,186l-64.5-30.1c-4.8-2.3-10.6-0.2-12.8,4.7L115,210.1c-2.3,4.9-0.1,10.7,4.8,12.9
									c18.9,8.6,64.7,22.6,99.2-22.3C222.7,195.8,221,188.6,215.4,186z"/>
							</g>
						</g>
					</g>
				</g>
			</g>
			<path class="st1" d="M190.2,172.9c-8.8-33.2-33.4-59.6-38.2-64.6l-1.4-1.5c-4.8-5-30.7-30.2-63.7-39.7C67,61.4,32.7,62.6,0,80.3
				v163.4c0.4,0.5,0.9,0.9,1.3,1.3l0,0c2.8,2.9,4.6,4.5,4.7,4.7c0,0,1.6,1.8,4.4,4.7c1.6,1.6,3.4,3.5,5.6,5.6h158.8
				C193.6,227.6,195.6,193.1,190.2,172.9z"/>
			<g>
				<g>
					<path d="M128.5,200.5c0.4,0.4,0.9,0.6,1.5,0.6l0,0c0.4,0,10.9,0.6,13.9,13.3c0.3,1.1,1.4,1.9,2.6,1.6c1.1-0.3,1.9-1.4,1.6-2.6
						c-3.7-16-17.8-16.6-17.9-16.6c-1.2,0-2.2,0.9-2.2,2.1C127.9,199.6,128.1,200.1,128.5,200.5z"/>
				</g>
			</g>
			<g>
				<g>
					<path d="M57.9,128.3c0.4,0.4,0.9,0.6,1.5,0.6c1.2,0,2.1-1,2.1-2.1c0-0.1-0.3-14.2-16.2-18.3c-1.1-0.3-2.3,0.4-2.6,1.5
						s0.4,2.3,1.5,2.6c12.7,3.2,13,13.8,13,14.2C57.3,127.4,57.5,127.9,57.9,128.3z"/>
				</g>
			</g>
			<g>
				<g>
					<g>
						<path class="st2" d="M33.2,207.1c3.7,2.7,7.8,2.8,11.4,1.4c0.6,1.2,1.4,2.5,2.5,3.6c0.2,0.2,0.5,0.4,0.7,0.6
							c-1.6,4-1.2,8.6,2.5,12.6c-7.7,3.4-14.9,3.5-18.8-0.6c-4-4.1-3.7-11.3-0.1-19C32,206.3,32.6,206.7,33.2,207.1z"/>
					</g>
				</g>
				<g>
					<g>
						<g>
							<path d="M23.1,204.1c0.6,0.7,1.3,1.3,2,1.9c9.5,8.3,20.3,9,27.7,1.8l5.8-5.6c1.1-1.1,1.1-2.9,0-4s-2.9-1.1-4,0l-5.8,5.6
								c-6.1,6-14.3,2.9-20-2c-8.3-7.2-13.2-19.7-7-27.9c0.9-1.3,0.7-3-0.6-4c-1.3-0.9-3-0.7-4,0.6C9.7,180.6,14.2,195,23.1,204.1z"
								/>
						</g>
					</g>
					<g>
						<g>
							<path d="M51.8,233.5c8.9,9.2,23.2,14,33.6,6.6c1.3-0.9,1.6-2.7,0.7-4s-2.7-1.6-4-0.7c-8.4,6-20.7,0.8-27.8-7.7
								c-4.8-5.7-7.7-14-1.6-20l5.8-5.6c1.1-1.1,1.1-2.9,0-4s-2.9-1.1-4,0l-5.8,5.6c-7.3,7.2-6.9,18,1.2,27.7
								C50.6,232.2,51.2,232.9,51.8,233.5z"/>
						</g>
					</g>
				</g>
				<g>
					<g>
						<path class="st3" d="M53.3,181.3c-5,4.9-4.1,13.9,2,20.1c6.1,6.2,15.1,7.3,20.1,2.5c5-4.9,0.5-10.3-5.6-16.6
							C63.7,181.1,58.3,176.4,53.3,181.3z"/>
					</g>
				</g>
			</g>
			<g>
				<g>
					<g>
						<path d="M24.3,125.5c0.4,0.5,1.1,0.7,1.8,0.6c1.2-0.1,2-1.2,1.9-2.4l-2.2-18.2c-0.1-1.2-1.2-2-2.4-1.9c-1.2,0.1-2,1.2-1.9,2.4
							l2.2,18.2C23.8,124.7,24,125.2,24.3,125.5z"/>
					</g>
				</g>
				<g>
					<path d="M36.8,153.5c-0.9,0-1.7-0.4-2.3-1.2c-0.9-1.3-0.7-3,0.6-4c4-2.9,4.1-9.6,0.3-14.9c-1.9-2.6-4.6-4.5-7.4-5.3
						c-2.6-0.7-5-0.3-6.9,1c-1.3,0.9-3,0.7-4-0.6c-0.9-1.3-0.7-3,0.6-4c3.3-2.4,7.4-3.1,11.7-1.9c4.1,1.1,7.8,3.7,10.5,7.4
						c5.7,7.8,5,18-1.5,22.8C37.9,153.3,37.3,153.5,36.8,153.5z"/>
				</g>
			</g>
			<g>
				<g>
					<g>
						<path d="M129.9,234c-0.5-0.4-0.7-1.1-0.6-1.8c0.1-1.2,1.2-2,2.4-1.9l18.2,2.2c1.2,0.1,2,1.2,1.9,2.4s-1.2,2-2.4,1.9l-18.2-2.2
							C130.6,234.5,130.2,234.3,129.9,234z"/>
					</g>
				</g>
				<g>
					<path d="M128.3,241.8c-0.6,0-1.2-0.2-1.7-0.5c-1.3-0.9-1.5-2.7-0.6-4c1.3-1.8,1.7-4.3,1-6.9c-0.7-2.8-2.6-5.4-5.3-7.4
						c-5.3-3.9-11.9-3.7-14.9,0.3c-0.9,1.3-2.7,1.5-4,0.6s-1.5-2.7-0.6-4c4.8-6.5,15-7.2,22.8-1.5c3.7,2.7,6.3,6.4,7.4,10.5
						c1.1,4.3,0.5,8.4-1.9,11.7C130.1,241.4,129.2,241.8,128.3,241.8z"/>
				</g>
			</g>
			<path class="st2" d="M129,249.6c-8.9-9.1-19.3-13.3-23.3-9.4c-3.5,3.4-0.9,11.8,5.6,19.8h25.5C136.8,260,132.4,253.1,129,249.6z"
				/>
			<g>
				<path d="M193.7,172c-9-34.1-34.2-61.1-39.2-66.2c-0.3-0.4-0.6-0.6-0.7-0.7c-0.1-0.1-0.4-0.4-0.7-0.7c-5-5.1-31.4-30.9-65.3-40.7
					C67.7,57.8,33.1,58.8,0,76.2v8.3c32.6-18.3,66.9-19.3,85.9-13.8c32.2,9.3,57.6,34.1,62.1,38.8c0.5,0.5,0.7,0.7,0.7,0.7
					s0.3,0.2,0.7,0.7c4.5,4.6,28.7,30.5,37.3,63c5.1,19.2,3.2,53.8-16.2,86.2h8.4C197.3,227.1,199.2,192.4,193.7,172z"/>
			</g>
			<path class="st2" d="M8.9,126.6c-2.9-3-5.9-5.4-8.9-7.2v26.2c7.3,5.5,14.5,7.6,17.7,4.5C21.7,146.2,17.7,135.7,8.9,126.6z"/>
			<path class="st1" d="M13.3,225c-4.9,0-9.4,1.3-13.3,3.5V260h39.1c0.8-2.5,1.2-5.2,1.2-8C40.3,237.1,28.3,225,13.3,225z"/>
			<g>
				<g>
					<g>
						<g>
							<path d="M136.1,61.8c5.4,5.5,6.1,14.4,1.2,20.7c-5.3,6.9-15.3,8.2-22.2,2.9c-0.6-0.5-1.2-1-1.7-1.5
								c-5.4-5.5-6.1-14.4-1.2-20.7c5.3-6.9,15.3-8.2,22.2-2.9C135,60.7,135.6,61.2,136.1,61.8 M141.2,56.8
								c-0.8-0.8-1.6-1.5-2.4-2.2c-10-7.7-24.4-5.8-32.1,4.2c-6.9,9-6.1,21.9,1.8,30c0.8,0.8,1.6,1.5,2.4,2.2
								c10,7.7,24.4,5.8,32.1-4.2C149.9,77.8,149.1,64.9,141.2,56.8L141.2,56.8L141.2,56.8z"/>
						</g>
					</g>
				</g>
				<g>
					<g>
						<g>
							<path class="st4" d="M146.8,123.7c6.3,6.5,14.8,8.8,15.2,8.9c0.9,0.2,1.9,0.1,2.7-0.4s1.4-1.3,1.6-2.2c0.1-0.5,3-13-2.9-23
								c-1-1.7-2.2-3.3-3.7-4.7c-6.3-6.5-14.8-8.8-15.2-8.9c-0.9-0.2-1.9-0.1-2.7,0.4s-1.4,1.3-1.6,2.2c-0.1,0.5-3,13,2.9,23
								C144.1,120.6,145.4,122.2,146.8,123.7L146.8,123.7z"/>
						</g>
					</g>
					<g>
						<g>
							<path d="M157.2,104.7c1.2,1.2,2.2,2.5,3.1,4.1c5.3,8.9,2.5,20.4,2.5,20.4s-7.8-2.1-13.5-7.9c-1.2-1.2-2.2-2.5-3.1-4.1
								c-5.3-8.9-2.5-20.4-2.5-20.4S151.5,98.8,157.2,104.7 M162.3,99.7c-6.9-7-15.8-9.6-16.8-9.8c-1.8-0.5-3.8-0.2-5.5,0.8
								c-1.6,1-2.8,2.6-3.3,4.4c-0.4,1.5-3.3,14.6,3.3,25.7c1.1,1.9,2.5,3.7,4.2,5.4c6.9,7,15.8,9.6,16.8,9.8
								c1.8,0.5,3.8,0.2,5.5-0.8c1.6-1,2.8-2.6,3.3-4.4c0.4-1.5,3.3-14.6-3.3-25.7C165.3,103.2,163.9,101.4,162.3,99.7L162.3,99.7z"
								/>
						</g>
					</g>
				</g>
				<g>
					<g>
						<g>
							<path class="st4" d="M141,101.4c3.5,3.6,9.2,8.2,16.6,9.9c13,3,25.6-4.5,26.1-4.8c0.8-0.5,1.4-1.3,1.6-2.2
								c0.2-0.9,0-1.9-0.5-2.7c-0.1-0.1-1.8-2.7-4.8-5.8c-3.5-3.6-9.2-8.2-16.6-9.9c-13-3-25.6,4.5-26.1,4.8
								c-0.8,0.5-1.4,1.3-1.6,2.2s0,1.9,0.5,2.7C136.3,95.7,138,98.3,141,101.4L141,101.4z"/>
						</g>
					</g>
					<g>
						<g>
							<path d="M177.4,98.2c2.8,2.9,4.4,5.3,4.4,5.3s-11.7,7.1-23.4,4.4c-6.4-1.5-11.5-5.5-14.8-8.9c-2.8-2.9-4.4-5.3-4.4-5.3
								s11.7-7.1,23.4-4.4C169,90.7,174.1,94.8,177.4,98.2 M182.5,93.2c-3.8-3.9-10.1-9-18.3-10.9c-14.4-3.3-28.1,4.9-28.7,5.3
								c-1.6,1-2.8,2.6-3.2,4.5s-0.1,3.8,0.9,5.4c0.2,0.3,2,3.1,5.2,6.4c3.8,3.9,10.1,9,18.3,10.9c14.4,3.3,28.1-4.9,28.7-5.3
								c1.6-1,2.8-2.6,3.2-4.5s0.1-3.8-0.9-5.4C187.5,99.3,185.7,96.5,182.5,93.2L182.5,93.2z"/>
						</g>
					</g>
				</g>
				<g>
					<g>
						<g>
							<path class="st2" d="M81.7,84.2C79,75.1,85.8,65,96.9,61.7l0,0c-3.1-4.6-4.7-9.9-4.3-14.9c0.4-5.3,2.7-9.7,6.6-12.4
								c6.7-4.6,16.5-2.8,23.4,4.2c1,1.1,2,2.2,2.8,3.5c0.2,0.3,0.3,0.5,0.5,0.8c7.2-8.6,18.6-11.1,26-5.4c0.5,0.4,1.1,0.9,1.5,1.4
								c6.1,6.3,5.8,17.5-0.7,26c-0.1,0.1-0.2,0.2-0.2,0.3c3.5,1.3,6.7,3.3,9.2,5.9c5,5.1,6.8,11.6,4.7,17.4
								c-3.2,9-14.7,13.1-25.7,9.2h-0.1c-0.6,11.3-8.5,20.3-17.9,20c-3.9-0.1-7.7-1.8-10.6-4.9c-4.1-4.1-6.3-10.3-6.1-16.8
								c0-0.3,0-0.6,0.1-0.9c-7.8,2-15.9,0.2-20.7-4.7C83.6,88.6,82.4,86.5,81.7,84.2z M126.4,75.6c-0.2-1,0.2-1.9,0.9-2.6
								c0.1-0.1,0.7-0.6,1.7-1.3c-0.9-0.1-1.5-0.2-1.6-0.2c-0.6-0.1-1.2-0.4-1.6-0.8c-0.2-0.2-0.4-0.5-0.6-0.9c0-0.1-0.4-1-0.9-2.3
								c-0.2,0.4-0.3,0.6-0.3,0.7c-0.4,0.9-1.3,1.5-2.3,1.6c-0.1,0-0.6,0-1.5,0.1c0.8,0.7,1.2,1.1,1.3,1.1c0,0,0,0,0.1,0.1
								c0.7,0.7,0.9,1.6,0.7,2.6c0,0.1-0.2,1-0.7,2.4c0.4-0.3,0.7-0.4,0.8-0.4c0.9-0.5,1.9-0.4,2.7,0.1c0.1,0,0.6,0.3,1.4,0.9
								C126.5,76,126.4,75.7,126.4,75.6z"/>
						</g>
					</g>
				</g>
				<g>
					<path class="st5" d="M110.9,86.3c0.6,0.7,1.3,1.3,2.1,1.8c4.1,3.2,9.2,4.5,14.3,3.8s9.7-3.3,12.8-7.4
						c5.8-7.6,5.2-18.5-1.5-25.3c-0.6-0.7-1.3-1.3-2.1-1.8c-8.5-6.5-20.6-4.9-27.2,3.6C103.6,68.6,104.2,79.5,110.9,86.3z"/>
				</g>
				<g>
					<g>
						<g>
							<path d="M151.4,40.7c5.1,5.2,4.8,14.8-0.9,22.3c-1.4,1.9-3.4,3.2-5.7,4.1c2.2-0.4,4.4-0.3,6.5,0.4c3.3,1.2,6.2,3,8.4,5.3
								c4.1,4.2,5.8,9.6,4.1,14.6c-2.7,7.6-12.6,10.9-22.2,7.5c-1.8-0.7-3.4-1.8-4.8-3.2c0.6,1.6,1,3.3,1,5c-0.3,10.2-7,18.2-15,18
								c-3.3-0.1-6.3-1.6-8.7-4c-3.4-3.5-5.5-8.8-5.3-14.8c0.1-2.4,0.9-4.6,2.2-6.7c-1.4,1.3-3,2.3-4.8,2.8
								c-7.3,2.2-14.7,0.5-18.8-3.8c-1.4-1.4-2.4-3.1-2.9-5c-2.3-7.7,3.8-16.3,13.5-19.1c1.9-0.6,4-0.6,6-0.2
								c-1.3-0.7-2.5-1.5-3.5-2.5c-0.4-0.5-0.9-0.9-1.2-1.5c-5.7-8.4-5-18.8,1.6-23.4c5.7-3.9,14-2.1,19.9,3.9
								c0.9,0.9,1.8,2,2.5,3.1c1.3,1.9,2,4.3,2.1,6.6c0.4-1.8,1.1-3.5,2.2-4.9c6.2-8.1,16.4-10.6,22.7-5.7
								C150.7,40,151.1,40.3,151.4,40.7 M132.4,85.2c-2.4-5-3.3-10-3.3-10S134,71,140,68.6c-6.2,1.1-12.3,0.3-12.3,0.3
								s-2.5-5.9-2.9-12.2c-1,5.7-3.3,10.4-3.3,10.4s-5.7,0.5-11.6-0.8c5.5,2.7,9.7,6.8,9.7,6.8s-1.5,6.3-4.9,11.7
								c4.2-4.1,9-6.7,9-6.7s4.1,2.5,7.9,6.3C131.9,84.6,132.2,84.9,132.4,85.2 M155.4,36.8c-0.6-0.6-1.2-1.1-1.8-1.6
								c-7.7-5.9-19.2-4.3-27.4,3.3c-0.5-0.6-1.1-1.3-1.7-1.9c-7.9-8.1-19-10-27-4.6c-4.6,3.1-7.4,8.4-7.8,14.5
								c-0.3,4.6,0.8,9.3,3,13.7c-4.4,1.9-8.1,4.9-10.7,8.6c-3.5,5-4.6,10.9-3,16.2c0.8,2.7,2.3,5.2,4.3,7.3
								c4.8,4.9,12.3,7.1,19.9,6.1c0.4,6.3,2.8,12.1,6.8,16.2c3.5,3.5,7.9,5.6,12.6,5.7c9.9,0.3,18.3-8,20.3-19.2
								c4.8,1.1,9.8,0.9,14.2-0.6c5.8-2,10.1-6.1,12-11.3c2.4-6.7,0.3-14.5-5.3-20.3c-2-2-4.4-3.8-7-5.1
								C162.3,54.7,161.9,43.5,155.4,36.8L155.4,36.8L155.4,36.8z"/>
						</g>
					</g>
				</g>
			</g>
		</g>
	</g>
	<g>
		<defs>
			<rect id="SVGID_3_" width="260" height="260"/>
		</defs>
		<clipPath id="SVGID_4_">
			<use xlink:href="#SVGID_3_"  style="overflow:visible;"/>
		</clipPath>
	</g>
</g>
</svg>
