<?xml version="1.0" encoding="utf-8"?>
<!-- Generator: Adobe Illustrator 22.0.0, SVG Export Plug-In . SVG Version: 6.00 Build 0)  -->
<svg version="1.1" id="图层_1" xmlns="http://www.w3.org/2000/svg" xmlns:xlink="http://www.w3.org/1999/xlink" x="0px" y="0px"
	 width="160px" height="260px" viewBox="0 0 160 260" style="enable-background:new 0 0 160 260;" xml:space="preserve">
<style type="text/css">
	.st0{clip-path:url(#SVGID_2_);}
	.st1{fill:#FACBCB;}
	.st2{fill:#FA9898;}
</style>
<g>
	<defs>
		<rect id="SVGID_1_" width="160" height="260"/>
	</defs>
	<clipPath id="SVGID_2_">
		<use xlink:href="#SVGID_1_"  style="overflow:visible;"/>
	</clipPath>
	<g class="st0">
		<g>
			<g>
				<path class="st1" d="M53.8,154.8c0.6,0.1,1.2,0.1,1.8,0.1c3.6,0,6.9-0.9,9.8-2.4c3.5,3.4,8.1,5.8,12.9,6.3
					c0.2,0,0.5,0.1,0.7,0.1c-6.4,3.7-10.6,10.8-11,18.6c-0.3,5.8,2.3,11.2,6.4,15.1c-2.9,1.4-6.1,2.2-9.6,2.2
					c-11.9,0-21.6-9.7-21.6-21.6C43.3,165.5,47.5,158.6,53.8,154.8z"/>
			</g>
		</g>
		<g>
			<g>
				<path class="st1" d="M102.9,108.6l5.4,4.8c1.3,1.2,0.7,3.3-1,3.7l-8.3,1.8c-1.7,0.4-3.1-1.4-2.4-3l2.9-6.6
					C100.1,108,101.8,107.6,102.9,108.6z"/>
			</g>
		</g>
		<g>
			<g>
				<path class="st2" d="M57.9,179.2l5.3-4.9c1.3-1.2,3.4-0.4,3.6,1.4l0.9,8.5c0.2,1.7-1.7,3-3.2,2.1l-6.2-3.6
					C57,181.9,56.8,180.1,57.9,179.2z"/>
			</g>
		</g>
		<g>
			<g>
				<ellipse class="st1" cx="102.2" cy="139.2" rx="7.2" ry="9.1"/>
			</g>
		</g>
		<g>
			<g>
				<g>
					<circle class="st2" cx="112" cy="39" r="15.8"/>
				</g>
			</g>
			<g>
				<g>
					<g>
						<path d="M112,26c7.2,0,13,5.8,13,13s-5.8,13-13,13s-13-5.8-13-13S104.8,26,112,26 M112,20.3c-10.3,0-18.7,8.4-18.7,18.7
							s8.4,18.7,18.7,18.7s18.7-8.4,18.7-18.7S122.3,20.3,112,20.3L112,20.3z"/>
					</g>
				</g>
			</g>
		</g>
		<g>
			<path d="M130.6,126.9c-6.1-7.5-14.2-11.9-21.3-11.7c-5.6,0.2-12.2,1.8-17.3,5.5c-4.5-2.8-14.7-8.1-23.7-3.6
				c-2.2-2.2-6.1-4.9-11.8-4.9c-5.6,0-10.9,2.2-14.3,6.1c-2.6,2.9-5.5,8.3-4.5,17.3c0.8,6.7,2.6,11.6,5,15.2
				c-8.2,9.1-12.6,24.6-15.6,35c-0.9,3.2-1.9,6.7-2.3,7.5c-1.7,2.3-6.6,8.8-24.8,10.2v7.1c19.3-1.3,26.6-7.9,30.5-13
				c1.1-1.5,1.9-4.1,3.5-9.8c2.6-9,6.8-23.9,13.7-31.9c2.6,1.7,5.3,2.4,7.9,2.4c4.6,0,7.7-1.3,9.6-2.7c1.7,1.6,3.7,3.1,6,4.7
				c-2.5,2.6-4.4,6-5.1,10.4c-1.7,10.9,0.5,20,6.2,25.6c5.6,5.4,13.9,7.2,24.7,5.2c1.9-0.4,3.2-2.2,2.8-4.1
				c-0.4-1.9-2.2-3.2-4.1-2.8c-8.4,1.6-14.6,0.4-18.4-3.3c-4-3.9-5.5-10.8-4.1-19.4c0.7-4.2,3-7,5.9-8.8c0.2-0.1,0.3-0.2,0.5-0.3
				c5.7-3.4,13.3-3.2,13.7-3.2c1.3,0,2.5-0.6,3.2-1.7c0.7-1.1,0.7-2.5,0-3.6c-5.7-9.9-7.1-18.1-4.1-23.6c3.3-5.9,11.3-8.2,17.2-8.4
				c3.7-0.1,9.9,2.2,15.6,9.1c6.3,7.8,15.6,26.3,6.7,63.2c-7.7,32.2-23.5,54-46.7,65.1c-0.3,0.1-0.6,0.3-0.9,0.4h14.4
				c19.5-13.1,33-34.5,40-63.8C148.3,156.3,137.7,135.6,130.6,126.9z M56.1,139.3c0.3,3,1.5,6.8,4.4,10.8c-1,0.5-2.5,1-4.9,1
				c-4.3,0-9.5-4.3-10.9-16.4c-0.6-5.1,0.3-9.1,2.7-11.8c3-3.4,7.3-3.7,9-3.7c2.8,0,4.9,1.1,6.2,2.2
				C57.7,126.7,55.4,132.9,56.1,139.3z M77.4,155.8c-8.7-5.3-13.6-11.2-14.3-17.3c-0.5-4.7,1.5-9.4,5.9-13.4
				c5.5-5.1,13.6-1.7,17.9,0.8c-0.3,0.4-0.5,0.8-0.8,1.2c-3.8,6.8-3.3,15.4,1.5,25.6C84.3,153.2,80.7,154.1,77.4,155.8z"/>
		</g>
	</g>
</g>
</svg>
