<?xml version="1.0" encoding="utf-8"?>
<!-- Generator: Adobe Illustrator 22.0.0, SVG Export Plug-In . SVG Version: 6.00 Build 0)  -->
<svg version="1.1" id="图层_1" xmlns="http://www.w3.org/2000/svg" xmlns:xlink="http://www.w3.org/1999/xlink" x="0px" y="0px"
	 width="80px" height="80px" viewBox="0 0 80 80" style="enable-background:new 0 0 80 80;" xml:space="preserve">
<style type="text/css">
	.st0{clip-path:url(#SVGID_2_);}
	.st1{fill:#EB1C24;}
	.st2{fill:#FA9898;}
</style>
<g>
	<defs>
		<rect id="SVGID_1_" width="80" height="80"/>
	</defs>
	<clipPath id="SVGID_2_">
		<use xlink:href="#SVGID_1_"  style="overflow:visible;"/>
	</clipPath>
	<g class="st0">
		<g>
			<g>
				<polygon class="st1" points="43,9.7 47,13.7 33,13.7 33,5.7 47,5.7 				"/>
			</g>
			<g>
				<path d="M47,15.1H33c-0.8,0-1.4-0.6-1.4-1.4v-8c0-0.8,0.6-1.4,1.4-1.4h14c0.6,0,1.1,0.3,1.3,0.9c0.2,0.5,0.1,1.1-0.3,1.5l-3,3
					l3,3c0.4,0.4,0.5,1,0.3,1.5C48.1,14.8,47.6,15.1,47,15.1z M34.4,12.3h9.2L42,10.7c-0.6-0.6-0.6-1.5,0-2l1.6-1.6h-9.2V12.3z"/>
			</g>
		</g>
		<g>
			<g>
				<g>
					<g>
						<circle class="st2" cx="50.3" cy="47.7" r="17"/>
					</g>
				</g>
				<g>
					<g>
						<g>
							<path d="M40.6,75.5c-15.6,0-28.4-12.7-28.4-28.4s12.7-28.4,28.4-28.4S69,31.5,69,47.2S56.2,75.5,40.6,75.5z M40.6,24.5
								c-12.5,0-22.7,10.2-22.7,22.7s10.2,22.7,22.7,22.7s22.7-10.2,22.7-22.7S53.1,24.5,40.6,24.5z"/>
						</g>
					</g>
					<g>
						<g>
							<path d="M13.1,72.8c-4.5,0-8-1.3-9.7-4.2C0.6,63.8,4.1,56.4,13.3,48c1.2-1.1,2.9-1,4,0.2c1.1,1.2,1,2.9-0.2,4
								c-8,7.4-9.7,12.2-8.8,13.7c1.7,2.9,16.3,1.8,37.1-10.2c9-5.2,16.9-11.2,22.1-16.8c4.8-5.2,6.1-8.9,5.4-10.2
								c-0.8-1.5-5.9-2.4-16.3,0.8c-1.5,0.5-3.1-0.4-3.5-1.9c-0.5-1.5,0.4-3.1,1.9-3.5c11.9-3.7,20.1-3.1,22.9,1.8
								c1.7,2.9,2,8.1-6.1,16.9c-5.6,6-13.9,12.4-23.4,17.9C35.9,67.7,22.3,72.8,13.1,72.8z"/>
						</g>
					</g>
				</g>
				<g>
					<g>
						<circle cx="12.5" cy="13.9" r="3"/>
					</g>
				</g>
				<g>
					<g>
						<circle cx="66.3" cy="72.7" r="3"/>
					</g>
				</g>
				<g>
					<g>
						<circle cx="50.3" cy="45.7" r="3"/>
					</g>
				</g>
				<g>
					<g>
						<circle cx="4.5" cy="26.9" r="2"/>
					</g>
				</g>
				<g>
					<g>
						<circle cx="75.3" cy="63.7" r="2"/>
					</g>
				</g>
				<g>
					<g>
						<path d="M30.5,48.8c-4.3,0-7.9-3.5-7.9-7.9s3.5-7.9,7.9-7.9s7.9,3.5,7.9,7.9S34.9,48.8,30.5,48.8z M30.5,37.3
							c-2,0-3.6,1.6-3.6,3.6s1.6,3.6,3.6,3.6s3.6-1.6,3.6-3.6S32.5,37.3,30.5,37.3z"/>
					</g>
				</g>
			</g>
			<g>
				<g>
					<path d="M37.3,29.6c-0.8,0-1.4-0.6-1.4-1.4V13.7c0-0.8,0.6-1.4,1.4-1.4s1.4,0.6,1.4,1.4v14.5C38.7,29,38.1,29.6,37.3,29.6z"/>
				</g>
			</g>
		</g>
	</g>
</g>
</svg>
