<?xml version="1.0" encoding="utf-8"?>
<!-- Generator: Adobe Illustrator 22.0.0, SVG Export Plug-In . SVG Version: 6.00 Build 0)  -->
<svg version="1.1" id="图层_1" xmlns="http://www.w3.org/2000/svg" xmlns:xlink="http://www.w3.org/1999/xlink" x="0px" y="0px"
	 width="240px" height="320px" viewBox="0 0 240 320" style="enable-background:new 0 0 240 320;" xml:space="preserve">
<style type="text/css">
	.st0{clip-path:url(#SVGID_2_);}
	.st1{fill:#FACBCB;}
	.st2{fill:#FA9898;}
	.st3{fill:#FAD558;}
</style>
<g>
	<defs>
		<rect id="SVGID_1_" width="240" height="320"/>
	</defs>
	<clipPath id="SVGID_2_">
		<use xlink:href="#SVGID_1_"  style="overflow:visible;"/>
	</clipPath>
	<g class="st0">
		<g>
			<circle class="st1" cx="117.6" cy="170.1" r="10.4"/>
		</g>
		<g>
			<circle class="st1" cx="89" cy="88.3" r="10.4"/>
		</g>
		<g>
			<path class="st1" d="M136.2,133.3c0-0.6,0-1.2,0-1.8c0-0.2,0-0.4,0-0.7c-0.2-4.7,1.4-9,4.1-12.6c3.9-6.6,11.4-11.2,19.1-11.2
				c9.3,0,16.7,5.7,20,13.7c3.2-3.3,7.5-5.6,12-6.4c1-3.3,1.5-6.7,1.5-10.3c0-19.8-16.1-35.9-35.9-35.9s-35.9,16.1-35.9,35.9
				C121.1,116.1,127,126.8,136.2,133.3z"/>
		</g>
		<g>
			<path d="M207.1,146.6c-0.4,0-0.8-0.1-1.2-0.2c-1.8-0.7-2.8-2.7-2.1-4.6c0.1-0.2,4.1-11.2,0.1-18.5c-1.7-3.2-4.7-5.2-9.1-6.1
				c-3.8-0.8-6.9-0.4-9.4,1.5c-6.2,4.6-7.1,16-7.2,16.1c-0.1,1.9-1.8,3.4-3.8,3.3c-1.9-0.1-3.4-1.8-3.3-3.8c0-0.6,1.1-14.7,10-21.3
				c4.2-3.1,9.3-4.1,15.2-2.8c6.4,1.4,11.1,4.7,13.8,9.7c5.5,10.2,0.5,23.8,0.3,24.3C209.9,145.7,208.6,146.6,207.1,146.6z"/>
		</g>
		<g>
			<path class="st1" d="M113,202.6l4.4-4c1.3-1.2,0.7-3.3-1-3.7l-6.9-1.5c-1.7-0.4-3.1,1.4-2.4,3l2.4,5.4
				C110.2,203.2,111.9,203.6,113,202.6z"/>
		</g>
		<g>
			<path class="st1" d="M55.1,77.8l2.5,3.9c1,1.5,3.2,1.2,3.8-0.4l1.9-5.1c0.6-1.6-0.9-3.3-2.6-2.8l-4.5,1.2
				C55,75,54.3,76.6,55.1,77.8z"/>
		</g>
		<g>
			<path class="st1" d="M157.7,119.1l-2.1,1.4c-1.5,1-1.2,3.2,0.4,3.8l2.8,1.1c1.6,0.6,3.3-0.9,2.8-2.6l-0.7-2.5
				C160.5,119,158.9,118.3,157.7,119.1z"/>
		</g>
		<g>
			<path class="st1" d="M192.4,125.3l-2.1,1.4c-1.5,1-1.2,3.2,0.4,3.8l2.8,1.1c1.6,0.6,3.3-0.9,2.8-2.6l-0.7-2.5
				C195.2,125.1,193.6,124.5,192.4,125.3z"/>
		</g>
		<g>
			<g>
				<path class="st2" d="M105.7,247.5c-2.9,0-6.9-1.4-8.9-4.1c-0.6-0.7-1-1.5-1.4-2.3c-0.7,0.5-1.5,0.9-2.4,1.2
					c-1,0.4-2.1,0.6-3.3,0.6c-2.7,0-5.7-1-7.4-2.5c-3.6-3.1-4.7-7.1-3.2-11.1c0.9-2.4,2.8-4,4.6-5.2c3-2.1,6-2.9,8.6-3.6
					c3-0.8,5.4-1.4,7.2-3.7c0.5-0.7,1.4-1,2.2-1c0.3,0,0.5,0,0.8,0.1c1.1,0.3,1.9,1.2,2,2.3c0.4,2.9,2.1,4.7,4.2,6.9
					c1.9,2,4,4.2,5.4,7.5c0.9,2,1.7,4.3,1.2,6.8c-0.8,4.2-3.8,7-8.6,7.8C106.5,247.4,106.1,247.5,105.7,247.5z"/>
			</g>
			<g>
				<path d="M101.8,218.7c0.9,6.7,6.9,8.7,9.8,15.2c0.7,1.7,1.4,3.5,1,5.2c-0.3,1.6-1.3,4.7-6.2,5.5c-0.2,0-0.5,0.1-0.7,0.1
					c-2,0-5.2-1.1-6.6-3c-1.2-1.6-1.8-3.5-2.3-5.4c-1.4,1.4-2.9,2.6-4.8,3.4c-0.7,0.3-1.5,0.4-2.3,0.4c-2.2,0-4.5-0.8-5.5-1.8
					c-3.8-3.3-3-6.4-2.4-8c0.6-1.6,2.1-2.8,3.6-3.9C91.2,222.4,97.5,223.9,101.8,218.7 M101.8,213c-1.7,0-3.3,0.7-4.4,2.1
					c-1.2,1.5-2.7,1.9-5.8,2.7c-2.7,0.7-6.1,1.6-9.5,4c-2,1.4-4.5,3.4-5.7,6.5c-2,5.1-0.5,10.4,4,14.3c2.2,1.9,5.8,3.1,9.3,3.1
					c1.6,0,3.1-0.3,4.4-0.8c0.1,0,0.2-0.1,0.3-0.1c0.1,0.1,0.1,0.2,0.2,0.2c2.7,3.6,7.7,5.2,11.2,5.2c0.6,0,1.1,0,1.7-0.1
					c5.9-1,9.9-4.7,10.9-10.1c0.6-3.3-0.4-6.3-1.4-8.5c-1.7-3.7-4-6.3-6-8.3c-2.1-2.3-3.2-3.5-3.4-5.4c-0.3-2.2-1.9-4.1-4.1-4.7
					C102.8,213.1,102.3,213,101.8,213L101.8,213z"/>
			</g>
		</g>
		<g>
			<g>
				<path class="st2" d="M42,311.8c-1.9,0-4.5-0.9-6-2.8c-0.1-0.1-0.2-0.2-0.2-0.3c-0.1,0.1-0.3,0.1-0.4,0.2
					c-0.7,0.3-1.5,0.4-2.3,0.4c-1.8,0-3.8-0.7-5-1.7c-2.4-2.1-3.2-4.9-2.1-7.6c0.6-1.7,2-2.7,3-3.5c1.8-1.3,3.7-1.8,5.2-2.2
					c1.7-0.5,2.7-0.7,3.4-1.6c0.5-0.7,1.4-1,2.2-1c0.3,0,0.5,0,0.8,0.1c1.1,0.3,1.9,1.2,2,2.3c0.2,1.2,0.8,1.9,2,3.2
					c1.1,1.1,2.4,2.5,3.3,4.6c0.5,1.2,1.1,2.8,0.8,4.6c-0.5,2.9-2.7,4.8-5.8,5.4C42.6,311.8,42.3,311.8,42,311.8z"/>
			</g>
			<g>
				<path d="M39.8,294.5c0.5,3.8,3.9,4.8,5.5,8.5c0.4,0.9,0.8,1.9,0.6,2.9c-0.2,0.9-0.7,2.6-3.5,3.1c-0.1,0-0.3,0-0.4,0
					c-1.1,0-2.9-0.6-3.7-1.7c-0.7-0.9-1-1.9-1.3-3c-0.8,0.8-1.6,1.5-2.7,1.9c-0.4,0.2-0.8,0.2-1.3,0.2c-1.2,0-2.5-0.5-3.1-1
					c-2.1-1.8-1.7-3.6-1.4-4.5c0.3-0.9,1.2-1.6,2-2.2C33.9,296.6,37.4,297.4,39.8,294.5 M39.8,288.8c-1.7,0-3.3,0.7-4.4,2.1
					c-0.2,0.2-0.8,0.4-1.9,0.7c-1.6,0.4-3.9,1-6.1,2.6c-1.3,0.9-3.2,2.4-4.1,4.8c-1.5,3.9-0.4,7.9,2.9,10.8c1.7,1.5,4.3,2.4,6.8,2.4
					c0.6,0,1.2-0.1,1.8-0.2c2.1,1.9,4.9,2.7,7.1,2.7c0.5,0,0.9,0,1.4-0.1c4.3-0.7,7.4-3.6,8.1-7.6c0.5-2.5-0.3-4.8-1-6.2
					c-1.1-2.5-2.7-4.1-3.8-5.4c-0.9-1-1.2-1.3-1.3-1.6c-0.3-2.2-1.9-4.1-4.1-4.7C40.9,288.9,40.4,288.8,39.8,288.8L39.8,288.8z"/>
			</g>
		</g>
		<g>
			<g>
				<path class="st2" d="M46.3,269.4c-1.8,0-3.8-0.4-5.8-1.1c-3.3-1.3-8.4-6.2-9-11.4c-0.2-1.8-0.1-3.6,0.1-5.2
					c-0.8,0.1-1.6,0.1-2.4,0.1c-0.9,0-1.8-0.1-2.7-0.2c-5.2-0.8-10-6-11.1-9.3c-2.1-6.1-0.8-11.3,3.7-15c2.6-2.1,6-2.6,8.9-2.9
					c0.7-0.1,1.4-0.1,2.1-0.1c4.1,0,7.8,1,11,1.9c2.8,0.8,5.4,1.5,8,1.5c1.6,0,3.1-0.3,4.7-0.9c0.3-0.1,0.7-0.2,1-0.2
					c0.8,0,1.5,0.3,2,0.9c0.8,0.8,1,2,0.6,3.1c-1.8,4.3-0.9,8,0.2,12.6c0.9,3.8,1.9,8,1.3,13c-0.3,2.9-1,6.3-3.1,8.8
					C53.1,268,50,269.4,46.3,269.4z"/>
			</g>
			<g>
				<path d="M30,227.2c7.2,0,12.8,3.3,19,3.3c1.8,0,3.7-0.3,5.7-1c-3.8,9.2,2.4,16,1.3,26.4c-0.3,2.6-0.8,5.4-2.5,7.3
					c-1.2,1.3-3.3,3.4-7.1,3.4c-1.4,0-3-0.3-4.8-1c-2.6-1-6.7-5.2-7.2-9.1c-0.3-2.9,0.2-5.7,1-8.4c-2,0.5-4.1,0.9-6.2,0.9
					c-0.8,0-1.5-0.1-2.3-0.2c-3.9-0.6-8-4.8-8.9-7.4c-2.4-6.9,0.9-10.3,2.8-11.9c2-1.6,4.7-2,7.4-2.3
					C28.8,227.3,29.4,227.2,30,227.2 M54.7,229.5L54.7,229.5 M30,221.6c-0.8,0-1.5,0-2.3,0.1c-3.4,0.3-7.3,0.9-10.5,3.5
					c-5.4,4.4-7.1,10.8-4.6,18.1c1.6,4.7,7.4,10.3,13.4,11.2c0.8,0.1,1.7,0.2,2.5,0.2c0,0.8,0,1.7,0.1,2.5c0.7,6.1,6.2,12,10.8,13.7
					c2.3,0.9,4.6,1.3,6.8,1.3c3.1,0,7.6-0.9,11.4-5.4c2.7-3.1,3.4-7,3.8-10.4c0.6-5.5-0.4-10-1.4-14c-1.1-4.7-1.6-7.5-0.4-10.7
					c0.3-0.7,0.5-1.5,0.5-2.3c0-3.1-2.5-5.6-5.5-5.7c0,0-0.1,0-0.1,0c-0.1,0-0.3,0-0.4,0c-0.6,0-1.2,0.2-1.7,0.4
					c-1.2,0.4-2.3,0.6-3.6,0.6c-2.2,0-4.5-0.6-7.2-1.4C38.4,222.6,34.5,221.6,30,221.6L30,221.6z"/>
			</g>
		</g>
		<path class="st3" d="M128.5,0c-0.9,7.3-1.9,14.7-2.4,18c-3.9,22.4-9.8,38.5-9.8,38.5s26,13.9,55.3-16.9
			C183.3,27.4,190.9,13,195.8,0H128.5z"/>
		<path d="M142.8,162.7c-1.9-0.3-3.7,1.1-4,3c0,0.2-2.2,15.2-11.2,21.9c-3.6,2.7-7.7,3.6-12.5,2.9c-5.7-0.9-9.9-3.5-12.9-8.2
			c-11.9-19.1,1.7-62.4,1.8-62.8c0.3-1,0.2-2.1-0.4-2.9c-0.5-0.9-1.4-1.5-2.5-1.6c-0.3,0-26.1-4.2-34.2-17.6
			c-2.7-4.5-3-9.6-0.9-15.5c2.1-5.9,5.6-9.7,10.5-11.7c12.4-5,29.9,3.6,30.1,3.7c1.2,0.6,2.7,0.5,3.8-0.4
			c1.6-1.3,14.8-13.5,21.5-73.3h-7.1c-5.2,45.3-14.3,61.6-17.6,66.2c-5.9-2.5-21-7.7-33.3-2.8c-6.9,2.7-11.8,8.1-14.6,15.9
			c-2.8,7.9-2.4,15.1,1.4,21.5c7.7,12.9,26.9,18.4,35.2,20.3c-3.2,11.6-11.4,46.5,0,64.9c4,6.5,10,10.4,17.8,11.5
			c1.4,0.2,2.8,0.3,4.1,0.3c5.1,0,9.7-1.5,13.7-4.5c11.3-8.5,13.9-25.8,14-26.6C146.1,164.8,144.7,163,142.8,162.7z"/>
		<path d="M216.8,98.6c-1.8-15.4,14.8-35.8,23.2-45V43.5c-0.1,0.1-0.1,0.1-0.2,0.2c-1.3,1.3-32.9,31.9-30,55.9
			c0.5,4.1,2.6,7.2,4.8,10.5c3.9,5.8,8.4,12.3,6.7,28.1c-0.8,8.2-5.1,15.8-11.6,20.8c-5.7,4.4-12.3,6.3-18.2,5.4
			c-12.4-2-16-7.5-16-7.5c-0.6-1.1-1.7-1.8-3-1.8c-1.2,0-2.4,0.6-3.1,1.6c-1.9,3-8.5,10.7-15.2,10c-5.5-0.6-9.6-2.6-12.2-6.1
			c-3.5-4.7-4.3-12.4-2.4-22.1c3.9-20.3,10.9-29.8,20.6-28.1c4.7,0.8,7.8,2.5,9.7,5.1c2.5,3.6,3,9.7,1.4,18.6
			c-0.3,1.9,0.9,3.8,2.9,4.1c1.9,0.3,3.8-0.9,4.1-2.9c2-11,1.2-18.5-2.5-23.9c-3-4.2-7.6-6.9-14.3-8c-9.8-1.7-22.8,2.7-28.8,33.7
			c-2.3,12-1.1,21.3,3.7,27.7c3.8,5.1,9.6,8.1,17.1,8.9c0.6,0.1,1.1,0.1,1.7,0.1c7.8,0,14.1-5.7,17.5-9.7c3,2.6,8.5,5.8,17.7,7.2
			c7.8,1.2,16.5-1.2,23.7-6.8c8.1-6.2,13.3-15.6,14.4-25.7c1.9-18.3-3.8-26.6-7.9-32.8C218.6,103.3,217.1,101.1,216.8,98.6z"/>
	</g>
</g>
</svg>
