<?xml version="1.0" encoding="utf-8"?>
<!-- Generator: Adobe Illustrator 22.0.0, SVG Export Plug-In . SVG Version: 6.00 Build 0)  -->
<svg version="1.1" id="图层_1" xmlns="http://www.w3.org/2000/svg" xmlns:xlink="http://www.w3.org/1999/xlink" x="0px" y="0px"
	 width="210px" height="290px" viewBox="0 0 210 290" style="enable-background:new 0 0 210 290;" xml:space="preserve">
<style type="text/css">
	.st0{clip-path:url(#SVGID_2_);}
	.st1{fill:#FAD558;}
	.st2{fill:#FACBCB;}
	.st3{fill:#FA9898;}
</style>
<g>
	<defs>
		<rect id="SVGID_1_" width="210" height="290"/>
	</defs>
	<clipPath id="SVGID_2_">
		<use xlink:href="#SVGID_1_"  style="overflow:visible;"/>
	</clipPath>
	<g class="st0">
		<path class="st1" d="M113.6,0H47.4c5,11.9,12.2,24.7,22.7,35.8c29.3,30.9,55.3,16.9,55.3,16.9s-5.9-16.2-9.8-38.5
			C115.1,11.5,114.4,5.9,113.6,0z"/>
		<g>
			<g>
				<circle class="st2" cx="124.1" cy="166.2" r="10.4"/>
			</g>
		</g>
		<g>
			<g>
				<circle class="st2" cx="152.7" cy="84.4" r="10.4"/>
			</g>
		</g>
		<g>
			<g>
				<path class="st2" d="M105.5,129.5c0-0.6,0-1.2,0-1.8c0-0.2,0-0.4,0-0.7c0.2-4.7-1.4-9-4.1-12.6c-3.9-6.6-11.4-11.2-19.1-11.2
					c-9.3,0-16.7,5.7-20,13.7c-3.2-3.3-7.5-5.6-12-6.4c-1-3.3-1.5-6.7-1.5-10.3c0-19.8,16.1-35.9,35.9-35.9s35.9,16.1,35.9,35.9
					C120.6,112.3,114.6,123,105.5,129.5z"/>
			</g>
		</g>
		<g>
			<g>
				<path d="M34.5,142.8c-1.4,0-2.8-0.9-3.3-2.3c-0.2-0.6-5.2-14.1,0.3-24.3c2.7-5,7.4-8.3,13.8-9.7c5.9-1.3,11-0.4,15.2,2.8
					c8.8,6.6,9.9,20.7,10,21.3c0.1,2-1.3,3.6-3.3,3.8c-2,0.1-3.6-1.3-3.8-3.3c0-0.1-0.9-11.5-7.2-16.1c-2.5-1.9-5.6-2.4-9.4-1.5
					c-4.4,1-7.4,3-9.1,6.1c-4,7.3,0,18.4,0.1,18.5c0.7,1.8-0.3,3.9-2.1,4.6C35.4,142.7,35,142.8,34.5,142.8z"/>
			</g>
		</g>
		<g>
			<g>
				<path class="st2" d="M128.7,198.8l-4.4-4c-1.3-1.2-0.7-3.3,1-3.7l6.9-1.5c1.7-0.4,3.1,1.4,2.4,3l-2.4,5.4
					C131.4,199.4,129.7,199.8,128.7,198.8z"/>
			</g>
		</g>
		<g>
			<g>
				<path class="st2" d="M186.6,74l-2.5,3.9c-1,1.5-3.2,1.2-3.8-0.4l-1.9-5.1c-0.6-1.6,0.9-3.3,2.6-2.8l4.5,1.2
					C186.7,71.2,187.3,72.8,186.6,74z"/>
			</g>
		</g>
		<g>
			<g>
				<path class="st2" d="M84,115.3l2.1,1.4c1.5,1,1.2,3.2-0.4,3.8l-2.8,1.1c-1.6,0.6-3.3-0.9-2.8-2.6l0.7-2.5
					C81.2,115.1,82.8,114.5,84,115.3z"/>
			</g>
		</g>
		<g>
			<g>
				<path class="st2" d="M49.3,121.5l2.1,1.4c1.5,1,1.2,3.2-0.4,3.8l-2.8,1.1c-1.6,0.6-3.3-0.9-2.8-2.6l0.7-2.5
					C46.4,121.3,48.1,120.7,49.3,121.5z"/>
			</g>
		</g>
		<g>
			<g>
				<g>
					<path class="st3" d="M136,243.6c-0.4,0-0.8,0-1.2-0.1c-4.7-0.8-7.8-3.6-8.6-7.8c-0.5-2.5,0.4-4.9,1.2-6.8
						c1.5-3.3,3.6-5.5,5.4-7.5c2.1-2.3,3.8-4,4.2-6.9c0.2-1.1,1-2,2-2.3c0.3-0.1,0.5-0.1,0.8-0.1c0.8,0,1.6,0.4,2.2,1
						c1.8,2.2,4.2,2.9,7.2,3.7c2.7,0.7,5.7,1.5,8.6,3.6c1.8,1.2,3.7,2.8,4.6,5.2c1.5,4,0.4,8-3.2,11.1c-1.7,1.4-4.7,2.5-7.4,2.5
						c-1.2,0-2.3-0.2-3.3-0.6c-0.9-0.3-1.7-0.8-2.4-1.2c-0.4,0.8-0.8,1.5-1.4,2.3C142.9,242.2,138.9,243.6,136,243.6
						C136,243.6,136,243.6,136,243.6z"/>
				</g>
			</g>
			<g>
				<g>
					<path d="M139.9,214.8c4.3,5.3,10.6,3.7,16.5,7.8c1.5,1,3,2.2,3.6,3.9c0.6,1.6,1.3,4.7-2.4,8c-1.1,0.9-3.4,1.8-5.5,1.8
						c-0.8,0-1.6-0.1-2.3-0.4c-1.9-0.7-3.4-2-4.8-3.4c-0.5,1.9-1.1,3.7-2.3,5.4c-1.4,1.9-4.6,3-6.6,3c-0.3,0-0.5,0-0.7-0.1
						c-4.9-0.8-5.9-3.9-6.2-5.5c-0.3-1.7,0.3-3.5,1-5.2C133,223.5,139,221.6,139.9,214.8 M139.9,209.2c-0.5,0-1,0.1-1.5,0.2
						c-2.2,0.6-3.8,2.5-4.1,4.7c-0.3,1.9-1.3,3.1-3.4,5.4c-1.9,2-4.3,4.6-6,8.3c-1,2.2-2,5.2-1.4,8.5c1,5.4,5,9.1,10.9,10.1
						c0.5,0.1,1.1,0.1,1.7,0.1c3.5,0,8.5-1.6,11.2-5.2c0.1-0.1,0.1-0.2,0.2-0.2c0.1,0,0.2,0.1,0.3,0.1c1.3,0.5,2.8,0.8,4.4,0.8
						c3.4,0,7.1-1.2,9.3-3.1c4.5-3.9,6-9.1,4-14.3c-1.2-3.1-3.6-5.1-5.7-6.5c-3.4-2.3-6.8-3.2-9.5-4c-3-0.8-4.6-1.3-5.8-2.7
						C143.2,209.9,141.6,209.2,139.9,209.2L139.9,209.2z"/>
				</g>
			</g>
		</g>
		<path d="M167.6,59.6c-12.3-4.9-27.4,0.3-33.3,2.8c-3.3-4.5-11.8-20-17.1-62.4h-7.1c6.9,56.5,19.5,68.2,21.1,69.4
			c1.1,0.9,2.6,1,3.8,0.4c0.2-0.1,17.7-8.7,30.1-3.7c5,2,8.4,5.8,10.5,11.7c2.1,5.9,1.8,10.9-0.9,15.5c-8,13.5-33.9,17.6-34.2,17.7
			c-1,0.2-1.9,0.8-2.5,1.6c-0.5,0.9-0.7,2-0.4,2.9c0.1,0.4,13.7,43.7,1.8,62.8c-2.9,4.7-7.1,7.4-12.9,8.2c-4.8,0.7-8.9-0.2-12.5-2.9
			c-8.9-6.6-11.2-21.6-11.3-21.9c-0.3-1.9-2.1-3.3-4-3c-1.9,0.3-3.3,2.1-3,4c0.1,0.7,2.7,18.1,14,26.6c4,3,8.6,4.5,13.7,4.5
			c1.3,0,2.7-0.1,4.1-0.3c7.8-1.2,13.8-5,17.8-11.5c11.5-18.4,3.3-53.3,0-64.9c8.4-1.9,27.6-7.4,35.2-20.3
			c3.8-6.4,4.3-13.6,1.4-21.5C179.4,67.7,174.5,62.3,167.6,59.6z"/>
		<path d="M109,133.2c-6-31-19-35.4-28.8-33.7c-6.6,1.2-11.3,3.8-14.3,8c-3.7,5.3-4.5,12.9-2.5,23.9c0.3,1.9,2.2,3.2,4.1,2.9
			c1.9-0.4,3.2-2.2,2.9-4.1c-1.6-8.9-1.2-14.9,1.4-18.6c1.8-2.6,5-4.3,9.7-5.1c9.8-1.7,16.7,7.7,20.6,28.1c1.9,9.8,1,17.4-2.4,22.1
			c-2.6,3.5-6.7,5.5-12.2,6.1c-6.7,0.7-13.2-7-15.2-10c-0.7-1.1-1.8-1.7-3.1-1.7c-1.2,0-2.4,0.7-3,1.8c0,0.1-3.6,5.6-16,7.5
			c-5.9,0.9-12.6-1-18.2-5.4c-6.6-5.1-10.8-12.6-11.6-20.8c-1.6-15.7,2.8-22.3,6.7-28.1c2.2-3.3,4.3-6.4,4.8-10.5
			c2.9-23.9-28.7-54.6-30-55.9C1.3,39.3,0.7,39,0,38.9V48c7.6,8.1,26.8,30.3,24.9,46.8c-0.3,2.4-1.8,4.6-3.7,7.4
			c-4.1,6.1-9.8,14.5-7.9,32.8c1,10.1,6.3,19.5,14.4,25.7c7.2,5.5,15.8,8,23.7,6.8c9.2-1.5,14.7-4.7,17.7-7.2
			c3.4,3.9,9.7,9.7,17.5,9.7c0.5,0,1.1,0,1.7-0.1c7.6-0.8,13.4-3.8,17.1-8.9C110.1,154.4,111.3,145.1,109,133.2z"/>
	</g>
</g>
</svg>
