<?xml version="1.0" encoding="utf-8"?>
<!-- Generator: Adobe Illustrator 22.0.0, SVG Export Plug-In . SVG Version: 6.00 Build 0)  -->
<svg version="1.1" id="图层_1" xmlns="http://www.w3.org/2000/svg" xmlns:xlink="http://www.w3.org/1999/xlink" x="0px" y="0px"
	 width="210px" height="210px" viewBox="0 0 210 210" style="enable-background:new 0 0 210 210;" xml:space="preserve">
<style type="text/css">
	.st0{clip-path:url(#SVGID_2_);}
	.st1{fill:#FFF4EC;}
	.st2{fill:#FAD558;}
	.st3{fill:#FA9898;}
	.st4{fill:#FFFFFF;}
</style>
<g>
	<defs>
		<rect id="SVGID_1_" width="210" height="210"/>
	</defs>
	<clipPath id="SVGID_2_">
		<use xlink:href="#SVGID_1_"  style="overflow:visible;"/>
	</clipPath>
	<g class="st0">
		<g>
			<g>
				<g>
					<g>
						<g>
							<path class="st1" d="M116.5,121.8c-0.5-0.5-1.1-0.7-1.8-0.7c-0.7,0-1.3,0.3-1.8,0.8l-59.6,59.8c-0.5,0.5-0.8,1.3-0.7,2
								c0.1,0.6,0.3,1.2,0.7,1.6c0.1,0.1,0.2,0.2,0.3,0.3c46.1,32.8,96.1-26.3,96.6-26.9c0.8-1,0.8-2.5-0.1-3.4
								C150,155.2,116.5,121.8,116.5,121.8z"/>
						</g>
					</g>
					<g>
						<g>
							<path d="M55.1,183.4l59.6-59.8l33.5,33.4C148.2,157,99.7,215.2,55.1,183.4 M51.4,187c0.2,0.2,0.4,0.4,0.7,0.6
								c20,14.3,43.9,13.9,68.9-1c18.2-10.9,30.6-25.6,31.1-26.3c1.7-2,1.6-5-0.3-6.8c0,0,0,0,0,0L118.3,120c-1-1-2.3-1.5-3.6-1.5
								c-1.4,0-2.7,0.5-3.6,1.5l-59.6,59.8c-1.1,1.1-1.6,2.5-1.5,4C50.1,185,50.6,186.1,51.4,187L51.4,187z"/>
						</g>
					</g>
				</g>
				<g>
					<g>
						<g>
							<path class="st2" d="M116.2,122.1c-0.4-0.4-0.9-0.6-1.4-0.6c-0.5,0-1.1,0.2-1.4,0.6L53.5,182c-0.4,0.4-0.7,1-0.6,1.7
								c0.1,0.5,0.3,0.9,0.6,1.2c0.1,0.1,0.2,0.2,0.4,0.3c27.8,17.8,80.8-37.2,83.1-39.5c0.8-0.8,0.8-2.1,0-2.8
								C136.9,142.9,116.2,122.1,116.2,122.1z"/>
						</g>
					</g>
					<g>
						<g>
							<path d="M55,183.5l59.7-59.9l20.8,20.7C135.5,144.3,81.7,200.6,55,183.5 M52.1,186.3c0.2,0.2,0.4,0.4,0.7,0.6
								c12.6,8.1,31.1,3.6,54.8-13.3c16.9-12,30.3-25.9,30.8-26.5c1.5-1.6,1.5-4.1,0-5.7c0,0,0,0,0,0l-20.8-20.7
								c-0.8-0.8-1.8-1.2-2.9-1.2c-1.1,0-2.1,0.4-2.9,1.2l-59.7,59.9c-0.9,0.9-1.3,2.1-1.2,3.3C51,184.8,51.4,185.7,52.1,186.3
								L52.1,186.3z"/>
						</g>
					</g>
				</g>
			</g>
			<g>
				<g>
					<g>
						<g>
							<path class="st1" d="M54.9,58.5c-0.9-0.9-2.4-1-3.4-0.2C50.9,58.8-9,107.8,23,154.4c0.1,0.1,0.2,0.2,0.3,0.3
								c0.4,0.4,1,0.7,1.6,0.7c0.7,0.1,1.5-0.2,2-0.7l60.8-58.6c0.5-0.5,0.8-1.1,0.8-1.8c0-0.7-0.2-1.3-0.7-1.8
								C87.8,92.5,54.9,58.5,54.9,58.5z"/>
						</g>
					</g>
					<g>
						<g>
							<path d="M25.1,153C-6,107.8,53.1,60.3,53.1,60.3l32.8,34L25.1,153 M21.5,156.5c0.8,0.8,1.9,1.4,3.1,1.5
								c1.5,0.1,3-0.4,4.1-1.4L89.5,98c1-0.9,1.5-2.2,1.6-3.6c0-1.4-0.5-2.7-1.4-3.6l-32.8-34c0,0,0,0,0,0c-1.8-1.9-4.8-2-6.8-0.4
								C49.3,56.8,34.3,68.9,23.1,87C7.7,111.8,7,135.6,20.9,155.8C21.1,156.1,21.3,156.3,21.5,156.5L21.5,156.5z"/>
						</g>
					</g>
				</g>
				<g>
					<g>
						<g>
							<path class="st2" d="M67,71.8c-0.8-0.8-2-0.8-2.8-0.1c-2.4,2.2-58.2,54.4-40.9,82.4c0.1,0.1,0.2,0.3,0.3,0.4
								c0.3,0.3,0.7,0.5,1.2,0.6c0.6,0.1,1.2-0.1,1.7-0.6l60.9-58.7c0.4-0.4,0.6-0.9,0.6-1.4c0-0.5-0.2-1.1-0.6-1.5
								C87.4,92.9,67,71.8,67,71.8z"/>
						</g>
					</g>
					<g>
						<g>
							<g>
								<path d="M25,153.1c-16.6-27,40.5-79.9,40.5-79.9l20.4,21.1L25,153.1 M22.1,155.9c0.6,0.6,1.5,1.1,2.4,1.2
									c1.2,0.2,2.5-0.3,3.3-1.1l60.9-58.7c0.8-0.8,1.2-1.8,1.2-2.9c0-1.1-0.4-2.1-1.1-2.9L68.5,70.4c0,0,0,0,0,0
									c-1.5-1.6-4.1-1.6-5.7-0.1c-0.6,0.6-14.7,13.7-27,30.4c-17.3,23.5-22.1,41.9-14.2,54.6C21.7,155.5,21.9,155.7,22.1,155.9
									L22.1,155.9z"/>
							</g>
						</g>
					</g>
				</g>
			</g>
		</g>
		<g>
			<path class="st1" d="M210,32.2c-4.2-6-8.9-11.7-14.2-17.1c-5.6-5.6-11.5-10.7-17.6-15H71c-0.2,0.2-0.5,0.4-0.7,0.7
				C35.4,35,36.9,97.9,73.6,135.2s99.5,39.9,134.5,5.5c0.6-0.6,1.3-1.3,1.9-1.9V32.2z"/>
		</g>
		<g>
			<path class="st2" d="M74.7,0c-0.9,0.8-1.8,1.6-2.7,2.5C43,31,39,82.3,64.3,119.8c10.2-4.2,19.9-10.4,28.2-18.7
				C120.2,73.9,126.1,33.1,110.1,0H74.7z"/>
		</g>
		<g>
			<path class="st2" d="M210,101.2c-22.9-11.7-49.8-12.8-73.4-3.2c2,5.6,0.7,12.1-3.8,16.5c-6.2,6.1-16.1,6-22.2-0.1
				c-0.9,0.8-1.7,1.6-2.6,2.4c-8.4,8.2-14.8,17.8-19.2,27.9l0,0c37.1,25.9,88.4,22.7,117.4-5.9c1.3-1.3,2.5-2.6,3.7-3.9V101.2z"/>
		</g>
		<g>
			<g>
				<path d="M210,135c-1.2,1.3-2.4,2.6-3.7,3.9c-32.7,32.2-93.8,32.2-130.9-5.5C38.4,95.7,39.3,34.7,72.1,2.5
					c0.9-0.9,1.8-1.7,2.7-2.5h-7.4C51.2,16.6,42.2,40.5,42.5,66c0.3,26.9,10.7,52.2,29.3,71c18.6,18.9,43.6,29.7,70.6,30.5
					c26.1,0.8,50.7-8.3,67.5-24.9c0,0,0.1-0.1,0.1-0.1V135z"/>
			</g>
		</g>
		<g>
			<g>
				<g>
					<path class="st3" d="M121.6,22.6c5-5,5.1-13,0.1-18.1c-5-5-13-5.1-18.1-0.1s-5.1,13-0.1,18.1C108.5,27.5,116.6,27.6,121.6,22.6
						z"/>
				</g>
			</g>
			<g>
				<g>
					<path class="st3" d="M204.9,107.3c5-5,5.1-13,0.1-18.1c-5-5-13-5.1-18.1-0.1s-5.1,13-0.1,18.1
						C191.8,112.2,199.9,112.2,204.9,107.3z"/>
				</g>
			</g>
		</g>
		<g>
			<g>
				<g>
					<line class="st4" x1="65.5" y1="64.2" x2="97.8" y2="67.9"/>
				</g>
				<g>
					<path d="M100.7,65c-0.6-0.6-1.5-1.1-2.4-1.2L66,60.2c-2.2-0.3-4.3,1.4-4.5,3.6c-0.3,2.2,1.4,4.3,3.6,4.5L97.4,72
						c2.2,0.3,4.3-1.4,4.5-3.6C102,67.1,101.6,65.9,100.7,65z"/>
				</g>
			</g>
			<g>
				<g>
					<line class="st4" x1="144.5" y1="144.5" x2="141.3" y2="112.1"/>
				</g>
				<g>
					<path d="M144.2,109.2c-0.8-0.8-2-1.3-3.3-1.2c-2.2,0.2-3.9,2.2-3.7,4.5l3.2,32.4c0.2,2.2,2.2,3.9,4.5,3.7
						c2.2-0.2,3.9-2.2,3.7-4.5l-3.2-32.4C145.3,110.7,144.8,109.9,144.2,109.2z"/>
				</g>
			</g>
		</g>
		<g>
			<g>
				<g>
					<g>
						<path d="M105.1,49.9c6.5-6.4,9.1-14.2,5.8-17.5c-3.3-3.3-11.2-0.9-17.6,5.5c-6.5,6.4-9.1,14.2-5.8,17.5
							C90.8,58.8,98.7,56.3,105.1,49.9z"/>
					</g>
				</g>
				<g>
					<g>
						<path d="M171.2,117.1c6.5-6.4,9.1-14.2,5.8-17.5c-3.3-3.3-11.2-0.9-17.6,5.5c-6.5,6.4-9.1,14.2-5.8,17.5
							C156.9,125.9,164.8,123.5,171.2,117.1z"/>
					</g>
				</g>
			</g>
			<g>
				<g>
					<g>
						<path d="M155.1,77.8c4.9-4.8,3.8-13.9-2.5-20.3c-6.3-6.4-15.3-7.6-20.2-2.8c-4.9,4.8-3.8,13.9,2.5,20.3
							C141.1,81.3,150.2,82.6,155.1,77.8z"/>
					</g>
				</g>
				<g>
					<g>
						<path d="M165.8,21.6c-2.8-2.9-6.6-4.8-10.8-5.4c-7.8-1.1-15.2,2.4-20.2,9.7c-0.6,0.9-0.4,2.2,0.5,2.8c0.9,0.6,2.2,0.4,2.8-0.5
							c4.2-6,10.1-8.9,16.3-8c5.5,0.8,10,4.5,11.6,9.4c1.9,5.8-0.5,12.3-6.6,18.3l-8.2,8.1c-0.8,0.8-0.8,2.1,0,2.9
							c0.8,0.8,2.1,0.8,2.9,0l8.2-8.1c9.9-9.7,9-18.3,7.6-22.5C169.1,25.8,167.6,23.5,165.8,21.6z"/>
					</g>
				</g>
				<g>
					<g>
						<path d="M188.7,44.9c-1.9-1.9-4.1-3.4-6.7-4.2c-4.2-1.5-12.8-2.4-22.6,7.3l-8.2,8.1c-0.8,0.8-0.8,2.1,0,2.9
							c0.8,0.8,2.1,0.8,2.9,0l8.2-8.1c6.2-6.1,12.7-8.3,18.4-6.3c4.9,1.7,8.5,6.3,9.2,11.8c0.8,6.2-2.2,12.1-8.3,16.2
							c-0.9,0.6-1.2,1.9-0.6,2.8c0.6,0.9,1.9,1.2,2.8,0.6c7.4-5,11.1-12.3,10-20.1C193.4,51.6,191.5,47.8,188.7,44.9z"/>
					</g>
				</g>
			</g>
		</g>
		<g>
			<path class="st1" d="M180.5,31.3C190.2,39.7,201,44.8,210,46V0h-49.2C162,9.7,169.2,21.5,180.5,31.3z"/>
		</g>
	</g>
</g>
</svg>
