<?xml version="1.0" encoding="utf-8"?>
<!-- Generator: Adobe Illustrator 22.0.0, SVG Export Plug-In . SVG Version: 6.00 Build 0)  -->
<svg version="1.1" id="图层_1" xmlns="http://www.w3.org/2000/svg" xmlns:xlink="http://www.w3.org/1999/xlink" x="0px" y="0px"
	 width="200px" height="320px" viewBox="0 0 200 320" style="enable-background:new 0 0 200 320;" xml:space="preserve">
<style type="text/css">
	.st0{clip-path:url(#SVGID_2_);}
	.st1{fill:#FACBCB;}
	.st2{fill:#FA9898;}
	.st3{fill:#FAD558;}
</style>
<g>
	<defs>
		<rect id="SVGID_1_" width="200" height="320"/>
	</defs>
	<clipPath id="SVGID_2_">
		<use xlink:href="#SVGID_1_"  style="overflow:visible;"/>
	</clipPath>
	<g class="st0">
		<g>
			<circle class="st1" cx="101.9" cy="154.4" r="10.4"/>
		</g>
		<g>
			<circle class="st1" cx="45" cy="89" r="10.4"/>
		</g>
		<g>
			<path class="st1" d="M105.6,113.3c-0.2-0.6-0.4-1.1-0.6-1.7c-0.1-0.2-0.2-0.4-0.3-0.6c-1.9-4.2-2.1-8.9-0.9-13.2
				c1.2-7.6,6.4-14.6,13.6-17.4c8.6-3.4,17.7-0.9,23.7,5.3c1.8-4.2,4.9-7.9,8.7-10.4c-0.3-3.4-1.1-6.8-2.4-10.1
				c-7.4-18.4-28.2-27.4-46.7-20s-27.4,28.2-20,46.7C85.1,103,94.6,110.7,105.6,113.3z"/>
		</g>
		<g>
			<path d="M141.8,103.7c-1.5,0-2.9-1-3.4-2.5c-0.2-0.6-4.4-14.1,1.4-23.5c2.7-4.5,7.1-7.2,13.1-8.2c6.5-1.1,12,0.2,16.4,3.9
				c8.9,7.4,9.3,21.9,9.3,22.5c0,2-1.5,3.6-3.5,3.6c-2,0-3.6-1.5-3.6-3.5l0,0c0-0.1-0.4-11.9-6.8-17.2c-2.8-2.3-6.3-3-10.7-2.3
				c-3.9,0.6-6.5,2.2-8.2,4.9c-4.1,6.6-0.7,17.5-0.7,17.6c0.6,1.9-0.4,3.9-2.3,4.4C142.5,103.7,142.1,103.7,141.8,103.7z"/>
		</g>
		<g>
			<path class="st1" d="M109.8,186.3l2.6-5.3c0.8-1.6-0.5-3.4-2.3-3.1l-6.9,1.2c-1.7,0.3-2.4,2.4-1.1,3.6l4.3,4.1
				C107.4,187.9,109.1,187.6,109.8,186.3z"/>
		</g>
		<g>
			<path class="st1" d="M9.7,91.9l3.8,2.7c1.4,1,3.4,0,3.4-1.8l-0.1-5.4c0-1.8-2-2.7-3.4-1.7l-3.7,2.8C8.5,89.3,8.5,91.1,9.7,91.9z"
				/>
		</g>
		<g>
			<path class="st1" d="M120.2,92.2l-1.5,2.1c-1,1.4,0,3.4,1.8,3.4l3,0c1.8,0,2.7-2,1.7-3.4l-1.5-2C122.8,91,121.1,91,120.2,92.2z"
				/>
		</g>
		<g>
			<path class="st1" d="M154.8,85l-1.5,2.1c-1,1.4,0,3.4,1.8,3.4l3,0c1.8,0,2.7-2,1.7-3.4l-1.5-2C157.4,83.8,155.6,83.8,154.8,85z"
				/>
		</g>
		<g>
			<g>
				<path class="st2" d="M98.2,233.2c-1.1,0-2.1-0.1-3-0.4c-4.5-1.6-7-4.8-7.1-9.1c0-2.5,1.2-4.7,2.4-6.5c2-3,4.5-4.9,6.7-6.5
					c2.5-1.9,4.5-3.3,5.4-6.1c0.3-1.1,1.3-1.9,2.4-2c0.1,0,0.2,0,0.3,0c1,0,2,0.5,2.5,1.4c1.4,2.5,3.7,3.6,6.5,4.9
					c2.5,1.1,5.3,2.4,7.8,5c1.5,1.5,3.2,3.4,3.7,5.9c0.8,4.2-1,7.9-5,10.4c-1.4,0.8-3.5,1.3-5.6,1.3c-1.4,0-3.5-0.2-5.3-1.3
					c-0.8-0.5-1.5-1-2.1-1.6c-0.5,0.7-1.1,1.4-1.7,2C103.8,232.5,100.5,233.2,98.2,233.2z"/>
			</g>
			<g>
				<path d="M105.3,205.3c3.3,5.9,9.7,5.5,14.8,10.5c1.3,1.3,2.5,2.7,2.9,4.4c0.3,1.6,0.5,4.9-3.7,7.5c-0.9,0.5-2.5,0.9-4.1,0.9
					c-1.4,0-2.8-0.3-3.8-0.9c-1.7-1.1-3-2.5-4.1-4.1c-0.8,1.8-1.7,3.5-3.2,4.9c-1.4,1.3-3.8,1.9-5.7,1.9c-0.8,0-1.5-0.1-2-0.3
					c-4.7-1.7-5.2-4.9-5.2-6.5c0-1.7,0.9-3.4,1.9-4.9C96.8,212.7,103.2,211.8,105.3,205.3 M105.3,199.7c-0.2,0-0.4,0-0.6,0
					c-2.2,0.2-4.1,1.8-4.8,3.9c-0.6,1.8-1.8,2.8-4.3,4.7c-2.3,1.7-5.1,3.8-7.4,7.2c-1.3,2-2.9,4.8-2.8,8.1c0.1,5.5,3.4,9.8,9,11.8
					c1.1,0.4,2.4,0.6,3.9,0.6c1.4,0,6.2-0.2,9.6-3.5c0.1-0.1,0.1-0.1,0.2-0.2c0.1,0.1,0.2,0.1,0.3,0.2c2.3,1.4,5,1.7,6.8,1.7
					c2.7,0,5.2-0.6,7.1-1.8c5.1-3.1,7.4-8,6.4-13.4c-0.6-3.3-2.7-5.7-4.5-7.4c-2.9-2.9-6.1-4.3-8.6-5.5c-2.8-1.3-4.2-2-5.2-3.7
					C109.2,200.8,107.3,199.7,105.3,199.7L105.3,199.7z"/>
			</g>
		</g>
		<g>
			<g>
				<path class="st2" d="M71.9,315.6c-0.8,0-1.5-0.1-2.1-0.3c-3-1.1-4.8-3.3-4.8-6.3c0-1.8,0.8-3.3,1.5-4.4c1.2-1.9,2.8-3,4-4
					c1.4-1.1,2.2-1.7,2.5-2.8c0.3-1.1,1.3-1.9,2.4-2c0.1,0,0.2,0,0.3,0c1,0,2,0.5,2.5,1.4c0.6,1,1.4,1.5,3.1,2.2
					c1.4,0.6,3.1,1.5,4.7,3c0.9,0.9,2.1,2.2,2.4,3.9c0.6,2.9-0.7,5.5-3.4,7.1c-1,0.6-2.3,0.9-3.8,0.9c-1,0-2.4-0.2-3.6-0.9
					c-0.1-0.1-0.2-0.2-0.4-0.2c-0.1,0.1-0.2,0.2-0.3,0.3C75.3,315.4,72.7,315.6,71.9,315.6z"/>
			</g>
			<g>
				<path d="M75.9,298.7c1.9,3.3,5.4,3.1,8.3,5.9c0.7,0.7,1.4,1.5,1.6,2.5c0.2,0.9,0.3,2.7-2.1,4.2c-0.5,0.3-1.4,0.5-2.3,0.5
					c-0.8,0-1.5-0.1-2.1-0.5c-1-0.6-1.7-1.4-2.3-2.3c-0.4,1-1,2-1.8,2.7c-0.8,0.7-2.1,1.1-3.2,1.1c-0.4,0-0.8-0.1-1.1-0.2
					c-2.6-0.9-2.9-2.7-2.9-3.6c0-1,0.5-1.9,1.1-2.7C71.2,302.9,74.7,302.4,75.9,298.7 M75.9,293.1c-0.2,0-0.4,0-0.6,0
					c-2.2,0.2-4.1,1.8-4.8,3.9c-0.1,0.3-0.6,0.7-1.5,1.4c-1.4,1-3.2,2.4-4.7,4.7c-0.9,1.3-2,3.4-2,6c0.1,4.1,2.6,7.5,6.7,8.9
					c0.9,0.3,1.9,0.5,3,0.5c1.1,0,3.6-0.2,5.8-1.6c1.1,0.4,2.3,0.6,3.6,0.6c1.1,0,3.3-0.2,5.2-1.3c3.7-2.3,5.5-6.1,4.7-10.1
					c-0.5-2.5-2.1-4.3-3.2-5.4c-1.9-1.9-4-2.9-5.5-3.6c-1.2-0.6-1.6-0.8-1.8-1C79.8,294.1,77.9,293.1,75.9,293.1L75.9,293.1z"/>
			</g>
		</g>
		<g>
			<g>
				<path class="st2" d="M66.7,274.2c-4,0-10.1-3-12.4-7.3c-0.9-1.6-1.4-3.3-1.8-4.8c-1.4,0.8-3,1.4-4.8,1.9
					c-0.8,0.2-1.6,0.3-2.5,0.3c-4.5,0-9.3-2.4-11.3-4.8c-4.2-4.9-5-10.2-2.1-15.3c1.6-2.9,4.6-4.7,7.2-6c4.5-2.2,8.9-2.8,12.8-3.2
					c4.6-0.5,8.5-1,12-4.1c0.5-0.5,1.2-0.7,1.9-0.7c0.4,0,0.8,0.1,1.2,0.2c1,0.5,1.7,1.5,1.7,2.6c0,4.7,2.1,7.8,4.8,11.6
					c2.2,3.2,4.7,6.7,6.1,11.6c0.8,2.8,1.4,6.2,0.4,9.4c-1.9,5.5-6.3,8.5-12.8,8.6L66.7,274.2z"/>
			</g>
			<g>
				<path d="M65.5,232.9L65.5,232.9 M65.5,232.9c-0.1,9.9,8.2,14,11,24c0.7,2.6,1.2,5.3,0.4,7.7c-0.8,2.3-2.9,6.5-10.2,6.7
					c0,0-0.1,0-0.1,0c-2.9,0-8.1-2.3-9.9-5.8c-1.4-2.6-1.9-5.4-2.2-8.2c-2.3,1.7-4.7,3.2-7.6,3.8c-0.6,0.1-1.2,0.2-1.8,0.2
					c-3.6,0-7.6-2-9.2-3.8c-4.7-5.5-3-9.9-1.8-12c1.2-2.2,3.6-3.6,6-4.8C49.5,236.1,58.2,239.6,65.5,232.9 M65.5,227.3
					c-0.1,0-0.1,0-0.2,0c-1.4,0-2.7,0.6-3.6,1.5c-2.6,2.4-5.5,2.8-10.4,3.4c-4.1,0.5-8.8,1-13.7,3.5c-3,1.5-6.4,3.5-8.4,7.1
					c-3.4,6.1-2.5,12.7,2.5,18.5c2.8,3.3,8.6,5.8,13.5,5.8c1.1,0,2.1-0.1,3.1-0.4c0.8-0.2,1.7-0.4,2.4-0.7c0.3,0.8,0.7,1.5,1.1,2.3
					c2.9,5.4,10,8.7,14.9,8.7l0.2,0c7.7-0.2,13.2-3.9,15.4-10.5c1.3-3.9,0.6-7.8-0.3-11c-1.5-5.3-4.1-9.1-6.5-12.5
					c-2.7-3.9-4.3-6.3-4.3-9.9c0-0.1,0-0.1,0-0.2c0-3.1-2.5-5.6-5.6-5.7C65.6,227.3,65.6,227.3,65.5,227.3L65.5,227.3z M65.5,238.6
					L65.5,238.6L65.5,238.6L65.5,238.6z"/>
			</g>
		</g>
		<path class="st3" d="M50.9,0c1.1,4.2,2,7.9,2.4,10c4.7,22.2,5.2,39.4,5.2,39.4s29.3,3.3,45.1-36.3c1.7-4.4,3.1-8.8,4.2-13.2H50.9z
			"/>
		<path d="M173.7,56.7c-2.8-1.9-5-3.4-6.1-5.5c-7.6-13.9,0.8-39.9,5.1-51.2h-7.6c-4.8,13.3-12.3,39.1-3.8,54.6c2,3.7,5.1,5.8,8.4,8
			c5.8,3.9,12.3,8.4,16.7,23.5c2.3,7.9,1.1,16.5-3.1,23.6c-3.6,6.1-9.1,10.4-14.9,11.8c-12.3,2.8-17.6-1-17.6-1
			c-1-0.8-2.3-1-3.5-0.6c-1.2,0.4-2,1.4-2.3,2.7c0,0.1-2.6,12.7-10.4,14.9c-5.4,1.5-9.9,1.1-13.6-1.1c-5-3.1-8.6-9.9-10.5-19.7
			c-3.9-20.3-1-31.7,8.7-33.7c4.7-1,8.2-0.6,10.9,1.2c3.7,2.4,6.4,7.9,8.1,16.7c0.4,1.9,2.3,3.2,4.2,2.8c1.9-0.4,3.2-2.3,2.8-4.2
			c-2.2-10.9-5.8-17.7-11.2-21.2c-4.3-2.8-9.6-3.6-16.2-2.2c-9.8,2-20.2,11-14.2,42c2.3,12,6.9,20.1,13.7,24.3
			c3.3,2.1,7.1,3.1,11.2,3.1c2.5,0,5.2-0.4,8-1.2c8.3-2.3,12.4-10.7,14.2-16c3.8,1.3,10,2.2,19.2,0.2c7.8-1.8,14.9-7.3,19.5-15.1
			c5.2-8.8,6.6-19.4,3.8-29.2C188.2,66.5,179.8,60.8,173.7,56.7z"/>
		<path d="M122.6,138.2c-1.9,0.5-3.1,2.4-2.6,4.3c0,0.1,3.5,15-2.3,24.5c-2.3,3.8-5.8,6.2-10.5,7.3c-5.6,1.3-10.5,0.4-15-2.9
			c-18.1-13.3-21.6-58.6-21.6-59c-0.1-1-0.6-2-1.4-2.6s-1.9-0.8-2.9-0.6c-0.3,0.1-25.9,5.8-38.3-3.7c-4.2-3.2-6.3-7.8-6.5-14
			c-0.2-6.3,1.6-11.1,5.4-14.8c9.7-9.3,29.1-7.8,29.3-7.8c1.4,0.1,2.7-0.6,3.4-1.8c0.9-1.7,7.9-16.3-4.8-67.1h-7.3
			c10.1,39.5,7.9,56.4,6.6,61.7c-6.4-0.1-22.3,0.6-32,9.8c-5.3,5.1-7.9,11.9-7.6,20.2c0.3,8.4,3.4,14.9,9.3,19.4
			c11.9,9.1,31.8,7.1,40.2,5.7c1.3,12,6.6,47.4,24.1,60.3c4.4,3.2,9.2,4.9,14.4,4.9c2.1,0,4.2-0.3,6.4-0.8c6.6-1.6,11.6-5.1,15-10.5
			c7.4-12.1,3.3-29.2,3.2-29.9C126.4,138.9,124.5,137.7,122.6,138.2z"/>
	</g>
</g>
</svg>
