<?xml version="1.0" encoding="utf-8"?>
<!-- Generator: Adobe Illustrator 22.0.0, SVG Export Plug-In . SVG Version: 6.00 Build 0)  -->
<svg version="1.1" id="图层_1" xmlns="http://www.w3.org/2000/svg" xmlns:xlink="http://www.w3.org/1999/xlink" x="0px" y="0px"
	 width="210px" height="290px" viewBox="0 0 210 290" style="enable-background:new 0 0 210 290;" xml:space="preserve">
<style type="text/css">
	.st0{clip-path:url(#SVGID_2_);}
	.st1{fill:#FACBCB;}
	.st2{fill:#FA9898;}
	.st3{fill:#FAD558;}
</style>
<g>
	<defs>
		<rect id="SVGID_1_" width="210" height="290"/>
	</defs>
	<clipPath id="SVGID_2_">
		<use xlink:href="#SVGID_1_"  style="overflow:visible;"/>
	</clipPath>
	<g class="st0">
		<g>
			<g>
				<circle class="st1" cx="86.6" cy="166.6" r="10.4"/>
			</g>
		</g>
		<g>
			<g>
				<circle class="st1" cx="58" cy="84.8" r="10.4"/>
			</g>
		</g>
		<g>
			<g>
				<path class="st1" d="M105.2,129.8c0-0.6,0-1.2,0-1.8c0-0.2,0-0.4,0-0.7c-0.2-4.7,1.4-9,4.1-12.6c3.9-6.6,11.4-11.2,19.1-11.2
					c9.3,0,16.7,5.7,20,13.7c3.2-3.3,7.5-5.6,12-6.4c1-3.3,1.5-6.7,1.5-10.3c0-19.8-16.1-35.9-35.9-35.9s-35.9,16.1-35.9,35.9
					C90.1,112.6,96,123.3,105.2,129.8z"/>
			</g>
		</g>
		<g>
			<g>
				<path d="M176.1,143.1c-0.4,0-0.8-0.1-1.2-0.2c-1.8-0.7-2.8-2.7-2.1-4.6c0.1-0.2,4.1-11.2,0.1-18.5c-1.7-3.2-4.7-5.2-9.1-6.1
					c-3.8-0.8-6.9-0.4-9.4,1.5c-6.2,4.6-7.1,16-7.2,16.1c-0.1,1.9-1.8,3.4-3.8,3.3c-1.9-0.1-3.4-1.8-3.3-3.8c0-0.6,1.1-14.7,10-21.3
					c4.2-3.1,9.3-4.1,15.2-2.8c6.4,1.4,11.1,4.7,13.8,9.7c5.5,10.2,0.5,23.8,0.3,24.3C178.9,142.2,177.6,143.1,176.1,143.1z"/>
			</g>
		</g>
		<g>
			<g>
				<path class="st1" d="M82,199.1l4.4-4c1.3-1.2,0.7-3.3-1-3.7l-6.9-1.5c-1.7-0.4-3.1,1.4-2.4,3l2.4,5.4
					C79.2,199.7,80.9,200.1,82,199.1z"/>
			</g>
		</g>
		<g>
			<g>
				<path class="st1" d="M24.1,74.3l2.5,3.9c1,1.5,3.2,1.2,3.8-0.4l1.9-5.1c0.6-1.6-0.9-3.3-2.6-2.8l-4.5,1.2
					C24,71.5,23.3,73.1,24.1,74.3z"/>
			</g>
		</g>
		<g>
			<g>
				<path class="st1" d="M126.7,115.6l-2.1,1.4c-1.5,1-1.2,3.2,0.4,3.8l2.8,1.1c1.6,0.6,3.3-0.9,2.8-2.6l-0.7-2.5
					C129.5,115.5,127.9,114.8,126.7,115.6z"/>
			</g>
		</g>
		<g>
			<g>
				<path class="st1" d="M161.4,121.8l-2.1,1.4c-1.5,1-1.2,3.2,0.4,3.8l2.8,1.1c1.6,0.6,3.3-0.9,2.8-2.6l-0.7-2.5
					C164.2,121.6,162.6,121,161.4,121.8z"/>
			</g>
		</g>
		<g>
			<g>
				<g>
					<circle class="st2" cx="56" cy="265" r="15.8"/>
				</g>
			</g>
			<g>
				<g>
					<g>
						<path d="M56,252c7.2,0,13,5.8,13,13s-5.8,13-13,13s-13-5.8-13-13S48.8,252,56,252 M56,246.3c-10.3,0-18.7,8.4-18.7,18.7
							s8.4,18.7,18.7,18.7s18.7-8.4,18.7-18.7S66.3,246.3,56,246.3L56,246.3z"/>
					</g>
				</g>
			</g>
		</g>
		<g>
			<path class="st3" d="M97.1,0c-0.8,6.1-1.5,11.7-2,14.5c-3.9,22.4-9.8,38.5-9.8,38.5s26,13.9,55.3-16.9C151.2,25,158.5,12,163.5,0
				H97.1z"/>
		</g>
		<g>
			<path d="M111.8,159.2c-1.9-0.3-3.7,1.1-4,3c0,0.2-2.2,15.2-11.2,21.9c-3.6,2.7-7.7,3.6-12.5,2.9c-5.7-0.9-9.9-3.5-12.9-8.2
				c-11.9-19.1,1.7-62.4,1.8-62.8c0.3-1,0.2-2.1-0.4-2.9c-0.5-0.9-1.4-1.5-2.5-1.6c-0.3,0-26.1-4.2-34.2-17.6
				c-2.7-4.5-3-9.6-0.9-15.5c2.1-5.9,5.6-9.7,10.5-11.7c12.4-5,29.9,3.6,30.1,3.7c1.2,0.6,2.7,0.5,3.8-0.4
				c1.6-1.2,14.3-13,21.1-69.8h-7.1c-5.3,42.7-13.9,58.2-17.1,62.7c-5.9-2.5-21-7.7-33.3-2.8c-6.9,2.7-11.8,8.1-14.6,15.9
				c-2.8,7.9-2.4,15.1,1.4,21.5c7.7,12.9,26.9,18.4,35.2,20.3c-3.2,11.6-11.4,46.5,0,64.9c4,6.5,10,10.4,17.8,11.5
				c1.4,0.2,2.8,0.3,4.1,0.3c5.1,0,9.7-1.5,13.7-4.5c11.3-8.5,13.9-25.8,14-26.6C115.1,161.3,113.7,159.5,111.8,159.2z"/>
		</g>
		<g>
			<path d="M185.8,95.1c-1.9-16,16.2-37.4,24.2-46.1v-9.7c-0.4,0.2-0.8,0.4-1.2,0.8c-1.3,1.3-32.9,31.9-30,55.9
				c0.5,4.1,2.6,7.2,4.8,10.5c3.9,5.8,8.4,12.3,6.7,28.1c-0.8,8.2-5.1,15.8-11.6,20.8c-5.7,4.4-12.3,6.3-18.2,5.4
				c-12.4-2-16-7.5-16-7.5c-0.6-1.1-1.7-1.8-3-1.8c-1.2,0-2.4,0.6-3.1,1.6c-1.9,3-8.4,10.7-15.2,10c-5.5-0.6-9.6-2.6-12.2-6.1
				c-3.5-4.7-4.3-12.4-2.4-22.1c3.9-20.3,10.9-29.8,20.6-28.1c4.7,0.8,7.8,2.5,9.7,5.1c2.5,3.6,3,9.7,1.4,18.6
				c-0.3,1.9,0.9,3.8,2.9,4.1c1.9,0.3,3.8-0.9,4.1-2.9c2-11,1.2-18.5-2.5-23.9c-3-4.2-7.6-6.9-14.3-8c-9.8-1.7-22.8,2.7-28.8,33.7
				c-2.3,12-1.1,21.3,3.7,27.7c3.8,5.1,9.6,8.1,17.1,8.9c0.6,0.1,1.1,0.1,1.7,0.1c7.8,0,14.1-5.7,17.5-9.7c3,2.6,8.5,5.8,17.7,7.2
				c7.9,1.2,16.5-1.2,23.7-6.8c8.1-6.2,13.3-15.6,14.4-25.7c1.9-18.3-3.8-26.6-7.9-32.8C187.6,99.8,186.1,97.6,185.8,95.1z"/>
		</g>
	</g>
</g>
</svg>
