<?xml version="1.0" encoding="utf-8"?>
<!-- Generator: Adobe Illustrator 22.0.0, SVG Export Plug-In . SVG Version: 6.00 Build 0)  -->
<svg version="1.1" id="图层_1" xmlns="http://www.w3.org/2000/svg" xmlns:xlink="http://www.w3.org/1999/xlink" x="0px" y="0px"
	 width="80px" height="80px" viewBox="0 0 80 80" style="enable-background:new 0 0 80 80;" xml:space="preserve">
<style type="text/css">
	.st0{clip-path:url(#SVGID_2_);}
	.st1{fill:#FA9898;}
	.st2{fill:#2C2C2C;}
</style>
<g>
	<defs>
		<rect id="SVGID_1_" width="80" height="80"/>
	</defs>
	<clipPath id="SVGID_2_">
		<use xlink:href="#SVGID_1_"  style="overflow:visible;"/>
	</clipPath>
	<g class="st0">
		<g>
			<g>
				<path d="M68,52.9c-3.2-6.4-7-18.3-5.5-22.9c1.5-4,0.6-8.1-2.3-11.1c-2.6-2.7-6.3-3.9-9.2-3.1l-0.2,0.1c-0.5,0.2-1,0.4-1.5,0.7
					c-0.4-1-0.9-1.9-1.5-2.8c-2.6-3.7-6.4-5.3-10.8-4.7l-0.2,0c-4.8,0.8-7.8,3.3-8.8,7.5c-4.3-2.8-8.9-2.4-13.3,1.2l-0.2,0.1
					c-4.8,4.1-5.8,9.1-3,13.9c-2.8,0.8-5.2,2.7-6.9,5.8c0,0.1-0.1,0.1-0.1,0.2C2.4,43,3.3,47.2,7.2,50.4l0.6,0.5L7.9,51l1,0.7
					l6.8,3.3c1.4,0.6,2.9,2,4.6,4.1l0.6,0.8l3.6,5.7l4.5,8.9c0.4,0.8,1.2,1.3,2.1,1.3c0.4,0,0.7-0.1,1.1-0.3c0.6-0.3,1-0.8,1.2-1.4
					c0.2-0.6,0.1-1.2-0.1-1.8l-3.6-7.1l-3.2-5.6L23.6,56c-0.8-1-1.5-1.8-2.3-2.5l-0.3-0.3c-1.2-1.1-2.4-2-3.7-2.5l-2.2-1l-3.1-1.6
					l-2-1.4c-2.1-1.8-2.4-3.8-1.1-6.9l0-0.1c1.7-2.9,4-4,7-3.6c1,0.2,2-0.3,2.4-1.2c0.5-0.9,0.3-2-0.4-2.7c-2.2-2.3-3.2-4.2-3.1-6.1
					c0.1-1.6,1.1-3.2,3-4.9c3.8-3,7-2.5,10.7,1.8c0.7,0.8,1.8,1,2.7,0.6c0.9-0.4,1.5-1.4,1.4-2.4c-0.6-4.8,1-7.1,5.2-7.7
					c2.6-0.4,4.7,0.5,6.3,2.8c1.1,1.6,1.8,3.8,1.8,4.7l0,0.2l0.1,0.6l0.7,1.2l0.8,0.5l0.9,0.1l0.6-0.1l0.4-0.2l0.8-0.7l0.3-0.6
					c0.1-0.2,0.2-0.3,0.3-0.5c0.5-0.7,1-1.1,1.7-1.3c1.1-0.3,3,0.2,4.5,1.8c1.7,1.8,2.1,4,1.2,6.4C56.1,34.7,60.3,48,63.9,55
					c0.3,0.6,0.8,1,1.4,1.2c0.6,0.2,1.2,0.1,1.8-0.1c0.6-0.3,1-0.8,1.2-1.4C68.4,54.1,68.3,53.5,68,52.9z M8.5,50.1L8.5,50.1
					L8.5,50.1L8.5,50.1z"/>
			</g>
		</g>
		<g>
			<g>
				<g>
					<path class="st1" d="M34.6,33.8c2.6-0.9,5.1-0.8,7.5,0c3.5,1.1,6.2,3.2,7.9,6.2c0.6,1,0.9,2.2,0.7,3.4c-0.3,1.8-1.5,3.1-3.2,4
						c-1.5,0.8-3.1,1.1-4.7,0.7c-0.4-0.1-0.9-0.2-1.4-0.2c-1-0.1-1.9,0.2-2.6,1c-0.4,0.4-0.7,0.7-1,1.2c-0.9,1.4-2.3,2.1-3.9,2.5
						c-2.2,0.5-4.1,0.3-5.4-1.3c-0.6-0.6-1-1.5-1.2-2.3c-1.1-4.7,0.2-9.1,4.1-13C32.1,35,33.3,34.2,34.6,33.8L34.6,33.8z"/>
				</g>
			</g>
			<g>
				<g>
					<path class="st1" d="M48.1,26.6c0.7-1.2,1.9-1.9,3.2-1.9c1.3,0,2.6,0.7,3.2,1.9c0.7,1.2,0.6,2.6-0.1,3.8
						c-1.1,1.7-3.3,2.3-5,1.2C47.7,30.6,47.1,28.4,48.1,26.6L48.1,26.6z"/>
				</g>
			</g>
			<g>
				<g>
					<path class="st1" d="M15.9,38.6c1.5-0.9,3.4-0.8,4.9,0c1.5,0.9,2.4,2.5,2.4,4.3c0,1.8-1,3.4-2.5,4.2c-2.4,1.3-5.4,0.5-6.7-1.9
						C12.7,42.9,13.5,39.9,15.9,38.6L15.9,38.6z"/>
				</g>
			</g>
			<g>
				<g>
					<path class="st1" d="M33.5,24.1c-0.3-1.7,0.2-3.5,1.6-4.7c1.3-1.2,3.2-1.5,4.8-1c1.7,0.6,2.9,2,3.3,3.7
						c0.5,2.7-1.2,5.3-3.9,5.8C36.6,28.5,34,26.7,33.5,24.1L33.5,24.1z"/>
				</g>
			</g>
			<g>
				<g>
					<path class="st1" d="M19.4,29.2c-0.5-2.7,1.2-5.3,3.9-5.8c2.7-0.5,5.3,1.2,5.8,3.9c0.5,2.7-1.2,5.3-3.9,5.8
						C22.5,33.6,19.9,31.9,19.4,29.2L19.4,29.2z"/>
				</g>
			</g>
		</g>
		<g>
			<g>
				<path class="st2" d="M19,29"/>
			</g>
		</g>
		<g>
			<g>
				<path d="M14.7,70.4c-4.3,0-7.6-1.2-9.2-4c-1.5-2.7-1.9-7.5,5.2-15.5l4.2,3.8c-4.6,5.2-5,8.1-4.5,8.9c1.5,2.6,15.1,1.6,34.7-9.7
					c19.5-11.3,27.2-22.6,25.7-25.2c-0.4-0.7-2.5-1.7-7.9-0.9l-0.8-5.6c8.8-1.3,12.3,1.2,13.7,3.6c4.8,8.3-10.3,22.9-27.8,33
					C36.2,65.6,23.3,70.4,14.7,70.4z"/>
			</g>
		</g>
		<g>
			<g>
				<circle cx="68.5" cy="11.6" r="3"/>
			</g>
		</g>
		<g>
			<g>
				<circle cx="70.5" cy="64.6" r="3"/>
			</g>
		</g>
		<g>
			<g>
				<circle cx="51.5" cy="8.6" r="2"/>
			</g>
		</g>
		<g>
			<g>
				<circle cx="57.5" cy="72.6" r="2"/>
			</g>
		</g>
	</g>
</g>
</svg>
